G04 ================== begin FILE IDENTIFICATION RECORD ==================*
G04 Layout Name:  d:/Project/Circuit/KVP/03v3/pcb/kvp_03v3.brd*
G04 Film Name:    BOTTOM*
G04 File Format:  Gerber RS274X*
G04 File Origin:  Cadence Allegro 16.6-S027*
G04 Origin Date:  Mon May 05 09:39:23 2014*
G04 *
G04 Layer:  ETCH/BOTTOM*
G04 Layer:  PIN/BOTTOM*
G04 Layer:  VIA CLASS/BOTTOM*
G04 *
G04 Offset:    (0.000 0.000)*
G04 Mirror:    No*
G04 Mode:      Positive*
G04 Rotation:  0*
G04 FullContactRelief:  No*
G04 UndefLineWidth:     0.250*
G04 ================== end FILE IDENTIFICATION RECORD ====================*
%FSLAX34Y34*MOMM*%
%IR0*IPPOS*OFA0.00000B0.00000*MIA0B0*SFA1.00000B1.00000*%
%ADD11C,1.*%
%ADD14C,3.1*%
%ADD10C,4.*%
%ADD21C,2.5*%
%ADD15C,1.6*%
%ADD13C,1.55*%
%ADD18C,1.95*%
%ADD12R,1.55X1.55*%
%ADD16R,1.95X1.95*%
%ADD17R,1.1X2.7*%
%ADD20R,2.7X1.1*%
%ADD22R,2.5X2.5*%
%ADD23C,.2*%
%ADD19R,1.8X1.25*%
%ADD24C,.5*%
%ADD25C,.25*%
%ADD26C,.35*%
%ADD27C,.45*%
%ADD29C,2.008*%
%ADD31C,3.404*%
%ADD28C,2.254*%
%ADD30C,2.058*%
%ADD32C,3.158*%
G75*
%LPD*%
G75*
G36*
G01X151050Y-1136650D02*
G02X146050Y-1131650I0J5000D01*
G01Y-903770D01*
G03X144590Y-900240I-5000J-1D01*
G01X45910Y-801560D01*
G02X44450Y-798030I3540J3531D01*
G01Y82550D01*
G03X38100Y88900I-6350J0D01*
G01X7850D01*
G02X6900Y89590I0J999D01*
G01X6210Y91700D01*
X6400Y92320D01*
X6670Y92510D01*
G03X-6670I-6670J9090D01*
G01X-6400Y92320D01*
X-6210Y91700D01*
X-6900Y89590D01*
G02X-7850Y88900I-950J309D01*
G01X-42950D01*
G02X-43900Y89590I0J999D01*
G01X-44590Y91700D01*
X-44400Y92320D01*
X-44130Y92510D01*
G03X-57470I-6670J9090D01*
G01X-57200Y92320D01*
X-57010Y91700D01*
X-57700Y89590D01*
G02X-58650Y88900I-950J309D01*
G01X-69850D01*
G02X-76200Y95250I0J6350D01*
G01Y337900D01*
G02X-71200Y342900I5000J0D01*
G01X-58650D01*
G02X-57700Y342210I0J-999D01*
G01X-57010Y340100D01*
X-57200Y339480D01*
X-57470Y339290D01*
G03X-45840Y320080I6661J-9093D01*
G02X-45400Y320180I436J-900D01*
G01X-5400D01*
G02X-4960Y320080I4J-1000D01*
G03X4960I4960J10120D01*
G02X5400Y320180I436J-900D01*
G01X52590D01*
G02X53290Y319890I-4J-1000D01*
G01X123040Y250140D01*
G02X123330Y249440I-710J-704D01*
G01Y-264070D01*
G03X128120Y-275650I16372J-8D01*
G01X256390Y-403910D01*
G02X256680Y-404610I-710J-704D01*
G01Y-1102210D01*
G03X270330Y-1111550I10020J0D01*
G01X270570Y-1111460D01*
X271040Y-1111510D01*
X272610Y-1112590D01*
G02X273050Y-1113410I-559J-828D01*
G01Y-1131650D01*
G02X268050Y-1136650I-5000J0D01*
G01X151050D01*
G37*
G36*
G01X270840Y-228600D02*
G02X263770Y-225670I2J10000D01*
G01X218830Y-180730D01*
G02X215900Y-173660I7070J7072D01*
G01Y421310D01*
G03X212970Y428380I-10000J-2D01*
G01X206130Y435220D01*
G03X199060Y438150I-7072J-7070D01*
G01X9950D01*
G02X8960Y438640I2J1249D01*
G03X-8960I-8960J-6840D01*
G02X-9950Y438150I-992J759D01*
G01X-40850D01*
G02X-41840Y438640I2J1249D01*
G03X-58140Y440360I-8962J-6838D01*
G02X-59730Y440330I-813J946D01*
G02X-63500Y448150I6225J7820D01*
G01Y452140D01*
G02X-62250Y453390I1250J0D01*
G01X-61880D01*
X-61260Y452980D01*
X-61110Y452640D01*
G03X-59150Y464770I10309J4558D01*
G01X-59420Y464480D01*
X-60150Y464300D01*
X-62700Y465280D01*
G02X-63500Y466450I451J1167D01*
G01Y470080D01*
G02X-62250Y471330I1250J0D01*
G01X-40780D01*
G03X-39530Y472580I0J1250D01*
G01Y492620D01*
G03X-40780Y493870I-1250J0D01*
G01X-62250D01*
G02X-63500Y495120I0J1250D01*
G01Y498750D01*
G02X-62700Y499920I1251J3D01*
G01X-60150Y500900D01*
X-59420Y500720D01*
X-59150Y500430D01*
G03Y515570I8350J7570D01*
G01X-59420Y515280D01*
X-60150Y515100D01*
X-62700Y516080D01*
G02X-63500Y517250I451J1167D01*
G01Y524150D01*
G02X-62700Y525320I1251J3D01*
G01X-60150Y526300D01*
X-59420Y526120D01*
X-59150Y525830D01*
G03Y540970I8350J7570D01*
G01X-59420Y540680D01*
X-60150Y540500D01*
X-62700Y541480D01*
G02X-63500Y542650I451J1167D01*
G01Y549550D01*
G02X-62700Y550720I1251J3D01*
G01X-60150Y551700D01*
X-59420Y551520D01*
X-59150Y551230D01*
G03Y566370I8350J7570D01*
G01X-59420Y566080D01*
X-60150Y565900D01*
X-62700Y566880D01*
G02X-63500Y568050I451J1167D01*
G01Y574950D01*
G02X-62700Y576120I1251J3D01*
G01X-60150Y577100D01*
X-59420Y576920D01*
X-59150Y576630D01*
G03Y591770I8350J7570D01*
G01X-59420Y591480D01*
X-60150Y591300D01*
X-62700Y592280D01*
G02X-63500Y593450I451J1167D01*
G01Y600350D01*
G02X-62700Y601520I1251J3D01*
G01X-60150Y602500D01*
X-59420Y602320D01*
X-59150Y602030D01*
G03Y617170I8350J7570D01*
G01X-59420Y616880D01*
X-60150Y616700D01*
X-62700Y617680D01*
G02X-63500Y618850I451J1167D01*
G01Y637700D01*
G02X-53500Y647700I10000J0D01*
G01X447200D01*
G02X457200Y637700I0J-10000D01*
G01Y308450D01*
G02X447200Y298450I-10000J0D01*
G01X302100D01*
G03X292100Y288450I0J-10000D01*
G01Y-218600D01*
G02X282100Y-228600I-10000J0D01*
G01X270840D01*
G37*
G36*
G01X-60680Y654770D02*
G03X-60940Y654660I7086J-17110D01*
G02X-61970Y654670I-504J1145D01*
G01X-62640Y654990D01*
G02X-63340Y655890I529J1134D01*
G02X-63500Y657700I9842J1782D01*
G01Y663100D01*
G02X-53500Y673100I10000J0D01*
G01X555150D01*
G02X565150Y663100I0J-10000D01*
G01Y657260D01*
G02X564650Y656260I-1250J0D01*
G01X562810Y654880D01*
X562240Y654780D01*
X561950Y654860D01*
G03Y633220I-3150J-10820D01*
G01X562240Y633300D01*
X562810Y633200D01*
X564650Y631820D01*
G02X565150Y630820I-750J-1000D01*
G01Y604530D01*
G02X563900Y603280I-1250J0D01*
G01X550010D01*
G03X548760Y602030I0J-1250D01*
G01Y584450D01*
G03X550010Y583200I1250J0D01*
G01X563900D01*
G02X565150Y581950I0J-1250D01*
G01Y555660D01*
G02X564650Y554660I-1250J0D01*
G01X562810Y553280D01*
X562240Y553180D01*
X561950Y553260D01*
G03Y531620I-3150J-10820D01*
G01X562240Y531700D01*
X562810Y531600D01*
X564650Y530220D01*
G02X565150Y529220I-750J-1000D01*
G01Y502930D01*
G02X563900Y501680I-1250J0D01*
G01X550010D01*
G03X548760Y500430I0J-1250D01*
G01Y482850D01*
G03X550010Y481600I1250J0D01*
G01X563900D01*
G02X565150Y480350I0J-1250D01*
G01Y454060D01*
G02X564650Y453060I-1250J0D01*
G01X562810Y451680D01*
X562240Y451580D01*
X561950Y451660D01*
G03Y430020I-3150J-10820D01*
G01X562240Y430100D01*
X562810Y430000D01*
X564650Y428620D01*
G02X565150Y427620I-750J-1000D01*
G01Y401330D01*
G02X563900Y400080I-1250J0D01*
G01X550010D01*
G03X548760Y398830I0J-1250D01*
G01Y381250D01*
G03X550010Y380000I1250J0D01*
G01X563900D01*
G02X565150Y378750I0J-1250D01*
G01Y352460D01*
G02X564650Y351460I-1250J0D01*
G01X562810Y350080D01*
X562240Y349980D01*
X561950Y350060D01*
G03Y328420I-3150J-10820D01*
G01X562240Y328500D01*
X562810Y328400D01*
X564650Y327020D01*
G02X565150Y326020I-750J-1000D01*
G01Y299730D01*
G02X563900Y298480I-1250J0D01*
G01X550010D01*
G03X548760Y297230I0J-1250D01*
G01Y280650D01*
G02X547510Y279400I-1250J0D01*
G01X321150D01*
G03X311150Y269400I0J-10000D01*
G01Y-219490D01*
G02X311140Y-219610I-1246J43D01*
G02X302160Y-228590I-9949J969D01*
G02X302030Y-228600I-161J1237D01*
G02X301620Y-228590I39J10001D01*
G02X300630Y-228020I60J1249D01*
G01X299360Y-226070D01*
X299290Y-225490D01*
X299400Y-225200D01*
G03X300620Y-218600I-17298J6610D01*
G01Y288450D01*
G02X302100Y289930I1480J0D01*
G01X447200D01*
G03X465720Y308450I0J18520D01*
G01Y637700D01*
G03X447200Y656220I-18520J0D01*
G01X12430D01*
G02X11490Y656650I3J1248D01*
G01X10060Y658270D01*
X9910Y658780D01*
X9950Y659050D01*
G03X-9950I-9950J1350D01*
G01X-9910Y658780D01*
X-10060Y658270D01*
X-11490Y656650D01*
G02X-12430Y656220I-943J818D01*
G01X-38370D01*
G02X-39310Y656650I3J1248D01*
G01X-40740Y658270D01*
X-40890Y658780D01*
X-40850Y659050D01*
G03X-60200Y656860I-9951J1346D01*
G02X-60210Y655950I-1166J-442D01*
G01X-60680Y654770D01*
G37*
G36*
G01X362620Y-1079220D02*
Y-960100D01*
G02X363350Y-958340I2499J-5D01*
G01X370480Y-951210D01*
G02X372240Y-950480I1765J-1769D01*
G01X399060D01*
G02X400590Y-951000I4J-2500D01*
G03Y-935920I5810J7540D01*
G02X399060Y-936440I-1526J1980D01*
G01X370930D01*
G03X361480Y-940360I7J-13368D01*
G01X353510Y-948320D01*
G02X350790Y-948860I-1765J1770D01*
G01X350090Y-948570D01*
X349250Y-947310D01*
Y-934410D01*
G02X359250Y-924410I10000J0D01*
G01X414960D01*
G02X422030Y-927340I-2J-10000D01*
G01X422520Y-927830D01*
G03X429590Y-930760I7072J7070D01*
G01X784470D01*
G02X786290Y-931550I-3J-2499D01*
G01X789140Y-934580D01*
X789490Y-935550D01*
X789460Y-936070D01*
G03X823440Y-936130I16988J-1040D01*
G02X824570Y-933890I2496J146D01*
G01X825620Y-933200D01*
G02X828700Y-933470I1368J-2094D01*
G02X831850Y-940760I-6861J-7290D01*
G01Y-1136660D01*
G02X828700Y-1143950I-10011J0D01*
G02X825620Y-1144220I-1712J1824D01*
G01X824570Y-1143530D01*
G02X823440Y-1141290I1366J2094D01*
G03X789460Y-1141350I-16992J980D01*
G01X789490Y-1141870D01*
X789140Y-1142840D01*
X786290Y-1145870D01*
G02X784470Y-1146660I-1823J1709D01*
G01X454990D01*
G02X447920Y-1143730I2J10000D01*
G01X447430Y-1143240D01*
G03X440360Y-1140310I-7072J-7070D01*
G01X359250D01*
G02X349250Y-1130310I0J10000D01*
G01Y-1092770D01*
G02X350790Y-1090460I2500J2D01*
G01X351490Y-1090170D01*
X352980Y-1090460D01*
X377500Y-1114980D01*
X377850Y-1115710D01*
X377910Y-1116130D01*
G03X388570Y-1105470I9440J1220D01*
G01X388150Y-1105410D01*
X387420Y-1105060D01*
X363350Y-1080980D01*
G02X362620Y-1079220I1769J1765D01*
G37*
G36*
G01X370930Y-682440D02*
G03X361480Y-686360I7J-13368D01*
G01X353510Y-694320D01*
G02X350790Y-694860I-1765J1770D01*
G01X350090Y-694570D01*
X349250Y-693310D01*
Y-680410D01*
G02X359250Y-670410I10000J0D01*
G01X414960D01*
G02X422030Y-673340I-2J-10000D01*
G01X422520Y-673830D01*
G03X429590Y-676760I7072J7070D01*
G01X784470D01*
G02X786290Y-677550I-3J-2499D01*
G01X789140Y-680580D01*
X789490Y-681550D01*
X789460Y-682070D01*
G03X823440Y-682130I16988J-1040D01*
G02X824570Y-679890I2496J146D01*
G01X825620Y-679200D01*
G02X828700Y-679470I1368J-2094D01*
G02X831850Y-686760I-6861J-7290D01*
G01Y-882660D01*
G02X828700Y-889950I-10011J0D01*
G02X825620Y-890220I-1712J1824D01*
G01X824570Y-889530D01*
G02X823440Y-887290I1366J2094D01*
G03X789460Y-887350I-16992J980D01*
G01X789490Y-887870D01*
X789140Y-888840D01*
X786290Y-891870D01*
G02X784470Y-892660I-1823J1709D01*
G01X454990D01*
G02X447920Y-889730I2J10000D01*
G01X447430Y-889240D01*
G03X440360Y-886310I-7072J-7070D01*
G01X359250D01*
G02X349250Y-876310I0J10000D01*
G01Y-838770D01*
G02X350790Y-836460I2500J2D01*
G01X351490Y-836170D01*
X352980Y-836460D01*
X377500Y-860980D01*
X377850Y-861710D01*
X377910Y-862130D01*
G03X388570Y-851470I9440J1220D01*
G01X388150Y-851410D01*
X387420Y-851060D01*
X363350Y-826980D01*
G02X362620Y-825220I1769J1765D01*
G01Y-706100D01*
G02X363350Y-704340I2499J-5D01*
G01X370480Y-697210D01*
G02X372240Y-696480I1765J-1769D01*
G01X399060D01*
G02X400590Y-697000I4J-2500D01*
G03Y-681920I5810J7540D01*
G02X399060Y-682440I-1526J1980D01*
G01X370930D01*
G37*
G36*
G01X823440Y-633290D02*
G03X789460Y-633350I-16992J980D01*
G01X789490Y-633870D01*
X789140Y-634840D01*
X786290Y-637870D01*
G02X784470Y-638660I-1823J1709D01*
G01X454990D01*
G02X447920Y-635730I2J10000D01*
G01X447430Y-635240D01*
G03X440360Y-632310I-7072J-7070D01*
G01X359250D01*
G02X349250Y-622310I0J10000D01*
G01Y-584770D01*
G02X350790Y-582460I2500J2D01*
G01X351490Y-582170D01*
X352980Y-582460D01*
X377500Y-606980D01*
X377850Y-607710D01*
X377910Y-608130D01*
G03X388570Y-597470I9440J1220D01*
G01X388150Y-597410D01*
X387420Y-597060D01*
X363350Y-572980D01*
G02X362620Y-571220I1769J1765D01*
G01Y-452100D01*
G02X363350Y-450340I2499J-5D01*
G01X370480Y-443210D01*
G02X372240Y-442480I1765J-1769D01*
G01X399060D01*
G02X400590Y-443000I4J-2500D01*
G03Y-427920I5810J7540D01*
G02X399060Y-428440I-1526J1980D01*
G01X370930D01*
G03X361480Y-432360I7J-13368D01*
G01X353510Y-440320D01*
G02X350790Y-440860I-1765J1770D01*
G01X350090Y-440570D01*
X349250Y-439310D01*
Y-426410D01*
G02X359250Y-416410I10000J0D01*
G01X414960D01*
G02X422030Y-419340I-2J-10000D01*
G01X422520Y-419830D01*
G03X429590Y-422760I7072J7070D01*
G01X786930D01*
G02X789430Y-425260I0J-2500D01*
G01Y-443630D01*
G03X791930Y-446130I2500J0D01*
G01X820970D01*
G03X823470Y-443630I0J2500D01*
G01Y-426490D01*
G02X825970Y-423990I2500J0D01*
G01X826720D01*
X827340Y-424400D01*
G02X831850Y-432760I-5493J-8360D01*
G01Y-628660D01*
G02X828700Y-635950I-10011J0D01*
G02X825620Y-636220I-1712J1824D01*
G01X824570Y-635530D01*
G02X823440Y-633290I1366J2094D01*
G37*
G36*
G01X381000Y-269110D02*
Y-201760D01*
G02X382250Y-200510I1250J0D01*
G01X450000D01*
G03X451250Y-199260I0J1250D01*
G01Y-150960D01*
G02X452500Y-149710I1250J0D01*
G01X465210D01*
G02X466460Y-150960I0J-1250D01*
G01Y-184300D01*
G03X467710Y-185550I1250J0D01*
G01X482790D01*
G03X484040Y-184300I0J1250D01*
G01Y-150960D01*
G02X485290Y-149710I1250J0D01*
G01X488100D01*
G02X489350Y-150960I0J-1250D01*
G01Y-199260D01*
G03X490600Y-200510I1250J0D01*
G01X507560D01*
G02X508810Y-201760I0J-1250D01*
G01Y-204750D01*
G03X510060Y-206000I1250J0D01*
G01X532140D01*
G03X533390Y-204750I0J1250D01*
G01Y-201760D01*
G02X534640Y-200510I1250J0D01*
G01X602400D01*
G02X603650Y-201760I0J-1250D01*
G01Y-201770D01*
G02X602400Y-203020I-1250J0D01*
G01X575410D01*
G03X574160Y-204270I0J-1250D01*
G01Y-219350D01*
G03X575410Y-220600I1250J0D01*
G01X602400D01*
G02X603650Y-221850I0J-1250D01*
G01Y-224660D01*
G02X602400Y-225910I-1250J0D01*
G01X439800D01*
G03X438550Y-227160I0J-1250D01*
G01Y-269110D01*
G02X437300Y-270360I-1250J0D01*
G01X382250D01*
G02X381000Y-269110I0J1250D01*
G37*
G36*
G01Y-84960D02*
Y-17610D01*
G02X382250Y-16360I1250J0D01*
G01X450000D01*
G03X451250Y-15110I0J1250D01*
G01Y33190D01*
G02X452500Y34440I1250J0D01*
G01X465210D01*
G02X466460Y33190I0J-1250D01*
G01Y-150D01*
G03X467710Y-1400I1250J0D01*
G01X482790D01*
G03X484040Y-150I0J1250D01*
G01Y33190D01*
G02X485290Y34440I1250J0D01*
G01X488100D01*
G02X489350Y33190I0J-1250D01*
G01Y-15110D01*
G03X490600Y-16360I1250J0D01*
G01X507560D01*
G02X508810Y-17610I0J-1250D01*
G01Y-20600D01*
G03X510060Y-21850I1250J0D01*
G01X532140D01*
G03X533390Y-20600I0J1250D01*
G01Y-17610D01*
G02X534640Y-16360I1250J0D01*
G01X602400D01*
G02X603650Y-17610I0J-1250D01*
G01Y-17620D01*
G02X602400Y-18870I-1250J0D01*
G01X575410D01*
G03X574160Y-20120I0J-1250D01*
G01Y-35200D01*
G03X575410Y-36450I1250J0D01*
G01X602400D01*
G02X603650Y-37700I0J-1250D01*
G01Y-40510D01*
G02X602400Y-41760I-1250J0D01*
G01X439800D01*
G03X438550Y-43010I0J-1250D01*
G01Y-84960D01*
G02X437300Y-86210I-1250J0D01*
G01X382250D01*
G02X381000Y-84960I0J1250D01*
G37*
G36*
G01Y86490D02*
Y153840D01*
G02X382250Y155090I1250J0D01*
G01X449600D01*
G03X450850Y156340I0J1250D01*
G01Y204640D01*
G02X452100Y205890I1250J0D01*
G01X464810D01*
G02X466060Y204640I0J-1250D01*
G01Y171300D01*
G03X467310Y170050I1250J0D01*
G01X482390D01*
G03X483640Y171300I0J1250D01*
G01Y204640D01*
G02X484890Y205890I1250J0D01*
G01X487700D01*
G02X488950Y204640I0J-1250D01*
G01Y156340D01*
G03X490200Y155090I1250J0D01*
G01X507160D01*
G02X508410Y153840I0J-1250D01*
G01Y150850D01*
G03X509660Y149600I1250J0D01*
G01X531740D01*
G03X532990Y150850I0J1250D01*
G01Y153840D01*
G02X534240Y155090I1250J0D01*
G01X602000D01*
G02X603250Y153840I0J-1250D01*
G01Y153830D01*
G02X602000Y152580I-1250J0D01*
G01X575010D01*
G03X573760Y151330I0J-1250D01*
G01Y136250D01*
G03X575010Y135000I1250J0D01*
G01X602000D01*
G02X603250Y133750I0J-1250D01*
G01Y130940D01*
G02X602000Y129690I-1250J0D01*
G01X439400D01*
G03X438150Y128440I0J-1250D01*
G01Y86490D01*
G02X436900Y85240I-1250J0D01*
G01X382250D01*
G02X381000Y86490I0J1250D01*
G37*
G36*
G01X463950Y-269110D02*
Y-252560D01*
G02X465200Y-251310I1250J0D01*
G01X640500D01*
G02X641750Y-252560I0J-1250D01*
G01Y-269110D01*
G02X640500Y-270360I-1250J0D01*
G01X465200D01*
G02X463950Y-269110I0J1250D01*
G37*
G36*
G01X622700Y-211960D02*
Y-182710D01*
G03X621450Y-181460I-1250J0D01*
G01X509650D01*
G02X508400Y-180210I0J1250D01*
G01Y-177250D01*
G02X509650Y-176000I1250J0D01*
G01X532140D01*
G03X533390Y-174750I0J1250D01*
G01Y-158170D01*
G03X532140Y-156920I-1250J0D01*
G01X509650D01*
G02X508400Y-155670I0J1250D01*
G01Y-150960D01*
G02X509650Y-149710I1250J0D01*
G01X653200D01*
G02X654450Y-150960I0J-1250D01*
G01Y-211960D01*
G02X653200Y-213210I-1250J0D01*
G01X623950D01*
G02X622700Y-211960I0J1250D01*
G37*
G36*
G01X463950Y-84960D02*
Y-68410D01*
G02X465200Y-67160I1250J0D01*
G01X640500D01*
G02X641750Y-68410I0J-1250D01*
G01Y-84960D01*
G02X640500Y-86210I-1250J0D01*
G01X465200D01*
G02X463950Y-84960I0J1250D01*
G37*
G36*
G01X622700Y-27810D02*
Y1440D01*
G03X621450Y2690I-1250J0D01*
G01X509650D01*
G02X508400Y3940I0J1250D01*
G01Y6900D01*
G02X509650Y8150I1250J0D01*
G01X532140D01*
G03X533390Y9400I0J1250D01*
G01Y25980D01*
G03X532140Y27230I-1250J0D01*
G01X509650D01*
G02X508400Y28480I0J1250D01*
G01Y33190D01*
G02X509650Y34440I1250J0D01*
G01X653200D01*
G02X654450Y33190I0J-1250D01*
G01Y-27810D01*
G02X653200Y-29060I-1250J0D01*
G01X623950D01*
G02X622700Y-27810I0J1250D01*
G37*
G36*
G01X463550Y86490D02*
Y103040D01*
G02X464800Y104290I1250J0D01*
G01X640100D01*
G02X641350Y103040I0J-1250D01*
G01Y86490D01*
G02X640100Y85240I-1250J0D01*
G01X464800D01*
G02X463550Y86490I0J1250D01*
G37*
G36*
G01X622300Y143640D02*
Y172890D01*
G03X621050Y174140I-1250J0D01*
G01X509250D01*
G02X508000Y175390I0J1250D01*
G01Y178350D01*
G02X509250Y179600I1250J0D01*
G01X531740D01*
G03X532990Y180850I0J1250D01*
G01Y197430D01*
G03X531740Y198680I-1250J0D01*
G01X509250D01*
G02X508000Y199930I0J1250D01*
G01Y204640D01*
G02X509250Y205890I1250J0D01*
G01X652800D01*
G02X654050Y204640I0J-1250D01*
G01Y143640D01*
G02X652800Y142390I-1250J0D01*
G01X623550D01*
G02X622300Y143640I0J1250D01*
G37*
G36*
G01X681100Y-149710D02*
X735750D01*
G02X737000Y-150960I0J-1250D01*
G01Y-243710D01*
G02X735750Y-244960I-1250J0D01*
G01X681100D01*
G02X679850Y-243710I0J1250D01*
G01Y-150960D01*
G02X681100Y-149710I1250J0D01*
G37*
G36*
G01X681090Y34440D02*
X735740D01*
G02X736990Y33180I2J-1248D01*
G01X736610Y-59570D01*
G02X735360Y-60810I-1252J12D01*
G01X680710D01*
G02X679460Y-59550I-2J1248D01*
G01X679840Y33200D01*
G02X681090Y34440I1252J-12D01*
G37*
G36*
G01X680700Y205890D02*
X735350D01*
G02X736600Y204640I0J-1250D01*
G01Y111890D01*
G02X735350Y110640I-1250J0D01*
G01X680700D01*
G02X679450Y111890I0J1250D01*
G01Y204640D01*
G02X680700Y205890I1250J0D01*
G37*
%LPC*%
G75*
G36*
G01X-10270Y239870D02*
X10270D01*
G02X11270Y238870I0J-1000D01*
G01Y218330D01*
G02X10270Y217330I-1000J0D01*
G01X-10270D01*
G02X-11270Y218330I0J1000D01*
G01Y238870D01*
G02X-10270Y239870I1000J0D01*
G37*
G36*
G01X-61070D02*
X-40530D01*
G02X-39530Y238870I0J-1000D01*
G01Y218330D01*
G02X-40530Y217330I-1000J0D01*
G01X-61070D01*
G02X-62070Y218330I0J1000D01*
G01Y238870D01*
G02X-61070Y239870I1000J0D01*
G37*
G36*
G01X92560Y-675760D02*
X110640D01*
G02X111640Y-676760I0J-1000D01*
G01Y-694840D01*
G02X110640Y-695840I-1000J0D01*
G01X92560D01*
G02X91560Y-694840I0J1000D01*
G01Y-676760D01*
G02X92560Y-675760I1000J0D01*
G37*
G36*
G01X-10020Y493870D02*
X10020D01*
G02X11270Y492620I0J-1250D01*
G01Y472580D01*
G02X10020Y471330I-1250J0D01*
G01X-10020D01*
G02X-11270Y472580I0J1250D01*
G01Y492620D01*
G02X-10020Y493870I1250J0D01*
G37*
G36*
G01X346810Y410090D02*
X364390D01*
G02X365640Y408840I0J-1250D01*
G01Y391260D01*
G02X364390Y390010I-1250J0D01*
G01X346810D01*
G02X345560Y391260I0J1250D01*
G01Y408840D01*
G02X346810Y410090I1250J0D01*
G37*
G36*
G01X537310Y-203020D02*
X568390D01*
G02X569640Y-204270I0J-1250D01*
G01Y-219350D01*
G02X568390Y-220600I-1250J0D01*
G01X537310D01*
G02X536060Y-219350I0J1250D01*
G01Y-204270D01*
G02X537310Y-203020I1250J0D01*
G37*
G36*
G01Y-18870D02*
X568390D01*
G02X569640Y-20120I0J-1250D01*
G01Y-35200D01*
G02X568390Y-36450I-1250J0D01*
G01X537310D01*
G02X536060Y-35200I0J1250D01*
G01Y-20120D01*
G02X537310Y-18870I1250J0D01*
G37*
G36*
G01X536910Y152580D02*
X567990D01*
G02X569240Y151330I0J-1250D01*
G01Y136250D01*
G02X567990Y135000I-1250J0D01*
G01X536910D01*
G02X535660Y136250I0J1250D01*
G01Y151330D01*
G02X536910Y152580I1250J0D01*
G37*
G36*
G01X575410Y-155020D02*
X606490D01*
G02X607740Y-156270I0J-1250D01*
G01Y-171350D01*
G02X606490Y-172600I-1250J0D01*
G01X575410D01*
G02X574160Y-171350I0J1250D01*
G01Y-156270D01*
G02X575410Y-155020I1250J0D01*
G37*
G36*
G01X537310D02*
X568390D01*
G02X569640Y-156270I0J-1250D01*
G01Y-171350D01*
G02X568390Y-172600I-1250J0D01*
G01X537310D01*
G02X536060Y-171350I0J1250D01*
G01Y-156270D01*
G02X537310Y-155020I1250J0D01*
G37*
G36*
G01X575410Y29130D02*
X606490D01*
G02X607740Y27880I0J-1250D01*
G01Y12800D01*
G02X606490Y11550I-1250J0D01*
G01X575410D01*
G02X574160Y12800I0J1250D01*
G01Y27880D01*
G02X575410Y29130I1250J0D01*
G37*
G36*
G01X537310D02*
X568390D01*
G02X569640Y27880I0J-1250D01*
G01Y12800D01*
G02X568390Y11550I-1250J0D01*
G01X537310D01*
G02X536060Y12800I0J1250D01*
G01Y27880D01*
G02X537310Y29130I1250J0D01*
G37*
G36*
G01X536910Y200580D02*
X567990D01*
G02X569240Y199330I0J-1250D01*
G01Y184250D01*
G02X567990Y183000I-1250J0D01*
G01X536910D01*
G02X535660Y184250I0J1250D01*
G01Y199330D01*
G02X536910Y200580I1250J0D01*
G37*
G36*
G01X575010D02*
X606090D01*
G02X607340Y199330I0J-1250D01*
G01Y184250D01*
G02X606090Y183000I-1250J0D01*
G01X575010D01*
G02X573760Y184250I0J1250D01*
G01Y199330D01*
G02X575010Y200580I1250J0D01*
G37*
G54D29*
X0Y304800D03*
X-50800D03*
X0Y635000D03*
X-50800D03*
G54D31*
X806450Y-1089510D03*
Y-987910D03*
Y-835510D03*
Y-733910D03*
Y-581510D03*
Y-479910D03*
G54D28*
X0Y152400D03*
Y127000D03*
X-50800Y152400D03*
Y127000D03*
X0Y203200D03*
Y177800D03*
X-50800Y203200D03*
Y177800D03*
X0Y279400D03*
Y254000D03*
X-50800Y279400D03*
Y254000D03*
X0Y457200D03*
Y533400D03*
Y508000D03*
Y609600D03*
Y584200D03*
Y558800D03*
G54D30*
X127000Y-685800D03*
X381000Y400050D03*
G54D32*
X806450Y-1038710D03*
Y-784710D03*
Y-530710D03*
%LPD*%
G75*
G54D10*
X-76200Y-50800D03*
Y838200D03*
G54D20*
X590950Y-211810D03*
X552850D03*
X590950Y-163810D03*
X552850D03*
X590950Y-27660D03*
X552850D03*
X590950Y20340D03*
X552850D03*
X552450Y143790D03*
X590550D03*
X552450Y191790D03*
X590550D03*
G54D11*
G01X0Y330200D02*
X54520D01*
G02X59010Y328340I0J-6350D01*
G01X59840Y327510D01*
G01X-50800Y330200D02*
X0D01*
G01X266700Y-441810D02*
Y-402680D01*
G03X264840Y-398190I-6350J0D01*
G01X135210Y-268560D01*
G02X133350Y-264070I4490J4490D01*
G01Y251370D01*
G03X131490Y255860I-6350J0D01*
G01X59840Y327510D01*
G01D02*
Y327620D01*
G02X61660Y332020I6220J4D01*
G03X63500Y336460I-4430J4437D01*
G01Y355600D01*
G01Y692150D02*
Y660400D01*
G01X266700Y-1102210D02*
Y-949810D01*
G01D02*
Y-848210D01*
G01D02*
Y-695810D01*
G01D02*
Y-594210D01*
G01D02*
Y-441810D01*
G01X730250Y-158750D02*
Y-129630D01*
G02X732110Y-125140I6350J0D01*
G01X788230Y-69020D01*
G02X792720Y-67160I4490J-4490D01*
G01X806450D01*
G01X730250Y19050D02*
X743780Y32580D01*
G02X748270Y34440I4490J-4490D01*
G01X806450D01*
G01X730250Y139700D02*
X733910Y136040D01*
G01D02*
X806450D01*
X-69850Y95250D03*
Y177800D03*
Y266700D03*
Y330200D03*
X-10800Y-1393350D03*
X-25400Y95250D03*
Y215900D03*
Y241300D03*
Y266700D03*
X-10800Y846650D03*
X50800Y-793750D03*
Y-673100D03*
Y-558800D03*
Y-444500D03*
Y-330200D03*
Y-215900D03*
Y-101600D03*
Y19050D03*
Y95250D03*
X63500Y158750D03*
X68000Y219000D03*
X63500Y190500D03*
Y241300D03*
Y266700D03*
X76200Y285750D03*
X14000Y445000D03*
X63500Y469900D03*
Y444500D03*
Y520700D03*
Y546100D03*
Y495300D03*
Y622300D03*
Y571500D03*
Y596900D03*
X78650Y629130D03*
X152400Y-1130300D03*
Y-1073150D03*
Y-984250D03*
X146050Y-825500D03*
X152400Y-895350D03*
X105000Y-850000D03*
X133350Y-755650D03*
X88900Y-768350D03*
X127000Y-596900D03*
X88900Y-628650D03*
X146050Y-520700D03*
X107950Y-533400D03*
X88900Y-558800D03*
X133350Y-381000D03*
X107950Y-425450D03*
Y-330200D03*
X127000Y-285750D03*
X114300Y228600D03*
X139700Y641350D03*
X215000Y-1130000D03*
X196000Y-1074000D03*
X184150Y-1098550D03*
X215900D03*
X188000Y-1000000D03*
X184150Y-1028700D03*
X202000Y-982000D03*
X174000Y-898000D03*
X222250Y-908050D03*
X202000Y-954000D03*
X184150Y-831850D03*
X203200Y-882650D03*
X196850Y-806450D03*
X184150Y-774700D03*
X203200Y-723900D03*
Y-704850D03*
X165100Y-711200D03*
X203200Y-628650D03*
X171450Y-596900D03*
X222250Y-654050D03*
X171450Y-641350D03*
X184150Y-520700D03*
Y-577850D03*
X196850Y-552450D03*
X165100Y-463550D03*
X203200Y-450850D03*
Y-469900D03*
X171450Y-393700D03*
X177800Y-336550D03*
X222250Y-171450D03*
Y-133350D03*
X209550Y469900D03*
X203200Y444500D03*
X222250Y520700D03*
X215900Y495300D03*
X222250Y641350D03*
X266000Y-1130000D03*
X247650Y-1085850D03*
Y-1073150D03*
X266700Y-1102210D03*
X247650Y-996950D03*
Y-908050D03*
Y-968860D03*
X266700Y-949810D03*
X247650Y-863600D03*
Y-825500D03*
X266700Y-848210D03*
X241300Y-787400D03*
X247650Y-714860D03*
Y-742950D03*
X266700Y-695810D03*
X247650Y-609600D03*
Y-654050D03*
X266700Y-594210D03*
X247650Y-571500D03*
X241300Y-533400D03*
X247650Y-460860D03*
Y-488950D03*
X266700Y-441810D03*
X241300Y-400050D03*
X304800Y-215900D03*
X279400Y-222250D03*
X285750Y-156060D03*
X279400Y-184150D03*
X285750Y-101600D03*
X241300Y-107950D03*
X304800Y-31750D03*
X279400Y0D03*
X263960Y52240D03*
X285750Y28090D03*
Y88900D03*
X241300Y31750D03*
X304800Y139700D03*
X285750Y199540D03*
X279400Y171450D03*
X260350Y184150D03*
X285750Y279400D03*
X311150Y304800D03*
X279400Y387350D03*
Y469900D03*
X304800Y546100D03*
X298450Y520700D03*
X311150Y571500D03*
X356450Y-1131960D03*
X388450Y-1097960D03*
X355600Y-1108560D03*
X387350Y-1114910D03*
X381000Y-1045060D03*
Y-1019660D03*
X370450Y-957960D03*
X356450Y-931960D03*
X387350Y-860910D03*
X388450Y-843960D03*
X356450Y-877960D03*
X355600Y-854560D03*
X381000Y-791060D03*
Y-765660D03*
X372450Y-703960D03*
X356450Y-677960D03*
X387350Y-606910D03*
X356450Y-623960D03*
X355600Y-600560D03*
X388450Y-590110D03*
X381000Y-537060D03*
X372450Y-449960D03*
X381000Y-511660D03*
X356450Y-423960D03*
X387350Y304800D03*
X368300Y476250D03*
X349250Y527050D03*
Y488950D03*
X323850Y622300D03*
X349250Y603250D03*
X317500Y596900D03*
X349250Y577850D03*
Y552450D03*
Y641350D03*
X450850Y-1133960D03*
X418780Y-1134390D03*
X450850Y-1102210D03*
X419100Y-1098550D03*
Y-1073150D03*
X445000Y-1045000D03*
X450850Y-994260D03*
X414450Y-983960D03*
X450850Y-1019660D03*
X416450Y-931960D03*
X406400Y-943460D03*
X419100Y-835510D03*
X450850Y-879960D03*
X418780Y-880390D03*
X450850Y-816460D03*
X425450Y-791060D03*
X450850Y-765660D03*
X406400Y-689460D03*
X450850Y-740260D03*
X414450Y-729960D03*
X416450Y-677960D03*
X450850Y-594210D03*
Y-625960D03*
X419100D03*
X425450Y-537060D03*
X450850Y-562460D03*
X419100Y-581510D03*
X414450Y-475960D03*
X450850Y-486260D03*
Y-511660D03*
X406400Y-435460D03*
X416450Y-422960D03*
X406800Y-156060D03*
Y28090D03*
X406400Y199540D03*
X431800Y304800D03*
X450850Y336550D03*
Y387350D03*
Y469900D03*
X393700Y488950D03*
X444500Y539750D03*
X450850Y609600D03*
X431800Y641350D03*
X488950Y-1140310D03*
X539750D03*
Y-1051410D03*
X488950Y-1102210D03*
Y-1076810D03*
Y-1051410D03*
X539750Y-1076810D03*
Y-1102210D03*
X488950Y-1013310D03*
X539750Y-987910D03*
X488950Y-975210D03*
X539750Y-1019660D03*
X488950Y-937110D03*
X539750D03*
X488950Y-848210D03*
Y-886310D03*
Y-822810D03*
X539750Y-886310D03*
Y-822810D03*
Y-848210D03*
X488950Y-759310D03*
X539750Y-765660D03*
Y-797410D03*
X488950D03*
X539750Y-733910D03*
X488950Y-721210D03*
Y-683110D03*
X539750D03*
X488950Y-594210D03*
Y-632310D03*
X539750Y-594210D03*
Y-632310D03*
X488950Y-543410D03*
Y-568810D03*
X539750D03*
Y-543410D03*
Y-511660D03*
Y-479910D03*
X488950Y-467210D03*
Y-505310D03*
Y-429110D03*
X539750D03*
X527450Y-213210D03*
Y-29060D03*
X527050Y142390D03*
X477470Y311150D03*
X482600Y488950D03*
X477470Y635000D03*
X609600Y-1140310D03*
Y-1114910D03*
Y-1076810D03*
Y-1019660D03*
Y-987910D03*
Y-937110D03*
Y-886310D03*
Y-860910D03*
Y-822810D03*
Y-765660D03*
Y-733910D03*
Y-683110D03*
Y-606910D03*
Y-632310D03*
Y-568810D03*
Y-511660D03*
Y-479910D03*
Y-429110D03*
X685800Y-1133960D03*
Y-1121260D03*
Y-1057760D03*
Y-1070460D03*
Y-1006960D03*
Y-1019660D03*
Y-956160D03*
Y-943460D03*
Y-879960D03*
Y-867260D03*
Y-803760D03*
Y-816460D03*
Y-752960D03*
Y-765660D03*
Y-702160D03*
Y-689460D03*
Y-625960D03*
Y-613260D03*
Y-549760D03*
Y-562460D03*
Y-448160D03*
Y-498960D03*
Y-511660D03*
Y-435460D03*
X723900Y-1095860D03*
Y-1038710D03*
Y-981560D03*
Y-841860D03*
Y-784710D03*
Y-727560D03*
Y-530710D03*
Y-587860D03*
Y-473560D03*
X809200Y-1393350D03*
X781050Y-1114910D03*
Y-1064110D03*
Y-1013310D03*
Y-962510D03*
Y-860910D03*
Y-810110D03*
Y-759310D03*
Y-708510D03*
Y-606910D03*
Y-556110D03*
Y-454510D03*
Y-505310D03*
X809200Y846650D03*
G54D12*
X0Y0D03*
X-50800D03*
X0Y228600D03*
X-50800D03*
X0Y482600D03*
X-50800D03*
X0Y736600D03*
X-50800D03*
X101600Y-685800D03*
X355600Y400050D03*
X558800Y288440D03*
Y390040D03*
Y491640D03*
Y593240D03*
G54D21*
X806450Y-1191110D03*
Y-1140310D03*
Y-1089510D03*
Y-987910D03*
Y-1038710D03*
Y-937110D03*
Y-835510D03*
Y-886310D03*
Y-784710D03*
Y-683110D03*
Y-733910D03*
Y-632310D03*
Y-530710D03*
Y-581510D03*
Y-479910D03*
Y-117960D03*
Y-67160D03*
Y-16360D03*
Y85240D03*
Y34440D03*
Y136040D03*
Y237640D03*
Y186840D03*
Y288440D03*
Y390040D03*
Y339240D03*
Y440840D03*
Y542440D03*
Y491640D03*
Y593240D03*
G54D22*
Y-429110D03*
Y644040D03*
G54D13*
X0Y76200D03*
Y50800D03*
Y25400D03*
X-50800Y76200D03*
Y50800D03*
Y25400D03*
X0Y152400D03*
Y127000D03*
Y101600D03*
X-50800Y152400D03*
Y127000D03*
Y101600D03*
X0Y203200D03*
Y177800D03*
X-50800Y203200D03*
Y177800D03*
X0Y304800D03*
Y279400D03*
Y254000D03*
X-50800Y304800D03*
Y279400D03*
Y254000D03*
X0Y381000D03*
Y355600D03*
Y330200D03*
X-50800Y381000D03*
Y355600D03*
Y330200D03*
X0Y457200D03*
Y431800D03*
Y406400D03*
X-50800Y457200D03*
Y431800D03*
Y406400D03*
X0Y533400D03*
Y508000D03*
X-50800Y533400D03*
Y508000D03*
X0Y609600D03*
Y584200D03*
Y558800D03*
X-50800Y609600D03*
Y584200D03*
Y558800D03*
X0Y685800D03*
Y660400D03*
Y635000D03*
X-50800Y685800D03*
Y660400D03*
Y635000D03*
X0Y762000D03*
Y711200D03*
X-50800Y762000D03*
Y711200D03*
X0Y787400D03*
X-50800D03*
X609600Y288440D03*
X558800Y339240D03*
X609600D03*
Y390040D03*
X558800Y440840D03*
X609600D03*
X558800Y542440D03*
X609600D03*
Y491640D03*
Y593240D03*
X558800Y644040D03*
X609600D03*
X660400Y288440D03*
X635000D03*
Y339240D03*
X660400D03*
Y390040D03*
X635000D03*
Y440840D03*
X660400D03*
X635000Y542440D03*
X660400D03*
Y491640D03*
X635000D03*
X660400Y593240D03*
X635000D03*
Y644040D03*
X660400D03*
G54D23*
X889200Y-1384300D03*
Y838200D03*
G54D14*
X63500Y355600D03*
Y692150D03*
G54D24*
G01X387350Y-1114910D02*
X357460Y-1085020D01*
G02X355600Y-1080530I4490J4490D01*
G01Y-958790D01*
G02X357460Y-954300I6350J0D01*
G01X366440Y-945320D01*
G02X370930Y-943460I4490J-4490D01*
G01X406400D01*
G01X387350Y-860910D02*
X357460Y-831020D01*
G02X355600Y-826530I4490J4490D01*
G01Y-704790D01*
G02X357460Y-700300I6350J0D01*
G01X366440Y-691320D01*
G02X370930Y-689460I4490J-4490D01*
G01X406400D01*
G01X387350Y-606910D02*
X357460Y-577020D01*
G02X355600Y-572530I4490J4490D01*
G01Y-450790D01*
G02X357460Y-446300I6350J0D01*
G01X366440Y-437320D01*
G02X370930Y-435460I4490J-4490D01*
G01X406400D01*
G01X426250Y-257660D02*
X425850Y-257260D01*
G01X426250Y-73510D02*
X425850Y-73110D01*
G01Y97940D02*
X425450Y98340D01*
G54D15*
X127000Y-685800D03*
X381000Y400050D03*
G54D25*
G01X427250Y-168760D02*
X416410Y-157920D01*
G03X411920Y-156060I-4490J-4490D01*
G01X406800D01*
G01X427250Y15390D02*
X416410Y26230D01*
G03X411920Y28090I-4490J-4490D01*
G01X406800D01*
G01X426850Y186840D02*
X416010Y197680D01*
G03X411520Y199540I-4490J-4490D01*
G01X406400D01*
G54D16*
X426250Y-257660D03*
Y-73510D03*
X425850Y97940D03*
X642150Y-200510D03*
Y-16360D03*
X641750Y155090D03*
G54D26*
G01X806450Y-1057000D02*
Y-1038710D01*
G01D02*
Y-1020420D01*
G01X788160Y-1038710D02*
X806450D01*
G01D02*
X824740D01*
G54D17*
X427250Y-168760D03*
Y15390D03*
X426850Y186840D03*
X475250Y-168760D03*
Y15390D03*
X474850Y186840D03*
G54D27*
G01X-50800Y293760D02*
Y304800D01*
G01D02*
Y315840D01*
G01X-61840Y304800D02*
X-50800D01*
G01D02*
X-39760D01*
G01X0Y293760D02*
Y304800D01*
G01D02*
Y315840D01*
G01X-11040Y304800D02*
X0D01*
G01D02*
X11040D01*
G01X-50800Y660400D02*
Y671690D01*
G01X-62090Y660400D02*
X-50800D01*
G01D02*
X-39510D01*
G01X0D02*
Y671690D01*
G01X-11290Y660400D02*
X0D01*
G01D02*
X11290D01*
G01X-50800Y623710D02*
Y635000D01*
G01D02*
Y646290D01*
G01X-62090Y635000D02*
X-50800D01*
G01D02*
X-39510D01*
G01X0Y623710D02*
Y635000D01*
G01D02*
Y646290D01*
G01X-11290Y635000D02*
X0D01*
G01D02*
X11290D01*
G01X127000Y-697090D02*
Y-685800D01*
G01D02*
Y-674510D01*
G01X115710Y-685800D02*
X127000D01*
G01D02*
X138290D01*
G01X101600Y-696840D02*
Y-685800D01*
G01D02*
Y-674760D01*
G01X90560Y-685800D02*
X101600D01*
G01D02*
X112640D01*
G01X381000Y388510D02*
Y400050D01*
G01X355600Y388760D02*
Y400050D01*
G01X381000D02*
Y411590D01*
G01X369460Y400050D02*
X381000D01*
G01D02*
X392540D01*
G01X355600D02*
Y411340D01*
G01X344310Y400050D02*
X355600D01*
G01D02*
X366890D01*
G01X534810Y-211810D02*
X552850D01*
G01X521100Y-207250D02*
Y-196460D01*
G01X507560Y-205870D02*
X521100Y-196460D01*
G01X475250Y-186800D02*
Y-168760D01*
G01X465210D02*
X475250D01*
G01D02*
X485290D01*
G01X521100Y-177250D02*
Y-166460D01*
G01D02*
Y-155670D01*
G01X534810Y-27660D02*
X552850D01*
G01X521100Y-23100D02*
Y-12310D01*
G01X507560Y-21720D02*
X521100Y-12310D01*
G01X475250Y-2650D02*
Y15390D01*
G01X521100Y6900D02*
Y17690D01*
G01X465210Y15390D02*
X475250D01*
G01D02*
X485290D01*
G01X521100Y17690D02*
Y28480D01*
G01X534410Y143790D02*
X552450D01*
G01X520700Y148350D02*
Y159140D01*
G01X507160Y149730D02*
X520700Y159140D01*
G01Y178350D02*
Y189140D01*
G01D02*
Y199930D01*
G01X474850Y168800D02*
Y186840D01*
G01X464810D02*
X474850D01*
G01D02*
X484890D01*
G01X552850Y-221850D02*
Y-211810D01*
G01X590950Y-221850D02*
Y-211810D01*
G01X552850D02*
Y-201770D01*
G01Y-211810D02*
X570890D01*
G01X590950D02*
Y-201770D01*
G01X572910Y-211810D02*
X590950D01*
G01X552850Y-173850D02*
Y-163810D01*
G01D02*
Y-153770D01*
G01Y-163810D02*
X570890D01*
G01X590950Y-173850D02*
Y-163810D01*
G01D02*
Y-153770D01*
G01X572910Y-163810D02*
X590950D01*
G01D02*
X608990D01*
G01X552850Y-37700D02*
Y-27660D01*
G01D02*
Y-17620D01*
G01Y-27660D02*
X570890D01*
G01X590950Y-37700D02*
Y-27660D01*
G01D02*
Y-17620D01*
G01X572910Y-27660D02*
X590950D01*
G01X552850Y10300D02*
Y20340D01*
G01X590950Y10300D02*
Y20340D01*
G01X552850D02*
Y30380D01*
G01Y20340D02*
X570890D01*
G01X590950D02*
Y30380D01*
G01X572910Y20340D02*
X590950D01*
G01D02*
X608990D01*
G01X590550Y133750D02*
Y143790D01*
G01D02*
Y153830D01*
G01X572510Y143790D02*
X590550D01*
G01X552450Y133750D02*
Y143790D01*
G01D02*
Y153830D01*
G01Y143790D02*
X570490D01*
G01X590550Y181750D02*
Y191790D01*
G01D02*
Y201830D01*
G01X572510Y191790D02*
X590550D01*
G01D02*
X608590D01*
G01X552450Y181750D02*
Y191790D01*
G01D02*
Y201830D01*
G01Y191790D02*
X570490D01*
G01X558800Y288440D02*
Y299730D01*
G01X547510Y288440D02*
X558800D01*
G01Y378750D02*
Y390040D01*
G01D02*
Y401330D01*
G01X547510Y390040D02*
X558800D01*
G01Y480350D02*
Y491640D01*
G01D02*
Y502930D01*
G01X547510Y491640D02*
X558800D01*
G01Y581950D02*
Y593240D01*
G01D02*
Y604530D01*
G01X547510Y593240D02*
X558800D01*
G01X806450Y-803000D02*
Y-784710D01*
G01D02*
Y-766420D01*
G01X788160Y-784710D02*
X806450D01*
G01D02*
X824740D01*
G01X806450Y-549000D02*
Y-530710D01*
G01D02*
Y-512420D01*
G01X788160Y-530710D02*
X806450D01*
G01D02*
X824740D01*
G54D18*
X476250Y-257660D03*
Y-73510D03*
X475850Y97940D03*
X692150Y-200510D03*
Y-16360D03*
X691750Y155090D03*
G54D19*
X521100Y-196460D03*
Y-166460D03*
Y-12310D03*
Y17690D03*
X520700Y159140D03*
Y189140D03*
M02*
