M48
METRIC,TZ
T01C.5
T02C1.
T03C1.3
T04C2.
T05C2.7
T06C2.7
;LEADER: 12 
;HEADER: 
;CODE  : ASCII 
;FILE  : kvp_03v3-1-2.drl for  ... layers TOP and BOTTOM
;DESIGN: kvp_03v3.brd
;T01 Holesize 1. = 0.500000 Tolerance = +0.000000/-0.000000 PLATED MM Quantity = 323
;T02 Holesize 2. = 1.000000 Tolerance = +0.000000/-0.000000 PLATED MM Quantity = 100
;T03 Holesize 3. = 1.300000 Tolerance = +0.000000/-0.000000 PLATED MM Quantity = 12
;T04 Holesize 4. = 2.000000 Tolerance = +0.000000/-0.000000 PLATED MM Quantity = 34
;T05 Holesize 5. = 2.700000 Tolerance = +0.000000/-0.000000 PLATED MM Quantity = 2
;T06 Holesize 6. = 2.700000 Tolerance = +0.000000/-0.000000 NON_PLATED MM Quantity = 2
%
G90
T01
X527450Y-213210
Y-29060
X527050Y142390
X387350Y-1114910
X406400Y-943460
X355600Y-600560
X356450Y-623960
X419100Y-625960
X450850
X609600Y-632310
X539750
X609600Y-606910
X685800Y-613260
Y-625960
X723900Y-587860
X781050Y-606910
X539750Y-543410
Y-568810
X781050Y-556110
Y-505310
X609600Y-568810
X723900Y-530710
X685800Y-562460
Y-549760
X381000Y-511660
X450850
X488950Y-505310
X685800Y-511660
Y-498960
X539750Y-594210
X685800Y-448160
X539750Y-429110
X609600
X488950
X685800Y-435460
X723900Y-473560
X781050Y-454510
X609600Y-479910
Y-511660
X488950Y-467210
X450850Y-486260
X488950Y-632310
Y-568810
X419100Y-581510
X450850Y-562460
X488950Y-543410
X425450Y-537060
X381000
X356450Y-423960
X372450Y-449960
X416450Y-422960
X414450Y-475960
X388450Y-590110
X488950Y-594210
X450850
X539750Y-479910
Y-511660
X418780Y-880390
X450850Y-879960
X685800Y-689460
X609600Y-683110
X539750
X488950
X416450Y-677960
X781050Y-708510
Y-759310
X723900Y-727560
X685800Y-702160
Y-765660
Y-752960
X609600Y-765660
X488950Y-721210
X450850Y-765660
X414450Y-729960
X450850Y-740260
X381000Y-765660
X781050Y-810110
X723900Y-841860
Y-784710
X685800Y-816460
Y-803760
X609600Y-822810
X539750Y-848210
Y-822810
X781050Y-860910
X685800Y-867260
Y-879960
X609600Y-860910
Y-886310
X539750
X356450Y-677960
X372450Y-703960
X488950Y-797410
X425450Y-791060
X450850Y-816460
X381000Y-791060
X355600Y-854560
X356450Y-877960
X488950Y-822810
X419100Y-835510
X488950Y-886310
X388450Y-843960
X539750Y-797410
R02Y31750
X488950Y-759310
Y-848210
X609600Y-733910
X387350Y-860910
X406400Y-689460
Y199540
X406800Y-156060
Y28090
X387350Y-606910
X406400Y-435460
X418780Y-1134390
X450850Y-1133960
X685800Y-943460
X609600Y-937110
X539750
X488950
X416450Y-931960
X781050Y-962510
Y-1013310
X723900Y-981560
X685800Y-956160
Y-1019660
Y-1006960
X609600Y-987910
X539750Y-1019660
X609600
X488950Y-975210
X450850Y-1019660
X414450Y-983960
X450850Y-994260
X381000Y-1019660
X781050Y-1064110
X723900Y-1095860
Y-1038710
X685800Y-1070460
Y-1057760
X609600Y-1076810
X539750Y-1102210
Y-1076810
X781050Y-1114910
X685800Y-1121260
Y-1133960
X609600Y-1114910
Y-1140310
X539750
X356450Y-931960
X370450Y-957960
X488950Y-1051410
X445000Y-1045000
X419100Y-1073150
X381000Y-1045060
X355600Y-1108560
X356450Y-1131960
X488950Y-1076810
X419100Y-1098550
X488950Y-1140310
X388450Y-1097960
X539750Y-987910
X488950Y-1013310
Y-1102210
X539750Y-1051410
X450850Y-1102210
X266700Y-848210
Y-1102210
Y-594210
Y-441810
Y-949810
Y-695810
X247650Y-996950
R02Y254000
Y-460860
R02Y-254000
X50800Y19050
Y-101600
Y-215900
R04Y-114300
Y-793750
X105000Y-850000
X152400Y-895350
R02Y-88900
X215900Y-1098550
X152400Y-1130300
X215000Y-1130000
X266000
X184150Y-1098550
X196000Y-1074000
X241300Y-400050
X247650Y-1073150
Y-1085850
X202000Y-982000
Y-954000
X184150Y-1028700
X247650Y-825500
X241300Y-787400
Y-533400
X247650Y-571500
Y-908050
X222250
X247650Y-863600
X203200Y-882650
X146050Y-825500
X88900Y-768350
Y-628650
Y-558800
X127000Y-596900
X171450Y-641350
X165100Y-711200
X184150Y-774700
X203200Y-704850
Y-723900
X247650Y-654050
X222250
X247650Y-609600
X196850Y-806450
X184150Y-831850
X133350Y-755650
X171450Y-596900
X107950Y-533400
X196850Y-552450
X184150Y-577850
X203200Y-469900
Y-450850
X184150Y-520700
X203200Y-628650
X107950Y-425450
Y-330200
X171450Y-393700
X165100Y-463550
X146050Y-520700
X133350Y-381000
X177800Y-336550
X127000Y-285750
X114300Y228600
X76200Y285750
X63500Y266700
Y241300
Y190500
Y158750
X68000Y219000
X-69850Y95250
Y177800
Y330200
Y266700
X-25400Y241300
Y215900
Y266700
X174000Y-898000
X188000Y-1000000
X-25400Y95250
X50800
X279400Y-222250
X222250Y-133350
Y-171450
X203200Y444500
X63500
X279400Y-184150
X241300Y31750
Y-107950
X285750Y-101600
X209550Y469900
X63500
X279400Y0
X285750Y-156060
X260350Y184150
X285750Y88900
X215900Y495300
X63500
X279400Y171450
X285750Y28090
X431800Y641350
X78650Y629130
X285750Y199540
X349250Y488950
Y527050
Y552450
Y577850
X431800Y304800
X63500Y596900
R03Y-25400
X298450
X304800Y546100
X311150Y571500
X317500Y596900
X349250Y603250
X63500Y622300
X139700Y641350
X222250
X349250
X450850Y609600
X444500Y539750
X450850Y469900
Y387350
X387350Y304800
X311150
X285750Y279400
X222250Y520700
X323850Y622300
X450850Y336550
X279400Y387350
Y469900
X14000Y445000
X368300Y476250
X393700Y488950
X263960Y52240
X304800Y-215900
Y-31750
Y139700
X477470Y311150
X482600Y488950
X477470Y635000
T02
X101600Y-685800
X127000
X558800Y593240
X609600
X635000
X660400
Y644040
R02X-25400
X558800
Y491640
X609600
R02X25400
Y542440
R02X-25400
X558800
Y390040
X609600
R02X25400
Y440840
R02X-25400
X558800
Y288440
X609600
R02X25400
Y339240
R02X-25400
X558800
X-50800Y25400
R07Y25400
Y254000
R08Y25400
Y508000
R08Y25400
Y762000
Y787400
X0Y25400
R07Y25400
X0Y254000
R08Y25400
X0Y508000
R08Y25400
X0Y762000
X0Y787400
X-50800Y0
X0Y0
X-50800Y228600
X0
X-50800Y482600
X0
X-50800Y736600
X0
X355600Y400050
X381000
T03
X426250Y-73510
X476250
X642150Y-200510
X692150
X426250Y-257660
X476250
X641750Y155090
X691750
X425850Y97940
X475850
X642150Y-16360
X692150
T04
X806450Y-429110
R15Y-50800
X63500Y692150
Y355600
X806450Y644040
R15Y-50800
T05
X-76200Y-50800
Y838200
T06
X889200Y838200
Y-1384300
M30
