G04 ================== begin FILE IDENTIFICATION RECORD ==================*
G04 Layout Name:  d:/Project/Circuit/KVP/03v3/pcb/kvp_03v3.brd*
G04 Film Name:    MASK_TOP*
G04 File Format:  Gerber RS274X*
G04 File Origin:  Cadence Allegro 16.6-S027*
G04 Origin Date:  Mon May 05 09:39:23 2014*
G04 *
G04 Layer:  VIA CLASS/SOLDERMASK_TOP*
G04 Layer:  PIN/SOLDERMASK_TOP*
G04 Layer:  PACKAGE GEOMETRY/SOLDERMASK_TOP*
G04 *
G04 Offset:    (0.000 0.000)*
G04 Mirror:    No*
G04 Mode:      Positive*
G04 Rotation:  0*
G04 FullContactRelief:  No*
G04 UndefLineWidth:     0.000*
G04 ================== end FILE IDENTIFICATION RECORD ====================*
%FSLAX34Y34*MOMM*%
%IR0*IPPOS*OFA0.00000B0.00000*MIA0B0*SFA1.00000B1.00000*%
%ADD26R,.7X1.1*%
%ADD11C,3.*%
%ADD23R,2.2X.8*%
%ADD20R,1.3X.8*%
%ADD21R,2.4X.8*%
%ADD16C,3.3*%
%ADD10C,4.2*%
%ADD28C,2.15*%
%ADD30C,2.7*%
%ADD17C,1.8*%
%ADD32C,2.8*%
%ADD13C,1.75*%
%ADD25R,2.15X2.15*%
%ADD15R,2.25X2.25*%
%ADD22R,1.75X.85*%
%ADD12R,1.75X1.75*%
%ADD24O,1.2X2.15*%
%ADD29R,1.6X2.*%
%ADD18R,1.3X1.6*%
%ADD14R,1.15X1.6*%
%ADD19R,1.3X2.9*%
%ADD31R,2.7X2.7*%
%ADD27R,1.95X1.2*%
%LPD*%
G75*
G54D10*
X-76200Y-50800D03*
Y838200D03*
G54D20*
X228900Y-1010160D03*
Y-1029160D03*
X202900D03*
Y-1019660D03*
Y-1010160D03*
X228900Y-756160D03*
Y-775160D03*
X202900D03*
Y-765660D03*
Y-756160D03*
X228900Y-521160D03*
X202900D03*
X228900Y-502160D03*
X202900Y-511660D03*
Y-502160D03*
G54D11*
X-10800Y-1393350D03*
Y846650D03*
X809200Y-1393350D03*
Y846650D03*
G54D12*
X0Y0D03*
X-50800D03*
X0Y228600D03*
X-50800D03*
X0Y482600D03*
X-50800D03*
X0Y736600D03*
X-50800D03*
X101600Y-685800D03*
X355600Y400050D03*
X558800Y288440D03*
Y390040D03*
Y491640D03*
Y593240D03*
G54D30*
X806450Y-1191110D03*
Y-1140310D03*
Y-1089510D03*
Y-987910D03*
Y-1038710D03*
Y-937110D03*
Y-835510D03*
Y-886310D03*
Y-784710D03*
Y-683110D03*
Y-733910D03*
Y-632310D03*
Y-530710D03*
Y-581510D03*
Y-479910D03*
Y-117960D03*
Y-67160D03*
Y-16360D03*
Y85240D03*
Y34440D03*
Y136040D03*
Y237640D03*
Y186840D03*
Y288440D03*
Y390040D03*
Y339240D03*
Y440840D03*
Y542440D03*
Y491640D03*
Y593240D03*
G54D21*
X266700Y-1083160D03*
Y-1070460D03*
Y-1057760D03*
Y-1045060D03*
Y-1032360D03*
Y-1019660D03*
Y-1006960D03*
Y-994260D03*
Y-981560D03*
Y-968860D03*
Y-829160D03*
Y-816460D03*
Y-803760D03*
Y-791060D03*
Y-778360D03*
Y-765660D03*
Y-752960D03*
Y-740260D03*
Y-727560D03*
Y-714860D03*
Y-575160D03*
Y-562460D03*
Y-549760D03*
Y-537060D03*
Y-524360D03*
Y-511660D03*
Y-498960D03*
Y-486260D03*
Y-473560D03*
Y-460860D03*
X358700Y-1083160D03*
Y-1070460D03*
Y-1057760D03*
Y-1045060D03*
Y-1032360D03*
Y-1019660D03*
Y-1006960D03*
Y-994260D03*
Y-981560D03*
Y-968860D03*
Y-829160D03*
Y-816460D03*
Y-803760D03*
Y-791060D03*
Y-778360D03*
Y-765660D03*
Y-752960D03*
Y-740260D03*
Y-727560D03*
Y-714860D03*
Y-575160D03*
Y-562460D03*
Y-549760D03*
Y-537060D03*
Y-524360D03*
Y-511660D03*
Y-498960D03*
Y-486260D03*
Y-473560D03*
Y-460860D03*
G54D31*
X806450Y-429110D03*
Y644040D03*
G54D22*
X303950Y-156060D03*
Y-168760D03*
Y-181460D03*
Y15390D03*
Y2690D03*
Y28090D03*
X303550Y199540D03*
Y186840D03*
Y174140D03*
X369950Y-156060D03*
Y-181460D03*
Y2690D03*
Y28090D03*
X369550Y199540D03*
Y174140D03*
G54D13*
X0Y76200D03*
Y50800D03*
Y25400D03*
X-50800Y76200D03*
Y50800D03*
Y25400D03*
X0Y152400D03*
Y127000D03*
Y101600D03*
X-50800Y152400D03*
Y127000D03*
Y101600D03*
X0Y203200D03*
Y177800D03*
X-50800Y203200D03*
Y177800D03*
X0Y304800D03*
Y279400D03*
Y254000D03*
X-50800Y304800D03*
Y279400D03*
Y254000D03*
X0Y381000D03*
Y355600D03*
Y330200D03*
X-50800Y381000D03*
Y355600D03*
Y330200D03*
X0Y457200D03*
Y431800D03*
Y406400D03*
X-50800Y457200D03*
Y431800D03*
Y406400D03*
X0Y533400D03*
Y508000D03*
X-50800Y533400D03*
Y508000D03*
X0Y609600D03*
Y584200D03*
Y558800D03*
X-50800Y609600D03*
Y584200D03*
Y558800D03*
X0Y685800D03*
Y660400D03*
Y635000D03*
X-50800Y685800D03*
Y660400D03*
Y635000D03*
X0Y762000D03*
Y711200D03*
X-50800Y762000D03*
Y711200D03*
X0Y787400D03*
X-50800D03*
X609600Y288440D03*
X558800Y339240D03*
X609600D03*
Y390040D03*
X558800Y440840D03*
X609600D03*
X558800Y542440D03*
X609600D03*
Y491640D03*
Y593240D03*
X558800Y644040D03*
X609600D03*
X660400Y288440D03*
X635000D03*
Y339240D03*
X660400D03*
Y390040D03*
X635000D03*
Y440840D03*
X660400D03*
X635000Y542440D03*
X660400D03*
Y491640D03*
X635000D03*
X660400Y593240D03*
X635000D03*
Y644040D03*
X660400D03*
G54D14*
X47600Y127000D03*
X28600D03*
X47600Y152400D03*
X28600D03*
X47600Y203200D03*
X28600D03*
X47600Y177800D03*
X28600D03*
X47600Y228600D03*
X28600D03*
X47600Y279400D03*
X28600D03*
X47600Y254000D03*
X28600D03*
X47600Y457200D03*
X28600D03*
X47600Y533400D03*
X28600D03*
X47600Y508000D03*
X28600D03*
X47600Y482600D03*
X28600D03*
X47600Y609600D03*
X28600D03*
X47600Y584200D03*
X28600D03*
X47600Y558800D03*
X28600D03*
X187300Y-1054100D03*
X168300D03*
X206350Y-930760D03*
X187350D03*
Y-908050D03*
X206350D03*
Y-676760D03*
X187350D03*
X206350Y-651360D03*
X187350D03*
X206350Y-397360D03*
X187350D03*
X206350Y-422760D03*
X187350D03*
X523850Y-1140310D03*
X504850D03*
X523850Y-1064110D03*
X504850D03*
X523850Y-1114910D03*
X504850D03*
X523850Y-1089510D03*
X504850D03*
X523850Y-981560D03*
X504850D03*
X523850Y-956160D03*
X504850D03*
X523850Y-835510D03*
X504850D03*
X523850Y-860910D03*
X504850D03*
X523850Y-886310D03*
X504850D03*
X523850Y-810110D03*
X504850D03*
X523850Y-727560D03*
X504850D03*
X523850Y-702160D03*
X504850D03*
X523850Y-632310D03*
X504850D03*
X523850Y-606910D03*
X504850D03*
X523850Y-581510D03*
X504850D03*
X523850Y-556110D03*
X504850D03*
X523850Y-473560D03*
X504850D03*
X523850Y-448160D03*
X504850D03*
G54D32*
X889200Y-1384300D03*
Y838200D03*
G54D23*
X372600Y488950D03*
Y501650D03*
Y514350D03*
Y527050D03*
Y539750D03*
Y552450D03*
Y565150D03*
Y577850D03*
Y590550D03*
X465600Y539750D03*
Y527050D03*
Y514350D03*
Y501650D03*
Y488950D03*
Y590550D03*
Y577850D03*
Y565150D03*
Y552450D03*
G54D24*
X463550Y-804810D03*
X438150D03*
Y-713810D03*
X463550D03*
Y-550810D03*
X438150D03*
Y-459810D03*
X463550D03*
X590550Y-1058810D03*
X565150D03*
Y-967810D03*
X590550D03*
Y-804810D03*
X565150D03*
Y-713810D03*
X590550D03*
Y-550810D03*
X565150D03*
Y-459810D03*
X590550D03*
G54D15*
X72300Y311150D03*
X29300D03*
X78650Y647700D03*
X35650D03*
X429350Y-168760D03*
Y15390D03*
Y186840D03*
X472350Y-168760D03*
Y15390D03*
Y186840D03*
X559200Y-209310D03*
Y-166310D03*
Y-25160D03*
Y17840D03*
X558800Y146290D03*
Y189290D03*
X664300Y-1127610D03*
Y-1064110D03*
Y-1013310D03*
Y-949810D03*
Y-873610D03*
Y-810110D03*
Y-759310D03*
Y-695810D03*
Y-619610D03*
Y-556110D03*
Y-505310D03*
Y-441810D03*
X707300Y-1127610D03*
Y-1064110D03*
Y-1013310D03*
Y-949810D03*
Y-873610D03*
Y-810110D03*
Y-759310D03*
Y-695810D03*
Y-619610D03*
Y-556110D03*
Y-505310D03*
Y-441810D03*
X736600Y292340D03*
Y393940D03*
Y335340D03*
Y436940D03*
Y538540D03*
Y495540D03*
Y597140D03*
Y640140D03*
G54D25*
X426250Y-257660D03*
Y-73510D03*
X425850Y97940D03*
X642150Y-200510D03*
Y-16360D03*
X641750Y155090D03*
G54D16*
X63500Y355600D03*
Y692150D03*
G54D17*
X127000Y-685800D03*
X381000Y400050D03*
G54D26*
X394100Y-155760D03*
Y-181760D03*
Y2390D03*
Y28390D03*
X393700Y199840D03*
Y173840D03*
G54D27*
X527050Y-1034660D03*
Y-1004660D03*
Y-780660D03*
Y-750660D03*
Y-526660D03*
Y-496660D03*
X628650Y-1034660D03*
Y-1004660D03*
Y-780660D03*
Y-750660D03*
Y-526660D03*
Y-496660D03*
G54D18*
X213750Y-1073150D03*
X230750D03*
X220100Y-981560D03*
Y-956160D03*
X232800Y-930760D03*
X213750Y-803760D03*
X230750D03*
X220100Y-727560D03*
X232800Y-676760D03*
X220100Y-702160D03*
X213750Y-549760D03*
X230750D03*
X220100Y-473560D03*
Y-448160D03*
X232800Y-422760D03*
X237100Y-981560D03*
Y-956160D03*
X249800Y-930760D03*
X237100Y-727560D03*
X249800Y-676760D03*
X237100Y-702160D03*
Y-473560D03*
Y-448160D03*
X249800Y-422760D03*
X287800Y-200510D03*
X304800D03*
X287800Y-16360D03*
X304800D03*
X287800Y155090D03*
X304800D03*
X385200Y-1083160D03*
X372500Y-943460D03*
X385200Y-968860D03*
Y-829160D03*
Y-714860D03*
X372500Y-689460D03*
X385200Y-575160D03*
Y-460860D03*
X372500Y-435460D03*
X402200Y-1083160D03*
X389500Y-943460D03*
X402200Y-968860D03*
Y-829160D03*
Y-714860D03*
X389500Y-689460D03*
X402200Y-575160D03*
Y-460860D03*
X389500Y-435460D03*
X448700Y311150D03*
Y635000D03*
X465700Y311150D03*
Y635000D03*
G54D19*
X200400Y-1102210D03*
X231400D03*
X200400Y-835510D03*
X231400D03*
X200400Y-581510D03*
X231400D03*
X371850Y-1114910D03*
Y-860910D03*
Y-606910D03*
X402850Y-1114910D03*
Y-860910D03*
Y-606910D03*
X427250Y-225910D03*
Y-41760D03*
X426850Y129690D03*
X475250Y-225910D03*
Y-41760D03*
X474850Y129690D03*
X691150Y-168760D03*
X643150D03*
X691150Y15390D03*
X643150D03*
X690750Y186840D03*
X642750D03*
G54D28*
X476250Y-257660D03*
Y-73510D03*
X475850Y97940D03*
X692150Y-200510D03*
Y-16360D03*
X691750Y155090D03*
G54D29*
X762800Y-1127610D03*
X735800D03*
X762800Y-1064110D03*
X735800D03*
X762800Y-1013310D03*
X735800D03*
X762800Y-949810D03*
X735800D03*
X762800Y-873610D03*
X735800D03*
X762800Y-810110D03*
X735800D03*
X762800Y-759310D03*
X735800D03*
X762800Y-695810D03*
X735800D03*
X762800Y-619610D03*
X735800D03*
X762800Y-556110D03*
X735800D03*
X762800Y-505310D03*
X735800D03*
X762800Y-441810D03*
X735800D03*
M02*
