G04 ================== begin FILE IDENTIFICATION RECORD ==================*
G04 Layout Name:  d:/Project/Circuit/KVP/03v3/pcb/kvp_03v3.brd*
G04 Film Name:    MASK_BOT*
G04 File Format:  Gerber RS274X*
G04 File Origin:  Cadence Allegro 16.6-S027*
G04 Origin Date:  Mon May 05 09:39:23 2014*
G04 *
G04 Layer:  VIA CLASS/SOLDERMASK_BOTTOM*
G04 Layer:  PIN/SOLDERMASK_BOTTOM*
G04 Layer:  PACKAGE GEOMETRY/SOLDERMASK_BOTTOM*
G04 *
G04 Offset:    (0.000 0.000)*
G04 Mirror:    No*
G04 Mode:      Positive*
G04 Rotation:  0*
G04 FullContactRelief:  No*
G04 UndefLineWidth:     0.000*
G04 ================== end FILE IDENTIFICATION RECORD ====================*
%FSLAX34Y34*MOMM*%
%IR0*IPPOS*OFA0.00000B0.00000*MIA0B0*SFA1.00000B1.00000*%
%ADD11C,3.*%
%ADD14C,3.3*%
%ADD10C,4.2*%
%ADD18C,2.15*%
%ADD21C,2.7*%
%ADD15C,1.8*%
%ADD23C,2.8*%
%ADD13C,1.75*%
%ADD16R,2.15X2.15*%
%ADD12R,1.75X1.75*%
%ADD19R,2.X1.45*%
%ADD17R,1.3X2.9*%
%ADD20R,2.9X1.3*%
%ADD22R,2.7X2.7*%
%LPD*%
G75*
G54D10*
X-76200Y-50800D03*
Y838200D03*
G54D20*
X590950Y-211810D03*
X552850D03*
X590950Y-163810D03*
X552850D03*
X590950Y-27660D03*
X552850D03*
X590950Y20340D03*
X552850D03*
X552450Y143790D03*
X590550D03*
X552450Y191790D03*
X590550D03*
G54D11*
X-10800Y-1393350D03*
Y846650D03*
X809200Y-1393350D03*
Y846650D03*
G54D12*
X0Y0D03*
X-50800D03*
X0Y228600D03*
X-50800D03*
X0Y482600D03*
X-50800D03*
X0Y736600D03*
X-50800D03*
X101600Y-685800D03*
X355600Y400050D03*
X558800Y288440D03*
Y390040D03*
Y491640D03*
Y593240D03*
G54D21*
X806450Y-1191110D03*
Y-1140310D03*
Y-1089510D03*
Y-987910D03*
Y-1038710D03*
Y-937110D03*
Y-835510D03*
Y-886310D03*
Y-784710D03*
Y-683110D03*
Y-733910D03*
Y-632310D03*
Y-530710D03*
Y-581510D03*
Y-479910D03*
Y-117960D03*
Y-67160D03*
Y-16360D03*
Y85240D03*
Y34440D03*
Y136040D03*
Y237640D03*
Y186840D03*
Y288440D03*
Y390040D03*
Y339240D03*
Y440840D03*
Y542440D03*
Y491640D03*
Y593240D03*
G54D22*
Y-429110D03*
Y644040D03*
G54D13*
X0Y76200D03*
Y50800D03*
Y25400D03*
X-50800Y76200D03*
Y50800D03*
Y25400D03*
X0Y152400D03*
Y127000D03*
Y101600D03*
X-50800Y152400D03*
Y127000D03*
Y101600D03*
X0Y203200D03*
Y177800D03*
X-50800Y203200D03*
Y177800D03*
X0Y304800D03*
Y279400D03*
Y254000D03*
X-50800Y304800D03*
Y279400D03*
Y254000D03*
X0Y381000D03*
Y355600D03*
Y330200D03*
X-50800Y381000D03*
Y355600D03*
Y330200D03*
X0Y457200D03*
Y431800D03*
Y406400D03*
X-50800Y457200D03*
Y431800D03*
Y406400D03*
X0Y533400D03*
Y508000D03*
X-50800Y533400D03*
Y508000D03*
X0Y609600D03*
Y584200D03*
Y558800D03*
X-50800Y609600D03*
Y584200D03*
Y558800D03*
X0Y685800D03*
Y660400D03*
Y635000D03*
X-50800Y685800D03*
Y660400D03*
Y635000D03*
X0Y762000D03*
Y711200D03*
X-50800Y762000D03*
Y711200D03*
X0Y787400D03*
X-50800D03*
X609600Y288440D03*
X558800Y339240D03*
X609600D03*
Y390040D03*
X558800Y440840D03*
X609600D03*
X558800Y542440D03*
X609600D03*
Y491640D03*
Y593240D03*
X558800Y644040D03*
X609600D03*
X660400Y288440D03*
X635000D03*
Y339240D03*
X660400D03*
Y390040D03*
X635000D03*
Y440840D03*
X660400D03*
X635000Y542440D03*
X660400D03*
Y491640D03*
X635000D03*
X660400Y593240D03*
X635000D03*
Y644040D03*
X660400D03*
G54D23*
X889200Y-1384300D03*
Y838200D03*
G54D14*
X63500Y355600D03*
Y692150D03*
G54D15*
X127000Y-685800D03*
X381000Y400050D03*
G54D16*
X426250Y-257660D03*
Y-73510D03*
X425850Y97940D03*
X642150Y-200510D03*
Y-16360D03*
X641750Y155090D03*
G54D17*
X427250Y-168760D03*
Y15390D03*
X426850Y186840D03*
X475250Y-168760D03*
Y15390D03*
X474850Y186840D03*
G54D18*
X476250Y-257660D03*
Y-73510D03*
X475850Y97940D03*
X692150Y-200510D03*
Y-16360D03*
X691750Y155090D03*
G54D19*
X521100Y-196460D03*
Y-166460D03*
Y-12310D03*
Y17690D03*
X520700Y159140D03*
Y189140D03*
M02*
