G04 ================== begin FILE IDENTIFICATION RECORD ==================*
G04 Layout Name:  d:/Project/Circuit/KVP/03v3/pcb/kvp_03v3.brd*
G04 Film Name:    SILK_TOP*
G04 File Format:  Gerber RS274X*
G04 File Origin:  Cadence Allegro 16.6-S027*
G04 Origin Date:  Mon May 05 09:39:23 2014*
G04 *
G04 Layer:  MANUFACTURING/AUTOSILK_TOP*
G04 *
G04 Offset:    (0.000 0.000)*
G04 Mirror:    No*
G04 Mode:      Positive*
G04 Rotation:  0*
G04 FullContactRelief:  No*
G04 UndefLineWidth:     0.200*
G04 ================== end FILE IDENTIFICATION RECORD ====================*
%FSLAX34Y34*MOMM*%
%IR0*IPPOS*OFA0.00000B0.00000*MIA0B0*SFA1.00000B1.00000*%
%ADD10C,.2*%
%ADD11C,.4*%
%ADD12C,.5*%
%ADD13C,.15*%
%ADD14C,.25*%
G75*
%LPD*%
G75*
G54D10*
G01X-96200Y868200D02*
X-46200D01*
Y828200D01*
X-66200Y808200D01*
Y-21800D01*
X-46200Y-41800D01*
Y-81800D01*
X-96200D01*
G01X38100Y121500D02*
Y132500D01*
G01Y146900D02*
Y157900D01*
G01Y197700D02*
Y208700D01*
G01Y172300D02*
Y183300D01*
G01Y223100D02*
Y234100D01*
G01X24800Y297150D02*
Y293150D01*
X76800D01*
Y297150D01*
G01X38100Y273900D02*
Y284900D01*
G01Y248500D02*
Y259500D01*
G01X24800Y325150D02*
Y329150D01*
X76800D01*
Y325150D01*
G01X38100Y451700D02*
Y462700D01*
G01Y527900D02*
Y538900D01*
G01Y502500D02*
Y513500D01*
G01Y477100D02*
Y488100D01*
G01Y604100D02*
Y615100D01*
G01Y578700D02*
Y589700D01*
G01Y553300D02*
Y564300D01*
G01X31150Y661700D02*
Y665700D01*
X83150D01*
Y661700D01*
G01X31150Y633700D02*
Y629700D01*
X83150D01*
Y633700D01*
G01X177800Y-1059600D02*
Y-1048600D01*
G01X222400Y-1089710D02*
X209400D01*
G01X222400Y-1114710D02*
X209400D01*
G01X211650Y-1034160D02*
Y-1005160D01*
X220150D01*
Y-1034160D01*
X211650D01*
G01X196850Y-936260D02*
Y-925260D01*
G01Y-902550D02*
Y-913550D01*
G01X222400Y-848010D02*
X209400D01*
G01X222400Y-823010D02*
X209400D01*
G01X211650Y-780160D02*
Y-751160D01*
X220150D01*
Y-780160D01*
X211650D01*
G01X196850Y-682260D02*
Y-671260D01*
G01Y-656860D02*
Y-645860D01*
G01X222400Y-569010D02*
X209400D01*
G01X222400Y-594010D02*
X209400D01*
G01X211650Y-526160D02*
Y-497160D01*
X220150D01*
Y-526160D01*
X211650D01*
G01X196850Y-402860D02*
Y-391860D01*
G01Y-428260D02*
Y-417260D01*
G01X284200Y-958860D02*
Y-1093860D01*
X341700D01*
Y-958860D01*
X284200D01*
G01Y-704860D02*
Y-839860D01*
X341700D01*
Y-704860D01*
X284200D01*
G01Y-450860D02*
Y-585860D01*
X341700D01*
Y-450860D01*
X284200D01*
G01X274320Y771040D02*
X280670Y791360D01*
X287020Y771040D01*
G01X284730Y778150D02*
X276610D01*
G01X296420Y764270D02*
Y784590D01*
G01Y781540D02*
X297690Y783230D01*
X298960Y784250D01*
X300990Y784590D01*
X302770Y784250D01*
X304550Y782550D01*
X305310Y780180D01*
X305560Y777810D01*
X305310Y775440D01*
X304550Y773070D01*
X303020Y771720D01*
X300990Y771040D01*
X299210Y771380D01*
X297430Y772390D01*
X296420Y773750D01*
G01X317750Y771040D02*
Y784590D01*
G01Y781880D02*
X319020Y783230D01*
X320290Y784250D01*
X322070Y784590D01*
X323340Y784250D01*
X324870Y783230D01*
G01X341630Y784590D02*
Y771040D01*
G01Y790010D02*
X341120Y790340D01*
Y791020D01*
X341630Y791360D01*
X342140Y791020D01*
Y790340D01*
X341630Y790010D01*
G01X361950Y771040D02*
Y791360D01*
G01X397760Y787970D02*
X399290Y790010D01*
X401070Y791020D01*
X403100Y791360D01*
X405640Y790680D01*
X407420Y788990D01*
X407920Y786960D01*
X407670Y784920D01*
X406650Y783230D01*
X401570Y779850D01*
X399290Y777470D01*
X397760Y774090D01*
X397260Y771040D01*
X407920D01*
G01X422910Y791360D02*
X420880Y790680D01*
X419350Y788990D01*
X418340Y786960D01*
X417580Y784250D01*
X417320Y781200D01*
X417580Y778150D01*
X418340Y775440D01*
X419350Y773410D01*
X420880Y771720D01*
X422910Y771040D01*
X424940Y771720D01*
X426470Y773410D01*
X427480Y775440D01*
X428240Y778150D01*
X428500Y781200D01*
X428240Y784250D01*
X427480Y786960D01*
X426470Y788990D01*
X424940Y790680D01*
X422910Y791360D01*
G01X443230Y771040D02*
Y791360D01*
X440180Y787300D01*
G01Y771040D02*
X446280D01*
G01X466600D02*
Y791360D01*
X457200Y776800D01*
X469900D01*
G01X275080Y809140D02*
Y829460D01*
G01X284730D02*
X275080Y816930D01*
G01X286260Y809140D02*
X279400Y822690D01*
G01X294640Y829460D02*
X300990Y809140D01*
X307340Y829460D01*
G01X316230Y809140D02*
Y829460D01*
X322330D01*
X324360Y828440D01*
X325880Y826070D01*
X326390Y823360D01*
X325880Y820650D01*
X324610Y818620D01*
X322330Y817610D01*
X316230D01*
G01X334010Y802370D02*
X349250D01*
G01X361950Y829460D02*
X359920Y828780D01*
X358390Y827090D01*
X357380Y825060D01*
X356620Y822350D01*
X356360Y819300D01*
X356620Y816250D01*
X357380Y813540D01*
X358390Y811510D01*
X359920Y809820D01*
X361950Y809140D01*
X363980Y809820D01*
X365510Y811510D01*
X366520Y813540D01*
X367280Y816250D01*
X367540Y819300D01*
X367280Y822350D01*
X366520Y825060D01*
X365510Y827090D01*
X363980Y828780D01*
X361950Y829460D01*
G01X376680Y813200D02*
X378210Y810830D01*
X380240Y809480D01*
X382520Y809140D01*
X384560Y809480D01*
X386590Y811170D01*
X387860Y813200D01*
X388110Y815240D01*
X387600Y817610D01*
X385830Y819300D01*
X384050Y819980D01*
X381760D01*
G01X384050D02*
X385570Y820990D01*
X386840Y822690D01*
X387350Y824720D01*
X386840Y826750D01*
X385570Y828440D01*
X383290Y829460D01*
X381000Y829120D01*
X378710Y827770D01*
G01X398020Y822690D02*
X402590Y809140D01*
X407160Y822690D01*
G01X417320Y813200D02*
X418850Y810830D01*
X420880Y809480D01*
X423160Y809140D01*
X425200Y809480D01*
X427230Y811170D01*
X428500Y813200D01*
X428750Y815240D01*
X428240Y817610D01*
X426470Y819300D01*
X424690Y819980D01*
X422400D01*
G01X424690D02*
X426210Y820990D01*
X427480Y822690D01*
X427990Y824720D01*
X427480Y826750D01*
X426210Y828440D01*
X423930Y829460D01*
X421640Y829120D01*
X419350Y827770D01*
G01X393850Y-1102410D02*
X380850D01*
G01X393850Y-1127410D02*
X380850D01*
G01X393850Y-848410D02*
X380850D01*
G01X393850Y-873410D02*
X380850D01*
G01X393850Y-619410D02*
X380850D01*
G01X393850Y-594410D02*
X380850D01*
G01X451250Y-207660D02*
X521250D01*
Y-307660D01*
X381250D01*
Y-207660D01*
X451250D01*
G01X380700Y-154760D02*
X388100D01*
G01X356000Y-146540D02*
X317900D01*
Y-190980D01*
X356000D01*
Y-146540D01*
G01X451250Y-23510D02*
X521250D01*
Y-123510D01*
X381250D01*
Y-23510D01*
X451250D01*
G01X356000Y37610D02*
X317900D01*
Y-6830D01*
X356000D01*
Y37610D01*
G01X450850Y147940D02*
X520850D01*
Y47940D01*
X380850D01*
Y147940D01*
X450850D01*
G01X380700Y29390D02*
X388100D01*
G01X355600Y209060D02*
X317500D01*
Y164620D01*
X355600D01*
Y209060D01*
G01X380300Y200840D02*
X387700D01*
G01X450850Y-1257300D02*
Y-1270000D01*
X463550D01*
Y-1257300D01*
X450850D01*
X463550Y-1270000D01*
G01Y-1257300D02*
X450850Y-1270000D01*
G01X431800Y-1257300D02*
Y-1270000D01*
X444500D01*
Y-1257300D01*
X431800D01*
X444500Y-1270000D01*
G01Y-1257300D02*
X431800Y-1270000D01*
G01X425410Y-1275950D02*
X469860D01*
Y-1231500D01*
X425410D01*
Y-1275950D01*
G01X425450Y-1225550D02*
X469900D01*
Y-1181100D01*
X425450D01*
Y-1225550D01*
G01X450850Y-1187450D02*
Y-1200150D01*
X463550D01*
Y-1187450D01*
X450850D01*
X463550Y-1200150D01*
G01Y-1187450D02*
X450850Y-1200150D01*
G01X444500Y-1187450D02*
X431800Y-1200150D01*
G01Y-1187450D02*
Y-1200150D01*
X444500D01*
Y-1187450D01*
X431800D01*
X444500Y-1200150D01*
G01X480850Y-791810D02*
X420850D01*
Y-726810D01*
X480850D01*
Y-791810D01*
G01Y-537810D02*
X420850D01*
Y-472810D01*
X480850D01*
Y-537810D01*
G01X436250Y-238410D02*
X466250D01*
G01X476850Y-182760D02*
Y-186760D01*
X424850D01*
Y-182760D01*
G01X476850Y-154760D02*
Y-150760D01*
X424850D01*
Y-154760D01*
G01X387600Y-177260D02*
Y-160260D01*
G01X400600Y-177260D02*
Y-160260D01*
G01Y-173760D02*
X387600D01*
G01X400600Y-171760D02*
X387600D01*
G01X400600Y-169760D02*
X387600D01*
G01X384100Y-150760D02*
Y-158760D01*
G01X436250Y-213410D02*
X466250D01*
G01X476850Y1390D02*
Y-2610D01*
X424850D01*
Y1390D01*
G01X387600Y6890D02*
Y23890D01*
G01X400600Y6890D02*
Y23890D01*
G01Y10390D02*
X387600D01*
G01X436250Y-54260D02*
X466250D01*
G01X436250Y-29260D02*
X466250D01*
G01X476850Y29390D02*
Y33390D01*
X424850D01*
Y29390D01*
G01X400600Y12390D02*
X387600D01*
G01X400600Y14390D02*
X387600D01*
G01X384100Y33390D02*
Y25390D01*
G01X435850Y117190D02*
X465850D01*
G01X435850Y142190D02*
X465850D01*
G01X476850Y172840D02*
Y168840D01*
X424850D01*
Y172840D01*
G01X476850Y200840D02*
Y204840D01*
X424850D01*
Y200840D01*
G01X387200Y178340D02*
Y195340D01*
G01X400200Y178340D02*
Y195340D01*
G01Y181840D02*
X387200D01*
G01X400200Y183840D02*
X387200D01*
G01X400200Y185840D02*
X387200D01*
G01X383700Y204840D02*
Y196840D01*
G01X385850Y481750D02*
Y597750D01*
X452350D01*
Y481750D01*
X385850D01*
G01X514350Y-1145810D02*
Y-1134810D01*
G01Y-1069610D02*
Y-1058610D01*
G01Y-1120410D02*
Y-1109410D01*
G01Y-1095010D02*
Y-1084010D01*
G01Y-987060D02*
Y-976060D01*
G01X519050Y-1013160D02*
Y-1026160D01*
G01X535050Y-1013160D02*
Y-1026160D01*
G01X514350Y-961660D02*
Y-950660D01*
G01Y-841010D02*
Y-830010D01*
G01Y-866410D02*
Y-855410D01*
G01Y-891810D02*
Y-880810D01*
G01Y-815610D02*
Y-804610D01*
G01X519050Y-759160D02*
Y-772160D01*
G01X535050Y-759160D02*
Y-772160D01*
G01X514350Y-733060D02*
Y-722060D01*
G01Y-707660D02*
Y-696660D01*
G01Y-637810D02*
Y-626810D01*
G01Y-612410D02*
Y-601410D01*
G01Y-587010D02*
Y-576010D01*
G01Y-561610D02*
Y-550610D01*
G01Y-479060D02*
Y-468060D01*
G01Y-453660D02*
Y-442660D01*
G01X519050Y-505160D02*
Y-518160D01*
G01X535050Y-505160D02*
Y-518160D01*
G01X577850Y-1289050D02*
Y-1301750D01*
X590550D01*
Y-1289050D01*
X577850D01*
X590550Y-1301750D01*
G01Y-1289050D02*
X577850Y-1301750D01*
G01X558800Y-1289050D02*
Y-1301750D01*
X571500D01*
Y-1289050D01*
X558800D01*
X571500Y-1301750D01*
G01Y-1289050D02*
X558800Y-1301750D01*
G01X552450Y-1327150D02*
X596900D01*
Y-1282700D01*
X552450D01*
Y-1327150D01*
G01X558800Y-1257300D02*
Y-1270000D01*
X571500D01*
Y-1257300D01*
X558800D01*
X571500Y-1270000D01*
G01Y-1257300D02*
X558800Y-1270000D01*
G01X577850Y-1238250D02*
Y-1250950D01*
X590550D01*
Y-1238250D01*
X577850D01*
X590550Y-1250950D01*
G01Y-1238250D02*
X577850Y-1250950D01*
G01Y-1206500D02*
Y-1219200D01*
X590550D01*
Y-1206500D01*
X577850D01*
X590550Y-1219200D01*
G01Y-1206500D02*
X577850Y-1219200D01*
G01X558800Y-1206500D02*
Y-1219200D01*
X571500D01*
Y-1206500D01*
X558800D01*
X571500Y-1219200D01*
G01Y-1206500D02*
X558800Y-1219200D01*
G01X552450Y-1225550D02*
X596900D01*
Y-1181100D01*
X552450D01*
Y-1225550D01*
G01Y-1276350D02*
X596900D01*
Y-1231900D01*
X552450D01*
Y-1276350D01*
G01X607850Y-1045810D02*
X547850D01*
Y-980810D01*
X607850D01*
Y-1045810D01*
G01Y-791810D02*
X547850D01*
Y-726810D01*
X607850D01*
Y-791810D01*
G01Y-537810D02*
X547850D01*
Y-472810D01*
X607850D01*
Y-537810D01*
G01X667150Y-150510D02*
X737150D01*
Y-250510D01*
X597150D01*
Y-150510D01*
X667150D01*
G01X573200Y-161810D02*
X577200D01*
Y-213810D01*
X573200D01*
G01X545200Y-161810D02*
X541200D01*
Y-213810D01*
X545200D01*
G01X667150Y33640D02*
X737150D01*
Y-66360D01*
X597150D01*
Y33640D01*
X667150D01*
G01X573200Y22340D02*
X577200D01*
Y-29660D01*
X573200D01*
G01X545200Y22340D02*
X541200D01*
Y-29660D01*
X545200D01*
G01X666750Y205090D02*
X736750D01*
Y105090D01*
X596750D01*
Y205090D01*
X666750D01*
G01X572800Y193790D02*
X576800D01*
Y141790D01*
X572800D01*
G01X544800Y193790D02*
X540800D01*
Y141790D01*
X544800D01*
G01X546100Y275740D02*
Y351940D01*
X698500D01*
Y275740D01*
X546100D01*
G01X558800Y307490D02*
Y320190D01*
G01X546100Y377340D02*
Y453540D01*
X698500D01*
Y377340D01*
X546100D01*
G01X558800Y409090D02*
Y421790D01*
G01X546100Y478940D02*
Y555140D01*
X698500D01*
Y478940D01*
X546100D01*
G01X558800Y510690D02*
Y523390D01*
G01X546100Y580540D02*
Y656740D01*
X698500D01*
Y580540D01*
X546100D01*
G01X558800Y612290D02*
Y624990D01*
G01X711800Y-1141610D02*
Y-1145610D01*
X659800D01*
Y-1141610D01*
G01X711800Y-1078110D02*
Y-1082110D01*
X659800D01*
Y-1078110D01*
G01X711800Y-1113610D02*
Y-1109610D01*
X659800D01*
Y-1113610D01*
G01X711800Y-1050110D02*
Y-1046110D01*
X659800D01*
Y-1050110D01*
G01X711800Y-1027310D02*
Y-1031310D01*
X659800D01*
Y-1027310D01*
G01X711800Y-999310D02*
Y-995310D01*
X659800D01*
Y-999310D01*
G01X620650Y-1013160D02*
Y-1026160D01*
G01X636650Y-1013160D02*
Y-1026160D01*
G01X711800Y-963810D02*
Y-967810D01*
X659800D01*
Y-963810D01*
G01X711800Y-935810D02*
Y-931810D01*
X659800D01*
Y-935810D01*
G01X711800Y-824110D02*
Y-828110D01*
X659800D01*
Y-824110D01*
G01X711800Y-887610D02*
Y-891610D01*
X659800D01*
Y-887610D01*
G01X711800Y-859610D02*
Y-855610D01*
X659800D01*
Y-859610D01*
G01X711800Y-796110D02*
Y-792110D01*
X659800D01*
Y-796110D01*
G01X711800Y-773310D02*
Y-777310D01*
X659800D01*
Y-773310D01*
G01X620650Y-759160D02*
Y-772160D01*
G01X636650Y-759160D02*
Y-772160D01*
G01X711800Y-745310D02*
Y-741310D01*
X659800D01*
Y-745310D01*
G01X711800Y-709810D02*
Y-713810D01*
X659800D01*
Y-709810D01*
G01X711800Y-681810D02*
Y-677810D01*
X659800D01*
Y-681810D01*
G01X711800Y-633610D02*
Y-637610D01*
X659800D01*
Y-633610D01*
G01X711800Y-605610D02*
Y-601610D01*
X659800D01*
Y-605610D01*
G01X711800Y-570110D02*
Y-574110D01*
X659800D01*
Y-570110D01*
G01X711800Y-542110D02*
Y-538110D01*
X659800D01*
Y-542110D01*
G01X711800Y-519310D02*
Y-523310D01*
X659800D01*
Y-519310D01*
G01X711800Y-491310D02*
Y-487310D01*
X659800D01*
Y-491310D01*
G01X711800Y-455810D02*
Y-459810D01*
X659800D01*
Y-455810D01*
G01X620650Y-505160D02*
Y-518160D01*
G01X636650Y-505160D02*
Y-518160D01*
G01X711800Y-427810D02*
Y-423810D01*
X659800D01*
Y-427810D01*
G01X652150Y-181260D02*
X682150D01*
G01X652150Y-156260D02*
X682150D01*
G01X652150Y2890D02*
X682150D01*
G01X652150Y27890D02*
X682150D01*
G01X651750Y174340D02*
X681750D01*
G01X651750Y199340D02*
X681750D01*
G01X746300Y-1135610D02*
X752300D01*
G01X746300Y-1072110D02*
X752300D01*
G01X746300Y-1056110D02*
X752300D01*
G01X746300Y-1119610D02*
X752300D01*
G01X746300Y-1021310D02*
X752300D01*
G01X746300Y-1005310D02*
X752300D01*
G01X746300Y-957810D02*
X752300D01*
G01X746300Y-941810D02*
X752300D01*
G01X746300Y-881610D02*
X752300D01*
G01X746300Y-865610D02*
X752300D01*
G01X746300Y-818110D02*
X752300D01*
G01X746300Y-802110D02*
X752300D01*
G01X746300Y-767310D02*
X752300D01*
G01X746300Y-751310D02*
X752300D01*
G01X746300Y-703810D02*
X752300D01*
G01X746300Y-687810D02*
X752300D01*
G01X746300Y-627610D02*
X752300D01*
G01X746300Y-611610D02*
X752300D01*
G01X746300Y-564110D02*
X752300D01*
G01X746300Y-548110D02*
X752300D01*
G01X746300Y-513310D02*
X752300D01*
G01X746300Y-497310D02*
X752300D01*
G01X746300Y-449810D02*
X752300D01*
G01X746300Y-433810D02*
X752300D01*
G01X722600Y287840D02*
X718600D01*
Y339840D01*
X722600D01*
G01X750600Y287840D02*
X754600D01*
Y339840D01*
X750600D01*
G01X722600Y389440D02*
X718600D01*
Y441440D01*
X722600D01*
G01X750600Y389440D02*
X754600D01*
Y441440D01*
X750600D01*
G01X722600Y491040D02*
X718600D01*
Y543040D01*
X722600D01*
G01X750600Y491040D02*
X754600D01*
Y543040D01*
X750600D01*
G01X722600Y592640D02*
X718600D01*
Y644640D01*
X722600D01*
G01X750600Y592640D02*
X754600D01*
Y644640D01*
X750600D01*
G01X781050Y-1235560D02*
Y-384660D01*
G01Y-1235560D02*
X908050D01*
Y-384660D01*
X781050D01*
G01D02*
Y-1235560D01*
G01Y-162410D02*
Y688490D01*
G01Y-162410D02*
X908050D01*
Y688490D01*
X781050D01*
G01D02*
Y-162410D01*
G54D11*
G01X271880Y-957040D02*
G03X269880Y-955040I-2000J0D01*
G01D02*
G03X267880Y-957040I0J-2000D01*
G01D02*
G03X269880Y-959040I2000J0D01*
G01D02*
G03X271880Y-957040I0J2000D01*
G01X294140Y-966580D02*
G03I-2000J0D01*
G01X271880Y-703040D02*
G03X269880Y-701040I-2000J0D01*
G01D02*
G03X267880Y-703040I0J-2000D01*
G01D02*
G03X269880Y-705040I2000J0D01*
G01D02*
G03X271880Y-703040I0J2000D01*
G01X294140Y-712580D02*
G03I-2000J0D01*
G01X271880Y-449040D02*
G03X269880Y-447040I-2000J0D01*
G01D02*
G03X267880Y-449040I0J-2000D01*
G01D02*
G03X269880Y-451040I2000J0D01*
G01D02*
G03X271880Y-449040I0J2000D01*
G01X294140Y-458580D02*
G03I-2000J0D01*
G54D12*
G01X349520Y-183460D02*
G03I-2495J0D01*
G01Y690D02*
G03I-2495J0D01*
G01X349120Y172140D02*
G03I-2495J0D01*
G01X433350Y-781810D02*
G03X430850Y-779310I-2500J0D01*
G01D02*
G03X428350Y-781810I0J-2500D01*
G01D02*
G03X430850Y-784310I2500J0D01*
G01D02*
G03X433350Y-781810I0J2500D01*
G01Y-527810D02*
G03X430850Y-525310I-2500J0D01*
G01D02*
G03X428350Y-527810I0J-2500D01*
G01D02*
G03X430850Y-530310I2500J0D01*
G01D02*
G03X433350Y-527810I0J2500D01*
G01X398350Y587750D02*
G03I-2500J0D01*
G01X560350Y-1035810D02*
G03I-2500J0D01*
G01Y-781810D02*
G03I-2500J0D01*
G01Y-527810D02*
G03I-2500J0D01*
G54D13*
G01X-47630Y-24910D02*
X-55500Y-22480D01*
X-47630Y-20050D01*
G01X-50380Y-20920D02*
Y-24040D01*
G01X-47630Y-14610D02*
X-55500D01*
X-53930Y-15780D01*
G01X-47630D02*
Y-13440D01*
G01X-4040Y-20340D02*
X-4440Y-20920D01*
X-4700Y-21600D01*
Y-22380D01*
X-4310Y-23260D01*
X-3650Y-23940D01*
X-2860Y-24430D01*
X-1550Y-24820D01*
X-370Y-24910D01*
X810Y-24720D01*
X1600Y-24430D01*
X2380Y-23840D01*
X2910Y-23160D01*
X3170Y-22480D01*
Y-21800D01*
X2910Y-21120D01*
X2510Y-20530D01*
X1990Y-20050D01*
G01X3170Y-14610D02*
X-4700D01*
X-3130Y-15780D01*
G01X3170D02*
Y-13440D01*
G01X-28900Y806450D02*
X-22150Y819150D01*
G01X-28900D02*
X-22150Y806450D01*
G01X-12580D02*
Y819150D01*
X-14510Y816610D01*
G01Y806450D02*
X-10650D01*
G01X60020Y120650D02*
Y133350D01*
X64040D01*
X65330Y132710D01*
X66130Y131870D01*
X66450Y130170D01*
X66130Y128480D01*
X65170Y127420D01*
X64040Y126790D01*
X60020D01*
G01X64040D02*
X66450Y120650D01*
G01X73130Y131230D02*
X74090Y132500D01*
X75220Y133140D01*
X76510Y133350D01*
X78120Y132930D01*
X79240Y131870D01*
X79560Y130600D01*
X79400Y129330D01*
X78760Y128270D01*
X75540Y126150D01*
X74090Y124670D01*
X73130Y122550D01*
X72810Y120650D01*
X79560D01*
G01X89130D02*
X90260Y120860D01*
X91550Y121500D01*
X92350Y122550D01*
X92670Y124040D01*
X92350Y125520D01*
X91390Y126790D01*
X89940Y127420D01*
X88330D01*
X87370Y127850D01*
X86560Y128900D01*
X86240Y130390D01*
X86720Y131870D01*
X87850Y132930D01*
X89130Y133350D01*
X90420Y132930D01*
X91550Y131870D01*
X92030Y130390D01*
X91710Y128900D01*
X90900Y127850D01*
X89940Y127420D01*
X88330D01*
X86880Y126790D01*
X85920Y125520D01*
X85600Y124040D01*
X85920Y122550D01*
X86720Y121500D01*
X88010Y120860D01*
X89130Y120650D01*
G01X58820Y150000D02*
Y162700D01*
X62840D01*
X64130Y162060D01*
X64930Y161220D01*
X65250Y159520D01*
X64930Y157830D01*
X63970Y156770D01*
X62840Y156140D01*
X58820D01*
G01X62840D02*
X65250Y150000D01*
G01X71930Y155290D02*
X73050Y156770D01*
X74020Y157620D01*
X75310Y158040D01*
X76430Y157620D01*
X77240Y156770D01*
X77880Y155500D01*
X78040Y154020D01*
X77880Y152750D01*
X77240Y151480D01*
X76270Y150420D01*
X75150Y150000D01*
X73860Y150420D01*
X72730Y151690D01*
X72090Y153600D01*
X71930Y155710D01*
X72250Y158470D01*
X72730Y159950D01*
X73540Y161430D01*
X74660Y162490D01*
X75790Y162700D01*
X76920Y162280D01*
X77720Y161220D01*
G01X84880Y155290D02*
X86000Y156770D01*
X86970Y157620D01*
X88260Y158040D01*
X89380Y157620D01*
X90190Y156770D01*
X90830Y155500D01*
X90990Y154020D01*
X90830Y152750D01*
X90190Y151480D01*
X89220Y150420D01*
X88100Y150000D01*
X86810Y150420D01*
X85680Y151690D01*
X85040Y153600D01*
X84880Y155710D01*
X85200Y158470D01*
X85680Y159950D01*
X86490Y161430D01*
X87610Y162490D01*
X88740Y162700D01*
X89870Y162280D01*
X90670Y161220D01*
G01X60310Y198000D02*
Y210700D01*
X64330D01*
X65620Y210060D01*
X66420Y209220D01*
X66740Y207520D01*
X66420Y205830D01*
X65460Y204770D01*
X64330Y204140D01*
X60310D01*
G01X64330D02*
X66740Y198000D01*
G01X78410D02*
Y210700D01*
X72450Y201600D01*
X80500D01*
G01X60020Y171450D02*
Y184150D01*
X64040D01*
X65330Y183510D01*
X66130Y182670D01*
X66450Y180970D01*
X66130Y179280D01*
X65170Y178220D01*
X64040Y177590D01*
X60020D01*
G01X64040D02*
X66450Y171450D01*
G01X73130Y182030D02*
X74090Y183300D01*
X75220Y183940D01*
X76510Y184150D01*
X78120Y183730D01*
X79240Y182670D01*
X79560Y181400D01*
X79400Y180130D01*
X78760Y179070D01*
X75540Y176950D01*
X74090Y175470D01*
X73130Y173350D01*
X72810Y171450D01*
X79560D01*
G01X88810D02*
X89130Y174200D01*
X89620Y176530D01*
X90260Y178650D01*
X91070Y180970D01*
X92350Y184150D01*
X85920D01*
G01X60020Y222250D02*
Y234950D01*
X64040D01*
X65330Y234310D01*
X66130Y233470D01*
X66450Y231770D01*
X66130Y230080D01*
X65170Y229020D01*
X64040Y228390D01*
X60020D01*
G01X64040D02*
X66450Y222250D01*
G01X76180D02*
Y234950D01*
X74250Y232410D01*
G01Y222250D02*
X78110D01*
G01X86080Y227540D02*
X87200Y229020D01*
X88170Y229870D01*
X89460Y230290D01*
X90580Y229870D01*
X91390Y229020D01*
X92030Y227750D01*
X92190Y226270D01*
X92030Y225000D01*
X91390Y223730D01*
X90420Y222670D01*
X89300Y222250D01*
X88010Y222670D01*
X86880Y223940D01*
X86240Y225850D01*
X86080Y227960D01*
X86400Y230720D01*
X86880Y232200D01*
X87690Y233680D01*
X88810Y234740D01*
X89940Y234950D01*
X91070Y234530D01*
X91870Y233470D01*
G01X60310Y272000D02*
Y284700D01*
X64330D01*
X65620Y284060D01*
X66420Y283220D01*
X66740Y281520D01*
X66420Y279830D01*
X65460Y278770D01*
X64330Y278140D01*
X60310D01*
G01X64330D02*
X66740Y272000D01*
G01X72940Y274540D02*
X73900Y273060D01*
X75190Y272210D01*
X76640Y272000D01*
X77920Y272210D01*
X79210Y273270D01*
X80010Y274540D01*
X80170Y275810D01*
X79850Y277290D01*
X78730Y278350D01*
X77600Y278770D01*
X76150D01*
G01X77600D02*
X78570Y279410D01*
X79370Y280470D01*
X79690Y281740D01*
X79370Y283010D01*
X78570Y284060D01*
X77120Y284700D01*
X75670Y284490D01*
X74220Y283640D01*
G01X60020Y247650D02*
Y260350D01*
X64040D01*
X65330Y259710D01*
X66130Y258870D01*
X66450Y257170D01*
X66130Y255480D01*
X65170Y254420D01*
X64040Y253790D01*
X60020D01*
G01X64040D02*
X66450Y247650D01*
G01X76180D02*
Y260350D01*
X74250Y257810D01*
G01Y247650D02*
X78110D01*
G01X85600Y249550D02*
X86560Y248500D01*
X87690Y247860D01*
X89130Y247650D01*
X90580Y248070D01*
X91710Y248920D01*
X92510Y250400D01*
X92670Y252090D01*
X92350Y253790D01*
X91550Y254850D01*
X90420Y255690D01*
X89300Y255900D01*
X88170Y255690D01*
X86720Y254850D01*
X87200Y260350D01*
X91550D01*
G01X41160Y385230D02*
X45020D01*
G01X42920Y387990D02*
Y382480D01*
G01X52340Y382900D02*
X53300Y381850D01*
X54430Y381210D01*
X55870Y381000D01*
X57320Y381420D01*
X58450Y382270D01*
X59250Y383750D01*
X59410Y385440D01*
X59090Y387140D01*
X58290Y388200D01*
X57160Y389040D01*
X56040Y389250D01*
X54910Y389040D01*
X53460Y388200D01*
X53940Y393700D01*
X58290D01*
G01X70110Y387770D02*
X70760Y388410D01*
X71240Y389470D01*
X71560Y390950D01*
X71240Y392220D01*
X70590Y393060D01*
X69470Y393700D01*
X65130D01*
Y381000D01*
X70430D01*
X71560Y381850D01*
X72200Y383120D01*
X72520Y384600D01*
X72200Y386080D01*
X71240Y387350D01*
X70110Y387770D01*
X65130D01*
G01X78560Y381000D02*
Y393700D01*
X82580D01*
X83870Y393060D01*
X84670Y392220D01*
X84990Y390520D01*
X84670Y388830D01*
X83710Y387770D01*
X82580Y387140D01*
X78560D01*
G01X82580D02*
X84990Y381000D01*
G01X60020Y450850D02*
Y463550D01*
X64040D01*
X65330Y462910D01*
X66130Y462070D01*
X66450Y460370D01*
X66130Y458680D01*
X65170Y457620D01*
X64040Y456990D01*
X60020D01*
G01X64040D02*
X66450Y450850D01*
G01X73130Y456140D02*
X74250Y457620D01*
X75220Y458470D01*
X76510Y458890D01*
X77630Y458470D01*
X78440Y457620D01*
X79080Y456350D01*
X79240Y454870D01*
X79080Y453600D01*
X78440Y452330D01*
X77470Y451270D01*
X76350Y450850D01*
X75060Y451270D01*
X73930Y452540D01*
X73290Y454450D01*
X73130Y456560D01*
X73450Y459320D01*
X73930Y460800D01*
X74740Y462280D01*
X75860Y463340D01*
X76990Y463550D01*
X78120Y463130D01*
X78920Y462070D01*
G01X89130Y450850D02*
Y463550D01*
X87200Y461010D01*
G01Y450850D02*
X91060D01*
G01X60020Y527050D02*
Y539750D01*
X64040D01*
X65330Y539110D01*
X66130Y538270D01*
X66450Y536570D01*
X66130Y534880D01*
X65170Y533820D01*
X64040Y533190D01*
X60020D01*
G01X64040D02*
X66450Y527050D01*
G01X78120D02*
Y539750D01*
X72160Y530650D01*
X80210D01*
G01X89130Y539750D02*
X87850Y539330D01*
X86880Y538270D01*
X86240Y537000D01*
X85760Y535300D01*
X85600Y533400D01*
X85760Y531490D01*
X86240Y529800D01*
X86880Y528530D01*
X87850Y527470D01*
X89130Y527050D01*
X90420Y527470D01*
X91390Y528530D01*
X92030Y529800D01*
X92510Y531490D01*
X92670Y533400D01*
X92510Y535300D01*
X92030Y537000D01*
X91390Y538270D01*
X90420Y539330D01*
X89130Y539750D01*
G01X60020Y501650D02*
Y514350D01*
X64040D01*
X65330Y513710D01*
X66130Y512870D01*
X66450Y511170D01*
X66130Y509480D01*
X65170Y508420D01*
X64040Y507790D01*
X60020D01*
G01X64040D02*
X66450Y501650D01*
G01X78120D02*
Y514350D01*
X72160Y505250D01*
X80210D01*
G01X91070Y501650D02*
Y514350D01*
X85110Y505250D01*
X93160D01*
G01X60020Y476250D02*
Y488950D01*
X64040D01*
X65330Y488310D01*
X66130Y487470D01*
X66450Y485770D01*
X66130Y484080D01*
X65170Y483020D01*
X64040Y482390D01*
X60020D01*
G01X64040D02*
X66450Y476250D01*
G01X72650Y478150D02*
X73610Y477100D01*
X74740Y476460D01*
X76180Y476250D01*
X77630Y476670D01*
X78760Y477520D01*
X79560Y479000D01*
X79720Y480690D01*
X79400Y482390D01*
X78600Y483450D01*
X77470Y484290D01*
X76350Y484500D01*
X75220Y484290D01*
X73770Y483450D01*
X74250Y488950D01*
X78600D01*
G01X85600Y478790D02*
X86560Y477310D01*
X87850Y476460D01*
X89300Y476250D01*
X90580Y476460D01*
X91870Y477520D01*
X92670Y478790D01*
X92830Y480060D01*
X92510Y481540D01*
X91390Y482600D01*
X90260Y483020D01*
X88810D01*
G01X90260D02*
X91230Y483660D01*
X92030Y484720D01*
X92350Y485990D01*
X92030Y487260D01*
X91230Y488310D01*
X89780Y488950D01*
X88330Y488740D01*
X86880Y487890D01*
G01X60020Y603250D02*
Y615950D01*
X64040D01*
X65330Y615310D01*
X66130Y614470D01*
X66450Y612770D01*
X66130Y611080D01*
X65170Y610020D01*
X64040Y609390D01*
X60020D01*
G01X64040D02*
X66450Y603250D01*
G01X72650Y605790D02*
X73610Y604310D01*
X74900Y603460D01*
X76350Y603250D01*
X77630Y603460D01*
X78920Y604520D01*
X79720Y605790D01*
X79880Y607060D01*
X79560Y608540D01*
X78440Y609600D01*
X77310Y610020D01*
X75860D01*
G01X77310D02*
X78280Y610660D01*
X79080Y611720D01*
X79400Y612990D01*
X79080Y614260D01*
X78280Y615310D01*
X76830Y615950D01*
X75380Y615740D01*
X73930Y614890D01*
G01X88810Y603250D02*
X89130Y606000D01*
X89620Y608330D01*
X90260Y610450D01*
X91070Y612770D01*
X92350Y615950D01*
X85920D01*
G01X60020Y577850D02*
Y590550D01*
X64040D01*
X65330Y589910D01*
X66130Y589070D01*
X66450Y587370D01*
X66130Y585680D01*
X65170Y584620D01*
X64040Y583990D01*
X60020D01*
G01X64040D02*
X66450Y577850D01*
G01X72650Y580390D02*
X73610Y578910D01*
X74900Y578060D01*
X76350Y577850D01*
X77630Y578060D01*
X78920Y579120D01*
X79720Y580390D01*
X79880Y581660D01*
X79560Y583140D01*
X78440Y584200D01*
X77310Y584620D01*
X75860D01*
G01X77310D02*
X78280Y585260D01*
X79080Y586320D01*
X79400Y587590D01*
X79080Y588860D01*
X78280Y589910D01*
X76830Y590550D01*
X75380Y590340D01*
X73930Y589490D01*
G01X89130Y577850D02*
X90260Y578060D01*
X91550Y578700D01*
X92350Y579750D01*
X92670Y581240D01*
X92350Y582720D01*
X91390Y583990D01*
X89940Y584620D01*
X88330D01*
X87370Y585050D01*
X86560Y586100D01*
X86240Y587590D01*
X86720Y589070D01*
X87850Y590130D01*
X89130Y590550D01*
X90420Y590130D01*
X91550Y589070D01*
X92030Y587590D01*
X91710Y586100D01*
X90900Y585050D01*
X89940Y584620D01*
X88330D01*
X86880Y583990D01*
X85920Y582720D01*
X85600Y581240D01*
X85920Y579750D01*
X86720Y578700D01*
X88010Y578060D01*
X89130Y577850D01*
G01X60020Y552450D02*
Y565150D01*
X64040D01*
X65330Y564510D01*
X66130Y563670D01*
X66450Y561970D01*
X66130Y560280D01*
X65170Y559220D01*
X64040Y558590D01*
X60020D01*
G01X64040D02*
X66450Y552450D01*
G01X72650Y554990D02*
X73610Y553510D01*
X74900Y552660D01*
X76350Y552450D01*
X77630Y552660D01*
X78920Y553720D01*
X79720Y554990D01*
X79880Y556260D01*
X79560Y557740D01*
X78440Y558800D01*
X77310Y559220D01*
X75860D01*
G01X77310D02*
X78280Y559860D01*
X79080Y560920D01*
X79400Y562190D01*
X79080Y563460D01*
X78280Y564510D01*
X76830Y565150D01*
X75380Y564940D01*
X73930Y564090D01*
G01X86400Y553930D02*
X87530Y552870D01*
X88810Y552450D01*
X90100Y552870D01*
X91230Y554140D01*
X92030Y556050D01*
X92350Y557950D01*
Y560280D01*
X92030Y562190D01*
X91230Y563880D01*
X90260Y564730D01*
X89130Y565150D01*
X87850Y564730D01*
X86880Y563880D01*
X86240Y562610D01*
X85920Y560920D01*
X86240Y559440D01*
X87040Y557950D01*
X88010Y557110D01*
X89130Y556890D01*
X90420Y557320D01*
X91390Y558380D01*
X92350Y560280D01*
G01X34810Y718120D02*
X38670D01*
G01X36570Y720880D02*
Y715370D01*
G01X46470Y724470D02*
X47430Y725740D01*
X48560Y726380D01*
X49850Y726590D01*
X51460Y726170D01*
X52580Y725110D01*
X52900Y723840D01*
X52740Y722570D01*
X52100Y721510D01*
X48880Y719390D01*
X47430Y717910D01*
X46470Y715790D01*
X46150Y713890D01*
X52900D01*
G01X64410D02*
Y726590D01*
X58450Y717490D01*
X66500D01*
G01X76710Y720660D02*
X77360Y721300D01*
X77840Y722360D01*
X78160Y723840D01*
X77840Y725110D01*
X77190Y725950D01*
X76070Y726590D01*
X71730D01*
Y713890D01*
X77030D01*
X78160Y714740D01*
X78800Y716010D01*
X79120Y717490D01*
X78800Y718970D01*
X77840Y720240D01*
X76710Y720660D01*
X71730D01*
G01X91590Y713890D02*
X85160D01*
Y726590D01*
X91590D01*
G01X89020Y720450D02*
X85160D01*
G01X123530Y-1061030D02*
Y-1048330D01*
X127550D01*
X128840Y-1048970D01*
X129640Y-1049810D01*
X129960Y-1051510D01*
X129640Y-1053200D01*
X128680Y-1054260D01*
X127550Y-1054890D01*
X123530D01*
G01X127550D02*
X129960Y-1061030D01*
G01X136640Y-1050450D02*
X137600Y-1049180D01*
X138730Y-1048540D01*
X140020Y-1048330D01*
X141630Y-1048750D01*
X142750Y-1049810D01*
X143070Y-1051080D01*
X142910Y-1052350D01*
X142270Y-1053410D01*
X139050Y-1055530D01*
X137600Y-1057010D01*
X136640Y-1059130D01*
X136320Y-1061030D01*
X143070D01*
G01X149590Y-1055740D02*
X150710Y-1054260D01*
X151680Y-1053410D01*
X152970Y-1052990D01*
X154090Y-1053410D01*
X154900Y-1054260D01*
X155540Y-1055530D01*
X155700Y-1057010D01*
X155540Y-1058280D01*
X154900Y-1059550D01*
X153930Y-1060610D01*
X152810Y-1061030D01*
X151520Y-1060610D01*
X150390Y-1059340D01*
X149750Y-1057430D01*
X149590Y-1055320D01*
X149910Y-1052560D01*
X150390Y-1051080D01*
X151200Y-1049600D01*
X152320Y-1048540D01*
X153450Y-1048330D01*
X154580Y-1048750D01*
X155380Y-1049810D01*
G01X154960Y-1026590D02*
Y-1013890D01*
X158170D01*
X159460Y-1014530D01*
X160430Y-1015370D01*
X161230Y-1016640D01*
X161870Y-1018120D01*
X162030Y-1020240D01*
X161870Y-1022360D01*
X161230Y-1023840D01*
X160430Y-1025110D01*
X159460Y-1025960D01*
X158170Y-1026590D01*
X154960D01*
G01X167910D02*
Y-1013890D01*
X171120D01*
X172410Y-1014530D01*
X173380Y-1015370D01*
X174180Y-1016640D01*
X174820Y-1018120D01*
X174980Y-1020240D01*
X174820Y-1022360D01*
X174180Y-1023840D01*
X173380Y-1025110D01*
X172410Y-1025960D01*
X171120Y-1026590D01*
X167910D01*
G01X180860Y-1024690D02*
X181820Y-1025740D01*
X182950Y-1026380D01*
X184390Y-1026590D01*
X185840Y-1026170D01*
X186970Y-1025320D01*
X187770Y-1023840D01*
X187930Y-1022150D01*
X187610Y-1020450D01*
X186810Y-1019390D01*
X185680Y-1018550D01*
X184560Y-1018340D01*
X183430Y-1018550D01*
X181980Y-1019390D01*
X182460Y-1013890D01*
X186810D01*
G01X142580Y-937690D02*
Y-924990D01*
X146600D01*
X147890Y-925630D01*
X148690Y-926470D01*
X149010Y-928170D01*
X148690Y-929860D01*
X147730Y-930920D01*
X146600Y-931550D01*
X142580D01*
G01X146600D02*
X149010Y-937690D01*
G01X155690Y-927110D02*
X156650Y-925840D01*
X157780Y-925200D01*
X159070Y-924990D01*
X160680Y-925410D01*
X161800Y-926470D01*
X162120Y-927740D01*
X161960Y-929010D01*
X161320Y-930070D01*
X158100Y-932190D01*
X156650Y-933670D01*
X155690Y-935790D01*
X155370Y-937690D01*
X162120D01*
G01X168160Y-935790D02*
X169120Y-936840D01*
X170250Y-937480D01*
X171690Y-937690D01*
X173140Y-937270D01*
X174270Y-936420D01*
X175070Y-934940D01*
X175230Y-933250D01*
X174910Y-931550D01*
X174110Y-930490D01*
X172980Y-929650D01*
X171860Y-929440D01*
X170730Y-929650D01*
X169280Y-930490D01*
X169760Y-924990D01*
X174110D01*
G01X143820Y-915000D02*
Y-902300D01*
X147840D01*
X149130Y-902940D01*
X149930Y-903780D01*
X150250Y-905480D01*
X149930Y-907170D01*
X148970Y-908230D01*
X147840Y-908860D01*
X143820D01*
G01X147840D02*
X150250Y-915000D01*
G01X156930Y-909710D02*
X158050Y-908230D01*
X159020Y-907380D01*
X160310Y-906960D01*
X161430Y-907380D01*
X162240Y-908230D01*
X162880Y-909500D01*
X163040Y-910980D01*
X162880Y-912250D01*
X162240Y-913520D01*
X161270Y-914580D01*
X160150Y-915000D01*
X158860Y-914580D01*
X157730Y-913310D01*
X157090Y-911400D01*
X156930Y-909290D01*
X157250Y-906530D01*
X157730Y-905050D01*
X158540Y-903570D01*
X159660Y-902510D01*
X160790Y-902300D01*
X161920Y-902720D01*
X162720Y-903780D01*
G01X169400Y-913100D02*
X170360Y-914150D01*
X171490Y-914790D01*
X172930Y-915000D01*
X174380Y-914580D01*
X175510Y-913730D01*
X176310Y-912250D01*
X176470Y-910560D01*
X176150Y-908860D01*
X175350Y-907800D01*
X174220Y-906960D01*
X173100Y-906750D01*
X171970Y-906960D01*
X170520Y-907800D01*
X171000Y-902300D01*
X175350D01*
G01X95840Y-715440D02*
X99060D01*
Y-719250D01*
X98090Y-720520D01*
X96970Y-721370D01*
X95360Y-721790D01*
X93750Y-721370D01*
X92620Y-720520D01*
X91660Y-719250D01*
X91010Y-717770D01*
X90690Y-716080D01*
Y-714590D01*
X91010Y-713320D01*
X91660Y-711840D01*
X92620Y-710570D01*
X93590Y-709730D01*
X94870Y-709090D01*
X96000D01*
X97290Y-709510D01*
X98250Y-710360D01*
G01X104130Y-721790D02*
Y-709090D01*
X111520Y-721790D01*
Y-709090D01*
G01X117240Y-721790D02*
Y-709090D01*
X120450D01*
X121740Y-709730D01*
X122710Y-710570D01*
X123510Y-711840D01*
X124150Y-713320D01*
X124310Y-715440D01*
X124150Y-717560D01*
X123510Y-719040D01*
X122710Y-720310D01*
X121740Y-721160D01*
X120450Y-721790D01*
X117240D01*
G01X130510D02*
Y-709090D01*
X134530D01*
X135820Y-709730D01*
X136620Y-710570D01*
X136940Y-712270D01*
X136620Y-713960D01*
X135660Y-715020D01*
X134530Y-715650D01*
X130510D01*
G01X134530D02*
X136940Y-721790D01*
G01X155410Y-683690D02*
Y-670990D01*
X159430D01*
X160720Y-671630D01*
X161520Y-672470D01*
X161840Y-674170D01*
X161520Y-675860D01*
X160560Y-676920D01*
X159430Y-677550D01*
X155410D01*
G01X159430D02*
X161840Y-683690D01*
G01X171570D02*
Y-670990D01*
X169640Y-673530D01*
G01Y-683690D02*
X173500D01*
G01X104450Y-664640D02*
X111200Y-651940D01*
G01X104450D02*
X111200Y-664640D01*
G01X117240Y-662740D02*
X118200Y-663790D01*
X119330Y-664430D01*
X120770Y-664640D01*
X122220Y-664220D01*
X123350Y-663370D01*
X124150Y-661890D01*
X124310Y-660200D01*
X123990Y-658500D01*
X123190Y-657440D01*
X122060Y-656600D01*
X120940Y-656390D01*
X119810Y-656600D01*
X118360Y-657440D01*
X118840Y-651940D01*
X123190D01*
G01X154960Y-518590D02*
Y-505890D01*
X158170D01*
X159460Y-506530D01*
X160430Y-507370D01*
X161230Y-508640D01*
X161870Y-510120D01*
X162030Y-512240D01*
X161870Y-514360D01*
X161230Y-515840D01*
X160430Y-517110D01*
X159460Y-517960D01*
X158170Y-518590D01*
X154960D01*
G01X167910D02*
Y-505890D01*
X171120D01*
X172410Y-506530D01*
X173380Y-507370D01*
X174180Y-508640D01*
X174820Y-510120D01*
X174980Y-512240D01*
X174820Y-514360D01*
X174180Y-515840D01*
X173380Y-517110D01*
X172410Y-517960D01*
X171120Y-518590D01*
X167910D01*
G01X180860Y-516050D02*
X181820Y-517530D01*
X183110Y-518380D01*
X184560Y-518590D01*
X185840Y-518380D01*
X187130Y-517320D01*
X187930Y-516050D01*
X188090Y-514780D01*
X187770Y-513300D01*
X186650Y-512240D01*
X185520Y-511820D01*
X184070D01*
G01X185520D02*
X186490Y-511180D01*
X187290Y-510120D01*
X187610Y-508850D01*
X187290Y-507580D01*
X186490Y-506530D01*
X185040Y-505890D01*
X183590Y-506100D01*
X182140Y-506950D01*
G01X142570Y-429110D02*
Y-416410D01*
X146590D01*
X147880Y-417050D01*
X148680Y-417890D01*
X149000Y-419590D01*
X148680Y-421280D01*
X147720Y-422340D01*
X146590Y-422970D01*
X142570D01*
G01X146590D02*
X149000Y-429110D01*
G01X158730D02*
Y-416410D01*
X156800Y-418950D01*
G01Y-429110D02*
X160660D01*
G01X168150Y-426570D02*
X169110Y-428050D01*
X170400Y-428900D01*
X171850Y-429110D01*
X173130Y-428900D01*
X174420Y-427840D01*
X175220Y-426570D01*
X175380Y-425300D01*
X175060Y-423820D01*
X173940Y-422760D01*
X172810Y-422340D01*
X171360D01*
G01X172810D02*
X173780Y-421700D01*
X174580Y-420640D01*
X174900Y-419370D01*
X174580Y-418100D01*
X173780Y-417050D01*
X172330Y-416410D01*
X170880Y-416620D01*
X169430Y-417470D01*
G01X90850Y317500D02*
X94870Y304800D01*
X98900Y317500D01*
G01X104290Y304800D02*
Y317500D01*
X107500D01*
X108790Y316860D01*
X109760Y316020D01*
X110560Y314750D01*
X111200Y313270D01*
X111360Y311150D01*
X111200Y309030D01*
X110560Y307550D01*
X109760Y306280D01*
X108790Y305430D01*
X107500Y304800D01*
X104290D01*
G01X117720Y315380D02*
X118680Y316650D01*
X119810Y317290D01*
X121100Y317500D01*
X122710Y317080D01*
X123830Y316020D01*
X124150Y314750D01*
X123990Y313480D01*
X123350Y312420D01*
X120130Y310300D01*
X118680Y308820D01*
X117720Y306700D01*
X117400Y304800D01*
X124150D01*
G01X133400D02*
X133720Y307550D01*
X134210Y309880D01*
X134850Y312000D01*
X135660Y314320D01*
X136940Y317500D01*
X130510D01*
G01X90850Y673100D02*
X94870Y660400D01*
X98900Y673100D01*
G01X104290Y660400D02*
Y673100D01*
X107500D01*
X108790Y672460D01*
X109760Y671620D01*
X110560Y670350D01*
X111200Y668870D01*
X111360Y666750D01*
X111200Y664630D01*
X110560Y663150D01*
X109760Y661880D01*
X108790Y661030D01*
X107500Y660400D01*
X104290D01*
G01X117720Y670980D02*
X118680Y672250D01*
X119810Y672890D01*
X121100Y673100D01*
X122710Y672680D01*
X123830Y671620D01*
X124150Y670350D01*
X123990Y669080D01*
X123350Y668020D01*
X120130Y665900D01*
X118680Y664420D01*
X117720Y662300D01*
X117400Y660400D01*
X124150D01*
G01X130670Y665690D02*
X131790Y667170D01*
X132760Y668020D01*
X134050Y668440D01*
X135170Y668020D01*
X135980Y667170D01*
X136620Y665900D01*
X136780Y664420D01*
X136620Y663150D01*
X135980Y661880D01*
X135010Y660820D01*
X133890Y660400D01*
X132600Y660820D01*
X131470Y662090D01*
X130830Y664000D01*
X130670Y666110D01*
X130990Y668870D01*
X131470Y670350D01*
X132280Y671830D01*
X133400Y672890D01*
X134530Y673100D01*
X135660Y672680D01*
X136460Y671620D01*
G01X206470Y-1122320D02*
X205510Y-1121680D01*
X204380Y-1121260D01*
X203100D01*
X201650Y-1121900D01*
X200520Y-1122950D01*
X199720Y-1124220D01*
X199070Y-1126340D01*
X198910Y-1128250D01*
X199240Y-1130150D01*
X199720Y-1131420D01*
X200680Y-1132690D01*
X201810Y-1133540D01*
X202930Y-1133960D01*
X204060D01*
X205190Y-1133540D01*
X206150Y-1132900D01*
X206960Y-1132060D01*
G01X212830Y-1123380D02*
X213790Y-1122110D01*
X214920Y-1121470D01*
X216210Y-1121260D01*
X217820Y-1121680D01*
X218940Y-1122740D01*
X219260Y-1124010D01*
X219100Y-1125280D01*
X218460Y-1126340D01*
X215240Y-1128460D01*
X213790Y-1129940D01*
X212830Y-1132060D01*
X212510Y-1133960D01*
X219260D01*
G01X228830Y-1121260D02*
X227550Y-1121680D01*
X226580Y-1122740D01*
X225940Y-1124010D01*
X225460Y-1125710D01*
X225300Y-1127610D01*
X225460Y-1129520D01*
X225940Y-1131210D01*
X226580Y-1132480D01*
X227550Y-1133540D01*
X228830Y-1133960D01*
X230120Y-1133540D01*
X231090Y-1132480D01*
X231730Y-1131210D01*
X232210Y-1129520D01*
X232370Y-1127610D01*
X232210Y-1125710D01*
X231730Y-1124010D01*
X231090Y-1122740D01*
X230120Y-1121680D01*
X228830Y-1121260D01*
G01X210570Y-1048360D02*
X209610Y-1047720D01*
X208480Y-1047300D01*
X207200D01*
X205750Y-1047940D01*
X204620Y-1048990D01*
X203820Y-1050260D01*
X203170Y-1052380D01*
X203010Y-1054290D01*
X203340Y-1056190D01*
X203820Y-1057460D01*
X204780Y-1058730D01*
X205910Y-1059580D01*
X207030Y-1060000D01*
X208160D01*
X209290Y-1059580D01*
X210250Y-1058940D01*
X211060Y-1058100D01*
G01X219980Y-1060000D02*
Y-1047300D01*
X218050Y-1049840D01*
G01Y-1060000D02*
X221910D01*
G01X230200Y-1058520D02*
X231330Y-1059580D01*
X232610Y-1060000D01*
X233900Y-1059580D01*
X235030Y-1058310D01*
X235830Y-1056400D01*
X236150Y-1054500D01*
Y-1052170D01*
X235830Y-1050260D01*
X235030Y-1048570D01*
X234060Y-1047720D01*
X232930Y-1047300D01*
X231650Y-1047720D01*
X230680Y-1048570D01*
X230040Y-1049840D01*
X229720Y-1051530D01*
X230040Y-1053010D01*
X230840Y-1054500D01*
X231810Y-1055340D01*
X232930Y-1055560D01*
X234220Y-1055130D01*
X235190Y-1054070D01*
X236150Y-1052170D01*
G01X222250Y-1069150D02*
Y-1077150D01*
G01X174720Y-976270D02*
X173760Y-975630D01*
X172630Y-975210D01*
X171350D01*
X169900Y-975850D01*
X168770Y-976900D01*
X167970Y-978170D01*
X167320Y-980290D01*
X167160Y-982200D01*
X167490Y-984100D01*
X167970Y-985370D01*
X168930Y-986640D01*
X170060Y-987490D01*
X171180Y-987910D01*
X172310D01*
X173440Y-987490D01*
X174400Y-986850D01*
X175210Y-986010D01*
G01X181080Y-977330D02*
X182040Y-976060D01*
X183170Y-975420D01*
X184460Y-975210D01*
X186070Y-975630D01*
X187190Y-976690D01*
X187510Y-977960D01*
X187350Y-979230D01*
X186710Y-980290D01*
X183490Y-982410D01*
X182040Y-983890D01*
X181080Y-986010D01*
X180760Y-987910D01*
X187510D01*
G01X193550Y-985370D02*
X194510Y-986850D01*
X195800Y-987700D01*
X197250Y-987910D01*
X198530Y-987700D01*
X199820Y-986640D01*
X200620Y-985370D01*
X200780Y-984100D01*
X200460Y-982620D01*
X199340Y-981560D01*
X198210Y-981140D01*
X196760D01*
G01X198210D02*
X199180Y-980500D01*
X199980Y-979440D01*
X200300Y-978170D01*
X199980Y-976900D01*
X199180Y-975850D01*
X197730Y-975210D01*
X196280Y-975420D01*
X194830Y-976270D01*
G01X228600Y-977560D02*
Y-985560D01*
G01X174720Y-950870D02*
X173760Y-950230D01*
X172630Y-949810D01*
X171350D01*
X169900Y-950450D01*
X168770Y-951500D01*
X167970Y-952770D01*
X167320Y-954890D01*
X167160Y-956800D01*
X167490Y-958700D01*
X167970Y-959970D01*
X168930Y-961240D01*
X170060Y-962090D01*
X171180Y-962510D01*
X172310D01*
X173440Y-962090D01*
X174400Y-961450D01*
X175210Y-960610D01*
G01X181080Y-951930D02*
X182040Y-950660D01*
X183170Y-950020D01*
X184460Y-949810D01*
X186070Y-950230D01*
X187190Y-951290D01*
X187510Y-952560D01*
X187350Y-953830D01*
X186710Y-954890D01*
X183490Y-957010D01*
X182040Y-958490D01*
X181080Y-960610D01*
X180760Y-962510D01*
X187510D01*
G01X194030Y-951930D02*
X194990Y-950660D01*
X196120Y-950020D01*
X197410Y-949810D01*
X199020Y-950230D01*
X200140Y-951290D01*
X200460Y-952560D01*
X200300Y-953830D01*
X199660Y-954890D01*
X196440Y-957010D01*
X194990Y-958490D01*
X194030Y-960610D01*
X193710Y-962510D01*
X200460D01*
G01X228600Y-952160D02*
Y-960160D01*
G01X212960Y-855620D02*
X212000Y-854980D01*
X210870Y-854560D01*
X209590D01*
X208140Y-855200D01*
X207010Y-856250D01*
X206210Y-857520D01*
X205560Y-859640D01*
X205400Y-861550D01*
X205730Y-863450D01*
X206210Y-864720D01*
X207170Y-865990D01*
X208300Y-866840D01*
X209420Y-867260D01*
X210550D01*
X211680Y-866840D01*
X212640Y-866200D01*
X213450Y-865360D01*
G01X219320Y-856680D02*
X220280Y-855410D01*
X221410Y-854770D01*
X222700Y-854560D01*
X224310Y-854980D01*
X225430Y-856040D01*
X225750Y-857310D01*
X225590Y-858580D01*
X224950Y-859640D01*
X221730Y-861760D01*
X220280Y-863240D01*
X219320Y-865360D01*
X219000Y-867260D01*
X225750D01*
G01X187560Y-785770D02*
X186600Y-785130D01*
X185470Y-784710D01*
X184190D01*
X182740Y-785350D01*
X181610Y-786400D01*
X180810Y-787670D01*
X180160Y-789790D01*
X180000Y-791700D01*
X180330Y-793600D01*
X180810Y-794870D01*
X181770Y-796140D01*
X182900Y-796990D01*
X184020Y-797410D01*
X185150D01*
X186280Y-796990D01*
X187240Y-796350D01*
X188050Y-795510D01*
G01X198910Y-797410D02*
Y-784710D01*
X192950Y-793810D01*
X201000D01*
G01X222250Y-799760D02*
Y-807760D01*
G01X161310Y-772590D02*
Y-759890D01*
X164520D01*
X165810Y-760530D01*
X166780Y-761370D01*
X167580Y-762640D01*
X168220Y-764120D01*
X168380Y-766240D01*
X168220Y-768360D01*
X167580Y-769840D01*
X166780Y-771110D01*
X165810Y-771960D01*
X164520Y-772590D01*
X161310D01*
G01X174260D02*
Y-759890D01*
X177470D01*
X178760Y-760530D01*
X179730Y-761370D01*
X180530Y-762640D01*
X181170Y-764120D01*
X181330Y-766240D01*
X181170Y-768360D01*
X180530Y-769840D01*
X179730Y-771110D01*
X178760Y-771960D01*
X177470Y-772590D01*
X174260D01*
G01X190740D02*
Y-759890D01*
X188810Y-762430D01*
G01Y-772590D02*
X192670D01*
G01X187560Y-722270D02*
X186600Y-721630D01*
X185470Y-721210D01*
X184190D01*
X182740Y-721850D01*
X181610Y-722900D01*
X180810Y-724170D01*
X180160Y-726290D01*
X180000Y-728200D01*
X180330Y-730100D01*
X180810Y-731370D01*
X181770Y-732640D01*
X182900Y-733490D01*
X184020Y-733910D01*
X185150D01*
X186280Y-733490D01*
X187240Y-732850D01*
X188050Y-732010D01*
G01X193440D02*
X194400Y-733060D01*
X195530Y-733700D01*
X196970Y-733910D01*
X198420Y-733490D01*
X199550Y-732640D01*
X200350Y-731160D01*
X200510Y-729470D01*
X200190Y-727770D01*
X199390Y-726710D01*
X198260Y-725870D01*
X197140Y-725660D01*
X196010Y-725870D01*
X194560Y-726710D01*
X195040Y-721210D01*
X199390D01*
G01X228600Y-723560D02*
Y-731560D01*
G01X187560Y-696870D02*
X186600Y-696230D01*
X185470Y-695810D01*
X184190D01*
X182740Y-696450D01*
X181610Y-697500D01*
X180810Y-698770D01*
X180160Y-700890D01*
X180000Y-702800D01*
X180330Y-704700D01*
X180810Y-705970D01*
X181770Y-707240D01*
X182900Y-708090D01*
X184020Y-708510D01*
X185150D01*
X186280Y-708090D01*
X187240Y-707450D01*
X188050Y-706610D01*
G01X196970Y-708510D02*
Y-695810D01*
X195040Y-698350D01*
G01Y-708510D02*
X198900D01*
G01X228600Y-698160D02*
Y-706160D01*
G01X187160Y-638660D02*
Y-625960D01*
X191180D01*
X192470Y-626600D01*
X193270Y-627440D01*
X193590Y-629140D01*
X193270Y-630830D01*
X192310Y-631890D01*
X191180Y-632520D01*
X187160D01*
G01X191180D02*
X193590Y-638660D01*
G01X200270Y-628080D02*
X201230Y-626810D01*
X202360Y-626170D01*
X203650Y-625960D01*
X205260Y-626380D01*
X206380Y-627440D01*
X206700Y-628710D01*
X206540Y-629980D01*
X205900Y-631040D01*
X202680Y-633160D01*
X201230Y-634640D01*
X200270Y-636760D01*
X199950Y-638660D01*
X206700D01*
G01X206470Y-601620D02*
X205510Y-600980D01*
X204380Y-600560D01*
X203100D01*
X201650Y-601200D01*
X200520Y-602250D01*
X199720Y-603520D01*
X199070Y-605640D01*
X198910Y-607550D01*
X199240Y-609450D01*
X199720Y-610720D01*
X200680Y-611990D01*
X201810Y-612840D01*
X202930Y-613260D01*
X204060D01*
X205190Y-612840D01*
X206150Y-612200D01*
X206960Y-611360D01*
G01X215880Y-613260D02*
Y-600560D01*
X213950Y-603100D01*
G01Y-613260D02*
X217810D01*
G01X228830D02*
Y-600560D01*
X226900Y-603100D01*
G01Y-613260D02*
X230760D01*
G01X174720Y-531770D02*
X173760Y-531130D01*
X172630Y-530710D01*
X171350D01*
X169900Y-531350D01*
X168770Y-532400D01*
X167970Y-533670D01*
X167320Y-535790D01*
X167160Y-537700D01*
X167490Y-539600D01*
X167970Y-540870D01*
X168930Y-542140D01*
X170060Y-542990D01*
X171180Y-543410D01*
X172310D01*
X173440Y-542990D01*
X174400Y-542350D01*
X175210Y-541510D01*
G01X184130Y-543410D02*
Y-530710D01*
X182200Y-533250D01*
G01Y-543410D02*
X186060D01*
G01X194030Y-532830D02*
X194990Y-531560D01*
X196120Y-530920D01*
X197410Y-530710D01*
X199020Y-531130D01*
X200140Y-532190D01*
X200460Y-533460D01*
X200300Y-534730D01*
X199660Y-535790D01*
X196440Y-537910D01*
X194990Y-539390D01*
X194030Y-541510D01*
X193710Y-543410D01*
X200460D01*
G01X222250Y-545760D02*
Y-553760D01*
G01X174720Y-461920D02*
X173760Y-461280D01*
X172630Y-460860D01*
X171350D01*
X169900Y-461500D01*
X168770Y-462550D01*
X167970Y-463820D01*
X167320Y-465940D01*
X167160Y-467850D01*
X167490Y-469750D01*
X167970Y-471020D01*
X168930Y-472290D01*
X170060Y-473140D01*
X171180Y-473560D01*
X172310D01*
X173440Y-473140D01*
X174400Y-472500D01*
X175210Y-471660D01*
G01X184130Y-473560D02*
Y-460860D01*
X182200Y-463400D01*
G01Y-473560D02*
X186060D01*
G01X199020D02*
Y-460860D01*
X193060Y-469960D01*
X201110D01*
G01X228600Y-469560D02*
Y-477560D01*
G01X174720Y-442870D02*
X173760Y-442230D01*
X172630Y-441810D01*
X171350D01*
X169900Y-442450D01*
X168770Y-443500D01*
X167970Y-444770D01*
X167320Y-446890D01*
X167160Y-448800D01*
X167490Y-450700D01*
X167970Y-451970D01*
X168930Y-453240D01*
X170060Y-454090D01*
X171180Y-454510D01*
X172310D01*
X173440Y-454090D01*
X174400Y-453450D01*
X175210Y-452610D01*
G01X184130Y-454510D02*
Y-441810D01*
X182200Y-444350D01*
G01Y-454510D02*
X186060D01*
G01X193550Y-451970D02*
X194510Y-453450D01*
X195800Y-454300D01*
X197250Y-454510D01*
X198530Y-454300D01*
X199820Y-453240D01*
X200620Y-451970D01*
X200780Y-450700D01*
X200460Y-449220D01*
X199340Y-448160D01*
X198210Y-447740D01*
X196760D01*
G01X198210D02*
X199180Y-447100D01*
X199980Y-446040D01*
X200300Y-444770D01*
X199980Y-443500D01*
X199180Y-442450D01*
X197730Y-441810D01*
X196280Y-442020D01*
X194830Y-442870D01*
G01X228600Y-444160D02*
Y-452160D01*
G01X180670Y-384660D02*
Y-371960D01*
X184690D01*
X185980Y-372600D01*
X186780Y-373440D01*
X187100Y-375140D01*
X186780Y-376830D01*
X185820Y-377890D01*
X184690Y-378520D01*
X180670D01*
G01X184690D02*
X187100Y-384660D01*
G01X196830D02*
Y-371960D01*
X194900Y-374500D01*
G01Y-384660D02*
X198760D01*
G01X211720D02*
Y-371960D01*
X205760Y-381060D01*
X213810D01*
G01X295490Y-953860D02*
Y-941160D01*
X298700D01*
X299990Y-941800D01*
X300960Y-942640D01*
X301760Y-943910D01*
X302400Y-945390D01*
X302560Y-947510D01*
X302400Y-949630D01*
X301760Y-951110D01*
X300960Y-952380D01*
X299990Y-953230D01*
X298700Y-953860D01*
X295490D01*
G01X308440D02*
Y-941160D01*
X311650D01*
X312940Y-941800D01*
X313910Y-942640D01*
X314710Y-943910D01*
X315350Y-945390D01*
X315510Y-947510D01*
X315350Y-949630D01*
X314710Y-951110D01*
X313910Y-952380D01*
X312940Y-953230D01*
X311650Y-953860D01*
X308440D01*
G01X321870Y-948570D02*
X322990Y-947090D01*
X323960Y-946240D01*
X325250Y-945820D01*
X326370Y-946240D01*
X327180Y-947090D01*
X327820Y-948360D01*
X327980Y-949840D01*
X327820Y-951110D01*
X327180Y-952380D01*
X326210Y-953440D01*
X325090Y-953860D01*
X323800Y-953440D01*
X322670Y-952170D01*
X322030Y-950260D01*
X321870Y-948150D01*
X322190Y-945390D01*
X322670Y-943910D01*
X323480Y-942430D01*
X324600Y-941370D01*
X325730Y-941160D01*
X326860Y-941580D01*
X327660Y-942640D01*
G01X263620Y-906420D02*
X262660Y-905780D01*
X261530Y-905360D01*
X260250D01*
X258800Y-906000D01*
X257670Y-907050D01*
X256870Y-908320D01*
X256220Y-910440D01*
X256060Y-912350D01*
X256390Y-914250D01*
X256870Y-915520D01*
X257830Y-916790D01*
X258960Y-917640D01*
X260080Y-918060D01*
X261210D01*
X262340Y-917640D01*
X263300Y-917000D01*
X264110Y-916160D01*
G01X269980Y-907480D02*
X270940Y-906210D01*
X272070Y-905570D01*
X273360Y-905360D01*
X274970Y-905780D01*
X276090Y-906840D01*
X276410Y-908110D01*
X276250Y-909380D01*
X275610Y-910440D01*
X272390Y-912560D01*
X270940Y-914040D01*
X269980Y-916160D01*
X269660Y-918060D01*
X276410D01*
G01X285980D02*
Y-905360D01*
X284050Y-907900D01*
G01Y-918060D02*
X287910D01*
G01X241300Y-934760D02*
Y-926760D01*
G01X295490Y-699860D02*
Y-687160D01*
X298700D01*
X299990Y-687800D01*
X300960Y-688640D01*
X301760Y-689910D01*
X302400Y-691390D01*
X302560Y-693510D01*
X302400Y-695630D01*
X301760Y-697110D01*
X300960Y-698380D01*
X299990Y-699230D01*
X298700Y-699860D01*
X295490D01*
G01X308440D02*
Y-687160D01*
X311650D01*
X312940Y-687800D01*
X313910Y-688640D01*
X314710Y-689910D01*
X315350Y-691390D01*
X315510Y-693510D01*
X315350Y-695630D01*
X314710Y-697110D01*
X313910Y-698380D01*
X312940Y-699230D01*
X311650Y-699860D01*
X308440D01*
G01X321870Y-689280D02*
X322830Y-688010D01*
X323960Y-687370D01*
X325250Y-687160D01*
X326860Y-687580D01*
X327980Y-688640D01*
X328300Y-689910D01*
X328140Y-691180D01*
X327500Y-692240D01*
X324280Y-694360D01*
X322830Y-695840D01*
X321870Y-697960D01*
X321550Y-699860D01*
X328300D01*
G01X241300Y-680760D02*
Y-672760D01*
G01X263760Y-652420D02*
X262800Y-651780D01*
X261670Y-651360D01*
X260390D01*
X258940Y-652000D01*
X257810Y-653050D01*
X257010Y-654320D01*
X256360Y-656440D01*
X256200Y-658350D01*
X256530Y-660250D01*
X257010Y-661520D01*
X257970Y-662790D01*
X259100Y-663640D01*
X260220Y-664060D01*
X261350D01*
X262480Y-663640D01*
X263440Y-663000D01*
X264250Y-662160D01*
G01X269640Y-661520D02*
X270600Y-663000D01*
X271890Y-663850D01*
X273340Y-664060D01*
X274620Y-663850D01*
X275910Y-662790D01*
X276710Y-661520D01*
X276870Y-660250D01*
X276550Y-658770D01*
X275430Y-657710D01*
X274300Y-657290D01*
X272850D01*
G01X274300D02*
X275270Y-656650D01*
X276070Y-655590D01*
X276390Y-654320D01*
X276070Y-653050D01*
X275270Y-652000D01*
X273820Y-651360D01*
X272370Y-651570D01*
X270920Y-652420D01*
G01X295490Y-445860D02*
Y-433160D01*
X298700D01*
X299990Y-433800D01*
X300960Y-434640D01*
X301760Y-435910D01*
X302400Y-437390D01*
X302560Y-439510D01*
X302400Y-441630D01*
X301760Y-443110D01*
X300960Y-444380D01*
X299990Y-445230D01*
X298700Y-445860D01*
X295490D01*
G01X308440D02*
Y-433160D01*
X311650D01*
X312940Y-433800D01*
X313910Y-434640D01*
X314710Y-435910D01*
X315350Y-437390D01*
X315510Y-439510D01*
X315350Y-441630D01*
X314710Y-443110D01*
X313910Y-444380D01*
X312940Y-445230D01*
X311650Y-445860D01*
X308440D01*
G01X326860D02*
Y-433160D01*
X320900Y-442260D01*
X328950D01*
G01X263620Y-398420D02*
X262660Y-397780D01*
X261530Y-397360D01*
X260250D01*
X258800Y-398000D01*
X257670Y-399050D01*
X256870Y-400320D01*
X256220Y-402440D01*
X256060Y-404350D01*
X256390Y-406250D01*
X256870Y-407520D01*
X257830Y-408790D01*
X258960Y-409640D01*
X260080Y-410060D01*
X261210D01*
X262340Y-409640D01*
X263300Y-409000D01*
X264110Y-408160D01*
G01X273030Y-410060D02*
Y-397360D01*
X271100Y-399900D01*
G01Y-410060D02*
X274960D01*
G01X285980Y-397360D02*
X284700Y-397780D01*
X283730Y-398840D01*
X283090Y-400110D01*
X282610Y-401810D01*
X282450Y-403710D01*
X282610Y-405620D01*
X283090Y-407310D01*
X283730Y-408580D01*
X284700Y-409640D01*
X285980Y-410060D01*
X287270Y-409640D01*
X288240Y-408580D01*
X288880Y-407310D01*
X289360Y-405620D01*
X289520Y-403710D01*
X289360Y-401810D01*
X288880Y-400110D01*
X288240Y-398840D01*
X287270Y-397780D01*
X285980Y-397360D01*
G01X241300Y-426760D02*
Y-418760D01*
G01X250920Y-197910D02*
X249960Y-197270D01*
X248830Y-196850D01*
X247550D01*
X246100Y-197490D01*
X244970Y-198540D01*
X244170Y-199810D01*
X243520Y-201930D01*
X243360Y-203840D01*
X243690Y-205740D01*
X244170Y-207010D01*
X245130Y-208280D01*
X246260Y-209130D01*
X247380Y-209550D01*
X248510D01*
X249640Y-209130D01*
X250600Y-208490D01*
X251410Y-207650D01*
G01X256800Y-207010D02*
X257760Y-208490D01*
X259050Y-209340D01*
X260500Y-209550D01*
X261780Y-209340D01*
X263070Y-208280D01*
X263870Y-207010D01*
X264030Y-205740D01*
X263710Y-204260D01*
X262590Y-203200D01*
X261460Y-202780D01*
X260010D01*
G01X261460D02*
X262430Y-202140D01*
X263230Y-201080D01*
X263550Y-199810D01*
X263230Y-198540D01*
X262430Y-197490D01*
X260980Y-196850D01*
X259530Y-197060D01*
X258080Y-197910D01*
G01X275220Y-209550D02*
Y-196850D01*
X269260Y-205950D01*
X277310D01*
G01X296300Y-196510D02*
Y-204510D01*
G01X250920Y-13760D02*
X249960Y-13120D01*
X248830Y-12700D01*
X247550D01*
X246100Y-13340D01*
X244970Y-14390D01*
X244170Y-15660D01*
X243520Y-17780D01*
X243360Y-19690D01*
X243690Y-21590D01*
X244170Y-22860D01*
X245130Y-24130D01*
X246260Y-24980D01*
X247380Y-25400D01*
X248510D01*
X249640Y-24980D01*
X250600Y-24340D01*
X251410Y-23500D01*
G01X256800Y-22860D02*
X257760Y-24340D01*
X259050Y-25190D01*
X260500Y-25400D01*
X261780Y-25190D01*
X263070Y-24130D01*
X263870Y-22860D01*
X264030Y-21590D01*
X263710Y-20110D01*
X262590Y-19050D01*
X261460Y-18630D01*
X260010D01*
G01X261460D02*
X262430Y-17990D01*
X263230Y-16930D01*
X263550Y-15660D01*
X263230Y-14390D01*
X262430Y-13340D01*
X260980Y-12700D01*
X259530Y-12910D01*
X258080Y-13760D01*
G01X270230Y-14820D02*
X271190Y-13550D01*
X272320Y-12910D01*
X273610Y-12700D01*
X275220Y-13120D01*
X276340Y-14180D01*
X276660Y-15450D01*
X276500Y-16720D01*
X275860Y-17780D01*
X272640Y-19900D01*
X271190Y-21380D01*
X270230Y-23500D01*
X269910Y-25400D01*
X276660D01*
G01X296300Y-12360D02*
Y-20360D01*
G01X250920Y157690D02*
X249960Y158330D01*
X248830Y158750D01*
X247550D01*
X246100Y158110D01*
X244970Y157060D01*
X244170Y155790D01*
X243520Y153670D01*
X243360Y151760D01*
X243690Y149860D01*
X244170Y148590D01*
X245130Y147320D01*
X246260Y146470D01*
X247380Y146050D01*
X248510D01*
X249640Y146470D01*
X250600Y147110D01*
X251410Y147950D01*
G01X256800Y148590D02*
X257760Y147110D01*
X259050Y146260D01*
X260500Y146050D01*
X261780Y146260D01*
X263070Y147320D01*
X263870Y148590D01*
X264030Y149860D01*
X263710Y151340D01*
X262590Y152400D01*
X261460Y152820D01*
X260010D01*
G01X261460D02*
X262430Y153460D01*
X263230Y154520D01*
X263550Y155790D01*
X263230Y157060D01*
X262430Y158110D01*
X260980Y158750D01*
X259530Y158540D01*
X258080Y157690D01*
G01X273280Y158750D02*
X272000Y158330D01*
X271030Y157270D01*
X270390Y156000D01*
X269910Y154300D01*
X269750Y152400D01*
X269910Y150490D01*
X270390Y148800D01*
X271030Y147530D01*
X272000Y146470D01*
X273280Y146050D01*
X274570Y146470D01*
X275540Y147530D01*
X276180Y148800D01*
X276660Y150490D01*
X276820Y152400D01*
X276660Y154300D01*
X276180Y156000D01*
X275540Y157270D01*
X274570Y158330D01*
X273280Y158750D01*
G01X296300Y159090D02*
Y151090D01*
G01X357210Y-1206500D02*
Y-1193800D01*
X361230D01*
X362520Y-1194440D01*
X363320Y-1195280D01*
X363640Y-1196980D01*
X363320Y-1198670D01*
X362360Y-1199730D01*
X361230Y-1200360D01*
X357210D01*
G01X361230D02*
X363640Y-1206500D01*
G01X370000Y-1204810D02*
X371280Y-1205870D01*
X372730Y-1206500D01*
X374020D01*
X375310Y-1205870D01*
X376270Y-1204810D01*
X376750Y-1203320D01*
X376430Y-1201840D01*
X375630Y-1200570D01*
X374180Y-1199730D01*
X372250Y-1199300D01*
X371120Y-1198460D01*
X370640Y-1196980D01*
X370960Y-1195490D01*
X371770Y-1194440D01*
X372890Y-1193800D01*
X374020D01*
X375140Y-1194220D01*
X376110Y-1195280D01*
G01X388260Y-1206500D02*
Y-1193800D01*
X382300Y-1202900D01*
X390350D01*
G01X399270Y-1206500D02*
X400400Y-1206290D01*
X401690Y-1205650D01*
X402490Y-1204600D01*
X402810Y-1203110D01*
X402490Y-1201630D01*
X401530Y-1200360D01*
X400080Y-1199730D01*
X398470D01*
X397510Y-1199300D01*
X396700Y-1198250D01*
X396380Y-1196760D01*
X396860Y-1195280D01*
X397990Y-1194220D01*
X399270Y-1193800D01*
X400560Y-1194220D01*
X401690Y-1195280D01*
X402170Y-1196760D01*
X401850Y-1198250D01*
X401040Y-1199300D01*
X400080Y-1199730D01*
X398470D01*
X397020Y-1200360D01*
X396060Y-1201630D01*
X395740Y-1203110D01*
X396060Y-1204600D01*
X396860Y-1205650D01*
X398150Y-1206290D01*
X399270Y-1206500D01*
G01X408690Y-1204600D02*
X409650Y-1205650D01*
X410780Y-1206290D01*
X412220Y-1206500D01*
X413670Y-1206080D01*
X414800Y-1205230D01*
X415600Y-1203750D01*
X415760Y-1202060D01*
X415440Y-1200360D01*
X414640Y-1199300D01*
X413510Y-1198460D01*
X412390Y-1198250D01*
X411260Y-1198460D01*
X409810Y-1199300D01*
X410290Y-1193800D01*
X414640D01*
G01X357210Y-1257300D02*
Y-1244600D01*
X361230D01*
X362520Y-1245240D01*
X363320Y-1246080D01*
X363640Y-1247780D01*
X363320Y-1249470D01*
X362360Y-1250530D01*
X361230Y-1251160D01*
X357210D01*
G01X361230D02*
X363640Y-1257300D01*
G01X370000Y-1255610D02*
X371280Y-1256670D01*
X372730Y-1257300D01*
X374020D01*
X375310Y-1256670D01*
X376270Y-1255610D01*
X376750Y-1254120D01*
X376430Y-1252640D01*
X375630Y-1251370D01*
X374180Y-1250530D01*
X372250Y-1250100D01*
X371120Y-1249260D01*
X370640Y-1247780D01*
X370960Y-1246290D01*
X371770Y-1245240D01*
X372890Y-1244600D01*
X374020D01*
X375140Y-1245020D01*
X376110Y-1246080D01*
G01X388260Y-1257300D02*
Y-1244600D01*
X382300Y-1253700D01*
X390350D01*
G01X396220Y-1246720D02*
X397180Y-1245450D01*
X398310Y-1244810D01*
X399600Y-1244600D01*
X401210Y-1245020D01*
X402330Y-1246080D01*
X402650Y-1247350D01*
X402490Y-1248620D01*
X401850Y-1249680D01*
X398630Y-1251800D01*
X397180Y-1253280D01*
X396220Y-1255400D01*
X395900Y-1257300D01*
X402650D01*
G01X409170Y-1246720D02*
X410130Y-1245450D01*
X411260Y-1244810D01*
X412550Y-1244600D01*
X414160Y-1245020D01*
X415280Y-1246080D01*
X415600Y-1247350D01*
X415440Y-1248620D01*
X414800Y-1249680D01*
X411580Y-1251800D01*
X410130Y-1253280D01*
X409170Y-1255400D01*
X408850Y-1257300D01*
X415600D01*
G01X358490Y-1155700D02*
X362350D01*
G01X360420D02*
Y-1168400D01*
G01X358490D02*
X362350D01*
G01X370640D02*
Y-1159930D01*
G01Y-1162050D02*
X371280Y-1160990D01*
X372250Y-1160150D01*
X373540Y-1159930D01*
X374660Y-1160150D01*
X375630Y-1160990D01*
X376110Y-1162470D01*
Y-1168400D01*
G01X386320Y-1155700D02*
Y-1168400D01*
G01X384070Y-1159930D02*
X388580D01*
G01X396860Y-1162690D02*
X402010D01*
X401530Y-1161200D01*
X400720Y-1160360D01*
X399600Y-1159930D01*
X398470Y-1160150D01*
X397510Y-1160780D01*
X396860Y-1162260D01*
X396540Y-1163530D01*
Y-1164800D01*
X396860Y-1166070D01*
X397670Y-1167340D01*
X398630Y-1168190D01*
X399760Y-1168400D01*
X400880Y-1167980D01*
X402010Y-1166710D01*
G01X409970Y-1168400D02*
Y-1159930D01*
G01Y-1161630D02*
X410780Y-1160780D01*
X411580Y-1160150D01*
X412710Y-1159930D01*
X413510Y-1160150D01*
X414480Y-1160780D01*
G01X424210Y-1168400D02*
Y-1157600D01*
X424530Y-1156550D01*
X425170Y-1155910D01*
X426140Y-1155700D01*
X427110Y-1156120D01*
X427590Y-1157180D01*
G01X425660Y-1160780D02*
X422440D01*
G01X441020Y-1168400D02*
Y-1159930D01*
G01Y-1161410D02*
X440380Y-1160570D01*
X439410Y-1160150D01*
X438290Y-1159930D01*
X437160Y-1160360D01*
X436190Y-1161200D01*
X435550Y-1162470D01*
X435230Y-1164170D01*
X435550Y-1165860D01*
X436190Y-1167130D01*
X437160Y-1167980D01*
X438290Y-1168400D01*
X439410Y-1168190D01*
X440380Y-1167550D01*
X441020Y-1166710D01*
G01X453650Y-1160990D02*
X452520Y-1160150D01*
X451560Y-1159930D01*
X450270Y-1160360D01*
X449310Y-1161200D01*
X448660Y-1162690D01*
X448500Y-1164170D01*
X448660Y-1165650D01*
X449310Y-1166920D01*
X450270Y-1167980D01*
X451560Y-1168400D01*
X452680Y-1167980D01*
X453650Y-1167130D01*
G01X461610Y-1162690D02*
X466760D01*
X466280Y-1161200D01*
X465470Y-1160360D01*
X464350Y-1159930D01*
X463220Y-1160150D01*
X462260Y-1160780D01*
X461610Y-1162260D01*
X461290Y-1163530D01*
Y-1164800D01*
X461610Y-1166070D01*
X462420Y-1167340D01*
X463380Y-1168190D01*
X464510Y-1168400D01*
X465630Y-1167980D01*
X466760Y-1166710D01*
G01X384270Y-1058820D02*
X383310Y-1058180D01*
X382180Y-1057760D01*
X380900D01*
X379450Y-1058400D01*
X378320Y-1059450D01*
X377520Y-1060720D01*
X376870Y-1062840D01*
X376710Y-1064750D01*
X377040Y-1066650D01*
X377520Y-1067920D01*
X378480Y-1069190D01*
X379610Y-1070040D01*
X380730Y-1070460D01*
X381860D01*
X382990Y-1070040D01*
X383950Y-1069400D01*
X384760Y-1068560D01*
G01X390630Y-1059880D02*
X391590Y-1058610D01*
X392720Y-1057970D01*
X394010Y-1057760D01*
X395620Y-1058180D01*
X396740Y-1059240D01*
X397060Y-1060510D01*
X396900Y-1061780D01*
X396260Y-1062840D01*
X393040Y-1064960D01*
X391590Y-1066440D01*
X390630Y-1068560D01*
X390310Y-1070460D01*
X397060D01*
G01X406310D02*
X406630Y-1067710D01*
X407120Y-1065380D01*
X407760Y-1063260D01*
X408570Y-1060940D01*
X409850Y-1057760D01*
X403420D01*
G01X384270Y-983190D02*
X383310Y-982550D01*
X382180Y-982130D01*
X380900D01*
X379450Y-982770D01*
X378320Y-983820D01*
X377520Y-985090D01*
X376870Y-987210D01*
X376710Y-989120D01*
X377040Y-991020D01*
X377520Y-992290D01*
X378480Y-993560D01*
X379610Y-994410D01*
X380730Y-994830D01*
X381860D01*
X382990Y-994410D01*
X383950Y-993770D01*
X384760Y-992930D01*
G01X390630Y-984250D02*
X391590Y-982980D01*
X392720Y-982340D01*
X394010Y-982130D01*
X395620Y-982550D01*
X396740Y-983610D01*
X397060Y-984880D01*
X396900Y-986150D01*
X396260Y-987210D01*
X393040Y-989330D01*
X391590Y-990810D01*
X390630Y-992930D01*
X390310Y-994830D01*
X397060D01*
G01X408570D02*
Y-982130D01*
X402610Y-991230D01*
X410660D01*
G01X371570Y-919690D02*
X370610Y-919050D01*
X369480Y-918630D01*
X368200D01*
X366750Y-919270D01*
X365620Y-920320D01*
X364820Y-921590D01*
X364170Y-923710D01*
X364010Y-925620D01*
X364340Y-927520D01*
X364820Y-928790D01*
X365780Y-930060D01*
X366910Y-930910D01*
X368030Y-931330D01*
X369160D01*
X370290Y-930910D01*
X371250Y-930270D01*
X372060Y-929430D01*
G01X377930Y-920750D02*
X378890Y-919480D01*
X380020Y-918840D01*
X381310Y-918630D01*
X382920Y-919050D01*
X384040Y-920110D01*
X384360Y-921380D01*
X384200Y-922650D01*
X383560Y-923710D01*
X380340Y-925830D01*
X378890Y-927310D01*
X377930Y-929430D01*
X377610Y-931330D01*
X384360D01*
G01X390880Y-926040D02*
X392000Y-924560D01*
X392970Y-923710D01*
X394260Y-923290D01*
X395380Y-923710D01*
X396190Y-924560D01*
X396830Y-925830D01*
X396990Y-927310D01*
X396830Y-928580D01*
X396190Y-929850D01*
X395220Y-930910D01*
X394100Y-931330D01*
X392810Y-930910D01*
X391680Y-929640D01*
X391040Y-927730D01*
X390880Y-925620D01*
X391200Y-922860D01*
X391680Y-921380D01*
X392490Y-919900D01*
X393610Y-918840D01*
X394740Y-918630D01*
X395870Y-919050D01*
X396670Y-920110D01*
G01X381000Y-939460D02*
Y-947460D01*
G01X390760Y-804820D02*
X389800Y-804180D01*
X388670Y-803760D01*
X387390D01*
X385940Y-804400D01*
X384810Y-805450D01*
X384010Y-806720D01*
X383360Y-808840D01*
X383200Y-810750D01*
X383530Y-812650D01*
X384010Y-813920D01*
X384970Y-815190D01*
X386100Y-816040D01*
X387220Y-816460D01*
X388350D01*
X389480Y-816040D01*
X390440Y-815400D01*
X391250Y-814560D01*
G01X397120Y-811170D02*
X398240Y-809690D01*
X399210Y-808840D01*
X400500Y-808420D01*
X401620Y-808840D01*
X402430Y-809690D01*
X403070Y-810960D01*
X403230Y-812440D01*
X403070Y-813710D01*
X402430Y-814980D01*
X401460Y-816040D01*
X400340Y-816460D01*
X399050Y-816040D01*
X397920Y-814770D01*
X397280Y-812860D01*
X397120Y-810750D01*
X397440Y-807990D01*
X397920Y-806510D01*
X398730Y-805030D01*
X399850Y-803970D01*
X400980Y-803760D01*
X402110Y-804180D01*
X402910Y-805240D01*
G01X390760Y-729200D02*
X389800Y-728560D01*
X388670Y-728140D01*
X387390D01*
X385940Y-728780D01*
X384810Y-729830D01*
X384010Y-731100D01*
X383360Y-733220D01*
X383200Y-735130D01*
X383530Y-737030D01*
X384010Y-738300D01*
X384970Y-739570D01*
X386100Y-740420D01*
X387220Y-740840D01*
X388350D01*
X389480Y-740420D01*
X390440Y-739780D01*
X391250Y-738940D01*
G01X397440Y-739360D02*
X398570Y-740420D01*
X399850Y-740840D01*
X401140Y-740420D01*
X402270Y-739150D01*
X403070Y-737240D01*
X403390Y-735340D01*
Y-733010D01*
X403070Y-731100D01*
X402270Y-729410D01*
X401300Y-728560D01*
X400170Y-728140D01*
X398890Y-728560D01*
X397920Y-729410D01*
X397280Y-730680D01*
X396960Y-732370D01*
X397280Y-733850D01*
X398080Y-735340D01*
X399050Y-736180D01*
X400170Y-736400D01*
X401460Y-735970D01*
X402430Y-734910D01*
X403390Y-733010D01*
G01X378060Y-665690D02*
X377100Y-665050D01*
X375970Y-664630D01*
X374690D01*
X373240Y-665270D01*
X372110Y-666320D01*
X371310Y-667590D01*
X370660Y-669710D01*
X370500Y-671620D01*
X370830Y-673520D01*
X371310Y-674790D01*
X372270Y-676060D01*
X373400Y-676910D01*
X374520Y-677330D01*
X375650D01*
X376780Y-676910D01*
X377740Y-676270D01*
X378550Y-675430D01*
G01X387470Y-677330D02*
X388600Y-677120D01*
X389890Y-676480D01*
X390690Y-675430D01*
X391010Y-673940D01*
X390690Y-672460D01*
X389730Y-671190D01*
X388280Y-670560D01*
X386670D01*
X385710Y-670130D01*
X384900Y-669080D01*
X384580Y-667590D01*
X385060Y-666110D01*
X386190Y-665050D01*
X387470Y-664630D01*
X388760Y-665050D01*
X389890Y-666110D01*
X390370Y-667590D01*
X390050Y-669080D01*
X389240Y-670130D01*
X388280Y-670560D01*
X386670D01*
X385220Y-671190D01*
X384260Y-672460D01*
X383940Y-673940D01*
X384260Y-675430D01*
X385060Y-676480D01*
X386350Y-677120D01*
X387470Y-677330D01*
G01X381000Y-685460D02*
Y-693460D01*
G01X384270Y-553510D02*
X383310Y-552870D01*
X382180Y-552450D01*
X380900D01*
X379450Y-553090D01*
X378320Y-554140D01*
X377520Y-555410D01*
X376870Y-557530D01*
X376710Y-559440D01*
X377040Y-561340D01*
X377520Y-562610D01*
X378480Y-563880D01*
X379610Y-564730D01*
X380730Y-565150D01*
X381860D01*
X382990Y-564730D01*
X383950Y-564090D01*
X384760Y-563250D01*
G01X393680Y-565150D02*
Y-552450D01*
X391750Y-554990D01*
G01Y-565150D02*
X395610D01*
G01X403100Y-563250D02*
X404060Y-564300D01*
X405190Y-564940D01*
X406630Y-565150D01*
X408080Y-564730D01*
X409210Y-563880D01*
X410010Y-562400D01*
X410170Y-560710D01*
X409850Y-559010D01*
X409050Y-557950D01*
X407920Y-557110D01*
X406800Y-556900D01*
X405670Y-557110D01*
X404220Y-557950D01*
X404700Y-552450D01*
X409050D01*
G01X384280Y-475200D02*
X383320Y-474560D01*
X382190Y-474140D01*
X380910D01*
X379460Y-474780D01*
X378330Y-475830D01*
X377530Y-477100D01*
X376880Y-479220D01*
X376720Y-481130D01*
X377050Y-483030D01*
X377530Y-484300D01*
X378490Y-485570D01*
X379620Y-486420D01*
X380740Y-486840D01*
X381870D01*
X383000Y-486420D01*
X383960Y-485780D01*
X384770Y-484940D01*
G01X393690Y-486840D02*
Y-474140D01*
X391760Y-476680D01*
G01Y-486840D02*
X395620D01*
G01X406640D02*
X407770Y-486630D01*
X409060Y-485990D01*
X409860Y-484940D01*
X410180Y-483450D01*
X409860Y-481970D01*
X408900Y-480700D01*
X407450Y-480070D01*
X405840D01*
X404880Y-479640D01*
X404070Y-478590D01*
X403750Y-477100D01*
X404230Y-475620D01*
X405360Y-474560D01*
X406640Y-474140D01*
X407930Y-474560D01*
X409060Y-475620D01*
X409540Y-477100D01*
X409220Y-478590D01*
X408410Y-479640D01*
X407450Y-480070D01*
X405840D01*
X404390Y-480700D01*
X403430Y-481970D01*
X403110Y-483450D01*
X403430Y-484940D01*
X404230Y-485990D01*
X405520Y-486630D01*
X406640Y-486840D01*
G01X377920Y-411120D02*
X376960Y-410480D01*
X375830Y-410060D01*
X374550D01*
X373100Y-410700D01*
X371970Y-411750D01*
X371170Y-413020D01*
X370520Y-415140D01*
X370360Y-417050D01*
X370690Y-418950D01*
X371170Y-420220D01*
X372130Y-421490D01*
X373260Y-422340D01*
X374380Y-422760D01*
X375510D01*
X376640Y-422340D01*
X377600Y-421700D01*
X378410Y-420860D01*
G01X387330Y-422760D02*
Y-410060D01*
X385400Y-412600D01*
G01Y-422760D02*
X389260D01*
G01X399960D02*
X400280Y-420010D01*
X400770Y-417680D01*
X401410Y-415560D01*
X402220Y-413240D01*
X403500Y-410060D01*
X397070D01*
G01X381000Y-431460D02*
Y-439460D01*
G01X344510Y-260350D02*
Y-247650D01*
X348530D01*
X349820Y-248290D01*
X350620Y-249130D01*
X350940Y-250830D01*
X350620Y-252520D01*
X349660Y-253580D01*
X348530Y-254210D01*
X344510D01*
G01X348530D02*
X350940Y-260350D01*
G01X357620Y-255060D02*
X358740Y-253580D01*
X359710Y-252730D01*
X361000Y-252310D01*
X362120Y-252730D01*
X362930Y-253580D01*
X363570Y-254850D01*
X363730Y-256330D01*
X363570Y-257600D01*
X362930Y-258870D01*
X361960Y-259930D01*
X360840Y-260350D01*
X359550Y-259930D01*
X358420Y-258660D01*
X357780Y-256750D01*
X357620Y-254640D01*
X357940Y-251880D01*
X358420Y-250400D01*
X359230Y-248920D01*
X360350Y-247860D01*
X361480Y-247650D01*
X362610Y-248070D01*
X363410Y-249130D01*
G01X370090Y-257810D02*
X371050Y-259290D01*
X372340Y-260140D01*
X373790Y-260350D01*
X375070Y-260140D01*
X376360Y-259080D01*
X377160Y-257810D01*
X377320Y-256540D01*
X377000Y-255060D01*
X375880Y-254000D01*
X374750Y-253580D01*
X373300D01*
G01X374750D02*
X375720Y-252940D01*
X376520Y-251880D01*
X376840Y-250610D01*
X376520Y-249340D01*
X375720Y-248290D01*
X374270Y-247650D01*
X372820Y-247860D01*
X371370Y-248710D01*
G01X371250Y-191500D02*
X375270Y-204200D01*
X379300Y-191500D01*
G01X384690Y-204200D02*
Y-191500D01*
X387900D01*
X389190Y-192140D01*
X390160Y-192980D01*
X390960Y-194250D01*
X391600Y-195730D01*
X391760Y-197850D01*
X391600Y-199970D01*
X390960Y-201450D01*
X390160Y-202720D01*
X389190Y-203570D01*
X387900Y-204200D01*
X384690D01*
G01X398120Y-193620D02*
X399080Y-192350D01*
X400210Y-191710D01*
X401500Y-191500D01*
X403110Y-191920D01*
X404230Y-192980D01*
X404550Y-194250D01*
X404390Y-195520D01*
X403750Y-196580D01*
X400530Y-198700D01*
X399080Y-200180D01*
X398120Y-202300D01*
X397800Y-204200D01*
X404550D01*
G01X416060D02*
Y-191500D01*
X410100Y-200600D01*
X418150D01*
G01X319460Y-137960D02*
X323480Y-125260D01*
X327510Y-137960D01*
G01X326060Y-133520D02*
X320910D01*
G01X332410Y-125260D02*
X336430Y-137960D01*
X340460Y-125260D01*
G01X345850Y-135420D02*
X346810Y-136900D01*
X348100Y-137750D01*
X349550Y-137960D01*
X350830Y-137750D01*
X352120Y-136690D01*
X352920Y-135420D01*
X353080Y-134150D01*
X352760Y-132670D01*
X351640Y-131610D01*
X350510Y-131190D01*
X349060D01*
G01X350510D02*
X351480Y-130550D01*
X352280Y-129490D01*
X352600Y-128220D01*
X352280Y-126950D01*
X351480Y-125900D01*
X350030Y-125260D01*
X348580Y-125470D01*
X347130Y-126320D01*
G01X344510Y-76200D02*
Y-63500D01*
X348530D01*
X349820Y-64140D01*
X350620Y-64980D01*
X350940Y-66680D01*
X350620Y-68370D01*
X349660Y-69430D01*
X348530Y-70060D01*
X344510D01*
G01X348530D02*
X350940Y-76200D01*
G01X357140Y-74300D02*
X358100Y-75350D01*
X359230Y-75990D01*
X360670Y-76200D01*
X362120Y-75780D01*
X363250Y-74930D01*
X364050Y-73450D01*
X364210Y-71760D01*
X363890Y-70060D01*
X363090Y-69000D01*
X361960Y-68160D01*
X360840Y-67950D01*
X359710Y-68160D01*
X358260Y-69000D01*
X358740Y-63500D01*
X363090D01*
G01X370090Y-74300D02*
X371050Y-75350D01*
X372180Y-75990D01*
X373620Y-76200D01*
X375070Y-75780D01*
X376200Y-74930D01*
X377000Y-73450D01*
X377160Y-71760D01*
X376840Y-70060D01*
X376040Y-69000D01*
X374910Y-68160D01*
X373790Y-67950D01*
X372660Y-68160D01*
X371210Y-69000D01*
X371690Y-63500D01*
X376040D01*
G01X371250Y-7350D02*
X375270Y-20050D01*
X379300Y-7350D01*
G01X384690Y-20050D02*
Y-7350D01*
X387900D01*
X389190Y-7990D01*
X390160Y-8830D01*
X390960Y-10100D01*
X391600Y-11580D01*
X391760Y-13700D01*
X391600Y-15820D01*
X390960Y-17300D01*
X390160Y-18570D01*
X389190Y-19420D01*
X387900Y-20050D01*
X384690D01*
G01X398120Y-9470D02*
X399080Y-8200D01*
X400210Y-7560D01*
X401500Y-7350D01*
X403110Y-7770D01*
X404230Y-8830D01*
X404550Y-10100D01*
X404390Y-11370D01*
X403750Y-12430D01*
X400530Y-14550D01*
X399080Y-16030D01*
X398120Y-18150D01*
X397800Y-20050D01*
X404550D01*
G01X414120D02*
Y-7350D01*
X412190Y-9890D01*
G01Y-20050D02*
X416050D01*
G01X319560Y47140D02*
X323580Y59840D01*
X327610Y47140D01*
G01X326160Y51580D02*
X321010D01*
G01X332510Y59840D02*
X336530Y47140D01*
X340560Y59840D01*
G01X346430Y57720D02*
X347390Y58990D01*
X348520Y59630D01*
X349810Y59840D01*
X351420Y59420D01*
X352540Y58360D01*
X352860Y57090D01*
X352700Y55820D01*
X352060Y54760D01*
X348840Y52640D01*
X347390Y51160D01*
X346430Y49040D01*
X346110Y47140D01*
X352860D01*
G01X344510Y95250D02*
Y107950D01*
X348530D01*
X349820Y107310D01*
X350620Y106470D01*
X350940Y104770D01*
X350620Y103080D01*
X349660Y102020D01*
X348530Y101390D01*
X344510D01*
G01X348530D02*
X350940Y95250D01*
G01X362610D02*
Y107950D01*
X356650Y98850D01*
X364700D01*
G01X373300Y95250D02*
X373620Y98000D01*
X374110Y100330D01*
X374750Y102450D01*
X375560Y104770D01*
X376840Y107950D01*
X370410D01*
G01X370250Y224940D02*
X374270Y212240D01*
X378300Y224940D01*
G01X383690Y212240D02*
Y224940D01*
X386900D01*
X388190Y224300D01*
X389160Y223460D01*
X389960Y222190D01*
X390600Y220710D01*
X390760Y218590D01*
X390600Y216470D01*
X389960Y214990D01*
X389160Y213720D01*
X388190Y212870D01*
X386900Y212240D01*
X383690D01*
G01X400170D02*
Y224940D01*
X398240Y222400D01*
G01Y212240D02*
X402100D01*
G01X410390Y213720D02*
X411520Y212660D01*
X412800Y212240D01*
X414090Y212660D01*
X415220Y213930D01*
X416020Y215840D01*
X416340Y217740D01*
Y220070D01*
X416020Y221980D01*
X415220Y223670D01*
X414250Y224520D01*
X413120Y224940D01*
X411840Y224520D01*
X410870Y223670D01*
X410230Y222400D01*
X409910Y220710D01*
X410230Y219230D01*
X411030Y217740D01*
X412000Y216900D01*
X413120Y216680D01*
X414410Y217110D01*
X415380Y218170D01*
X416340Y220070D01*
G01X319560Y218590D02*
X323580Y231290D01*
X327610Y218590D01*
G01X326160Y223030D02*
X321010D01*
G01X332510Y231290D02*
X336530Y218590D01*
X340560Y231290D01*
G01X349480Y218590D02*
Y231290D01*
X347550Y228750D01*
G01Y218590D02*
X351410D01*
G01X348690Y374650D02*
X351910D01*
Y370840D01*
X350940Y369570D01*
X349820Y368720D01*
X348210Y368300D01*
X346600Y368720D01*
X345470Y369570D01*
X344510Y370840D01*
X343860Y372320D01*
X343540Y374010D01*
Y375500D01*
X343860Y376770D01*
X344510Y378250D01*
X345470Y379520D01*
X346440Y380360D01*
X347720Y381000D01*
X348850D01*
X350140Y380580D01*
X351100Y379730D01*
G01X356980Y368300D02*
Y381000D01*
X364370Y368300D01*
Y381000D01*
G01X370090Y368300D02*
Y381000D01*
X373300D01*
X374590Y380360D01*
X375560Y379520D01*
X376360Y378250D01*
X377000Y376770D01*
X377160Y374650D01*
X377000Y372530D01*
X376360Y371050D01*
X375560Y369780D01*
X374590Y368930D01*
X373300Y368300D01*
X370090D01*
G01X389790D02*
X383360D01*
Y381000D01*
X389790D01*
G01X387220Y374860D02*
X383360D01*
G01X344350Y419100D02*
X351100Y431800D01*
G01X344350D02*
X351100Y419100D01*
G01X362610D02*
Y431800D01*
X356650Y422700D01*
X364700D01*
G01X393700Y-1079160D02*
Y-1087160D01*
G01X422370Y-1109620D02*
X421410Y-1108980D01*
X420280Y-1108560D01*
X419000D01*
X417550Y-1109200D01*
X416420Y-1110250D01*
X415620Y-1111520D01*
X414970Y-1113640D01*
X414810Y-1115550D01*
X415140Y-1117450D01*
X415620Y-1118720D01*
X416580Y-1119990D01*
X417710Y-1120840D01*
X418830Y-1121260D01*
X419960D01*
X421090Y-1120840D01*
X422050Y-1120200D01*
X422860Y-1119360D01*
G01X428730Y-1110680D02*
X429690Y-1109410D01*
X430820Y-1108770D01*
X432110Y-1108560D01*
X433720Y-1108980D01*
X434840Y-1110040D01*
X435160Y-1111310D01*
X435000Y-1112580D01*
X434360Y-1113640D01*
X431140Y-1115760D01*
X429690Y-1117240D01*
X428730Y-1119360D01*
X428410Y-1121260D01*
X435160D01*
G01X441200Y-1119360D02*
X442160Y-1120410D01*
X443290Y-1121050D01*
X444730Y-1121260D01*
X446180Y-1120840D01*
X447310Y-1119990D01*
X448110Y-1118510D01*
X448270Y-1116820D01*
X447950Y-1115120D01*
X447150Y-1114060D01*
X446020Y-1113220D01*
X444900Y-1113010D01*
X443770Y-1113220D01*
X442320Y-1114060D01*
X442800Y-1108560D01*
X447150D01*
G01X393700Y-964860D02*
Y-972860D01*
G01Y-825160D02*
Y-833160D01*
G01X422510Y-856200D02*
X421550Y-855560D01*
X420420Y-855140D01*
X419140D01*
X417690Y-855780D01*
X416560Y-856830D01*
X415760Y-858100D01*
X415110Y-860220D01*
X414950Y-862130D01*
X415280Y-864030D01*
X415760Y-865300D01*
X416720Y-866570D01*
X417850Y-867420D01*
X418970Y-867840D01*
X420100D01*
X421230Y-867420D01*
X422190Y-866780D01*
X423000Y-865940D01*
G01X431600Y-867840D02*
X431920Y-865090D01*
X432410Y-862760D01*
X433050Y-860640D01*
X433860Y-858320D01*
X435140Y-855140D01*
X428710D01*
G01X441000Y-694700D02*
X442280Y-695760D01*
X443730Y-696390D01*
X445020D01*
X446310Y-695760D01*
X447270Y-694700D01*
X447750Y-693210D01*
X447430Y-691730D01*
X446630Y-690460D01*
X445180Y-689620D01*
X443250Y-689190D01*
X442120Y-688350D01*
X441640Y-686870D01*
X441960Y-685380D01*
X442770Y-684330D01*
X443890Y-683690D01*
X445020D01*
X446140Y-684110D01*
X447110Y-685170D01*
G01X454270Y-685810D02*
X455230Y-684540D01*
X456360Y-683900D01*
X457650Y-683690D01*
X459260Y-684110D01*
X460380Y-685170D01*
X460700Y-686440D01*
X460540Y-687710D01*
X459900Y-688770D01*
X456680Y-690890D01*
X455230Y-692370D01*
X454270Y-694490D01*
X453950Y-696390D01*
X460700D01*
G01X393700Y-710860D02*
Y-718860D01*
G01X422370Y-604310D02*
X421410Y-603670D01*
X420280Y-603250D01*
X419000D01*
X417550Y-603890D01*
X416420Y-604940D01*
X415620Y-606210D01*
X414970Y-608330D01*
X414810Y-610240D01*
X415140Y-612140D01*
X415620Y-613410D01*
X416580Y-614680D01*
X417710Y-615530D01*
X418830Y-615950D01*
X419960D01*
X421090Y-615530D01*
X422050Y-614890D01*
X422860Y-614050D01*
G01X431780Y-615950D02*
Y-603250D01*
X429850Y-605790D01*
G01Y-615950D02*
X433710D01*
G01X441680Y-610660D02*
X442800Y-609180D01*
X443770Y-608330D01*
X445060Y-607910D01*
X446180Y-608330D01*
X446990Y-609180D01*
X447630Y-610450D01*
X447790Y-611930D01*
X447630Y-613200D01*
X446990Y-614470D01*
X446020Y-615530D01*
X444900Y-615950D01*
X443610Y-615530D01*
X442480Y-614260D01*
X441840Y-612350D01*
X441680Y-610240D01*
X442000Y-607480D01*
X442480Y-606000D01*
X443290Y-604520D01*
X444410Y-603460D01*
X445540Y-603250D01*
X446670Y-603670D01*
X447470Y-604730D01*
G01X393700Y-571160D02*
Y-579160D01*
G01X441000Y-440120D02*
X442280Y-441180D01*
X443730Y-441810D01*
X445020D01*
X446310Y-441180D01*
X447270Y-440120D01*
X447750Y-438630D01*
X447430Y-437150D01*
X446630Y-435880D01*
X445180Y-435040D01*
X443250Y-434610D01*
X442120Y-433770D01*
X441640Y-432290D01*
X441960Y-430800D01*
X442770Y-429750D01*
X443890Y-429110D01*
X445020D01*
X446140Y-429530D01*
X447110Y-430590D01*
G01X459260Y-441810D02*
Y-429110D01*
X453300Y-438210D01*
X461350D01*
G01X393700Y-456860D02*
Y-464860D01*
G01X434670Y-203200D02*
Y-190500D01*
X438690D01*
X439980Y-191140D01*
X440780Y-191980D01*
X441100Y-193680D01*
X440780Y-195370D01*
X439820Y-196430D01*
X438690Y-197060D01*
X434670D01*
G01X438690D02*
X441100Y-203200D01*
G01X447780Y-197910D02*
X448900Y-196430D01*
X449870Y-195580D01*
X451160Y-195160D01*
X452280Y-195580D01*
X453090Y-196430D01*
X453730Y-197700D01*
X453890Y-199180D01*
X453730Y-200450D01*
X453090Y-201720D01*
X452120Y-202780D01*
X451000Y-203200D01*
X449710Y-202780D01*
X448580Y-201510D01*
X447940Y-199600D01*
X447780Y-197490D01*
X448100Y-194730D01*
X448580Y-193250D01*
X449390Y-191770D01*
X450510Y-190710D01*
X451640Y-190500D01*
X452770Y-190920D01*
X453570Y-191980D01*
G01X465720Y-203200D02*
Y-190500D01*
X459760Y-199600D01*
X467810D01*
G01X434670Y-19050D02*
Y-6350D01*
X438690D01*
X439980Y-6990D01*
X440780Y-7830D01*
X441100Y-9530D01*
X440780Y-11220D01*
X439820Y-12280D01*
X438690Y-12910D01*
X434670D01*
G01X438690D02*
X441100Y-19050D01*
G01X447300Y-17150D02*
X448260Y-18200D01*
X449390Y-18840D01*
X450830Y-19050D01*
X452280Y-18630D01*
X453410Y-17780D01*
X454210Y-16300D01*
X454370Y-14610D01*
X454050Y-12910D01*
X453250Y-11850D01*
X452120Y-11010D01*
X451000Y-10800D01*
X449870Y-11010D01*
X448420Y-11850D01*
X448900Y-6350D01*
X453250D01*
G01X460730Y-13760D02*
X461850Y-12280D01*
X462820Y-11430D01*
X464110Y-11010D01*
X465230Y-11430D01*
X466040Y-12280D01*
X466680Y-13550D01*
X466840Y-15030D01*
X466680Y-16300D01*
X466040Y-17570D01*
X465070Y-18630D01*
X463950Y-19050D01*
X462660Y-18630D01*
X461530Y-17360D01*
X460890Y-15450D01*
X460730Y-13340D01*
X461050Y-10580D01*
X461530Y-9100D01*
X462340Y-7620D01*
X463460Y-6560D01*
X464590Y-6350D01*
X465720Y-6770D01*
X466520Y-7830D01*
G01X434670Y152400D02*
Y165100D01*
X438690D01*
X439980Y164460D01*
X440780Y163620D01*
X441100Y161920D01*
X440780Y160230D01*
X439820Y159170D01*
X438690Y158540D01*
X434670D01*
G01X438690D02*
X441100Y152400D01*
G01X452770D02*
Y165100D01*
X446810Y156000D01*
X454860D01*
G01X463780Y152400D02*
X464910Y152610D01*
X466200Y153250D01*
X467000Y154300D01*
X467320Y155790D01*
X467000Y157270D01*
X466040Y158540D01*
X464590Y159170D01*
X462980D01*
X462020Y159600D01*
X461210Y160650D01*
X460890Y162140D01*
X461370Y163620D01*
X462500Y164680D01*
X463780Y165100D01*
X465070Y164680D01*
X466200Y163620D01*
X466680Y162140D01*
X466360Y160650D01*
X465550Y159600D01*
X464590Y159170D01*
X462980D01*
X461530Y158540D01*
X460570Y157270D01*
X460250Y155790D01*
X460570Y154300D01*
X461370Y153250D01*
X462660Y152610D01*
X463780Y152400D01*
G01X447770Y297390D02*
X446810Y298030D01*
X445680Y298450D01*
X444400D01*
X442950Y297810D01*
X441820Y296760D01*
X441020Y295490D01*
X440370Y293370D01*
X440210Y291460D01*
X440540Y289560D01*
X441020Y288290D01*
X441980Y287020D01*
X443110Y286170D01*
X444230Y285750D01*
X445360D01*
X446490Y286170D01*
X447450Y286810D01*
X448260Y287650D01*
G01X454130Y296330D02*
X455090Y297600D01*
X456220Y298240D01*
X457510Y298450D01*
X459120Y298030D01*
X460240Y296970D01*
X460560Y295700D01*
X460400Y294430D01*
X459760Y293370D01*
X456540Y291250D01*
X455090Y289770D01*
X454130Y287650D01*
X453810Y285750D01*
X460560D01*
G01X467400Y287230D02*
X468530Y286170D01*
X469810Y285750D01*
X471100Y286170D01*
X472230Y287440D01*
X473030Y289350D01*
X473350Y291250D01*
Y293580D01*
X473030Y295490D01*
X472230Y297180D01*
X471260Y298030D01*
X470130Y298450D01*
X468850Y298030D01*
X467880Y297180D01*
X467240Y295910D01*
X466920Y294220D01*
X467240Y292740D01*
X468040Y291250D01*
X469010Y290410D01*
X470130Y290190D01*
X471420Y290620D01*
X472390Y291680D01*
X473350Y293580D01*
G01X457200Y315150D02*
Y307150D01*
G01X402600Y603250D02*
Y615950D01*
X405810D01*
X407100Y615310D01*
X408070Y614470D01*
X408870Y613200D01*
X409510Y611720D01*
X409670Y609600D01*
X409510Y607480D01*
X408870Y606000D01*
X408070Y604730D01*
X407100Y603880D01*
X405810Y603250D01*
X402600D01*
G01X415550D02*
Y615950D01*
X418760D01*
X420050Y615310D01*
X421020Y614470D01*
X421820Y613200D01*
X422460Y611720D01*
X422620Y609600D01*
X422460Y607480D01*
X421820Y606000D01*
X421020Y604730D01*
X420050Y603880D01*
X418760Y603250D01*
X415550D01*
G01X431710D02*
X432030Y606000D01*
X432520Y608330D01*
X433160Y610450D01*
X433970Y612770D01*
X435250Y615950D01*
X428820D01*
G01X454120Y659340D02*
X453160Y659980D01*
X452030Y660400D01*
X450750D01*
X449300Y659760D01*
X448170Y658710D01*
X447370Y657440D01*
X446720Y655320D01*
X446560Y653410D01*
X446890Y651510D01*
X447370Y650240D01*
X448330Y648970D01*
X449460Y648120D01*
X450580Y647700D01*
X451710D01*
X452840Y648120D01*
X453800Y648760D01*
X454610Y649600D01*
G01X460480Y658280D02*
X461440Y659550D01*
X462570Y660190D01*
X463860Y660400D01*
X465470Y659980D01*
X466590Y658920D01*
X466910Y657650D01*
X466750Y656380D01*
X466110Y655320D01*
X462890Y653200D01*
X461440Y651720D01*
X460480Y649600D01*
X460160Y647700D01*
X466910D01*
G01X476480D02*
X477610Y647910D01*
X478900Y648550D01*
X479700Y649600D01*
X480020Y651090D01*
X479700Y652570D01*
X478740Y653840D01*
X477290Y654470D01*
X475680D01*
X474720Y654900D01*
X473910Y655950D01*
X473590Y657440D01*
X474070Y658920D01*
X475200Y659980D01*
X476480Y660400D01*
X477770Y659980D01*
X478900Y658920D01*
X479380Y657440D01*
X479060Y655950D01*
X478250Y654900D01*
X477290Y654470D01*
X475680D01*
X474230Y653840D01*
X473270Y652570D01*
X472950Y651090D01*
X473270Y649600D01*
X474070Y648550D01*
X475360Y647910D01*
X476480Y647700D01*
G01X457200Y639000D02*
Y631000D01*
G01X533820Y-1146000D02*
Y-1133300D01*
X537840D01*
X539130Y-1133940D01*
X539930Y-1134780D01*
X540250Y-1136480D01*
X539930Y-1138170D01*
X538970Y-1139230D01*
X537840Y-1139860D01*
X533820D01*
G01X537840D02*
X540250Y-1146000D01*
G01X546450Y-1143460D02*
X547410Y-1144940D01*
X548700Y-1145790D01*
X550150Y-1146000D01*
X551430Y-1145790D01*
X552720Y-1144730D01*
X553520Y-1143460D01*
X553680Y-1142190D01*
X553360Y-1140710D01*
X552240Y-1139650D01*
X551110Y-1139230D01*
X549660D01*
G01X551110D02*
X552080Y-1138590D01*
X552880Y-1137530D01*
X553200Y-1136260D01*
X552880Y-1134990D01*
X552080Y-1133940D01*
X550630Y-1133300D01*
X549180Y-1133510D01*
X547730Y-1134360D01*
G01X559880Y-1140710D02*
X561000Y-1139230D01*
X561970Y-1138380D01*
X563260Y-1137960D01*
X564380Y-1138380D01*
X565190Y-1139230D01*
X565830Y-1140500D01*
X565990Y-1141980D01*
X565830Y-1143250D01*
X565190Y-1144520D01*
X564220Y-1145580D01*
X563100Y-1146000D01*
X561810Y-1145580D01*
X560680Y-1144310D01*
X560040Y-1142400D01*
X559880Y-1140290D01*
X560200Y-1137530D01*
X560680Y-1136050D01*
X561490Y-1134570D01*
X562610Y-1133510D01*
X563740Y-1133300D01*
X564870Y-1133720D01*
X565670Y-1134780D01*
G01X483820Y-1054000D02*
Y-1041300D01*
X487840D01*
X489130Y-1041940D01*
X489930Y-1042780D01*
X490250Y-1044480D01*
X489930Y-1046170D01*
X488970Y-1047230D01*
X487840Y-1047860D01*
X483820D01*
G01X487840D02*
X490250Y-1054000D01*
G01X496450Y-1051460D02*
X497410Y-1052940D01*
X498700Y-1053790D01*
X500150Y-1054000D01*
X501430Y-1053790D01*
X502720Y-1052730D01*
X503520Y-1051460D01*
X503680Y-1050190D01*
X503360Y-1048710D01*
X502240Y-1047650D01*
X501110Y-1047230D01*
X499660D01*
G01X501110D02*
X502080Y-1046590D01*
X502880Y-1045530D01*
X503200Y-1044260D01*
X502880Y-1042990D01*
X502080Y-1041940D01*
X500630Y-1041300D01*
X499180Y-1041510D01*
X497730Y-1042360D01*
G01X514870Y-1054000D02*
Y-1041300D01*
X508910Y-1050400D01*
X516960D01*
G01X533820Y-1120000D02*
Y-1107300D01*
X537840D01*
X539130Y-1107940D01*
X539930Y-1108780D01*
X540250Y-1110480D01*
X539930Y-1112170D01*
X538970Y-1113230D01*
X537840Y-1113860D01*
X533820D01*
G01X537840D02*
X540250Y-1120000D01*
G01X546450Y-1117460D02*
X547410Y-1118940D01*
X548700Y-1119790D01*
X550150Y-1120000D01*
X551430Y-1119790D01*
X552720Y-1118730D01*
X553520Y-1117460D01*
X553680Y-1116190D01*
X553360Y-1114710D01*
X552240Y-1113650D01*
X551110Y-1113230D01*
X549660D01*
G01X551110D02*
X552080Y-1112590D01*
X552880Y-1111530D01*
X553200Y-1110260D01*
X552880Y-1108990D01*
X552080Y-1107940D01*
X550630Y-1107300D01*
X549180Y-1107510D01*
X547730Y-1108360D01*
G01X559400Y-1117460D02*
X560360Y-1118940D01*
X561650Y-1119790D01*
X563100Y-1120000D01*
X564380Y-1119790D01*
X565670Y-1118730D01*
X566470Y-1117460D01*
X566630Y-1116190D01*
X566310Y-1114710D01*
X565190Y-1113650D01*
X564060Y-1113230D01*
X562610D01*
G01X564060D02*
X565030Y-1112590D01*
X565830Y-1111530D01*
X566150Y-1110260D01*
X565830Y-1108990D01*
X565030Y-1107940D01*
X563580Y-1107300D01*
X562130Y-1107510D01*
X560680Y-1108360D01*
G01X533820Y-1094000D02*
Y-1081300D01*
X537840D01*
X539130Y-1081940D01*
X539930Y-1082780D01*
X540250Y-1084480D01*
X539930Y-1086170D01*
X538970Y-1087230D01*
X537840Y-1087860D01*
X533820D01*
G01X537840D02*
X540250Y-1094000D01*
G01X546450Y-1091460D02*
X547410Y-1092940D01*
X548700Y-1093790D01*
X550150Y-1094000D01*
X551430Y-1093790D01*
X552720Y-1092730D01*
X553520Y-1091460D01*
X553680Y-1090190D01*
X553360Y-1088710D01*
X552240Y-1087650D01*
X551110Y-1087230D01*
X549660D01*
G01X551110D02*
X552080Y-1086590D01*
X552880Y-1085530D01*
X553200Y-1084260D01*
X552880Y-1082990D01*
X552080Y-1081940D01*
X550630Y-1081300D01*
X549180Y-1081510D01*
X547730Y-1082360D01*
G01X559400Y-1092100D02*
X560360Y-1093150D01*
X561490Y-1093790D01*
X562930Y-1094000D01*
X564380Y-1093580D01*
X565510Y-1092730D01*
X566310Y-1091250D01*
X566470Y-1089560D01*
X566150Y-1087860D01*
X565350Y-1086800D01*
X564220Y-1085960D01*
X563100Y-1085750D01*
X561970Y-1085960D01*
X560520Y-1086800D01*
X561000Y-1081300D01*
X565350D01*
G01X483820Y-1026000D02*
Y-1013300D01*
X487840D01*
X489130Y-1013940D01*
X489930Y-1014780D01*
X490250Y-1016480D01*
X489930Y-1018170D01*
X488970Y-1019230D01*
X487840Y-1019860D01*
X483820D01*
G01X487840D02*
X490250Y-1026000D01*
G01X496450Y-1023460D02*
X497410Y-1024940D01*
X498700Y-1025790D01*
X500150Y-1026000D01*
X501430Y-1025790D01*
X502720Y-1024730D01*
X503520Y-1023460D01*
X503680Y-1022190D01*
X503360Y-1020710D01*
X502240Y-1019650D01*
X501110Y-1019230D01*
X499660D01*
G01X501110D02*
X502080Y-1018590D01*
X502880Y-1017530D01*
X503200Y-1016260D01*
X502880Y-1014990D01*
X502080Y-1013940D01*
X500630Y-1013300D01*
X499180Y-1013510D01*
X497730Y-1014360D01*
G01X512930Y-1026000D02*
Y-1013300D01*
X511000Y-1015840D01*
G01Y-1026000D02*
X514860D01*
G01X499820Y-946000D02*
Y-933300D01*
X503840D01*
X505130Y-933940D01*
X505930Y-934780D01*
X506250Y-936480D01*
X505930Y-938170D01*
X504970Y-939230D01*
X503840Y-939860D01*
X499820D01*
G01X503840D02*
X506250Y-946000D01*
G01X512450Y-943460D02*
X513410Y-944940D01*
X514700Y-945790D01*
X516150Y-946000D01*
X517430Y-945790D01*
X518720Y-944730D01*
X519520Y-943460D01*
X519680Y-942190D01*
X519360Y-940710D01*
X518240Y-939650D01*
X517110Y-939230D01*
X515660D01*
G01X517110D02*
X518080Y-938590D01*
X518880Y-937530D01*
X519200Y-936260D01*
X518880Y-934990D01*
X518080Y-933940D01*
X516630Y-933300D01*
X515180Y-933510D01*
X513730Y-934360D01*
G01X525880Y-935420D02*
X526840Y-934150D01*
X527970Y-933510D01*
X529260Y-933300D01*
X530870Y-933720D01*
X531990Y-934780D01*
X532310Y-936050D01*
X532150Y-937320D01*
X531510Y-938380D01*
X528290Y-940500D01*
X526840Y-941980D01*
X525880Y-944100D01*
X525560Y-946000D01*
X532310D01*
G01X499820Y-930000D02*
Y-917300D01*
X503840D01*
X505130Y-917940D01*
X505930Y-918780D01*
X506250Y-920480D01*
X505930Y-922170D01*
X504970Y-923230D01*
X503840Y-923860D01*
X499820D01*
G01X503840D02*
X506250Y-930000D01*
G01X512930Y-919420D02*
X513890Y-918150D01*
X515020Y-917510D01*
X516310Y-917300D01*
X517920Y-917720D01*
X519040Y-918780D01*
X519360Y-920050D01*
X519200Y-921320D01*
X518560Y-922380D01*
X515340Y-924500D01*
X513890Y-925980D01*
X512930Y-928100D01*
X512610Y-930000D01*
X519360D01*
G01X526200Y-928520D02*
X527330Y-929580D01*
X528610Y-930000D01*
X529900Y-929580D01*
X531030Y-928310D01*
X531830Y-926400D01*
X532150Y-924500D01*
Y-922170D01*
X531830Y-920260D01*
X531030Y-918570D01*
X530060Y-917720D01*
X528930Y-917300D01*
X527650Y-917720D01*
X526680Y-918570D01*
X526040Y-919840D01*
X525720Y-921530D01*
X526040Y-923010D01*
X526840Y-924500D01*
X527810Y-925340D01*
X528930Y-925560D01*
X530220Y-925130D01*
X531190Y-924070D01*
X532150Y-922170D01*
G01X533820Y-840000D02*
Y-827300D01*
X537840D01*
X539130Y-827940D01*
X539930Y-828780D01*
X540250Y-830480D01*
X539930Y-832170D01*
X538970Y-833230D01*
X537840Y-833860D01*
X533820D01*
G01X537840D02*
X540250Y-840000D01*
G01X549980D02*
Y-827300D01*
X548050Y-829840D01*
G01Y-840000D02*
X551910D01*
G01X562930D02*
Y-827300D01*
X561000Y-829840D01*
G01Y-840000D02*
X564860D01*
G01X534310Y-866000D02*
Y-853300D01*
X538330D01*
X539620Y-853940D01*
X540420Y-854780D01*
X540740Y-856480D01*
X540420Y-858170D01*
X539460Y-859230D01*
X538330Y-859860D01*
X534310D01*
G01X538330D02*
X540740Y-866000D01*
G01X547740Y-864520D02*
X548870Y-865580D01*
X550150Y-866000D01*
X551440Y-865580D01*
X552570Y-864310D01*
X553370Y-862400D01*
X553690Y-860500D01*
Y-858170D01*
X553370Y-856260D01*
X552570Y-854570D01*
X551600Y-853720D01*
X550470Y-853300D01*
X549190Y-853720D01*
X548220Y-854570D01*
X547580Y-855840D01*
X547260Y-857530D01*
X547580Y-859010D01*
X548380Y-860500D01*
X549350Y-861340D01*
X550470Y-861560D01*
X551760Y-861130D01*
X552730Y-860070D01*
X553690Y-858170D01*
G01X533820Y-890000D02*
Y-877300D01*
X537840D01*
X539130Y-877940D01*
X539930Y-878780D01*
X540250Y-880480D01*
X539930Y-882170D01*
X538970Y-883230D01*
X537840Y-883860D01*
X533820D01*
G01X537840D02*
X540250Y-890000D01*
G01X549980D02*
Y-877300D01*
X548050Y-879840D01*
G01Y-890000D02*
X551910D01*
G01X559880Y-879420D02*
X560840Y-878150D01*
X561970Y-877510D01*
X563260Y-877300D01*
X564870Y-877720D01*
X565990Y-878780D01*
X566310Y-880050D01*
X566150Y-881320D01*
X565510Y-882380D01*
X562290Y-884500D01*
X560840Y-885980D01*
X559880Y-888100D01*
X559560Y-890000D01*
X566310D01*
G01X483820Y-800000D02*
Y-787300D01*
X487840D01*
X489130Y-787940D01*
X489930Y-788780D01*
X490250Y-790480D01*
X489930Y-792170D01*
X488970Y-793230D01*
X487840Y-793860D01*
X483820D01*
G01X487840D02*
X490250Y-800000D01*
G01X499980D02*
Y-787300D01*
X498050Y-789840D01*
G01Y-800000D02*
X501910D01*
G01X512930Y-787300D02*
X511650Y-787720D01*
X510680Y-788780D01*
X510040Y-790050D01*
X509560Y-791750D01*
X509400Y-793650D01*
X509560Y-795560D01*
X510040Y-797250D01*
X510680Y-798520D01*
X511650Y-799580D01*
X512930Y-800000D01*
X514220Y-799580D01*
X515190Y-798520D01*
X515830Y-797250D01*
X516310Y-795560D01*
X516470Y-793650D01*
X516310Y-791750D01*
X515830Y-790050D01*
X515190Y-788780D01*
X514220Y-787720D01*
X512930Y-787300D01*
G01X494310Y-772000D02*
Y-759300D01*
X498330D01*
X499620Y-759940D01*
X500420Y-760780D01*
X500740Y-762480D01*
X500420Y-764170D01*
X499460Y-765230D01*
X498330Y-765860D01*
X494310D01*
G01X498330D02*
X500740Y-772000D01*
G01X510150D02*
X510470Y-769250D01*
X510960Y-766920D01*
X511600Y-764800D01*
X512410Y-762480D01*
X513690Y-759300D01*
X507260D01*
G01X504310Y-692000D02*
Y-679300D01*
X508330D01*
X509620Y-679940D01*
X510420Y-680780D01*
X510740Y-682480D01*
X510420Y-684170D01*
X509460Y-685230D01*
X508330Y-685860D01*
X504310D01*
G01X508330D02*
X510740Y-692000D01*
G01X520470D02*
X521600Y-691790D01*
X522890Y-691150D01*
X523690Y-690100D01*
X524010Y-688610D01*
X523690Y-687130D01*
X522730Y-685860D01*
X521280Y-685230D01*
X519670D01*
X518710Y-684800D01*
X517900Y-683750D01*
X517580Y-682260D01*
X518060Y-680780D01*
X519190Y-679720D01*
X520470Y-679300D01*
X521760Y-679720D01*
X522890Y-680780D01*
X523370Y-682260D01*
X523050Y-683750D01*
X522240Y-684800D01*
X521280Y-685230D01*
X519670D01*
X518220Y-685860D01*
X517260Y-687130D01*
X516940Y-688610D01*
X517260Y-690100D01*
X518060Y-691150D01*
X519350Y-691790D01*
X520470Y-692000D01*
G01X504310Y-676000D02*
Y-663300D01*
X508330D01*
X509620Y-663940D01*
X510420Y-664780D01*
X510740Y-666480D01*
X510420Y-668170D01*
X509460Y-669230D01*
X508330Y-669860D01*
X504310D01*
G01X508330D02*
X510740Y-676000D01*
G01X516940Y-674100D02*
X517900Y-675150D01*
X519030Y-675790D01*
X520470Y-676000D01*
X521920Y-675580D01*
X523050Y-674730D01*
X523850Y-673250D01*
X524010Y-671560D01*
X523690Y-669860D01*
X522890Y-668800D01*
X521760Y-667960D01*
X520640Y-667750D01*
X519510Y-667960D01*
X518060Y-668800D01*
X518540Y-663300D01*
X522890D01*
G01X536280Y-639240D02*
Y-626540D01*
X540300D01*
X541590Y-627180D01*
X542390Y-628020D01*
X542710Y-629720D01*
X542390Y-631410D01*
X541430Y-632470D01*
X540300Y-633100D01*
X536280D01*
G01X540300D02*
X542710Y-639240D01*
G01X549390Y-628660D02*
X550350Y-627390D01*
X551480Y-626750D01*
X552770Y-626540D01*
X554380Y-626960D01*
X555500Y-628020D01*
X555820Y-629290D01*
X555660Y-630560D01*
X555020Y-631620D01*
X551800Y-633740D01*
X550350Y-635220D01*
X549390Y-637340D01*
X549070Y-639240D01*
X555820D01*
G01X567330D02*
Y-626540D01*
X561370Y-635640D01*
X569420D01*
G01X536280Y-613840D02*
Y-601140D01*
X540300D01*
X541590Y-601780D01*
X542390Y-602620D01*
X542710Y-604320D01*
X542390Y-606010D01*
X541430Y-607070D01*
X540300Y-607700D01*
X536280D01*
G01X540300D02*
X542710Y-613840D01*
G01X549390Y-603260D02*
X550350Y-601990D01*
X551480Y-601350D01*
X552770Y-601140D01*
X554380Y-601560D01*
X555500Y-602620D01*
X555820Y-603890D01*
X555660Y-605160D01*
X555020Y-606220D01*
X551800Y-608340D01*
X550350Y-609820D01*
X549390Y-611940D01*
X549070Y-613840D01*
X555820D01*
G01X565390D02*
Y-601140D01*
X563460Y-603680D01*
G01Y-613840D02*
X567320D01*
G01X536270Y-581510D02*
Y-568810D01*
X540290D01*
X541580Y-569450D01*
X542380Y-570290D01*
X542700Y-571990D01*
X542380Y-573680D01*
X541420Y-574740D01*
X540290Y-575370D01*
X536270D01*
G01X540290D02*
X542700Y-581510D01*
G01X549380Y-570930D02*
X550340Y-569660D01*
X551470Y-569020D01*
X552760Y-568810D01*
X554370Y-569230D01*
X555490Y-570290D01*
X555810Y-571560D01*
X555650Y-572830D01*
X555010Y-573890D01*
X551790Y-576010D01*
X550340Y-577490D01*
X549380Y-579610D01*
X549060Y-581510D01*
X555810D01*
G01X561850Y-578970D02*
X562810Y-580450D01*
X564100Y-581300D01*
X565550Y-581510D01*
X566830Y-581300D01*
X568120Y-580240D01*
X568920Y-578970D01*
X569080Y-577700D01*
X568760Y-576220D01*
X567640Y-575160D01*
X566510Y-574740D01*
X565060D01*
G01X566510D02*
X567480Y-574100D01*
X568280Y-573040D01*
X568600Y-571770D01*
X568280Y-570500D01*
X567480Y-569450D01*
X566030Y-568810D01*
X564580Y-569020D01*
X563130Y-569870D01*
G01X482820Y-545000D02*
Y-532300D01*
X486840D01*
X488130Y-532940D01*
X488930Y-533780D01*
X489250Y-535480D01*
X488930Y-537170D01*
X487970Y-538230D01*
X486840Y-538860D01*
X482820D01*
G01X486840D02*
X489250Y-545000D01*
G01X495930Y-534420D02*
X496890Y-533150D01*
X498020Y-532510D01*
X499310Y-532300D01*
X500920Y-532720D01*
X502040Y-533780D01*
X502360Y-535050D01*
X502200Y-536320D01*
X501560Y-537380D01*
X498340Y-539500D01*
X496890Y-540980D01*
X495930Y-543100D01*
X495610Y-545000D01*
X502360D01*
G01X508880Y-534420D02*
X509840Y-533150D01*
X510970Y-532510D01*
X512260Y-532300D01*
X513870Y-532720D01*
X514990Y-533780D01*
X515310Y-535050D01*
X515150Y-536320D01*
X514510Y-537380D01*
X511290Y-539500D01*
X509840Y-540980D01*
X508880Y-543100D01*
X508560Y-545000D01*
X515310D01*
G01X483820Y-518000D02*
Y-505300D01*
X487840D01*
X489130Y-505940D01*
X489930Y-506780D01*
X490250Y-508480D01*
X489930Y-510170D01*
X488970Y-511230D01*
X487840Y-511860D01*
X483820D01*
G01X487840D02*
X490250Y-518000D01*
G01X499980D02*
Y-505300D01*
X498050Y-507840D01*
G01Y-518000D02*
X501910D01*
G01X510200Y-516520D02*
X511330Y-517580D01*
X512610Y-518000D01*
X513900Y-517580D01*
X515030Y-516310D01*
X515830Y-514400D01*
X516150Y-512500D01*
Y-510170D01*
X515830Y-508260D01*
X515030Y-506570D01*
X514060Y-505720D01*
X512930Y-505300D01*
X511650Y-505720D01*
X510680Y-506570D01*
X510040Y-507840D01*
X509720Y-509530D01*
X510040Y-511010D01*
X510840Y-512500D01*
X511810Y-513340D01*
X512930Y-513560D01*
X514220Y-513130D01*
X515190Y-512070D01*
X516150Y-510170D01*
G01X497820Y-436000D02*
Y-423300D01*
X501840D01*
X503130Y-423940D01*
X503930Y-424780D01*
X504250Y-426480D01*
X503930Y-428170D01*
X502970Y-429230D01*
X501840Y-429860D01*
X497820D01*
G01X501840D02*
X504250Y-436000D01*
G01X510930Y-425420D02*
X511890Y-424150D01*
X513020Y-423510D01*
X514310Y-423300D01*
X515920Y-423720D01*
X517040Y-424780D01*
X517360Y-426050D01*
X517200Y-427320D01*
X516560Y-428380D01*
X513340Y-430500D01*
X511890Y-431980D01*
X510930Y-434100D01*
X510610Y-436000D01*
X517360D01*
G01X526930Y-423300D02*
X525650Y-423720D01*
X524680Y-424780D01*
X524040Y-426050D01*
X523560Y-427750D01*
X523400Y-429650D01*
X523560Y-431560D01*
X524040Y-433250D01*
X524680Y-434520D01*
X525650Y-435580D01*
X526930Y-436000D01*
X528220Y-435580D01*
X529190Y-434520D01*
X529830Y-433250D01*
X530310Y-431560D01*
X530470Y-429650D01*
X530310Y-427750D01*
X529830Y-426050D01*
X529190Y-424780D01*
X528220Y-423720D01*
X526930Y-423300D01*
G01X497820Y-418000D02*
Y-405300D01*
X501840D01*
X503130Y-405940D01*
X503930Y-406780D01*
X504250Y-408480D01*
X503930Y-410170D01*
X502970Y-411230D01*
X501840Y-411860D01*
X497820D01*
G01X501840D02*
X504250Y-418000D01*
G01X513980D02*
Y-405300D01*
X512050Y-407840D01*
G01Y-418000D02*
X515910D01*
G01X526610D02*
X526930Y-415250D01*
X527420Y-412920D01*
X528060Y-410800D01*
X528870Y-408480D01*
X530150Y-405300D01*
X523720D01*
G01X478200Y-139700D02*
X482220Y-152400D01*
X486250Y-139700D01*
G01X491640Y-152400D02*
Y-139700D01*
X494850D01*
X496140Y-140340D01*
X497110Y-141180D01*
X497910Y-142450D01*
X498550Y-143930D01*
X498710Y-146050D01*
X498550Y-148170D01*
X497910Y-149650D01*
X497110Y-150920D01*
X496140Y-151770D01*
X494850Y-152400D01*
X491640D01*
G01X505070Y-141820D02*
X506030Y-140550D01*
X507160Y-139910D01*
X508450Y-139700D01*
X510060Y-140120D01*
X511180Y-141180D01*
X511500Y-142450D01*
X511340Y-143720D01*
X510700Y-144780D01*
X507480Y-146900D01*
X506030Y-148380D01*
X505070Y-150500D01*
X504750Y-152400D01*
X511500D01*
G01X517540Y-149860D02*
X518500Y-151340D01*
X519790Y-152190D01*
X521240Y-152400D01*
X522520Y-152190D01*
X523810Y-151130D01*
X524610Y-149860D01*
X524770Y-148590D01*
X524450Y-147110D01*
X523330Y-146050D01*
X522200Y-145630D01*
X520750D01*
G01X522200D02*
X523170Y-144990D01*
X523970Y-143930D01*
X524290Y-142660D01*
X523970Y-141390D01*
X523170Y-140340D01*
X521720Y-139700D01*
X520270Y-139910D01*
X518820Y-140760D01*
G01X535350Y-133350D02*
X539370Y-146050D01*
X543400Y-133350D01*
G01X548790Y-146050D02*
Y-133350D01*
X552000D01*
X553290Y-133990D01*
X554260Y-134830D01*
X555060Y-136100D01*
X555700Y-137580D01*
X555860Y-139700D01*
X555700Y-141820D01*
X555060Y-143300D01*
X554260Y-144570D01*
X553290Y-145420D01*
X552000Y-146050D01*
X548790D01*
G01X562220Y-135470D02*
X563180Y-134200D01*
X564310Y-133560D01*
X565600Y-133350D01*
X567210Y-133770D01*
X568330Y-134830D01*
X568650Y-136100D01*
X568490Y-137370D01*
X567850Y-138430D01*
X564630Y-140550D01*
X563180Y-142030D01*
X562220Y-144150D01*
X561900Y-146050D01*
X568650D01*
G01X574690Y-144150D02*
X575650Y-145200D01*
X576780Y-145840D01*
X578220Y-146050D01*
X579670Y-145630D01*
X580800Y-144780D01*
X581600Y-143300D01*
X581760Y-141610D01*
X581440Y-139910D01*
X580640Y-138850D01*
X579510Y-138010D01*
X578390Y-137800D01*
X577260Y-138010D01*
X575810Y-138850D01*
X576290Y-133350D01*
X580640D01*
G01X478200Y44450D02*
X482220Y31750D01*
X486250Y44450D01*
G01X491640Y31750D02*
Y44450D01*
X494850D01*
X496140Y43810D01*
X497110Y42970D01*
X497910Y41700D01*
X498550Y40220D01*
X498710Y38100D01*
X498550Y35980D01*
X497910Y34500D01*
X497110Y33230D01*
X496140Y32380D01*
X494850Y31750D01*
X491640D01*
G01X505070Y42330D02*
X506030Y43600D01*
X507160Y44240D01*
X508450Y44450D01*
X510060Y44030D01*
X511180Y42970D01*
X511500Y41700D01*
X511340Y40430D01*
X510700Y39370D01*
X507480Y37250D01*
X506030Y35770D01*
X505070Y33650D01*
X504750Y31750D01*
X511500D01*
G01X521070Y44450D02*
X519790Y44030D01*
X518820Y42970D01*
X518180Y41700D01*
X517700Y40000D01*
X517540Y38100D01*
X517700Y36190D01*
X518180Y34500D01*
X518820Y33230D01*
X519790Y32170D01*
X521070Y31750D01*
X522360Y32170D01*
X523330Y33230D01*
X523970Y34500D01*
X524450Y36190D01*
X524610Y38100D01*
X524450Y40000D01*
X523970Y41700D01*
X523330Y42970D01*
X522360Y44030D01*
X521070Y44450D01*
G01X535350Y50800D02*
X539370Y38100D01*
X543400Y50800D01*
G01X548790Y38100D02*
Y50800D01*
X552000D01*
X553290Y50160D01*
X554260Y49320D01*
X555060Y48050D01*
X555700Y46570D01*
X555860Y44450D01*
X555700Y42330D01*
X555060Y40850D01*
X554260Y39580D01*
X553290Y38730D01*
X552000Y38100D01*
X548790D01*
G01X562220Y48680D02*
X563180Y49950D01*
X564310Y50590D01*
X565600Y50800D01*
X567210Y50380D01*
X568330Y49320D01*
X568650Y48050D01*
X568490Y46780D01*
X567850Y45720D01*
X564630Y43600D01*
X563180Y42120D01*
X562220Y40000D01*
X561900Y38100D01*
X568650D01*
G01X575170Y48680D02*
X576130Y49950D01*
X577260Y50590D01*
X578550Y50800D01*
X580160Y50380D01*
X581280Y49320D01*
X581600Y48050D01*
X581440Y46780D01*
X580800Y45720D01*
X577580Y43600D01*
X576130Y42120D01*
X575170Y40000D01*
X574850Y38100D01*
X581600D01*
G01X478200Y215900D02*
X482220Y203200D01*
X486250Y215900D01*
G01X491640Y203200D02*
Y215900D01*
X494850D01*
X496140Y215260D01*
X497110Y214420D01*
X497910Y213150D01*
X498550Y211670D01*
X498710Y209550D01*
X498550Y207430D01*
X497910Y205950D01*
X497110Y204680D01*
X496140Y203830D01*
X494850Y203200D01*
X491640D01*
G01X508120D02*
Y215900D01*
X506190Y213360D01*
G01Y203200D02*
X510050D01*
G01X520750D02*
X521070Y205950D01*
X521560Y208280D01*
X522200Y210400D01*
X523010Y212720D01*
X524290Y215900D01*
X517860D01*
G01X535350Y222250D02*
X539370Y209550D01*
X543400Y222250D01*
G01X548790Y209550D02*
Y222250D01*
X552000D01*
X553290Y221610D01*
X554260Y220770D01*
X555060Y219500D01*
X555700Y218020D01*
X555860Y215900D01*
X555700Y213780D01*
X555060Y212300D01*
X554260Y211030D01*
X553290Y210180D01*
X552000Y209550D01*
X548790D01*
G01X565270D02*
Y222250D01*
X563340Y219710D01*
G01Y209550D02*
X567200D01*
G01X578220D02*
X579350Y209760D01*
X580640Y210400D01*
X581440Y211450D01*
X581760Y212940D01*
X581440Y214420D01*
X580480Y215690D01*
X579030Y216320D01*
X577420D01*
X576460Y216750D01*
X575650Y217800D01*
X575330Y219290D01*
X575810Y220770D01*
X576940Y221830D01*
X578220Y222250D01*
X579510Y221830D01*
X580640Y220770D01*
X581120Y219290D01*
X580800Y217800D01*
X579990Y216750D01*
X579030Y216320D01*
X577420D01*
X575970Y215690D01*
X575010Y214420D01*
X574690Y212940D01*
X575010Y211450D01*
X575810Y210400D01*
X577100Y209760D01*
X578220Y209550D01*
G01X516740Y311150D02*
Y323850D01*
G01X522850D02*
X516740Y316020D01*
G01X523810Y311150D02*
X519470Y319620D01*
G01X535160Y311150D02*
Y323850D01*
X529200Y314750D01*
X537250D01*
G01X516740Y406400D02*
Y419100D01*
G01X522850D02*
X516740Y411270D01*
G01X523810Y406400D02*
X519470Y414870D01*
G01X529690Y408940D02*
X530650Y407460D01*
X531940Y406610D01*
X533390Y406400D01*
X534670Y406610D01*
X535960Y407670D01*
X536760Y408940D01*
X536920Y410210D01*
X536600Y411690D01*
X535480Y412750D01*
X534350Y413170D01*
X532900D01*
G01X534350D02*
X535320Y413810D01*
X536120Y414870D01*
X536440Y416140D01*
X536120Y417410D01*
X535320Y418460D01*
X533870Y419100D01*
X532420Y418890D01*
X530970Y418040D01*
G01X516740Y514350D02*
Y527050D01*
G01X522850D02*
X516740Y519220D01*
G01X523810Y514350D02*
X519470Y522820D01*
G01X530170Y524930D02*
X531130Y526200D01*
X532260Y526840D01*
X533550Y527050D01*
X535160Y526630D01*
X536280Y525570D01*
X536600Y524300D01*
X536440Y523030D01*
X535800Y521970D01*
X532580Y519850D01*
X531130Y518370D01*
X530170Y516250D01*
X529850Y514350D01*
X536600D01*
G01X516740Y615950D02*
Y628650D01*
G01X522850D02*
X516740Y620820D01*
G01X523810Y615950D02*
X519470Y624420D01*
G01X533220Y615950D02*
Y628650D01*
X531290Y626110D01*
G01Y615950D02*
X535150D01*
G01X614420Y-1308100D02*
Y-1295400D01*
X612490Y-1297940D01*
G01Y-1308100D02*
X616350D01*
G01X624320Y-1297520D02*
X625280Y-1296250D01*
X626410Y-1295610D01*
X627700Y-1295400D01*
X629310Y-1295820D01*
X630430Y-1296880D01*
X630750Y-1298150D01*
X630590Y-1299420D01*
X629950Y-1300480D01*
X626730Y-1302600D01*
X625280Y-1304080D01*
X624320Y-1306200D01*
X624000Y-1308100D01*
X630750D01*
G01X640320Y-1295400D02*
X639040Y-1295820D01*
X638070Y-1296880D01*
X637430Y-1298150D01*
X636950Y-1299850D01*
X636790Y-1301750D01*
X636950Y-1303660D01*
X637430Y-1305350D01*
X638070Y-1306620D01*
X639040Y-1307680D01*
X640320Y-1308100D01*
X641610Y-1307680D01*
X642580Y-1306620D01*
X643220Y-1305350D01*
X643700Y-1303660D01*
X643860Y-1301750D01*
X643700Y-1299850D01*
X643220Y-1298150D01*
X642580Y-1296880D01*
X641610Y-1295820D01*
X640320Y-1295400D01*
G01X666220Y-1308100D02*
X664940Y-1307890D01*
X663810Y-1307040D01*
X662850Y-1305770D01*
X662200Y-1304290D01*
X661880Y-1302600D01*
Y-1300900D01*
X662200Y-1299210D01*
X662850Y-1297730D01*
X663810Y-1296460D01*
X664940Y-1295610D01*
X666220Y-1295400D01*
X667510Y-1295610D01*
X668640Y-1296460D01*
X669600Y-1297730D01*
X670250Y-1299210D01*
X670570Y-1300900D01*
Y-1302600D01*
X670250Y-1304290D01*
X669600Y-1305770D01*
X668640Y-1307040D01*
X667510Y-1307890D01*
X666220Y-1308100D01*
G01X676440D02*
Y-1295400D01*
G01Y-1301540D02*
X677240Y-1300480D01*
X678050Y-1299850D01*
X679340Y-1299630D01*
X680300Y-1299850D01*
X681430Y-1300690D01*
X681910Y-1301960D01*
Y-1308100D01*
G01X687300D02*
Y-1299630D01*
G01Y-1301960D02*
X687780Y-1300900D01*
X688590Y-1300060D01*
X689710Y-1299630D01*
X690840Y-1300060D01*
X691640Y-1300900D01*
X692120Y-1301960D01*
Y-1308100D01*
G01Y-1301960D02*
X692610Y-1300900D01*
X693410Y-1300060D01*
X694540Y-1299630D01*
X695660Y-1300060D01*
X696470Y-1300900D01*
X696950Y-1302170D01*
Y-1308100D01*
G01X611370Y-1246720D02*
X612330Y-1245450D01*
X613460Y-1244810D01*
X614750Y-1244600D01*
X616360Y-1245020D01*
X617480Y-1246080D01*
X617800Y-1247350D01*
X617640Y-1248620D01*
X617000Y-1249680D01*
X613780Y-1251800D01*
X612330Y-1253280D01*
X611370Y-1255400D01*
X611050Y-1257300D01*
X617800D01*
G01X629310D02*
Y-1244600D01*
X623350Y-1253700D01*
X631400D01*
G01X640320Y-1244600D02*
X639040Y-1245020D01*
X638070Y-1246080D01*
X637430Y-1247350D01*
X636950Y-1249050D01*
X636790Y-1250950D01*
X636950Y-1252860D01*
X637430Y-1254550D01*
X638070Y-1255820D01*
X639040Y-1256880D01*
X640320Y-1257300D01*
X641610Y-1256880D01*
X642580Y-1255820D01*
X643220Y-1254550D01*
X643700Y-1252860D01*
X643860Y-1250950D01*
X643700Y-1249050D01*
X643220Y-1247350D01*
X642580Y-1246080D01*
X641610Y-1245020D01*
X640320Y-1244600D01*
G01X666220Y-1257300D02*
X664940Y-1257090D01*
X663810Y-1256240D01*
X662850Y-1254970D01*
X662200Y-1253490D01*
X661880Y-1251800D01*
Y-1250100D01*
X662200Y-1248410D01*
X662850Y-1246930D01*
X663810Y-1245660D01*
X664940Y-1244810D01*
X666220Y-1244600D01*
X667510Y-1244810D01*
X668640Y-1245660D01*
X669600Y-1246930D01*
X670250Y-1248410D01*
X670570Y-1250100D01*
Y-1251800D01*
X670250Y-1253490D01*
X669600Y-1254970D01*
X668640Y-1256240D01*
X667510Y-1257090D01*
X666220Y-1257300D01*
G01X676440D02*
Y-1244600D01*
G01Y-1250740D02*
X677240Y-1249680D01*
X678050Y-1249050D01*
X679340Y-1248830D01*
X680300Y-1249050D01*
X681430Y-1249890D01*
X681910Y-1251160D01*
Y-1257300D01*
G01X687300D02*
Y-1248830D01*
G01Y-1251160D02*
X687780Y-1250100D01*
X688590Y-1249260D01*
X689710Y-1248830D01*
X690840Y-1249260D01*
X691640Y-1250100D01*
X692120Y-1251160D01*
Y-1257300D01*
G01Y-1251160D02*
X692610Y-1250100D01*
X693410Y-1249260D01*
X694540Y-1248830D01*
X695660Y-1249260D01*
X696470Y-1250100D01*
X696950Y-1251370D01*
Y-1257300D01*
G01X610730Y-1206500D02*
Y-1193800D01*
X618120Y-1206500D01*
Y-1193800D01*
G01X627370Y-1206500D02*
X626410Y-1206290D01*
X625440Y-1205440D01*
X624800Y-1203960D01*
X624480Y-1202270D01*
X624800Y-1200570D01*
X625440Y-1199090D01*
X626410Y-1198250D01*
X627370Y-1198030D01*
X628340Y-1198250D01*
X629310Y-1199090D01*
X629950Y-1200570D01*
X630110Y-1202270D01*
X629950Y-1203960D01*
X629310Y-1205440D01*
X628340Y-1206290D01*
X627370Y-1206500D01*
G01X637590D02*
Y-1198030D01*
G01Y-1200150D02*
X638230Y-1199090D01*
X639200Y-1198250D01*
X640490Y-1198030D01*
X641610Y-1198250D01*
X642580Y-1199090D01*
X643060Y-1200570D01*
Y-1206500D01*
G01X650860Y-1200790D02*
X656010D01*
X655530Y-1199300D01*
X654720Y-1198460D01*
X653600Y-1198030D01*
X652470Y-1198250D01*
X651510Y-1198880D01*
X650860Y-1200360D01*
X650540Y-1201630D01*
Y-1202900D01*
X650860Y-1204170D01*
X651670Y-1205440D01*
X652630Y-1206290D01*
X653760Y-1206500D01*
X654880Y-1206080D01*
X656010Y-1204810D01*
G01X557270Y-1155700D02*
Y-1168400D01*
G01X553580Y-1155700D02*
X560970D01*
G01X567810Y-1162690D02*
X572960D01*
X572480Y-1161200D01*
X571670Y-1160360D01*
X570550Y-1159930D01*
X569420Y-1160150D01*
X568460Y-1160780D01*
X567810Y-1162260D01*
X567490Y-1163530D01*
Y-1164800D01*
X567810Y-1166070D01*
X568620Y-1167340D01*
X569580Y-1168190D01*
X570710Y-1168400D01*
X571830Y-1167980D01*
X572960Y-1166710D01*
G01X580920Y-1168400D02*
Y-1159930D01*
G01Y-1161630D02*
X581730Y-1160780D01*
X582530Y-1160150D01*
X583660Y-1159930D01*
X584460Y-1160150D01*
X585430Y-1160780D01*
G01X591300Y-1168400D02*
Y-1159930D01*
G01Y-1162260D02*
X591780Y-1161200D01*
X592590Y-1160360D01*
X593710Y-1159930D01*
X594840Y-1160360D01*
X595640Y-1161200D01*
X596120Y-1162260D01*
Y-1168400D01*
G01Y-1162260D02*
X596610Y-1161200D01*
X597410Y-1160360D01*
X598540Y-1159930D01*
X599660Y-1160360D01*
X600470Y-1161200D01*
X600950Y-1162470D01*
Y-1168400D01*
G01X609070Y-1159930D02*
Y-1168400D01*
G01Y-1156550D02*
X608750Y-1156340D01*
Y-1155910D01*
X609070Y-1155700D01*
X609400Y-1155910D01*
Y-1156340D01*
X609070Y-1156550D01*
G01X619290Y-1168400D02*
Y-1159930D01*
G01Y-1162050D02*
X619930Y-1160990D01*
X620900Y-1160150D01*
X622190Y-1159930D01*
X623310Y-1160150D01*
X624280Y-1160990D01*
X624760Y-1162470D01*
Y-1168400D01*
G01X637870D02*
Y-1159930D01*
G01Y-1161410D02*
X637230Y-1160570D01*
X636260Y-1160150D01*
X635140Y-1159930D01*
X634010Y-1160360D01*
X633040Y-1161200D01*
X632400Y-1162470D01*
X632080Y-1164170D01*
X632400Y-1165860D01*
X633040Y-1167130D01*
X634010Y-1167980D01*
X635140Y-1168400D01*
X636260Y-1168190D01*
X637230Y-1167550D01*
X637870Y-1166710D01*
G01X647920Y-1155700D02*
Y-1168400D01*
G01X645670Y-1159930D02*
X650180D01*
G01X660870Y-1168400D02*
X659910Y-1168190D01*
X658940Y-1167340D01*
X658300Y-1165860D01*
X657980Y-1164170D01*
X658300Y-1162470D01*
X658940Y-1160990D01*
X659910Y-1160150D01*
X660870Y-1159930D01*
X661840Y-1160150D01*
X662810Y-1160990D01*
X663450Y-1162470D01*
X663610Y-1164170D01*
X663450Y-1165860D01*
X662810Y-1167340D01*
X661840Y-1168190D01*
X660870Y-1168400D01*
G01X671570D02*
Y-1159930D01*
G01Y-1161630D02*
X672380Y-1160780D01*
X673180Y-1160150D01*
X674310Y-1159930D01*
X675110Y-1160150D01*
X676080Y-1160780D01*
G01X602550Y-1057300D02*
X606570Y-1070000D01*
X610600Y-1057300D01*
G01X615990Y-1070000D02*
Y-1057300D01*
X619200D01*
X620490Y-1057940D01*
X621460Y-1058780D01*
X622260Y-1060050D01*
X622900Y-1061530D01*
X623060Y-1063650D01*
X622900Y-1065770D01*
X622260Y-1067250D01*
X621460Y-1068520D01*
X620490Y-1069370D01*
X619200Y-1070000D01*
X615990D01*
G01X632470D02*
Y-1057300D01*
X630540Y-1059840D01*
G01Y-1070000D02*
X634400D01*
G01X642370Y-1059420D02*
X643330Y-1058150D01*
X644460Y-1057510D01*
X645750Y-1057300D01*
X647360Y-1057720D01*
X648480Y-1058780D01*
X648800Y-1060050D01*
X648640Y-1061320D01*
X648000Y-1062380D01*
X644780Y-1064500D01*
X643330Y-1065980D01*
X642370Y-1068100D01*
X642050Y-1070000D01*
X648800D01*
G01X568000Y-948120D02*
X569280Y-949180D01*
X570730Y-949810D01*
X572020D01*
X573310Y-949180D01*
X574270Y-948120D01*
X574750Y-946630D01*
X574430Y-945150D01*
X573630Y-943880D01*
X572180Y-943040D01*
X570250Y-942610D01*
X569120Y-941770D01*
X568640Y-940290D01*
X568960Y-938800D01*
X569770Y-937750D01*
X570890Y-937110D01*
X572020D01*
X573140Y-937530D01*
X574110Y-938590D01*
G01X580790Y-947910D02*
X581750Y-948960D01*
X582880Y-949600D01*
X584320Y-949810D01*
X585770Y-949390D01*
X586900Y-948540D01*
X587700Y-947060D01*
X587860Y-945370D01*
X587540Y-943670D01*
X586740Y-942610D01*
X585610Y-941770D01*
X584490Y-941560D01*
X583360Y-941770D01*
X581910Y-942610D01*
X582390Y-937110D01*
X586740D01*
G01X611660Y-803760D02*
X615680Y-816460D01*
X619710Y-803760D01*
G01X625100Y-816460D02*
Y-803760D01*
X628310D01*
X629600Y-804400D01*
X630570Y-805240D01*
X631370Y-806510D01*
X632010Y-807990D01*
X632170Y-810110D01*
X632010Y-812230D01*
X631370Y-813710D01*
X630570Y-814980D01*
X629600Y-815830D01*
X628310Y-816460D01*
X625100D01*
G01X643520D02*
Y-803760D01*
X637560Y-812860D01*
X645610D01*
G01X568000Y-694120D02*
X569280Y-695180D01*
X570730Y-695810D01*
X572020D01*
X573310Y-695180D01*
X574270Y-694120D01*
X574750Y-692630D01*
X574430Y-691150D01*
X573630Y-689880D01*
X572180Y-689040D01*
X570250Y-688610D01*
X569120Y-687770D01*
X568640Y-686290D01*
X568960Y-684800D01*
X569770Y-683750D01*
X570890Y-683110D01*
X572020D01*
X573140Y-683530D01*
X574110Y-684590D01*
G01X584320Y-695810D02*
Y-683110D01*
X582390Y-685650D01*
G01Y-695810D02*
X586250D01*
G01X611660Y-549760D02*
X615680Y-562460D01*
X619710Y-549760D01*
G01X625100Y-562460D02*
Y-549760D01*
X628310D01*
X629600Y-550400D01*
X630570Y-551240D01*
X631370Y-552510D01*
X632010Y-553990D01*
X632170Y-556110D01*
X632010Y-558230D01*
X631370Y-559710D01*
X630570Y-560980D01*
X629600Y-561830D01*
X628310Y-562460D01*
X625100D01*
G01X641580D02*
X642710Y-562250D01*
X644000Y-561610D01*
X644800Y-560560D01*
X645120Y-559070D01*
X644800Y-557590D01*
X643840Y-556320D01*
X642390Y-555690D01*
X640780D01*
X639820Y-555260D01*
X639010Y-554210D01*
X638690Y-552720D01*
X639170Y-551240D01*
X640300Y-550180D01*
X641580Y-549760D01*
X642870Y-550180D01*
X644000Y-551240D01*
X644480Y-552720D01*
X644160Y-554210D01*
X643350Y-555260D01*
X642390Y-555690D01*
X640780D01*
X639330Y-556320D01*
X638370Y-557590D01*
X638050Y-559070D01*
X638370Y-560560D01*
X639170Y-561610D01*
X640460Y-562250D01*
X641580Y-562460D01*
G01X568000Y-440120D02*
X569280Y-441180D01*
X570730Y-441810D01*
X572020D01*
X573310Y-441180D01*
X574270Y-440120D01*
X574750Y-438630D01*
X574430Y-437150D01*
X573630Y-435880D01*
X572180Y-435040D01*
X570250Y-434610D01*
X569120Y-433770D01*
X568640Y-432290D01*
X568960Y-430800D01*
X569770Y-429750D01*
X570890Y-429110D01*
X572020D01*
X573140Y-429530D01*
X574110Y-430590D01*
G01X580790Y-439270D02*
X581750Y-440750D01*
X583040Y-441600D01*
X584490Y-441810D01*
X585770Y-441600D01*
X587060Y-440540D01*
X587860Y-439270D01*
X588020Y-438000D01*
X587700Y-436520D01*
X586580Y-435460D01*
X585450Y-435040D01*
X584000D01*
G01X585450D02*
X586420Y-434400D01*
X587220Y-433340D01*
X587540Y-432070D01*
X587220Y-430800D01*
X586420Y-429750D01*
X584970Y-429110D01*
X583520Y-429320D01*
X582070Y-430170D01*
G01X662350Y-1090080D02*
X666370Y-1102780D01*
X670400Y-1090080D01*
G01X675790Y-1102780D02*
Y-1090080D01*
X679000D01*
X680290Y-1090720D01*
X681260Y-1091560D01*
X682060Y-1092830D01*
X682700Y-1094310D01*
X682860Y-1096430D01*
X682700Y-1098550D01*
X682060Y-1100030D01*
X681260Y-1101300D01*
X680290Y-1102150D01*
X679000Y-1102780D01*
X675790D01*
G01X692270D02*
Y-1090080D01*
X690340Y-1092620D01*
G01Y-1102780D02*
X694200D01*
G01X705220D02*
Y-1090080D01*
X703290Y-1092620D01*
G01Y-1102780D02*
X707150D01*
G01X662350Y-975780D02*
X666370Y-988480D01*
X670400Y-975780D01*
G01X675790Y-988480D02*
Y-975780D01*
X679000D01*
X680290Y-976420D01*
X681260Y-977260D01*
X682060Y-978530D01*
X682700Y-980010D01*
X682860Y-982130D01*
X682700Y-984250D01*
X682060Y-985730D01*
X681260Y-987000D01*
X680290Y-987850D01*
X679000Y-988480D01*
X675790D01*
G01X692270D02*
Y-975780D01*
X690340Y-978320D01*
G01Y-988480D02*
X694200D01*
G01X705220Y-975780D02*
X703940Y-976200D01*
X702970Y-977260D01*
X702330Y-978530D01*
X701850Y-980230D01*
X701690Y-982130D01*
X701850Y-984040D01*
X702330Y-985730D01*
X702970Y-987000D01*
X703940Y-988060D01*
X705220Y-988480D01*
X706510Y-988060D01*
X707480Y-987000D01*
X708120Y-985730D01*
X708600Y-984040D01*
X708760Y-982130D01*
X708600Y-980230D01*
X708120Y-978530D01*
X707480Y-977260D01*
X706510Y-976200D01*
X705220Y-975780D01*
G01X613820Y-996000D02*
Y-983300D01*
X617840D01*
X619130Y-983940D01*
X619930Y-984780D01*
X620250Y-986480D01*
X619930Y-988170D01*
X618970Y-989230D01*
X617840Y-989860D01*
X613820D01*
G01X617840D02*
X620250Y-996000D01*
G01X626450Y-993460D02*
X627410Y-994940D01*
X628700Y-995790D01*
X630150Y-996000D01*
X631430Y-995790D01*
X632720Y-994730D01*
X633520Y-993460D01*
X633680Y-992190D01*
X633360Y-990710D01*
X632240Y-989650D01*
X631110Y-989230D01*
X629660D01*
G01X631110D02*
X632080Y-988590D01*
X632880Y-987530D01*
X633200Y-986260D01*
X632880Y-984990D01*
X632080Y-983940D01*
X630630Y-983300D01*
X629180Y-983510D01*
X627730Y-984360D01*
G01X642930Y-983300D02*
X641650Y-983720D01*
X640680Y-984780D01*
X640040Y-986050D01*
X639560Y-987750D01*
X639400Y-989650D01*
X639560Y-991560D01*
X640040Y-993250D01*
X640680Y-994520D01*
X641650Y-995580D01*
X642930Y-996000D01*
X644220Y-995580D01*
X645190Y-994520D01*
X645830Y-993250D01*
X646310Y-991560D01*
X646470Y-989650D01*
X646310Y-987750D01*
X645830Y-986050D01*
X645190Y-984780D01*
X644220Y-983720D01*
X642930Y-983300D01*
G01X668810Y-912280D02*
X672830Y-924980D01*
X676860Y-912280D01*
G01X682250Y-924980D02*
Y-912280D01*
X685460D01*
X686750Y-912920D01*
X687720Y-913760D01*
X688520Y-915030D01*
X689160Y-916510D01*
X689320Y-918630D01*
X689160Y-920750D01*
X688520Y-922230D01*
X687720Y-923500D01*
X686750Y-924350D01*
X685460Y-924980D01*
X682250D01*
G01X696000Y-923500D02*
X697130Y-924560D01*
X698410Y-924980D01*
X699700Y-924560D01*
X700830Y-923290D01*
X701630Y-921380D01*
X701950Y-919480D01*
Y-917150D01*
X701630Y-915240D01*
X700830Y-913550D01*
X699860Y-912700D01*
X698730Y-912280D01*
X697450Y-912700D01*
X696480Y-913550D01*
X695840Y-914820D01*
X695520Y-916510D01*
X695840Y-917990D01*
X696640Y-919480D01*
X697610Y-920320D01*
X698730Y-920540D01*
X700020Y-920110D01*
X700990Y-919050D01*
X701950Y-917150D01*
G01X668820Y-836090D02*
X672840Y-848790D01*
X676870Y-836090D01*
G01X682260Y-848790D02*
Y-836090D01*
X685470D01*
X686760Y-836730D01*
X687730Y-837570D01*
X688530Y-838840D01*
X689170Y-840320D01*
X689330Y-842440D01*
X689170Y-844560D01*
X688530Y-846040D01*
X687730Y-847310D01*
X686760Y-848160D01*
X685470Y-848790D01*
X682260D01*
G01X695210Y-846250D02*
X696170Y-847730D01*
X697460Y-848580D01*
X698910Y-848790D01*
X700190Y-848580D01*
X701480Y-847520D01*
X702280Y-846250D01*
X702440Y-844980D01*
X702120Y-843500D01*
X701000Y-842440D01*
X699870Y-842020D01*
X698420D01*
G01X699870D02*
X700840Y-841380D01*
X701640Y-840320D01*
X701960Y-839050D01*
X701640Y-837780D01*
X700840Y-836730D01*
X699390Y-836090D01*
X697940Y-836300D01*
X696490Y-837150D01*
G01X668810Y-721780D02*
X672830Y-734480D01*
X676860Y-721780D01*
G01X682250Y-734480D02*
Y-721780D01*
X685460D01*
X686750Y-722420D01*
X687720Y-723260D01*
X688520Y-724530D01*
X689160Y-726010D01*
X689320Y-728130D01*
X689160Y-730250D01*
X688520Y-731730D01*
X687720Y-733000D01*
X686750Y-733850D01*
X685460Y-734480D01*
X682250D01*
G01X695680Y-723900D02*
X696640Y-722630D01*
X697770Y-721990D01*
X699060Y-721780D01*
X700670Y-722200D01*
X701790Y-723260D01*
X702110Y-724530D01*
X701950Y-725800D01*
X701310Y-726860D01*
X698090Y-728980D01*
X696640Y-730460D01*
X695680Y-732580D01*
X695360Y-734480D01*
X702110D01*
G01X668810Y-658280D02*
X672830Y-670980D01*
X676860Y-658280D01*
G01X682250Y-670980D02*
Y-658280D01*
X685460D01*
X686750Y-658920D01*
X687720Y-659760D01*
X688520Y-661030D01*
X689160Y-662510D01*
X689320Y-664630D01*
X689160Y-666750D01*
X688520Y-668230D01*
X687720Y-669500D01*
X686750Y-670350D01*
X685460Y-670980D01*
X682250D01*
G01X698730D02*
Y-658280D01*
X696800Y-660820D01*
G01Y-670980D02*
X700660D01*
G01X620310Y-740000D02*
Y-727300D01*
X624330D01*
X625620Y-727940D01*
X626420Y-728780D01*
X626740Y-730480D01*
X626420Y-732170D01*
X625460Y-733230D01*
X624330Y-733860D01*
X620310D01*
G01X624330D02*
X626740Y-740000D01*
G01X633420Y-734710D02*
X634540Y-733230D01*
X635510Y-732380D01*
X636800Y-731960D01*
X637920Y-732380D01*
X638730Y-733230D01*
X639370Y-734500D01*
X639530Y-735980D01*
X639370Y-737250D01*
X638730Y-738520D01*
X637760Y-739580D01*
X636640Y-740000D01*
X635350Y-739580D01*
X634220Y-738310D01*
X633580Y-736400D01*
X633420Y-734290D01*
X633740Y-731530D01*
X634220Y-730050D01*
X635030Y-728570D01*
X636150Y-727510D01*
X637280Y-727300D01*
X638410Y-727720D01*
X639210Y-728780D01*
G01X668810Y-582080D02*
X672830Y-594780D01*
X676860Y-582080D01*
G01X682250Y-594780D02*
Y-582080D01*
X685460D01*
X686750Y-582720D01*
X687720Y-583560D01*
X688520Y-584830D01*
X689160Y-586310D01*
X689320Y-588430D01*
X689160Y-590550D01*
X688520Y-592030D01*
X687720Y-593300D01*
X686750Y-594150D01*
X685460Y-594780D01*
X682250D01*
G01X698410D02*
X698730Y-592030D01*
X699220Y-589700D01*
X699860Y-587580D01*
X700670Y-585260D01*
X701950Y-582080D01*
X695520D01*
G01X668810Y-467780D02*
X672830Y-480480D01*
X676860Y-467780D01*
G01X682250Y-480480D02*
Y-467780D01*
X685460D01*
X686750Y-468420D01*
X687720Y-469260D01*
X688520Y-470530D01*
X689160Y-472010D01*
X689320Y-474130D01*
X689160Y-476250D01*
X688520Y-477730D01*
X687720Y-479000D01*
X686750Y-479850D01*
X685460Y-480480D01*
X682250D01*
G01X695680Y-475190D02*
X696800Y-473710D01*
X697770Y-472860D01*
X699060Y-472440D01*
X700180Y-472860D01*
X700990Y-473710D01*
X701630Y-474980D01*
X701790Y-476460D01*
X701630Y-477730D01*
X700990Y-479000D01*
X700020Y-480060D01*
X698900Y-480480D01*
X697610Y-480060D01*
X696480Y-478790D01*
X695840Y-476880D01*
X695680Y-474770D01*
X696000Y-472010D01*
X696480Y-470530D01*
X697290Y-469050D01*
X698410Y-467990D01*
X699540Y-467780D01*
X700670Y-468200D01*
X701470Y-469260D01*
G01X615820Y-486000D02*
Y-473300D01*
X619840D01*
X621130Y-473940D01*
X621930Y-474780D01*
X622250Y-476480D01*
X621930Y-478170D01*
X620970Y-479230D01*
X619840Y-479860D01*
X615820D01*
G01X619840D02*
X622250Y-486000D01*
G01X631980D02*
Y-473300D01*
X630050Y-475840D01*
G01Y-486000D02*
X633910D01*
G01X644930D02*
X646060Y-485790D01*
X647350Y-485150D01*
X648150Y-484100D01*
X648470Y-482610D01*
X648150Y-481130D01*
X647190Y-479860D01*
X645740Y-479230D01*
X644130D01*
X643170Y-478800D01*
X642360Y-477750D01*
X642040Y-476260D01*
X642520Y-474780D01*
X643650Y-473720D01*
X644930Y-473300D01*
X646220Y-473720D01*
X647350Y-474780D01*
X647830Y-476260D01*
X647510Y-477750D01*
X646700Y-478800D01*
X645740Y-479230D01*
X644130D01*
X642680Y-479860D01*
X641720Y-481130D01*
X641400Y-482610D01*
X641720Y-484100D01*
X642520Y-485150D01*
X643810Y-485790D01*
X644930Y-486000D01*
G01X668810Y-404280D02*
X672830Y-416980D01*
X676860Y-404280D01*
G01X682250Y-416980D02*
Y-404280D01*
X685460D01*
X686750Y-404920D01*
X687720Y-405760D01*
X688520Y-407030D01*
X689160Y-408510D01*
X689320Y-410630D01*
X689160Y-412750D01*
X688520Y-414230D01*
X687720Y-415500D01*
X686750Y-416350D01*
X685460Y-416980D01*
X682250D01*
G01X695200Y-415080D02*
X696160Y-416130D01*
X697290Y-416770D01*
X698730Y-416980D01*
X700180Y-416560D01*
X701310Y-415710D01*
X702110Y-414230D01*
X702270Y-412540D01*
X701950Y-410840D01*
X701150Y-409780D01*
X700020Y-408940D01*
X698900Y-408730D01*
X697770Y-408940D01*
X696320Y-409780D01*
X696800Y-404280D01*
X701150D01*
G01X649310Y-273050D02*
Y-260350D01*
X653330D01*
X654620Y-260990D01*
X655420Y-261830D01*
X655740Y-263530D01*
X655420Y-265220D01*
X654460Y-266280D01*
X653330Y-266910D01*
X649310D01*
G01X653330D02*
X655740Y-273050D01*
G01X661940Y-271150D02*
X662900Y-272200D01*
X664030Y-272840D01*
X665470Y-273050D01*
X666920Y-272630D01*
X668050Y-271780D01*
X668850Y-270300D01*
X669010Y-268610D01*
X668690Y-266910D01*
X667890Y-265850D01*
X666760Y-265010D01*
X665640Y-264800D01*
X664510Y-265010D01*
X663060Y-265850D01*
X663540Y-260350D01*
X667890D01*
G01X678420Y-273050D02*
X679550Y-272840D01*
X680840Y-272200D01*
X681640Y-271150D01*
X681960Y-269660D01*
X681640Y-268180D01*
X680680Y-266910D01*
X679230Y-266280D01*
X677620D01*
X676660Y-265850D01*
X675850Y-264800D01*
X675530Y-263310D01*
X676010Y-261830D01*
X677140Y-260770D01*
X678420Y-260350D01*
X679710Y-260770D01*
X680840Y-261830D01*
X681320Y-263310D01*
X681000Y-264800D01*
X680190Y-265850D01*
X679230Y-266280D01*
X677620D01*
X676170Y-266910D01*
X675210Y-268180D01*
X674890Y-269660D01*
X675210Y-271150D01*
X676010Y-272200D01*
X677300Y-272840D01*
X678420Y-273050D01*
G01X644220Y-146050D02*
Y-133350D01*
X648240D01*
X649530Y-133990D01*
X650330Y-134830D01*
X650650Y-136530D01*
X650330Y-138220D01*
X649370Y-139280D01*
X648240Y-139910D01*
X644220D01*
G01X648240D02*
X650650Y-146050D01*
G01X656850Y-144150D02*
X657810Y-145200D01*
X658940Y-145840D01*
X660380Y-146050D01*
X661830Y-145630D01*
X662960Y-144780D01*
X663760Y-143300D01*
X663920Y-141610D01*
X663600Y-139910D01*
X662800Y-138850D01*
X661670Y-138010D01*
X660550Y-137800D01*
X659420Y-138010D01*
X657970Y-138850D01*
X658450Y-133350D01*
X662800D01*
G01X673010Y-146050D02*
X673330Y-143300D01*
X673820Y-140970D01*
X674460Y-138850D01*
X675270Y-136530D01*
X676550Y-133350D01*
X670120D01*
G01X649310Y-88900D02*
Y-76200D01*
X653330D01*
X654620Y-76840D01*
X655420Y-77680D01*
X655740Y-79380D01*
X655420Y-81070D01*
X654460Y-82130D01*
X653330Y-82760D01*
X649310D01*
G01X653330D02*
X655740Y-88900D01*
G01X661940Y-87000D02*
X662900Y-88050D01*
X664030Y-88690D01*
X665470Y-88900D01*
X666920Y-88480D01*
X668050Y-87630D01*
X668850Y-86150D01*
X669010Y-84460D01*
X668690Y-82760D01*
X667890Y-81700D01*
X666760Y-80860D01*
X665640Y-80650D01*
X664510Y-80860D01*
X663060Y-81700D01*
X663540Y-76200D01*
X667890D01*
G01X678420D02*
X677140Y-76620D01*
X676170Y-77680D01*
X675530Y-78950D01*
X675050Y-80650D01*
X674890Y-82550D01*
X675050Y-84460D01*
X675530Y-86150D01*
X676170Y-87420D01*
X677140Y-88480D01*
X678420Y-88900D01*
X679710Y-88480D01*
X680680Y-87420D01*
X681320Y-86150D01*
X681800Y-84460D01*
X681960Y-82550D01*
X681800Y-80650D01*
X681320Y-78950D01*
X680680Y-77680D01*
X679710Y-76620D01*
X678420Y-76200D01*
G01X642960Y88900D02*
Y101600D01*
X646980D01*
X648270Y100960D01*
X649070Y100120D01*
X649390Y98420D01*
X649070Y96730D01*
X648110Y95670D01*
X646980Y95040D01*
X642960D01*
G01X646980D02*
X649390Y88900D01*
G01X661060D02*
Y101600D01*
X655100Y92500D01*
X663150D01*
G01X669020Y99480D02*
X669980Y100750D01*
X671110Y101390D01*
X672400Y101600D01*
X674010Y101180D01*
X675130Y100120D01*
X675450Y98850D01*
X675290Y97580D01*
X674650Y96520D01*
X671430Y94400D01*
X669980Y92920D01*
X669020Y90800D01*
X668700Y88900D01*
X675450D01*
G01X644220Y38100D02*
Y50800D01*
X648240D01*
X649530Y50160D01*
X650330Y49320D01*
X650650Y47620D01*
X650330Y45930D01*
X649370Y44870D01*
X648240Y44240D01*
X644220D01*
G01X648240D02*
X650650Y38100D01*
G01X662320D02*
Y50800D01*
X656360Y41700D01*
X664410D01*
G01X670600Y39580D02*
X671730Y38520D01*
X673010Y38100D01*
X674300Y38520D01*
X675430Y39790D01*
X676230Y41700D01*
X676550Y43600D01*
Y45930D01*
X676230Y47840D01*
X675430Y49530D01*
X674460Y50380D01*
X673330Y50800D01*
X672050Y50380D01*
X671080Y49530D01*
X670440Y48260D01*
X670120Y46570D01*
X670440Y45090D01*
X671240Y43600D01*
X672210Y42760D01*
X673330Y42540D01*
X674620Y42970D01*
X675590Y44030D01*
X676550Y45930D01*
G01X644220Y209550D02*
Y222250D01*
X648240D01*
X649530Y221610D01*
X650330Y220770D01*
X650650Y219070D01*
X650330Y217380D01*
X649370Y216320D01*
X648240Y215690D01*
X644220D01*
G01X648240D02*
X650650Y209550D01*
G01X662320D02*
Y222250D01*
X656360Y213150D01*
X664410D01*
G01X673330Y209550D02*
Y222250D01*
X671400Y219710D01*
G01Y209550D02*
X675260D01*
G01X726820Y-1051990D02*
Y-1039290D01*
X732930D01*
G01X730680Y-1045430D02*
X726820D01*
G01X744110Y-1045220D02*
X744760Y-1044580D01*
X745240Y-1043520D01*
X745560Y-1042040D01*
X745240Y-1040770D01*
X744590Y-1039930D01*
X743470Y-1039290D01*
X739130D01*
Y-1051990D01*
X744430D01*
X745560Y-1051140D01*
X746200Y-1049870D01*
X746520Y-1048390D01*
X746200Y-1046910D01*
X745240Y-1045640D01*
X744110Y-1045220D01*
X739130D01*
G01X755770Y-1051990D02*
Y-1039290D01*
X753840Y-1041830D01*
G01Y-1051990D02*
X757700D01*
G01X765670Y-1041410D02*
X766630Y-1040140D01*
X767760Y-1039500D01*
X769050Y-1039290D01*
X770660Y-1039710D01*
X771780Y-1040770D01*
X772100Y-1042040D01*
X771940Y-1043310D01*
X771300Y-1044370D01*
X768080Y-1046490D01*
X766630Y-1047970D01*
X765670Y-1050090D01*
X765350Y-1051990D01*
X772100D01*
G01X726820Y-1115490D02*
Y-1102790D01*
X732930D01*
G01X730680Y-1108930D02*
X726820D01*
G01X744110Y-1108720D02*
X744760Y-1108080D01*
X745240Y-1107020D01*
X745560Y-1105540D01*
X745240Y-1104270D01*
X744590Y-1103430D01*
X743470Y-1102790D01*
X739130D01*
Y-1115490D01*
X744430D01*
X745560Y-1114640D01*
X746200Y-1113370D01*
X746520Y-1111890D01*
X746200Y-1110410D01*
X745240Y-1109140D01*
X744110Y-1108720D01*
X739130D01*
G01X755770Y-1115490D02*
Y-1102790D01*
X753840Y-1105330D01*
G01Y-1115490D02*
X757700D01*
G01X768720D02*
Y-1102790D01*
X766790Y-1105330D01*
G01Y-1115490D02*
X770650D01*
G01X726820Y-1001190D02*
Y-988490D01*
X732930D01*
G01X730680Y-994630D02*
X726820D01*
G01X744110Y-994420D02*
X744760Y-993780D01*
X745240Y-992720D01*
X745560Y-991240D01*
X745240Y-989970D01*
X744590Y-989130D01*
X743470Y-988490D01*
X739130D01*
Y-1001190D01*
X744430D01*
X745560Y-1000340D01*
X746200Y-999070D01*
X746520Y-997590D01*
X746200Y-996110D01*
X745240Y-994840D01*
X744110Y-994420D01*
X739130D01*
G01X755770Y-1001190D02*
Y-988490D01*
X753840Y-991030D01*
G01Y-1001190D02*
X757700D01*
G01X768720Y-988490D02*
X767440Y-988910D01*
X766470Y-989970D01*
X765830Y-991240D01*
X765350Y-992940D01*
X765190Y-994840D01*
X765350Y-996750D01*
X765830Y-998440D01*
X766470Y-999710D01*
X767440Y-1000770D01*
X768720Y-1001190D01*
X770010Y-1000770D01*
X770980Y-999710D01*
X771620Y-998440D01*
X772100Y-996750D01*
X772260Y-994840D01*
X772100Y-992940D01*
X771620Y-991240D01*
X770980Y-989970D01*
X770010Y-988910D01*
X768720Y-988490D01*
G01X733290Y-937690D02*
Y-924990D01*
X739400D01*
G01X737150Y-931130D02*
X733290D01*
G01X750580Y-930920D02*
X751230Y-930280D01*
X751710Y-929220D01*
X752030Y-927740D01*
X751710Y-926470D01*
X751060Y-925630D01*
X749940Y-924990D01*
X745600D01*
Y-937690D01*
X750900D01*
X752030Y-936840D01*
X752670Y-935570D01*
X752990Y-934090D01*
X752670Y-932610D01*
X751710Y-931340D01*
X750580Y-930920D01*
X745600D01*
G01X759510Y-936210D02*
X760640Y-937270D01*
X761920Y-937690D01*
X763210Y-937270D01*
X764340Y-936000D01*
X765140Y-934090D01*
X765460Y-932190D01*
Y-929860D01*
X765140Y-927950D01*
X764340Y-926260D01*
X763370Y-925410D01*
X762240Y-924990D01*
X760960Y-925410D01*
X759990Y-926260D01*
X759350Y-927530D01*
X759030Y-929220D01*
X759350Y-930700D01*
X760150Y-932190D01*
X761120Y-933030D01*
X762240Y-933250D01*
X763530Y-932820D01*
X764500Y-931760D01*
X765460Y-929860D01*
G01X733290Y-861490D02*
Y-848790D01*
X739400D01*
G01X737150Y-854930D02*
X733290D01*
G01X750580Y-854720D02*
X751230Y-854080D01*
X751710Y-853020D01*
X752030Y-851540D01*
X751710Y-850270D01*
X751060Y-849430D01*
X749940Y-848790D01*
X745600D01*
Y-861490D01*
X750900D01*
X752030Y-860640D01*
X752670Y-859370D01*
X752990Y-857890D01*
X752670Y-856410D01*
X751710Y-855140D01*
X750580Y-854720D01*
X745600D01*
G01X758710Y-858950D02*
X759670Y-860430D01*
X760960Y-861280D01*
X762410Y-861490D01*
X763690Y-861280D01*
X764980Y-860220D01*
X765780Y-858950D01*
X765940Y-857680D01*
X765620Y-856200D01*
X764500Y-855140D01*
X763370Y-854720D01*
X761920D01*
G01X763370D02*
X764340Y-854080D01*
X765140Y-853020D01*
X765460Y-851750D01*
X765140Y-850480D01*
X764340Y-849430D01*
X762890Y-848790D01*
X761440Y-849000D01*
X759990Y-849850D01*
G01X733290Y-797990D02*
Y-785290D01*
X739400D01*
G01X737150Y-791430D02*
X733290D01*
G01X750580Y-791220D02*
X751230Y-790580D01*
X751710Y-789520D01*
X752030Y-788040D01*
X751710Y-786770D01*
X751060Y-785930D01*
X749940Y-785290D01*
X745600D01*
Y-797990D01*
X750900D01*
X752030Y-797140D01*
X752670Y-795870D01*
X752990Y-794390D01*
X752670Y-792910D01*
X751710Y-791640D01*
X750580Y-791220D01*
X745600D01*
G01X764180Y-797990D02*
Y-785290D01*
X758220Y-794390D01*
X766270D01*
G01X733290Y-747190D02*
Y-734490D01*
X739400D01*
G01X737150Y-740630D02*
X733290D01*
G01X750580Y-740420D02*
X751230Y-739780D01*
X751710Y-738720D01*
X752030Y-737240D01*
X751710Y-735970D01*
X751060Y-735130D01*
X749940Y-734490D01*
X745600D01*
Y-747190D01*
X750900D01*
X752030Y-746340D01*
X752670Y-745070D01*
X752990Y-743590D01*
X752670Y-742110D01*
X751710Y-740840D01*
X750580Y-740420D01*
X745600D01*
G01X759190Y-736610D02*
X760150Y-735340D01*
X761280Y-734700D01*
X762570Y-734490D01*
X764180Y-734910D01*
X765300Y-735970D01*
X765620Y-737240D01*
X765460Y-738510D01*
X764820Y-739570D01*
X761600Y-741690D01*
X760150Y-743170D01*
X759190Y-745290D01*
X758870Y-747190D01*
X765620D01*
G01X733290Y-683690D02*
Y-670990D01*
X739400D01*
G01X737150Y-677130D02*
X733290D01*
G01X750580Y-676920D02*
X751230Y-676280D01*
X751710Y-675220D01*
X752030Y-673740D01*
X751710Y-672470D01*
X751060Y-671630D01*
X749940Y-670990D01*
X745600D01*
Y-683690D01*
X750900D01*
X752030Y-682840D01*
X752670Y-681570D01*
X752990Y-680090D01*
X752670Y-678610D01*
X751710Y-677340D01*
X750580Y-676920D01*
X745600D01*
G01X762240Y-683690D02*
Y-670990D01*
X760310Y-673530D01*
G01Y-683690D02*
X764170D01*
G01X733290Y-607490D02*
Y-594790D01*
X739400D01*
G01X737150Y-600930D02*
X733290D01*
G01X750580Y-600720D02*
X751230Y-600080D01*
X751710Y-599020D01*
X752030Y-597540D01*
X751710Y-596270D01*
X751060Y-595430D01*
X749940Y-594790D01*
X745600D01*
Y-607490D01*
X750900D01*
X752030Y-606640D01*
X752670Y-605370D01*
X752990Y-603890D01*
X752670Y-602410D01*
X751710Y-601140D01*
X750580Y-600720D01*
X745600D01*
G01X761920Y-607490D02*
X762240Y-604740D01*
X762730Y-602410D01*
X763370Y-600290D01*
X764180Y-597970D01*
X765460Y-594790D01*
X759030D01*
G01X733290Y-543990D02*
Y-531290D01*
X739400D01*
G01X737150Y-537430D02*
X733290D01*
G01X750580Y-537220D02*
X751230Y-536580D01*
X751710Y-535520D01*
X752030Y-534040D01*
X751710Y-532770D01*
X751060Y-531930D01*
X749940Y-531290D01*
X745600D01*
Y-543990D01*
X750900D01*
X752030Y-543140D01*
X752670Y-541870D01*
X752990Y-540390D01*
X752670Y-538910D01*
X751710Y-537640D01*
X750580Y-537220D01*
X745600D01*
G01X762240Y-543990D02*
X763370Y-543780D01*
X764660Y-543140D01*
X765460Y-542090D01*
X765780Y-540600D01*
X765460Y-539120D01*
X764500Y-537850D01*
X763050Y-537220D01*
X761440D01*
X760480Y-536790D01*
X759670Y-535740D01*
X759350Y-534250D01*
X759830Y-532770D01*
X760960Y-531710D01*
X762240Y-531290D01*
X763530Y-531710D01*
X764660Y-532770D01*
X765140Y-534250D01*
X764820Y-535740D01*
X764010Y-536790D01*
X763050Y-537220D01*
X761440D01*
X759990Y-537850D01*
X759030Y-539120D01*
X758710Y-540600D01*
X759030Y-542090D01*
X759830Y-543140D01*
X761120Y-543780D01*
X762240Y-543990D01*
G01X733290Y-493190D02*
Y-480490D01*
X739400D01*
G01X737150Y-486630D02*
X733290D01*
G01X750580Y-486420D02*
X751230Y-485780D01*
X751710Y-484720D01*
X752030Y-483240D01*
X751710Y-481970D01*
X751060Y-481130D01*
X749940Y-480490D01*
X745600D01*
Y-493190D01*
X750900D01*
X752030Y-492340D01*
X752670Y-491070D01*
X752990Y-489590D01*
X752670Y-488110D01*
X751710Y-486840D01*
X750580Y-486420D01*
X745600D01*
G01X759190Y-487900D02*
X760310Y-486420D01*
X761280Y-485570D01*
X762570Y-485150D01*
X763690Y-485570D01*
X764500Y-486420D01*
X765140Y-487690D01*
X765300Y-489170D01*
X765140Y-490440D01*
X764500Y-491710D01*
X763530Y-492770D01*
X762410Y-493190D01*
X761120Y-492770D01*
X759990Y-491500D01*
X759350Y-489590D01*
X759190Y-487480D01*
X759510Y-484720D01*
X759990Y-483240D01*
X760800Y-481760D01*
X761920Y-480700D01*
X763050Y-480490D01*
X764180Y-480910D01*
X764980Y-481970D01*
G01X733290Y-429690D02*
Y-416990D01*
X739400D01*
G01X737150Y-423130D02*
X733290D01*
G01X750580Y-422920D02*
X751230Y-422280D01*
X751710Y-421220D01*
X752030Y-419740D01*
X751710Y-418470D01*
X751060Y-417630D01*
X749940Y-416990D01*
X745600D01*
Y-429690D01*
X750900D01*
X752030Y-428840D01*
X752670Y-427570D01*
X752990Y-426090D01*
X752670Y-424610D01*
X751710Y-423340D01*
X750580Y-422920D01*
X745600D01*
G01X758710Y-427790D02*
X759670Y-428840D01*
X760800Y-429480D01*
X762240Y-429690D01*
X763690Y-429270D01*
X764820Y-428420D01*
X765620Y-426940D01*
X765780Y-425250D01*
X765460Y-423550D01*
X764660Y-422490D01*
X763530Y-421650D01*
X762410Y-421440D01*
X761280Y-421650D01*
X759830Y-422490D01*
X760310Y-416990D01*
X764660D01*
G01X713150Y368300D02*
X717170Y355600D01*
X721200Y368300D01*
G01X726590Y355600D02*
Y368300D01*
X729800D01*
X731090Y367660D01*
X732060Y366820D01*
X732860Y365550D01*
X733500Y364070D01*
X733660Y361950D01*
X733500Y359830D01*
X732860Y358350D01*
X732060Y357080D01*
X731090Y356230D01*
X729800Y355600D01*
X726590D01*
G01X743070D02*
Y368300D01*
X741140Y365760D01*
G01Y355600D02*
X745000D01*
G01X752970Y360890D02*
X754090Y362370D01*
X755060Y363220D01*
X756350Y363640D01*
X757470Y363220D01*
X758280Y362370D01*
X758920Y361100D01*
X759080Y359620D01*
X758920Y358350D01*
X758280Y357080D01*
X757310Y356020D01*
X756190Y355600D01*
X754900Y356020D01*
X753770Y357290D01*
X753130Y359200D01*
X752970Y361310D01*
X753290Y364070D01*
X753770Y365550D01*
X754580Y367030D01*
X755700Y368090D01*
X756830Y368300D01*
X757960Y367880D01*
X758760Y366820D01*
G01X713150Y469900D02*
X717170Y457200D01*
X721200Y469900D01*
G01X726590Y457200D02*
Y469900D01*
X729800D01*
X731090Y469260D01*
X732060Y468420D01*
X732860Y467150D01*
X733500Y465670D01*
X733660Y463550D01*
X733500Y461430D01*
X732860Y459950D01*
X732060Y458680D01*
X731090Y457830D01*
X729800Y457200D01*
X726590D01*
G01X743070D02*
Y469900D01*
X741140Y467360D01*
G01Y457200D02*
X745000D01*
G01X752490Y459100D02*
X753450Y458050D01*
X754580Y457410D01*
X756020Y457200D01*
X757470Y457620D01*
X758600Y458470D01*
X759400Y459950D01*
X759560Y461640D01*
X759240Y463340D01*
X758440Y464400D01*
X757310Y465240D01*
X756190Y465450D01*
X755060Y465240D01*
X753610Y464400D01*
X754090Y469900D01*
X758440D01*
G01X713150Y571500D02*
X717170Y558800D01*
X721200Y571500D01*
G01X726590Y558800D02*
Y571500D01*
X729800D01*
X731090Y570860D01*
X732060Y570020D01*
X732860Y568750D01*
X733500Y567270D01*
X733660Y565150D01*
X733500Y563030D01*
X732860Y561550D01*
X732060Y560280D01*
X731090Y559430D01*
X729800Y558800D01*
X726590D01*
G01X743070D02*
Y571500D01*
X741140Y568960D01*
G01Y558800D02*
X745000D01*
G01X757960D02*
Y571500D01*
X752000Y562400D01*
X760050D01*
G01X713150Y673100D02*
X717170Y660400D01*
X721200Y673100D01*
G01X726590Y660400D02*
Y673100D01*
X729800D01*
X731090Y672460D01*
X732060Y671620D01*
X732860Y670350D01*
X733500Y668870D01*
X733660Y666750D01*
X733500Y664630D01*
X732860Y663150D01*
X732060Y661880D01*
X731090Y661030D01*
X729800Y660400D01*
X726590D01*
G01X743070D02*
Y673100D01*
X741140Y670560D01*
G01Y660400D02*
X745000D01*
G01X752490Y662940D02*
X753450Y661460D01*
X754740Y660610D01*
X756190Y660400D01*
X757470Y660610D01*
X758760Y661670D01*
X759560Y662940D01*
X759720Y664210D01*
X759400Y665690D01*
X758280Y666750D01*
X757150Y667170D01*
X755700D01*
G01X757150D02*
X758120Y667810D01*
X758920Y668870D01*
X759240Y670140D01*
X758920Y671410D01*
X758120Y672460D01*
X756670Y673100D01*
X755220Y672890D01*
X753770Y672040D01*
G01X834700Y-372310D02*
X841450Y-359610D01*
G01X834700D02*
X841450Y-372310D01*
G01X847490Y-369770D02*
X848450Y-371250D01*
X849740Y-372100D01*
X851190Y-372310D01*
X852470Y-372100D01*
X853760Y-371040D01*
X854560Y-369770D01*
X854720Y-368500D01*
X854400Y-367020D01*
X853280Y-365960D01*
X852150Y-365540D01*
X850700D01*
G01X852150D02*
X853120Y-364900D01*
X853920Y-363840D01*
X854240Y-362570D01*
X853920Y-361300D01*
X853120Y-360250D01*
X851670Y-359610D01*
X850220Y-359820D01*
X848770Y-360670D01*
G01X834700Y701190D02*
X841450Y713890D01*
G01X834700D02*
X841450Y701190D01*
G01X847970Y711770D02*
X848930Y713040D01*
X850060Y713680D01*
X851350Y713890D01*
X852960Y713470D01*
X854080Y712410D01*
X854400Y711140D01*
X854240Y709870D01*
X853600Y708810D01*
X850380Y706690D01*
X848930Y705210D01*
X847970Y703090D01*
X847650Y701190D01*
X854400D01*
G54D14*
G01X144300Y-670800D02*
Y-700800D01*
X84300D01*
Y-670800D01*
X144300D01*
G01X201150Y-1002160D02*
G03X199900Y-1000910I-1250J0D01*
G01D02*
G03X198650Y-1002160I0J-1250D01*
G01D02*
G03X199900Y-1003410I1250J0D01*
G01D02*
G03X201150Y-1002160I0J1250D01*
G01Y-748160D02*
G03X199900Y-746910I-1250J0D01*
G01D02*
G03X198650Y-748160I0J-1250D01*
G01D02*
G03X199900Y-749410I1250J0D01*
G01D02*
G03X201150Y-748160I0J1250D01*
G01Y-494160D02*
G03X199900Y-492910I-1250J0D01*
G01D02*
G03X198650Y-494160I0J-1250D01*
G01D02*
G03X199900Y-495410I1250J0D01*
G01D02*
G03X201150Y-494160I0J1250D01*
G01X377200Y-190960D02*
G03X375950Y-189710I-1250J0D01*
G01D02*
G03X374700Y-190960I0J-1250D01*
G01D02*
G03X375950Y-192210I1250J0D01*
G01D02*
G03X377200Y-190960I0J1250D01*
G01Y-6810D02*
G03X375950Y-5560I-1250J0D01*
G01D02*
G03X374700Y-6810I0J-1250D01*
G01D02*
G03X375950Y-8060I1250J0D01*
G01D02*
G03X377200Y-6810I0J1250D01*
G01X376800Y164640D02*
G03X375550Y165890I-1250J0D01*
G01D02*
G03X374300Y164640I0J-1250D01*
G01D02*
G03X375550Y163390I1250J0D01*
G01D02*
G03X376800Y164640I0J1250D01*
G01X398300Y415050D02*
Y385050D01*
X338300D01*
Y415050D01*
X398300D01*
G01X366350Y598750D02*
G03X365100Y600000I-1250J0D01*
G01D02*
G03X363850Y598750I0J-1250D01*
G01D02*
G03X365100Y597500I1250J0D01*
G01D02*
G03X366350Y598750I0J1250D01*
G01X429100Y-811810D02*
G03X427850Y-810560I-1250J0D01*
G01D02*
G03X426600Y-811810I0J-1250D01*
G01D02*
G03X427850Y-813060I1250J0D01*
G01D02*
G03X429100Y-811810I0J1250D01*
G01Y-557810D02*
G03X427850Y-556560I-1250J0D01*
G01D02*
G03X426600Y-557810I0J-1250D01*
G01D02*
G03X427850Y-559060I1250J0D01*
G01D02*
G03X429100Y-557810I0J1250D01*
G01X556100Y-1065810D02*
G03X554850Y-1064560I-1250J0D01*
G01D02*
G03X553600Y-1065810I0J-1250D01*
G01D02*
G03X554850Y-1067060I1250J0D01*
G01D02*
G03X556100Y-1065810I0J1250D01*
G01Y-811810D02*
G03X554850Y-810560I-1250J0D01*
G01D02*
G03X553600Y-811810I0J-1250D01*
G01D02*
G03X554850Y-813060I1250J0D01*
G01D02*
G03X556100Y-811810I0J1250D01*
G01Y-557810D02*
G03X554850Y-556560I-1250J0D01*
G01D02*
G03X553600Y-557810I0J-1250D01*
G01D02*
G03X554850Y-559060I1250J0D01*
G01D02*
G03X556100Y-557810I0J1250D01*
G01X559200Y-239810D02*
Y-223810D01*
G01X567200Y-231810D02*
X551200D01*
G01X559200Y-55660D02*
Y-39660D01*
G01X567200Y-47660D02*
X551200D01*
G01X558800Y115790D02*
Y131790D01*
G01X566800Y123790D02*
X550800D01*
G01X554100Y269340D02*
G03I-1250J0D01*
G01Y370940D02*
G03I-1250J0D01*
G01Y472540D02*
G03I-1250J0D01*
G01Y574140D02*
G03I-1250J0D01*
G01X807700Y-403710D02*
G03I-1250J0D01*
G01Y669440D02*
G03I-1250J0D01*
M02*
