G04 ================== begin FILE IDENTIFICATION RECORD ==================*
G04 Layout Name:  d:/Project/Circuit/KVP/03v3/pcb/kvp_03v3.brd*
G04 Film Name:    TOP*
G04 File Format:  Gerber RS274X*
G04 File Origin:  Cadence Allegro 16.6-S027*
G04 Origin Date:  Mon May 05 09:39:23 2014*
G04 *
G04 Layer:  ETCH/TOP*
G04 Layer:  PIN/TOP*
G04 Layer:  VIA CLASS/TOP*
G04 *
G04 Offset:    (0.000 0.000)*
G04 Mirror:    No*
G04 Mode:      Positive*
G04 Rotation:  0*
G04 FullContactRelief:  No*
G04 UndefLineWidth:     0.250*
G04 ================== end FILE IDENTIFICATION RECORD ====================*
%FSLAX34Y34*MOMM*%
%IR0*IPPOS*OFA0.00000B0.00000*MIA0B0*SFA1.00000B1.00000*%
%ADD23R,2.X.6*%
%ADD20R,1.1X.6*%
%ADD21R,2.2X.6*%
%ADD11C,1.*%
%ADD16C,3.1*%
%ADD10C,4.*%
%ADD30C,2.5*%
%ADD17C,1.6*%
%ADD14R,.95X1.4*%
%ADD13C,1.55*%
%ADD22R,1.55X.65*%
%ADD15R,2.05X2.05*%
%ADD28C,1.95*%
%ADD12R,1.55X1.55*%
%ADD25R,1.95X1.95*%
%ADD18R,1.1X1.4*%
%ADD19R,1.1X2.7*%
%ADD24O,1.X1.95*%
%ADD29R,1.4X1.8*%
%ADD31R,2.5X2.5*%
%ADD27R,1.75X1.*%
%ADD32C,.2*%
%ADD26R,.5X.9*%
%ADD33C,.4*%
%ADD34C,.5*%
%ADD35C,.25*%
%ADD36C,.45*%
%ADD37C,2.008*%
%ADD38C,2.058*%
%ADD39C,2.958*%
G75*
%LPD*%
G75*
G36*
G01X151050Y-1136650D02*
G02X146050Y-1131650I0J5000D01*
G01Y-903770D01*
G03X144590Y-900240I-5000J-1D01*
G01X45910Y-801560D01*
G02X44450Y-798030I3540J3531D01*
G01Y82550D01*
G03X38100Y88900I-6350J0D01*
G01X7850D01*
G02X6890Y89590I-8J1001D01*
G01X6310Y91390D01*
G02X6670Y92510I948J313D01*
G03X-6670I-6670J9090D01*
G02X-6310Y91390I-588J-807D01*
G01X-6890Y89590D01*
G02X-7850Y88900I-952J311D01*
G01X-42950D01*
G02X-43910Y89590I-8J1001D01*
G01X-44490Y91390D01*
G02X-44130Y92510I948J313D01*
G03X-57470I-6670J9090D01*
G02X-57110Y91390I-588J-807D01*
G01X-57690Y89590D01*
G02X-58650Y88900I-952J311D01*
G01X-69850D01*
G02X-76200Y95250I0J6350D01*
G01Y336550D01*
G02X-69850Y342900I6350J0D01*
G01X-55370D01*
G02X-54380Y342050I1J-1000D01*
G01X-54330Y341760D01*
G02X-54950Y340670I-991J-157D01*
G03X-44110Y339270I4158J-10472D01*
G02X-44470Y340390I589J807D01*
G01X-43880Y342190D01*
G02X-42930Y342880I951J-311D01*
G01X-7980Y342800D01*
G02X-7030Y342120I2J-1001D01*
G01X-6430Y340310D01*
G02X-6770Y339210I-951J-308D01*
G01X-6780Y339200D01*
G03X4960Y320080I6783J-8999D01*
G01X5060Y320130D01*
X5270Y320180D01*
X5690D01*
G02X6390Y319890I-4J-1000D01*
G01X15240Y311040D01*
G02X15530Y310340I-710J-704D01*
G01Y298380D01*
G03X16530Y297380I1000J0D01*
G01X42070D01*
G03X43070Y298380I0J1000D01*
G01Y323920D01*
G03X42070Y324920I-1000J0D01*
G01X30110D01*
G02X29410Y325210I4J1000D01*
G01X19200Y335430D01*
G03X7640Y340220I-11572J-11582D01*
G01X5270D01*
X5060Y340270D01*
X4960Y340320D01*
G03X4510Y340530I-4990J-10107D01*
G02X3930Y341620I405J915D01*
G01X3980Y341930D01*
G02X4970Y342760I988J-173D01*
G01X49270Y342530D01*
G02X49970Y342240I-4J-999D01*
G03X55080Y338550I13534J13359D01*
G01X55230Y338470D01*
X68310Y325390D01*
G02X68520Y324300I-711J-702D01*
G01X68410Y324020D01*
X67910Y323690D01*
X60760D01*
G03X59760Y322690I0J-1000D01*
G01Y299610D01*
G03X60760Y298610I1000J0D01*
G01X83840D01*
G03X84840Y299610I0J1000D01*
G01Y306450D01*
G02X85460Y307380I1001J4D01*
G01X85740Y307490D01*
X86320Y307380D01*
X138240Y255460D01*
G02X139700Y251930I-3540J-3531D01*
G01Y-258280D01*
G03X141160Y-261810I5000J1D01*
G01X271590Y-392240D01*
G02X273050Y-395770I-3540J-3531D01*
G01Y-432230D01*
G02X272590Y-433080I-1001J-8D01*
G01X271180Y-433980D01*
G02X270220Y-434050I-544J838D01*
G03X258620Y-439110I-3519J-7759D01*
G01X258550Y-439330D01*
X257530Y-440350D01*
G02X256830Y-440640I-704J710D01*
G01X247120D01*
G02X246120Y-439640I0J1000D01*
G01Y-438640D01*
G03X245120Y-437640I-1000J0D01*
G01X244830D01*
X244300Y-437220D01*
X244210Y-436880D01*
G03X243520Y-434830I-13451J-3386D01*
G01X243420Y-434600D01*
X243460Y-434110D01*
X244530Y-432500D01*
G02X245370Y-432050I835J-550D01*
G01X256590D01*
G03X257590Y-431050I0J1000D01*
G01Y-414470D01*
G03X256590Y-413470I-1000J0D01*
G01X242820D01*
G02X241820Y-412470I0J1000D01*
G01Y-412240D01*
X224780D01*
G03X223780Y-413240I0J-1000D01*
G01Y-414240D01*
G02X222780Y-415240I-1000J0D01*
G01X215620D01*
G02X214620Y-414240I0J1000D01*
G01Y-412820D01*
X214040Y-412240D01*
X213870D01*
Y-408460D01*
X214450Y-407880D01*
X214620D01*
Y-387840D01*
G03X213620Y-386840I-1000J0D01*
G01X201050D01*
X200530Y-386460D01*
X200430Y-386160D01*
G03X199520Y-384680I-3583J-1183D01*
G01X118830Y-303990D01*
G02X118070Y-302170I1818J1828D01*
G01Y206930D01*
G03X115110Y214080I-10122J-3D01*
G01X74380Y254810D01*
G03X67230Y257770I-7153J-7162D01*
G01X56870D01*
G02X55870Y258770I0J1000D01*
G01Y263520D01*
G03X54870Y264520I-1000J0D01*
G01X42950D01*
G02X41950Y265520I0J1000D01*
G01Y265680D01*
X42000Y265840D01*
G02X42630Y266840I2439J-838D01*
G01X44370Y268590D01*
G02X45080Y268880I704J-710D01*
G01X54870D01*
G03X55870Y269880I0J1000D01*
G01Y288920D01*
G03X54870Y289920I-1000J0D01*
G01X40330D01*
G03X39330Y288920I0J-1000D01*
G01Y274620D01*
G02X39040Y273920I-1000J4D01*
G01X38570Y273450D01*
G02X37480Y273240I-702J711D01*
G01X37200Y273350D01*
X36870Y273850D01*
Y288920D01*
G03X35870Y289920I-1000J0D01*
G01X21330D01*
G03X20330Y288920I0J-1000D01*
G01Y284170D01*
G02X19330Y283170I-1000J0D01*
G01X11300D01*
G02X10380Y283780I1J1000D01*
G03X-10380I-10380J-4380D01*
G02X-11300Y283170I-921J390D01*
G01X-39500D01*
G02X-40420Y283780I1J1000D01*
G03Y275020I-10380J-4380D01*
G02X-39500Y275630I921J-390D01*
G01X-11300D01*
G02X-10380Y275020I-1J-1000D01*
G03X10380I10380J4380D01*
G02X11300Y275630I921J-390D01*
G01X19330D01*
G02X20330Y274630I0J-1000D01*
G01Y269880D01*
G03X21330Y268880I1000J0D01*
G01X32470D01*
G02X33230Y268530I0J-1000D01*
G01X34220Y267380D01*
G02X34450Y266580I-759J-651D01*
G01Y266570D01*
G03X34340Y265470I10000J-1555D01*
G01X34320Y265070D01*
X33750Y264520D01*
X21330D01*
G03X20330Y263520I0J-1000D01*
G01Y249310D01*
G02X19820Y248430I-1002J-7D01*
G02X18560Y248110I-1245J2263D01*
G01X18370D01*
G03X11210Y245150I-7J-10122D01*
G01X6230Y240160D01*
G02X5530Y239870I-704J710D01*
G01X-10270D01*
G03X-11270Y238870I0J-1000D01*
G01Y233370D01*
G02X-12270Y232370I-1000J0D01*
G01X-38530D01*
G02X-39530Y233370I0J1000D01*
G01Y238870D01*
G03X-40530Y239870I-1000J0D01*
G01X-61070D01*
G03X-62070Y238870I0J-1000D01*
G01Y218330D01*
G03X-61070Y217330I1000J0D01*
G01X-40530D01*
G03X-39530Y218330I0J1000D01*
G01Y223830D01*
G02X-38530Y224830I1000J0D01*
G01X-12270D01*
G02X-11270Y223830I0J-1000D01*
G01Y218330D01*
G03X-10270Y217330I1000J0D01*
G01X6390D01*
G02X7320Y216710I4J-1001D01*
G01X7430Y216430D01*
X7320Y215850D01*
X5330Y213860D01*
G02X4250Y213640I-706J706D01*
G01X4240D01*
G03X-10380Y207580I-4238J-10441D01*
G02X-11300Y206970I-921J390D01*
G01X-39500D01*
G02X-40420Y207580I1J1000D01*
G03X-60410Y197310I-10385J-4377D01*
G01X-60260Y197070D01*
X-60250Y196540D01*
X-61240Y194780D01*
G02X-62110Y194270I-872J491D01*
G01X-63500D01*
G02X-66080Y196850I0J2580D01*
G01Y247650D01*
G02X-63500Y250230I2580J0D01*
G01X-62100D01*
G02X-61180Y249620I-1J-1000D01*
G03X-40420I10380J4380D01*
G02X-39500Y250230I921J-390D01*
G01X-11300D01*
G02X-10380Y249620I-1J-1000D01*
G03Y258380I10380J4380D01*
G02X-11300Y257770I-921J390D01*
G01X-39500D01*
G02X-40420Y258380I1J1000D01*
G03X-61180I-10380J-4380D01*
G02X-62100Y257770I-921J390D01*
G01X-63500D01*
G03X-73620Y247650I0J-10120D01*
G01Y196850D01*
G03X-63500Y186730I10120J0D01*
G01X-62110D01*
G02X-61240Y186220I-2J-1001D01*
G01X-60250Y184460D01*
X-60260Y183930D01*
X-60410Y183690D01*
G03X-40420Y173420I9605J-5893D01*
G02X-39500Y174030I921J-390D01*
G01X-11300D01*
G02X-10380Y173420I-1J-1000D01*
G03X10380I10380J4380D01*
G02X11300Y174030I921J-390D01*
G01X19330D01*
G02X20330Y173030I0J-1000D01*
G01Y168280D01*
G03X21330Y167280I1000J0D01*
G01X35870D01*
G03X36870Y168280I0J1000D01*
G01Y187320D01*
G03X35870Y188320I-1000J0D01*
G01X23710D01*
G02X22780Y188940I-4J1001D01*
G01X22670Y189220D01*
X22780Y189800D01*
X25370Y192390D01*
G02X26070Y192680I704J-710D01*
G01X35870D01*
G03X36870Y193680I0J1000D01*
G01Y211660D01*
G02X37870Y212660I1000J0D01*
G01X38060D01*
X38250Y212590D01*
G03X38640Y212440I2444J5774D01*
G01X38950Y212340D01*
X39330Y211820D01*
Y193680D01*
G03X40330Y192680I1000J0D01*
G01X54870D01*
G03X55870Y193680I0J1000D01*
G01Y198430D01*
G02X56870Y199430I1000J0D01*
G01X73570D01*
G02X75390Y198670I-8J-2578D01*
G01X84370Y189690D01*
G02X85130Y187870I-1818J-1828D01*
G01Y-537860D01*
G03X88090Y-545010I10122J3D01*
G01X182190Y-639100D01*
G02X182480Y-639800I-710J-704D01*
G01Y-639840D01*
G02X181480Y-640840I-1000J0D01*
G01X180080D01*
G03X179080Y-641840I0J-1000D01*
G01Y-656130D01*
G02X178790Y-656840I-1000J-6D01*
G01X176990Y-658630D01*
G03X174030Y-665780I7162J-7153D01*
G01Y-750340D01*
G03X176990Y-757490I10122J3D01*
G01X185970Y-766470D01*
G03X192520Y-769410I7150J7164D01*
G02X193180Y-769710I-57J-1001D01*
G01X193590Y-770140D01*
G02X193880Y-770840I-709J-704D01*
G01Y-771180D01*
G03X194880Y-772180I1000J0D01*
G01X195110D01*
Y-779450D01*
G03X196110Y-780450I1000J0D01*
G01X209690D01*
G03X210690Y-779450I0J1000D01*
G01Y-773180D01*
G02X211690Y-772180I1000J0D01*
G01X211920D01*
Y-768110D01*
G02X212530Y-767190I1000J-1D01*
G01X214490Y-766350D01*
X215080Y-766460D01*
X215290Y-766660D01*
G03X219180Y-768950I6950J7356D01*
G01X219190D01*
G02X219880Y-769900I-311J-951D01*
G01Y-780680D01*
G03X220880Y-781680I1000J0D01*
G01X236920D01*
G03X237920Y-780680I0J1000D01*
G01Y-779930D01*
G02X238920Y-778930I1000J0D01*
G01X242200D01*
X242210D01*
G02X242670Y-779000I-20J-1680D01*
G02X243380Y-779420I-474J-1612D01*
G03X249900Y-782130I6529J6510D01*
G01X251180D01*
G02X252180Y-783130I0J-1000D01*
G01Y-783880D01*
G03X253180Y-784880I1000J0D01*
G01X253410D01*
Y-795240D01*
G02X252410Y-796240I-1000J0D01*
G01X240770D01*
G02X239770Y-795240I0J1000D01*
G01Y-794240D01*
G03X238770Y-793240I-1000J0D01*
G01X222730D01*
G03X221730Y-794240I0J-1000D01*
G01Y-794470D01*
X206960D01*
G03X205960Y-795470I0J-1000D01*
G01Y-812050D01*
G03X206960Y-813050I1000J0D01*
G01X220730D01*
G02X221730Y-814050I0J-1000D01*
G01Y-814280D01*
X222230D01*
G02X223230Y-815280I0J-1000D01*
G01Y-817910D01*
X222650Y-818490D01*
X222380D01*
Y-851530D01*
G03X223380Y-852530I1000J0D01*
G01X241070D01*
G02X241690Y-852750I-6J-1000D01*
G03X250280Y-855730I8590J10890D01*
G01X262460D01*
G02X262900Y-855830I4J-1001D01*
G03X270220Y-855970I3807J7621D01*
G02X271180Y-856040I416J-908D01*
G01X272590Y-856940D01*
G02X273050Y-857790I-541J-842D01*
G01Y-940230D01*
G02X272590Y-941080I-1001J-8D01*
G01X271180Y-941980D01*
G02X270220Y-942050I-544J838D01*
G03X258620Y-947110I-3519J-7759D01*
G01X258550Y-947330D01*
X257530Y-948350D01*
G02X256830Y-948640I-704J710D01*
G01X247120D01*
G02X246120Y-947640I0J1000D01*
G01Y-946640D01*
G03X245120Y-945640I-1000J0D01*
G01X244830D01*
X244300Y-945220D01*
X244210Y-944880D01*
G03X243520Y-942830I-13451J-3386D01*
G01X243420Y-942600D01*
X243460Y-942110D01*
X244530Y-940500D01*
G02X245370Y-940050I835J-550D01*
G01X256590D01*
G03X257590Y-939050I0J1000D01*
G01Y-922470D01*
G03X256590Y-921470I-1000J0D01*
G01X242820D01*
G02X241820Y-920470I0J1000D01*
G01Y-920240D01*
X224780D01*
G03X223780Y-921240I0J-1000D01*
G01Y-922240D01*
G02X222780Y-923240I-1000J0D01*
G01X215620D01*
G02X214620Y-922240I0J1000D01*
G01Y-921240D01*
G03X213620Y-920240I-1000J0D01*
G01X200950D01*
G02X199950Y-919240I0J1000D01*
G01Y-919060D01*
X200010Y-918900D01*
G03X200270Y-918080I-9510J3467D01*
G02X201240Y-917340I966J-260D01*
G01X212390D01*
G03X213390Y-916340I0J1000D01*
G01Y-899760D01*
G03X212390Y-898760I-1000J0D01*
G01X201620D01*
G02X200620Y-897760I0J1000D01*
G01Y-895350D01*
G03X199520Y-892680I-3773J7D01*
G01X80730Y-773890D01*
G02X79970Y-772070I1818J1828D01*
G01Y162480D01*
G03X77010Y169630I-10122J-3D01*
G01X68030Y178610D01*
G03X60880Y181570I-7153J-7162D01*
G01X56870D01*
G02X55870Y182570I0J1000D01*
G01Y187320D01*
G03X54870Y188320I-1000J0D01*
G01X40330D01*
G03X39330Y187320I0J-1000D01*
G01Y168280D01*
G03X40330Y167280I1000J0D01*
G01X54870D01*
G03X55870Y168280I0J1000D01*
G01Y173030D01*
G02X56870Y174030I1000J0D01*
G01X60870D01*
G02X62690Y173270I-8J-2578D01*
G01X71670Y164290D01*
G02X72430Y162470I-1818J-1828D01*
G01Y145530D01*
G02X71810Y144610I-999J4D01*
G01X70720Y144160D01*
G03X70660Y144230I-7715J-6552D01*
G01X61680Y153210D01*
G03X56660Y155940I-7149J-7165D01*
G02X55870Y156920I210J978D01*
G01Y161920D01*
G03X54870Y162920I-1000J0D01*
G01X40330D01*
G03X39330Y161920I0J-1000D01*
G01Y147160D01*
G02X38710Y146230I-1001J-4D01*
G01X38430Y146120D01*
X37850Y146230D01*
X37160Y146920D01*
G02X36870Y147620I710J704D01*
G01Y161920D01*
G03X35870Y162920I-1000J0D01*
G01X21330D01*
G03X20330Y161920I0J-1000D01*
G01Y141600D01*
G02X19740Y140690I-1001J3D01*
G01X19480Y140570D01*
X18900Y140660D01*
X10950Y147710D01*
G02X10670Y148780I668J746D01*
G03X-10380Y156780I-10669J3620D01*
G02X-11300Y156170I-921J390D01*
G01X-39500D01*
G02X-40420Y156780I1J1000D01*
G03Y148020I-10380J-4380D01*
G02X-39500Y148630I921J-390D01*
G01X-11300D01*
G02X-10380Y148020I-1J-1000D01*
G03X4850Y142230I10381J4381D01*
G02X5940Y142070I424J-904D01*
G01X19990Y129600D01*
G02X20330Y128850I-660J-751D01*
G01Y117480D01*
G03X21330Y116480I1000J0D01*
G01X32220D01*
G02X33220Y115480I0J-1000D01*
G01Y114870D01*
G02X31750Y114410I-1470J2119D01*
G01X18990D01*
G02X17170Y115170I8J2578D01*
G01X10660Y121670D01*
G02X10440Y122750I706J706D01*
G01Y122760D01*
G03X-10380Y131380I-10439J4240D01*
G02X-11300Y130770I-921J390D01*
G01X-39500D01*
G02X-40420Y131380I1J1000D01*
G03Y122620I-10380J-4380D01*
G02X-39500Y123230I921J-390D01*
G01X-11300D01*
G02X-10380Y122620I-1J-1000D01*
G03X4240Y116560I10382J4381D01*
G01X4250D01*
G02X5330Y116340I374J-926D01*
G01X11830Y109830D01*
G03X18980Y106870I7153J7162D01*
G01X31750D01*
G03X41780Y115620I0J10124D01*
G01X41830Y115980D01*
X42390Y116480D01*
X54870D01*
G03X55870Y117480I0J1000D01*
G01Y122230D01*
G02X56870Y123230I1000J0D01*
G01X57150D01*
G02X59730Y120650I0J-2580D01*
G01Y-784780D01*
G03X62690Y-791930I10122J3D01*
G01X160570Y-889810D01*
G02X161330Y-891630I-1818J-1828D01*
G01Y-1026080D01*
G03X164290Y-1033230I10122J3D01*
G01X167640Y-1036570D01*
X167770Y-1036840D01*
X167800Y-1037000D01*
G03X169120Y-1040530I9591J1575D01*
G01Y-1040540D01*
X169270Y-1040770D01*
Y-1041290D01*
X168290Y-1043070D01*
G02X167410Y-1043580I-873J492D01*
G01X161030D01*
G03X160030Y-1044580I0J-1000D01*
G01Y-1063620D01*
G03X161030Y-1064620I1000J0D01*
G01X175570D01*
G03X176570Y-1063620I0J1000D01*
G01Y-1049320D01*
G02X176860Y-1048620I1000J-4D01*
G01X177330Y-1048150D01*
G02X178420Y-1047940I702J-711D01*
G01X178700Y-1048050D01*
X179030Y-1048550D01*
Y-1063620D01*
G03X180030Y-1064620I1000J0D01*
G01X194570D01*
G03X195570Y-1063620I0J1000D01*
G01Y-1061370D01*
G02X196570Y-1060370I1000J0D01*
G01X222920D01*
G02X223760Y-1060830I-2J-1000D01*
G01X224080Y-1061330D01*
G02X224180Y-1062240I-834J-552D01*
G03X224030Y-1062630I12868J-5173D01*
G01X222730D01*
G03X221730Y-1063630I0J-1000D01*
G01Y-1063860D01*
X206960D01*
G03X205960Y-1064860I0J-1000D01*
G01Y-1081440D01*
G03X206960Y-1082440I1000J0D01*
G01X220730D01*
G02X221730Y-1083440I0J-1000D01*
G01Y-1083670D01*
X221800D01*
X222380Y-1084250D01*
Y-1118230D01*
G03X223380Y-1119230I1000J0D01*
G01X239420D01*
G03X240420Y-1118230I0J1000D01*
G01Y-1110730D01*
G02X241420Y-1109730I1000J0D01*
G01X262460D01*
G02X262900Y-1109830I4J-1001D01*
G03X270220Y-1109970I3807J7621D01*
G02X271180Y-1110040I416J-908D01*
G01X272590Y-1110940D01*
G02X273050Y-1111790I-541J-842D01*
G01Y-1131650D01*
G02X268050Y-1136650I-5000J0D01*
G01X151050D01*
G37*
G36*
G01X-40630Y616470D02*
G03X-43150Y619200I-10174J-6863D01*
G01X-43590Y619540D01*
X-44080Y620520D01*
X-44230Y625440D01*
X-43810Y626440D01*
X-43390Y626810D01*
G03Y643190I-7410J8190D01*
G01X-43810Y643560D01*
X-44230Y644560D01*
X-44080Y649480D01*
X-43590Y650460D01*
X-43150Y650800D01*
G03X-39820Y665870I-7651J9594D01*
G01X-40110Y666460D01*
X-40050Y667750D01*
X-37470Y671920D01*
G02X-35340Y673100I2124J-1321D01*
G01X-15460D01*
G02X-13330Y671920I6J-2501D01*
G01X-10750Y667750D01*
X-10690Y666460D01*
X-10980Y665870D01*
G03X-7650Y650800I10981J-5476D01*
G01X-7210Y650460D01*
X-6720Y649480D01*
X-6570Y644560D01*
X-6990Y643560D01*
X-7410Y643190D01*
G03Y626810I7410J-8190D01*
G01X-6990Y626440D01*
X-6570Y625440D01*
X-6720Y620520D01*
X-7210Y619540D01*
X-7650Y619200D01*
G03X-10170Y616470I7654J-9593D01*
G02X-12240Y615370I-2071J1399D01*
G01X-38560D01*
G02X-40630Y616470I1J2499D01*
G37*
G36*
G01X246120Y-693640D02*
Y-692640D01*
G03X245120Y-691640I-1000J0D01*
G01X244830D01*
X244290Y-691220D01*
X244210Y-690880D01*
G03X243520Y-688830I-13451J-3386D01*
G01X243420Y-688590D01*
X243470Y-688100D01*
X244530Y-686500D01*
G02X245360Y-686050I835J-549D01*
G01X256590D01*
G03X257590Y-685050I0J1000D01*
G01Y-668470D01*
G03X256590Y-667470I-1000J0D01*
G01X242820D01*
G02X241820Y-666470I0J1000D01*
G01Y-666240D01*
X224780D01*
G03X223780Y-667240I0J-1000D01*
G01Y-668240D01*
G02X222780Y-669240I-1000J0D01*
G01X215620D01*
G02X214620Y-668240I0J1000D01*
G01Y-666820D01*
X214040Y-666240D01*
X213870D01*
Y-662460D01*
X214450Y-661880D01*
X214620D01*
Y-641840D01*
G03X213620Y-640840I-1000J0D01*
G01X201040D01*
X200530Y-640470D01*
X200430Y-640160D01*
G03X199520Y-638680I-3583J-1183D01*
G01X99780Y-538940D01*
G02X99020Y-537120I1818J1828D01*
G01Y194220D01*
G03X96060Y201380I-10122J7D01*
G01X87080Y210360D01*
G03X79920Y213320I-7153J-7162D01*
G01X66130D01*
G02X64310Y214080I8J2578D01*
G01X61680Y216710D01*
G03X56660Y219440I-7149J-7165D01*
G01X56310Y219520D01*
X55870Y220060D01*
Y223830D01*
G02X56870Y224830I1000J0D01*
G01X79920D01*
G02X81740Y224070I-8J-2578D01*
G01X103420Y202390D01*
G02X104180Y200570I-1818J-1828D01*
G01Y-304800D01*
G03X107140Y-311960I10122J-7D01*
G01X180330Y-385140D01*
G02X180540Y-386230I-712J-702D01*
G01X180430Y-386510D01*
X179930Y-386840D01*
X179660D01*
X179080Y-387420D01*
Y-402130D01*
G02X178790Y-402840I-1000J-6D01*
G01X176990Y-404630D01*
G03X174030Y-411790I7162J-7153D01*
G01Y-496330D01*
G03X176990Y-503490I10122J-7D01*
G01X185970Y-512470D01*
G03X192520Y-515410I7150J7164D01*
G02X193180Y-515710I-56J-999D01*
G01X193600Y-516140D01*
G02X193880Y-516830I-720J-694D01*
G01Y-517180D01*
G03X194880Y-518180I1000J0D01*
G01X195110D01*
Y-525450D01*
G03X196110Y-526450I1000J0D01*
G01X209690D01*
G03X210690Y-525450I0J1000D01*
G01Y-519180D01*
G02X211690Y-518180I1000J0D01*
G01X211920D01*
Y-514110D01*
G02X212520Y-513190I1002J2D01*
G01X214490Y-512350D01*
X215070Y-512450D01*
X215290Y-512660D01*
G03X219180Y-514950I6950J7356D01*
G01X219500Y-515050D01*
X219880Y-515580D01*
Y-526680D01*
G03X220880Y-527680I1000J0D01*
G01X236920D01*
G03X237920Y-526680I0J1000D01*
G01Y-525930D01*
G02X238920Y-524930I1000J0D01*
G01X242200D01*
G02X242830Y-525050I6J-1682D01*
G01X242840Y-525060D01*
G02X243380Y-525420I-645J-1552D01*
G03X249900Y-528130I6529J6510D01*
G01X251180D01*
G02X252180Y-529130I0J-1000D01*
G01Y-529880D01*
G03X253180Y-530880I1000J0D01*
G01X253410D01*
Y-541240D01*
G02X252410Y-542240I-1000J0D01*
G01X240770D01*
G02X239770Y-541240I0J1000D01*
G01Y-540240D01*
G03X238770Y-539240I-1000J0D01*
G01X222730D01*
G03X221730Y-540240I0J-1000D01*
G01Y-540470D01*
X206960D01*
G03X205960Y-541470I0J-1000D01*
G01Y-558050D01*
G03X206960Y-559050I1000J0D01*
G01X220730D01*
G02X221730Y-560050I0J-1000D01*
G01Y-560280D01*
X222230D01*
G02X223230Y-561280I0J-1000D01*
G01Y-563910D01*
X222650Y-564490D01*
X222380D01*
Y-597530D01*
G03X223380Y-598530I1000J0D01*
G01X241060D01*
G02X241680Y-598750I-5J-998D01*
G03X250280Y-601730I8591J10892D01*
G01X262450D01*
G02X262900Y-601840I-6J-999D01*
G03X270220Y-601970I3797J7629D01*
G01X270460Y-601860D01*
X270960Y-601900D01*
X272590Y-602950D01*
G02X273050Y-603790I-539J-841D01*
G01Y-686230D01*
G02X272590Y-687070I-999J1D01*
G01X270960Y-688120D01*
X270460Y-688160D01*
X270220Y-688050D01*
G03X258620Y-693110I-3519J-7759D01*
G01X258550Y-693330D01*
X257530Y-694350D01*
G02X256820Y-694640I-705J711D01*
G01X247120D01*
G02X246120Y-693640I0J1000D01*
G37*
G36*
G01X81490Y232250D02*
X81170Y232290D01*
G03X79920Y232370I-1270J-10039D01*
G01X56870D01*
G02X55870Y233370I0J1000D01*
G01Y238120D01*
G03X54870Y239120I-1000J0D01*
G01X42870D01*
G02X41870Y240120I0J1000D01*
G01Y242480D01*
G02X42870Y243480I1000J0D01*
G01X54870D01*
G03X55870Y244480I0J1000D01*
G01Y249230D01*
G02X56870Y250230I1000J0D01*
G01X67220D01*
G02X69040Y249470I-8J-2578D01*
G01X82830Y235690D01*
G02X83020Y234550I-710J-704D01*
G01X82050Y232560D01*
X81490Y232250D01*
G37*
G36*
G01X270840Y-228600D02*
G02X263770Y-225670I2J10000D01*
G01X218830Y-180730D01*
G02X215900Y-173660I7070J7072D01*
G01Y421310D01*
G03X212970Y428380I-10000J-2D01*
G01X206130Y435220D01*
G03X199060Y438150I-7072J-7070D01*
G01X11820D01*
G02X9820Y439150I1J2501D01*
G03X8310Y440820I-9815J-7357D01*
G02X7510Y442660I1701J1834D01*
G01Y446340D01*
G02X8310Y448180I2501J6D01*
G03X10170Y450330I-8286J9048D01*
G02X12240Y451430I2071J-1399D01*
G01X16830D01*
G02X19330Y448930I0J-2500D01*
G01Y448180D01*
G03X21830Y445680I2500J0D01*
G01X54370D01*
G03X56870Y448180I0J2500D01*
G01Y448930D01*
G02X59370Y451430I2500J0D01*
G01X209610D01*
G02X210020Y451260I0J-580D01*
G01X222660Y438620D01*
G02X222830Y438210I-410J-410D01*
G01Y-123920D01*
G03X225330Y-126420I2500J0D01*
G01X226670D01*
G02X228440Y-127150I4J-2500D01*
G01X272270Y-170980D01*
G03X280840Y-174530I8570J8570D01*
G01X289180D01*
G02X291680Y-177030I0J-2500D01*
G01Y-187720D01*
G02X289180Y-190220I-2500J0D01*
G01X281510D01*
G03X279010Y-192720I0J-2500D01*
G01Y-208300D01*
G03X281510Y-210800I2500J0D01*
G01X293550D01*
X294780Y-212030D01*
X295280D01*
Y-215900D01*
G03X296730Y-220950I9519J0D01*
G01X297090Y-221530D01*
X297130Y-222890D01*
X294680Y-227310D01*
G02X292490Y-228600I-2188J1211D01*
G01X270840D01*
G37*
G36*
G01X280840Y-162990D02*
G02X280430Y-162820I0J580D01*
G01X235100Y-117490D01*
G02X234370Y-115720I1770J1766D01*
G01Y438210D01*
G03X230820Y446780I-12120J0D01*
G01X218180Y459420D01*
G03X209610Y462970I-8570J-8570D01*
G01X59370D01*
G02X56870Y465470I0J2500D01*
G01Y474330D01*
G02X59370Y476830I2500J0D01*
G01X213270D01*
G02X213680Y476660I0J-580D01*
G01X241710Y448630D01*
G02X241880Y448220I-410J-410D01*
G01Y46670D01*
G03X245430Y38100I12120J0D01*
G01X270360Y13170D01*
G03X278930Y9620I8570J8570D01*
G01X289180D01*
G02X291680Y7120I0J-2500D01*
G01Y-3570D01*
G02X289180Y-6070I-2500J0D01*
G01X281510D01*
G03X279010Y-8570I0J-2500D01*
G01Y-24150D01*
G03X281510Y-26650I2500J0D01*
G01X293550D01*
X294780Y-27880D01*
X295280D01*
Y-31750D01*
G03X305690Y-41230I9522J0D01*
G01X306220Y-41180D01*
X307210Y-41510D01*
X310330Y-44360D01*
G02X311150Y-46210I-1679J-1851D01*
G01Y-147020D01*
G02X308650Y-149520I-2500J0D01*
G01X295410D01*
G03X292910Y-152020I0J-2500D01*
G01Y-159760D01*
X292410Y-160260D01*
G03X291680Y-162030I1770J-1766D01*
G01X290720Y-162990D01*
X280840D01*
G37*
G36*
G01X278930Y21160D02*
G02X278520Y21330I0J580D01*
G01X253590Y46260D01*
G02X253420Y46670I410J410D01*
G01Y448220D01*
G03X249870Y456790I-12120J0D01*
G01X221840Y484820D01*
G03X213270Y488370I-8570J-8570D01*
G01X59370D01*
G02X56870Y490870I0J2500D01*
G01Y499730D01*
G02X59370Y502230I2500J0D01*
G01X219620D01*
G02X220030Y502060I0J-580D01*
G01X260760Y461330D01*
G02X260930Y460920I-410J-410D01*
G01Y199480D01*
G03X264480Y190910I12120J0D01*
G01X270770Y184620D01*
G03X279340Y181070I8570J8570D01*
G01X288780D01*
G02X291280Y178570I0J-2500D01*
G01Y167880D01*
G02X288780Y165380I-2500J0D01*
G01X281510D01*
G03X279010Y162880I0J-2500D01*
G01Y147300D01*
G03X281510Y144800I2500J0D01*
G01X293550D01*
X294780Y143570D01*
X295280D01*
Y139700D01*
G03X305690Y130220I9522J0D01*
G01X306220Y130270D01*
X307210Y129940D01*
X310330Y127090D01*
G02X311150Y125240I-1679J-1851D01*
G01Y37130D01*
G02X308650Y34630I-2500J0D01*
G01X295410D01*
G03X292910Y32130I0J-2500D01*
G01Y24390D01*
X292410Y23890D01*
G03X291680Y22120I1770J-1766D01*
G01X290720Y21160D01*
X278930D01*
G37*
G36*
G01X279340Y192610D02*
G02X278930Y192780I0J580D01*
G01X272640Y199070D01*
G02X272470Y199480I410J410D01*
G01Y460920D01*
G03X268920Y469490I-12120J0D01*
G01X228190Y510220D01*
G03X219620Y513770I-8570J-8570D01*
G01X59370D01*
G02X56870Y516270I0J2500D01*
G01Y525130D01*
G02X59370Y527630I2500J0D01*
G01X301370D01*
G02X303140Y526900I4J-2500D01*
G01X317910Y512130D01*
G03X326480Y508580I8570J8570D01*
G01X356620D01*
X358080Y507120D01*
Y506830D01*
X359310Y505600D01*
Y485160D01*
G03X361810Y482660I2500J0D01*
G01X383390D01*
G03X385890Y485160I0J2500D01*
G01Y505600D01*
X386390Y506100D01*
G03X387120Y507870I-1770J1766D01*
G01Y520640D01*
X386620Y521140D01*
G02X385890Y522910I1770J1766D01*
G01Y531000D01*
X386390Y531500D01*
G03X387120Y533270I-1770J1766D01*
G01Y546040D01*
X386620Y546540D01*
G02X385890Y548310I1770J1766D01*
G01Y556400D01*
X386390Y556900D01*
G03X387120Y558670I-1770J1766D01*
G01Y571440D01*
X386620Y571940D01*
G02X385890Y573710I1770J1766D01*
G01Y581800D01*
X386390Y582300D01*
G03X387120Y584070I-1770J1766D01*
G01Y595570D01*
G03X384620Y598070I-2500J0D01*
G01X359540D01*
X358080Y596610D01*
Y596320D01*
X346330D01*
G02X344560Y597050I-4J2500D01*
G01X329790Y611820D01*
G03X321220Y615370I-8570J-8570D01*
G01X59370D01*
G02X56870Y617870I0J2500D01*
G01Y618620D01*
G03X54370Y621120I-2500J0D01*
G01X21830D01*
G03X19330Y618620I0J-2500D01*
G01Y617870D01*
G02X16830Y615370I-2500J0D01*
G01X12240D01*
G02X10170Y616470I1J2499D01*
G03X7650Y619200I-10174J-6863D01*
G01X7210Y619540D01*
X6720Y620520D01*
X6570Y625440D01*
X6990Y626440D01*
X7410Y626810D01*
G03X7720Y642890I-7409J8186D01*
G02X7100Y645460I1752J1782D01*
G01X7490Y646660D01*
G02X9870Y648380I2376J-780D01*
G01X13040D01*
G02X14800Y647650I-5J-2500D01*
G01X20150Y642300D01*
G02X20880Y640540I-1770J-1765D01*
G01Y635430D01*
G03X23380Y632930I2500J0D01*
G01X47920D01*
G03X50420Y635430I0J2500D01*
G01Y659970D01*
G03X47920Y662470I-2500J0D01*
G01X35010D01*
G02X33250Y663200I5J2500D01*
G01X29410Y667040D01*
G03X28840Y667590I-13039J-12942D01*
G02X28160Y670230I1687J1842D01*
G01X28560Y671400D01*
G02X30920Y673100I2368J-799D01*
G01X57330D01*
X57690Y672990D01*
G03X69310I5810J19160D01*
G01X69670Y673100D01*
X555150D01*
G02X565150Y663100I0J-10000D01*
G01Y661260D01*
G02X564350Y659420I-2501J-7D01*
G01X561270Y656570D01*
X560280Y656230D01*
X559760Y656270D01*
G03X549020Y651460I-968J-12233D01*
G02X547310Y650480I-1997J1502D01*
G03X539630Y646790I1419J-12791D01*
G01X490640Y597800D01*
G02X488870Y597070I-1766J1770D01*
G01X481120D01*
X480850Y597340D01*
G03X479080Y598070I-1766J-1770D01*
G01X453580D01*
G03X451080Y595570I0J-2500D01*
G01Y483930D01*
G03X453580Y481430I2500J0D01*
G01X459330D01*
X460030Y481220D01*
X460340Y481010D01*
G03X465600Y479430I5253J7942D01*
G01X482600D01*
G03X491980Y487310I0J9523D01*
G01X492100Y488010D01*
X493010Y489050D01*
X497920Y490600D01*
G02X500440Y489980I749J-2386D01*
G01X500750Y489670D01*
G02X501480Y487900I-1770J-1766D01*
G01Y392670D01*
G03X505250Y383570I12870J1D01*
G01X546340Y342480D01*
X546710Y341400D01*
X546630Y340810D01*
G03X559760Y327010I12169J-1568D01*
G01X560280Y327050D01*
X561270Y326710D01*
X564350Y323860D01*
G02X565150Y322020I-1701J-1833D01*
G01Y303210D01*
G02X562650Y300710I-2500J0D01*
G01X549030D01*
G03X546530Y298210I0J-2500D01*
G01Y281900D01*
G02X544030Y279400I-2500J0D01*
G01X321150D01*
G03X311150Y269400I0J-10000D01*
G01Y208580D01*
G02X308650Y206080I-2500J0D01*
G01X295010D01*
G03X292510Y203580I0J-2500D01*
G01Y195840D01*
X292010Y195340D01*
G03X291280Y193570I1770J-1766D01*
G01X290320Y192610D01*
X279340D01*
G37*
G36*
G01X325510Y520850D02*
X310740Y535620D01*
G03X302170Y539170I-8570J-8570D01*
G01X59370D01*
G02X56870Y541670I0J2500D01*
G01Y550530D01*
G02X59370Y553030I2500J0D01*
G01X307720D01*
G02X309490Y552300I4J-2500D01*
G01X324260Y537530D01*
G03X332830Y533980I8570J8570D01*
G01X356620D01*
X358080Y532520D01*
Y532230D01*
X359310Y531000D01*
Y523100D01*
X358810Y522600D01*
G03X358080Y520830I1770J-1766D01*
G01Y520120D01*
X327280D01*
G02X325510Y520850I-4J2500D01*
G37*
G36*
G01X331860Y546250D02*
X317090Y561020D01*
G03X308520Y564570I-8570J-8570D01*
G01X59370D01*
G02X56870Y567070I0J2500D01*
G01Y575930D01*
G02X59370Y578430I2500J0D01*
G01X314070D01*
G02X315840Y577700I4J-2500D01*
G01X330610Y562930D01*
G03X339180Y559380I8570J8570D01*
G01X356620D01*
X358080Y557920D01*
Y557630D01*
X359310Y556400D01*
Y548500D01*
X358810Y548000D01*
G03X358080Y546230I1770J-1766D01*
G01Y545520D01*
X333630D01*
G02X331860Y546250I-4J2500D01*
G37*
G36*
G01X338210Y571650D02*
X323440Y586420D01*
G03X314870Y589970I-8570J-8570D01*
G01X59370D01*
G02X56870Y592470I0J2500D01*
G01Y601330D01*
G02X59370Y603830I2500J0D01*
G01X320420D01*
G02X322190Y603100I4J-2500D01*
G01X336960Y588330D01*
G03X345530Y584780I8570J8570D01*
G01X356620D01*
X358080Y583320D01*
Y583030D01*
X359310Y581800D01*
Y573900D01*
X358810Y573400D01*
G03X358080Y571630I1770J-1766D01*
G01Y570920D01*
X339980D01*
G02X338210Y571650I-4J2500D01*
G37*
G36*
G01X210240Y-1038180D02*
X209990Y-1038100D01*
G03X206980Y-1037630I-3028J-9519D01*
G01X177400D01*
G02X175220Y-1035450I0J2180D01*
G01Y-1033900D01*
G03X174930Y-1033200I-1000J-4D01*
G01X169630Y-1027890D01*
G02X168870Y-1026070I1818J1828D01*
G01Y-891630D01*
G03X168790Y-890380I-10119J-20D01*
G01X168750Y-890060D01*
X169060Y-889500D01*
X171050Y-888530D01*
G02X172190Y-888720I436J-900D01*
G01X179300Y-895830D01*
G02X179510Y-896920I-712J-702D01*
G01X179260Y-897530D01*
X179080D01*
Y-912820D01*
G02X178790Y-913530I-1000J-6D01*
G01X176990Y-915320D01*
G03X174030Y-922480I7162J-7153D01*
G01Y-1000670D01*
G03X176990Y-1007830I10122J-7D01*
G01X189630Y-1020470D01*
G03X193230Y-1022780I7143J7171D01*
G01X193520Y-1022890D01*
X193880Y-1023410D01*
Y-1025180D01*
G03X194880Y-1026180I1000J0D01*
G01X195110D01*
Y-1033450D01*
G03X196110Y-1034450I1000J0D01*
G01X211890D01*
X212450Y-1034950D01*
X212490Y-1035330D01*
G03X212570Y-1035840I8699J1103D01*
G01X212610Y-1036100D01*
X212440Y-1036590D01*
X210760Y-1038070D01*
X210240Y-1038180D01*
G37*
G36*
G01X192400Y-1012560D02*
X182330Y-1002490D01*
G02X181570Y-1000670I1818J1828D01*
G01Y-942280D01*
G02X182570Y-941280I1000J0D01*
G01X185720D01*
G02X186720Y-942180I4J-1001D01*
G02X186730Y-942430I-2571J-228D01*
G01Y-985560D01*
G03X189690Y-992720I10122J-7D01*
G01X193900Y-996930D01*
G03X196570Y-998030I2663J2673D01*
G01X209550D01*
G02X212130Y-1000610I0J-2580D01*
G01Y-1002640D01*
G02X211130Y-1003640I-1000J0D01*
G01X194880D01*
G03X193880Y-1004640I0J-1000D01*
G01Y-1011640D01*
G02X193260Y-1012560I-998J4D01*
G01X192980Y-1012680D01*
X192400Y-1012560D01*
G37*
G36*
G01X210400Y-990520D02*
X210180Y-990510D01*
G03X209550Y-990490I-636J-10100D01*
G01X198550D01*
G02X197840Y-990200I-6J1000D01*
G01X195030Y-987380D01*
G02X194270Y-985560I1818J1828D01*
G01Y-942430D01*
Y-942290D01*
Y-942280D01*
G02X195270Y-941280I1000J0D01*
G01X195620Y-940930D01*
Y-925040D01*
G02X195910Y-924330I1000J6D01*
G01X196380Y-923860D01*
G02X197470Y-923650I702J-712D01*
G01X197750Y-923760D01*
X198080Y-924260D01*
Y-940280D01*
G03X199080Y-941280I1000J0D01*
G01X213620D01*
G03X214620Y-940280I0J1000D01*
G01Y-939280D01*
G02X215620Y-938280I1000J0D01*
G01X222780D01*
G02X223780Y-939280I0J-1000D01*
G01Y-940280D01*
G03X224780Y-941280I1000J0D01*
G01X225070D01*
X225610Y-941700D01*
X225690Y-942040D01*
G03X226380Y-944090I13451J3386D01*
G01X226480Y-944330D01*
X226430Y-944820D01*
X225370Y-946420D01*
G02X224540Y-946870I-835J549D01*
G01X213310D01*
G03X212310Y-947870I0J-1000D01*
G01Y-964450D01*
G03X213310Y-965450I1000J0D01*
G01X227080D01*
G02X228080Y-966450I0J-1000D01*
G01Y-966680D01*
X228580D01*
G02X229580Y-967680I0J-1000D01*
G01Y-970040D01*
G02X228580Y-971040I-1000J0D01*
G01X228080Y-971540D01*
Y-971690D01*
X227500Y-972270D01*
X213310D01*
G03X212310Y-973270I0J-1000D01*
G01Y-988510D01*
G02X211990Y-989240I-998J2D01*
G01X210780Y-990390D01*
X210400Y-990520D01*
G37*
G36*
G01Y-736520D02*
X210180Y-736510D01*
G03X209550Y-736490I-636J-10100D01*
G01X193700D01*
G02X191120Y-733910I0J2580D01*
G01Y-688280D01*
G02X192120Y-687280I1000J0D01*
G01X194620D01*
G03X195620Y-686280I0J1000D01*
G01Y-671040D01*
G02X195910Y-670330I1000J6D01*
G01X196380Y-669860D01*
G02X197470Y-669650I702J-712D01*
G01X197750Y-669760D01*
X198080Y-670260D01*
Y-686280D01*
G03X199080Y-687280I1000J0D01*
G01X213620D01*
G03X214620Y-686280I0J1000D01*
G01Y-685280D01*
G02X215620Y-684280I1000J0D01*
G01X222780D01*
G02X223780Y-685280I0J-1000D01*
G01Y-686280D01*
G03X224780Y-687280I1000J0D01*
G01X225070D01*
X225610Y-687700D01*
X225690Y-688040D01*
G03X226380Y-690090I13451J3386D01*
G01X226480Y-690330D01*
X226430Y-690820D01*
X225370Y-692420D01*
G02X224540Y-692870I-835J549D01*
G01X213310D01*
G03X212310Y-693870I0J-1000D01*
G01Y-710450D01*
G03X213310Y-711450I1000J0D01*
G01X227080D01*
G02X228080Y-712450I0J-1000D01*
G01Y-712680D01*
X228580D01*
G02X229580Y-713680I0J-1000D01*
G01Y-716040D01*
G02X228580Y-717040I-1000J0D01*
G01X228080Y-717540D01*
Y-717690D01*
X227500Y-718270D01*
X213310D01*
G03X212310Y-719270I0J-1000D01*
G01Y-734510D01*
G02X211990Y-735240I-998J2D01*
G01X210780Y-736390D01*
X210400Y-736520D01*
G37*
G36*
G01Y-482520D02*
X210180Y-482510D01*
G03X209550Y-482490I-636J-10100D01*
G01X193700D01*
G02X191120Y-479910I0J2580D01*
G01Y-434280D01*
G02X192120Y-433280I1000J0D01*
G01X194620D01*
G03X195620Y-432280I0J1000D01*
G01Y-417990D01*
G02X195910Y-417280I1000J6D01*
G01X196380Y-416810D01*
G02X197470Y-416600I702J-712D01*
G01X197750Y-416710D01*
X198080Y-417210D01*
Y-432280D01*
G03X199080Y-433280I1000J0D01*
G01X213620D01*
G03X214620Y-432280I0J1000D01*
G01Y-431280D01*
G02X215620Y-430280I1000J0D01*
G01X222780D01*
G02X223780Y-431280I0J-1000D01*
G01Y-432280D01*
G03X224780Y-433280I1000J0D01*
G01X225070D01*
X225610Y-433700D01*
X225690Y-434040D01*
G03X226380Y-436090I13451J3386D01*
G01X226480Y-436330D01*
X226430Y-436820D01*
X225370Y-438420D01*
G02X224540Y-438870I-835J549D01*
G01X213310D01*
G03X212310Y-439870I0J-1000D01*
G01Y-456450D01*
G03X213310Y-457450I1000J0D01*
G01X227080D01*
G02X228080Y-458450I0J-1000D01*
G01Y-458680D01*
X228580D01*
G02X229580Y-459680I0J-1000D01*
G01Y-462040D01*
G02X228580Y-463040I-1000J0D01*
G01X228080Y-463540D01*
Y-463690D01*
X227500Y-464270D01*
X213310D01*
G03X212310Y-465270I0J-1000D01*
G01Y-480510D01*
G02X211990Y-481240I-998J2D01*
G01X210780Y-482390D01*
X210400Y-482520D01*
G37*
G36*
G01X239770Y-1085190D02*
Y-1066680D01*
G02X240060Y-1065970I1001J5D01*
G01X240460Y-1065570D01*
G02X241170Y-1065280I705J-711D01*
G01X252410D01*
G02X253410Y-1066280I0J-1000D01*
G01Y-1074750D01*
G03X254410Y-1075750I1000J0D01*
G01X272050D01*
G02X273050Y-1076750I0J-1000D01*
G01Y-1076870D01*
G02X272050Y-1077870I-1000J0D01*
G01X254410D01*
G03X253410Y-1078870I0J-1000D01*
G01Y-1087450D01*
G03X254410Y-1088450I1000J0D01*
G01X272050D01*
G02X273050Y-1089450I0J-1000D01*
G01Y-1092630D01*
G02X272590Y-1093470I-999J1D01*
G01X270960Y-1094520D01*
X270460Y-1094560D01*
X270220Y-1094450D01*
G03X262900Y-1094580I-3523J-7759D01*
G02X262450Y-1094690I-456J889D01*
G01X241420D01*
G02X240420Y-1093690I0J1000D01*
G01Y-1085770D01*
X239840Y-1085190D01*
X239770D01*
G37*
G36*
G01X270460Y-840560D02*
X270220Y-840450D01*
G03X262900Y-840580I-3523J-7759D01*
G02X262450Y-840690I-456J889D01*
G01X251180D01*
G02X250470Y-840400I-5J1001D01*
G01X242130Y-832050D01*
G03X240810Y-830890I-9799J-9819D01*
G02X240420Y-830100I609J792D01*
G01Y-819490D01*
G03X239420Y-818490I-1000J0D01*
G01X238920Y-817990D01*
Y-814860D01*
X239500Y-814280D01*
X239770D01*
Y-812280D01*
G02X240770Y-811280I1000J0D01*
G01X252410D01*
G02X253410Y-812280I0J-1000D01*
G01Y-820750D01*
G03X254410Y-821750I1000J0D01*
G01X272050D01*
G02X273050Y-822750I0J-1000D01*
G01Y-822870D01*
G02X272050Y-823870I-1000J0D01*
G01X254410D01*
G03X253410Y-824870I0J-1000D01*
G01Y-833450D01*
G03X254410Y-834450I1000J0D01*
G01X272050D01*
G02X273050Y-835450I0J-1000D01*
G01Y-838630D01*
G02X272590Y-839470I-999J1D01*
G01X270960Y-840520D01*
X270460Y-840560D01*
G37*
G36*
G01Y-586560D02*
X270220Y-586450D01*
G03X262900Y-586580I-3523J-7759D01*
G02X262450Y-586690I-456J889D01*
G01X251180D01*
G02X250470Y-586400I-5J1001D01*
G01X242130Y-578050D01*
G03X240810Y-576890I-9799J-9819D01*
G02X240420Y-576100I609J792D01*
G01Y-565490D01*
G03X239420Y-564490I-1000J0D01*
G01X238920Y-563990D01*
Y-560860D01*
X239500Y-560280D01*
X239770D01*
Y-558280D01*
G02X240770Y-557280I1000J0D01*
G01X252410D01*
G02X253410Y-558280I0J-1000D01*
G01Y-566750D01*
G03X254410Y-567750I1000J0D01*
G01X272050D01*
G02X273050Y-568750I0J-1000D01*
G01Y-568870D01*
G02X272050Y-569870I-1000J0D01*
G01X254410D01*
G03X253410Y-570870I0J-1000D01*
G01Y-579450D01*
G03X254410Y-580450I1000J0D01*
G01X272050D01*
G02X273050Y-581450I0J-1000D01*
G01Y-584630D01*
G02X272590Y-585470I-999J1D01*
G01X270960Y-586520D01*
X270460Y-586560D01*
G37*
G36*
G01X454570Y-1119680D02*
G03X457940Y-1118280I0J4756D01*
G01X481480Y-1094740D01*
G02X482600Y-1094280I1115J-1121D01*
G01X495580D01*
G02X496580Y-1095280I0J-1000D01*
G01Y-1099030D01*
G03X497580Y-1100030I1000J0D01*
G01X508330D01*
G02X509250Y-1100650I-5J-1000D01*
G01X509370Y-1100930D01*
X509250Y-1101510D01*
X506670Y-1104100D01*
G02X505960Y-1104390I-705J711D01*
G01X497580D01*
G03X496580Y-1105390I0J-1000D01*
G01Y-1124430D01*
G03X497580Y-1125430I1000J0D01*
G01X512120D01*
G03X513120Y-1124430I0J1000D01*
G01Y-1111550D01*
G02X513410Y-1110840I1001J5D01*
G01X513880Y-1110380D01*
G02X514970Y-1110160I709J-705D01*
G01X515250Y-1110280D01*
X515580Y-1110780D01*
Y-1124430D01*
G03X516580Y-1125430I1000J0D01*
G01X518080D01*
G02X519080Y-1126430I0J-1000D01*
G01Y-1128790D01*
G02X518080Y-1129790I-1000J0D01*
G01X516580D01*
G03X515580Y-1130790I0J-1000D01*
G01Y-1145660D01*
G02X514580Y-1146660I-1000J0D01*
G01X512890D01*
G02X511890Y-1145660I0J1000D01*
G01Y-1132020D01*
G03X510890Y-1131020I-1000J0D01*
G01X498810D01*
G03X497810Y-1132020I0J-1000D01*
G01Y-1145660D01*
G02X496810Y-1146660I-1000J0D01*
G01X454990D01*
G02X447920Y-1143730I2J10000D01*
G01X447430Y-1143240D01*
G03X440360Y-1140310I-7072J-7070D01*
G01X359250D01*
G02X349250Y-1130310I0J10000D01*
G01Y-1089450D01*
G02X350250Y-1088450I1000J0D01*
G01X370990D01*
G03X371990Y-1087450I0J1000D01*
G01Y-1077980D01*
G02X372990Y-1076980I1000J0D01*
G01X373220D01*
X373720Y-1076480D01*
X376410D01*
G02X377410Y-1077480I0J-1000D01*
G01Y-1091450D01*
G03X378410Y-1092450I1000J0D01*
G01X392180D01*
G02X393180Y-1093450I0J-1000D01*
G01Y-1093680D01*
X395180D01*
G02X396180Y-1094680I0J-1000D01*
G01Y-1096890D01*
G02X395180Y-1097890I-1000J0D01*
G01X394830D01*
G03X393830Y-1098890I0J-1000D01*
G01Y-1105390D01*
G02X393370Y-1106240I-1002J-7D01*
G01X391720Y-1107280D01*
X391210Y-1107310D01*
X390980Y-1107200D01*
G03X382730Y-1107750I-3629J-7709D01*
G01X382490Y-1107910D01*
X381950Y-1107930D01*
X380160Y-1106950D01*
G02X379640Y-1106070I479J877D01*
G01Y-1100120D01*
G03X378640Y-1099120I-1000J0D01*
G01X365060D01*
G03X364060Y-1100120I0J-1000D01*
G01Y-1129700D01*
G03X365060Y-1130700I1000J0D01*
G01X378640D01*
G03X379640Y-1129700I0J1000D01*
G01Y-1123750D01*
G02X380160Y-1122870I999J3D01*
G01X381950Y-1121890D01*
X382490Y-1121910D01*
X382730Y-1122070D01*
G03X390980Y-1122620I4621J7159D01*
G01X391210Y-1122510D01*
X391720Y-1122540D01*
X393370Y-1123580D01*
G02X393830Y-1124430I-542J-843D01*
G01Y-1130930D01*
G03X394830Y-1131930I1000J0D01*
G01X410870D01*
G03X411870Y-1130930I0J1000D01*
G01Y-1120680D01*
G02X412870Y-1119680I1000J0D01*
G01X454570D01*
G37*
G36*
G01X485230Y-1059340D02*
G02X484110Y-1058880I-5J1581D01*
G01X481480Y-1056250D01*
G03X473620Y-1052990I-7865J-7859D01*
G01X374220D01*
G02X373220Y-1051990I0J1000D01*
G01Y-1051820D01*
X372640Y-1051240D01*
X372570D01*
X371990Y-1050660D01*
Y-1039880D01*
G02X372990Y-1038880I1000J0D01*
G01X373220D01*
Y-1038130D01*
G02X374220Y-1037130I1000J0D01*
G01X492670D01*
G02X493790Y-1037590I5J-1581D01*
G01X508080Y-1051890D01*
G02X508300Y-1052980I-705J-709D01*
G01X508180Y-1053260D01*
X507680Y-1053590D01*
X497580D01*
G03X496580Y-1054590I0J-1000D01*
G01Y-1058340D01*
G02X495580Y-1059340I-1000J0D01*
G01X485230D01*
G37*
G36*
G01X532120Y-1145660D02*
Y-1130790D01*
G03X531120Y-1129790I-1000J0D01*
G01X529620D01*
G02X528620Y-1128790I0J1000D01*
G01Y-1126430D01*
G02X529620Y-1125430I1000J0D01*
G01X531120D01*
G03X532120Y-1124430I0J1000D01*
G01Y-1120680D01*
G02X533120Y-1119680I1000J0D01*
G01X556170D01*
G03X564030Y-1116420I-5J11119D01*
G01X573010Y-1107440D01*
G02X574130Y-1106980I1115J-1121D01*
G01X695870D01*
G02X696990Y-1107440I5J-1581D01*
G01X701680Y-1112140D01*
G02X701900Y-1113230I-705J-709D01*
G01X701780Y-1113510D01*
X701280Y-1113840D01*
X694530D01*
G03X693530Y-1114840I0J-1000D01*
G01Y-1140380D01*
G03X694530Y-1141380I1000J0D01*
G01X720070D01*
G03X721070Y-1140380I0J1000D01*
G01Y-1134630D01*
G02X722070Y-1133630I1000J0D01*
G01X724280D01*
G02X725280Y-1134630I0J-1000D01*
G01Y-1139130D01*
G03X726280Y-1140130I1000J0D01*
G01X745320D01*
G03X746320Y-1139130I0J1000D01*
G01Y-1116090D01*
G03X745320Y-1115090I-1000J0D01*
G01X726280D01*
G03X725280Y-1116090I0J-1000D01*
G01Y-1120590D01*
G02X724280Y-1121590I-1000J0D01*
G01X722070D01*
G02X721070Y-1120590I0J1000D01*
G01Y-1114840D01*
G03X720070Y-1113840I-1000J0D01*
G01X712650D01*
X712070Y-1113300D01*
X712050Y-1112910D01*
G03X708810Y-1105780I-11095J-741D01*
G01X703730Y-1100700D01*
G03X695870Y-1097440I-7865J-7859D01*
G01X574130D01*
G03X566270Y-1100700I5J-11119D01*
G01X557290Y-1109680D01*
G02X556170Y-1110140I-1115J1121D01*
G01X533120D01*
G02X532120Y-1109140I0J1000D01*
G01Y-1105390D01*
G03X531120Y-1104390I-1000J0D01*
G01X520990D01*
G02X520230Y-1104050I-8J1001D01*
G01X519090Y-1102730D01*
X518980Y-1102330D01*
X519010Y-1102110D01*
G03X519110Y-1100990I-11013J1548D01*
G01X519130Y-1100580D01*
X519700Y-1100030D01*
X531120D01*
G03X532120Y-1099030I0J1000D01*
G01Y-1095280D01*
G02X533120Y-1094280I1000J0D01*
G01X695870D01*
G03X703730Y-1091020I-5J11119D01*
G01X708810Y-1085940D01*
G03X712050Y-1078810I-7855J7871D01*
G01X712070Y-1078420D01*
X712650Y-1077880D01*
X720070D01*
G03X721070Y-1076880I0J1000D01*
G01Y-1071130D01*
G02X722070Y-1070130I1000J0D01*
G01X724280D01*
G02X725280Y-1071130I0J-1000D01*
G01Y-1075630D01*
G03X726280Y-1076630I1000J0D01*
G01X745320D01*
G03X746320Y-1075630I0J1000D01*
G01Y-1052590D01*
G03X745320Y-1051590I-1000J0D01*
G01X726280D01*
G03X725280Y-1052590I0J-1000D01*
G01Y-1057090D01*
G02X724280Y-1058090I-1000J0D01*
G01X722070D01*
G02X721070Y-1057090I0J1000D01*
G01Y-1051340D01*
G03X720070Y-1050340I-1000J0D01*
G01X694530D01*
G03X693530Y-1051340I0J-1000D01*
G01Y-1076880D01*
G03X694530Y-1077880I1000J0D01*
G01X700980D01*
G02X701900Y-1078500I-5J-1000D01*
G01X702020Y-1078780D01*
X701900Y-1079360D01*
X696990Y-1084280D01*
G02X695870Y-1084740I-1115J1121D01*
G01X533120D01*
G02X532120Y-1083740I0J1000D01*
G01Y-1079990D01*
G03X531120Y-1078990I-1000J0D01*
G01X529620D01*
G02X528620Y-1077990I0J1000D01*
G01Y-1075630D01*
G02X529620Y-1074630I1000J0D01*
G01X531120D01*
G03X532120Y-1073630I0J1000D01*
G01Y-1054590D01*
G03X531120Y-1053590I-1000J0D01*
G01X519650D01*
X519090Y-1053090D01*
X519040Y-1052710D01*
G03X515860Y-1046180I-11038J-1336D01*
G01X514570Y-1044880D01*
G02X514350Y-1043790I705J709D01*
G01X513550Y-1043860D01*
X500530Y-1030850D01*
G03X492670Y-1027590I-7865J-7859D01*
G01X374220D01*
G02X373220Y-1026590I0J1000D01*
G01Y-1026420D01*
X372640Y-1025840D01*
X372570D01*
X371990Y-1025260D01*
Y-1014480D01*
G02X372990Y-1013480I1000J0D01*
G01X373220D01*
Y-1012730D01*
G02X374220Y-1011730I1000J0D01*
G01X473620D01*
G03X481480Y-1008470I-5J11119D01*
G01X496810Y-993140D01*
G02X497930Y-992680I1115J-1121D01*
G03X500050Y-992180I-6J4769D01*
G01X500160Y-992130D01*
X500370Y-992080D01*
X512120D01*
G03X513120Y-991080I0J1000D01*
G01Y-972040D01*
G03X512120Y-971040I-1000J0D01*
G01X497580D01*
G03X496580Y-972040I0J-1000D01*
G01Y-982240D01*
G02X496260Y-982970I-1000J3D01*
G01X495960Y-983240D01*
X495740Y-983360D01*
X495600Y-983390D01*
G03X490070Y-986400I2333J-10870D01*
G01X474740Y-1001730D01*
G02X473620Y-1002190I-1115J1121D01*
G01X374220D01*
G02X373220Y-1001190I0J1000D01*
G01Y-1000030D01*
G02X374220Y-999030I1000J0D01*
G01X429720D01*
G03X437580Y-995770I-5J11119D01*
G01X471960Y-961390D01*
G02X473080Y-960930I1115J-1121D01*
G01X495580D01*
G02X496580Y-961930I0J-1000D01*
G01Y-965680D01*
G03X497580Y-966680I1000J0D01*
G01X512120D01*
G03X513120Y-965680I0J1000D01*
G01Y-946640D01*
G03X512120Y-945640I-1000J0D01*
G01X497580D01*
G03X496580Y-946640I0J-1000D01*
G01Y-950390D01*
G02X495580Y-951390I-1000J0D01*
G01X473080D01*
G03X465220Y-954650I5J-11119D01*
G01X430840Y-989030D01*
G02X429720Y-989490I-1115J1121D01*
G01X406230D01*
G02X405280Y-988810I-3J999D01*
G01X404570Y-986710D01*
X404750Y-986100D01*
X405010Y-985900D01*
G03X408170Y-980270I-4963J6487D01*
G01X408220Y-979890D01*
X408780Y-979380D01*
X410220D01*
G03X411220Y-978380I0J1000D01*
G01Y-959340D01*
G03X410220Y-958340I-1000J0D01*
G01X409220D01*
G02X408220Y-957340I0J1000D01*
G01Y-956920D01*
G02X408510Y-956210I1001J5D01*
G01X408800Y-955930D01*
G03X412090Y-950030I-8750J8747D01*
G02X412360Y-949550I972J-231D01*
G03X400650Y-937180I-5958J6088D01*
G01X400510Y-937300D01*
X400160Y-937440D01*
X399520D01*
G02X398520Y-936440I0J1000D01*
G01Y-933940D01*
G03X397520Y-932940I-1000J0D01*
G01X381480D01*
G03X380480Y-933940I0J-1000D01*
G01Y-934170D01*
X365710D01*
G03X364710Y-935170I0J-1000D01*
G01Y-951750D01*
G03X365710Y-952750I1000J0D01*
G01X379480D01*
G02X380480Y-953750I0J-1000D01*
G01Y-953980D01*
X394200D01*
G02X394920Y-954290I-4J-1000D01*
G01X396060Y-955490D01*
X396200Y-955860D01*
X396190Y-956070D01*
G03X396180Y-956640I12361J-502D01*
G01Y-957340D01*
G02X395180Y-958340I-1000J0D01*
G01X394180D01*
G03X393180Y-959340I0J-1000D01*
G01Y-959570D01*
X378410D01*
G03X377410Y-960570I0J-1000D01*
G01Y-974540D01*
G02X376410Y-975540I-1000J0D01*
G01X373720D01*
X373510Y-975330D01*
G03X372810Y-975040I-704J-710D01*
G01X372570D01*
X371990Y-974460D01*
Y-964570D01*
G03X370990Y-963570I-1000J0D01*
G01X350250D01*
G02X349250Y-962570I0J1000D01*
G01Y-934410D01*
G02X359250Y-924410I10000J0D01*
G01X414960D01*
G02X422030Y-927340I-2J-10000D01*
G01X422520Y-927830D01*
G03X429590Y-930760I7072J7070D01*
G01X781990D01*
G02X782920Y-931400I-3J-999D01*
G01X783700Y-933440D01*
X783560Y-934040D01*
X783320Y-934250D01*
G03X782830Y-934710I8220J-9247D01*
G01X775020Y-942520D01*
G02X773930Y-942740I-709J703D01*
G01X773650Y-942620D01*
X773320Y-942130D01*
Y-938290D01*
G03X772320Y-937290I-1000J0D01*
G01X753280D01*
G03X752280Y-938290I0J-1000D01*
G01Y-961330D01*
G03X753280Y-962330I1000J0D01*
G01X772320D01*
G03X773320Y-961330I0J1000D01*
G01Y-957210D01*
G02X773590Y-956520I1002J6D01*
G01X774000Y-956100D01*
G02X774640Y-955790I727J-684D01*
G03X782370Y-952210I-1017J12330D01*
G01X789590Y-944980D01*
G02X790420Y-944700I702J-711D01*
G01X792220Y-944920D01*
X792600Y-945160D01*
X792720Y-945360D01*
G03X822060Y-933510I13730J8253D01*
G01X822000Y-933240D01*
X822150Y-932740D01*
X823590Y-931370D01*
G02X824550Y-931130I691J-723D01*
G02X831850Y-940760I-2702J-9630D01*
G01Y-1136660D01*
G02X824550Y-1146290I-10002J0D01*
G02X823590Y-1146050I-269J963D01*
G01X822150Y-1144680D01*
X822000Y-1144180D01*
X822060Y-1143910D01*
G03X791860Y-1133700I-15610J3595D01*
G02X790950Y-1134290I-913J411D01*
G01X787650D01*
X787080Y-1133740D01*
X787060Y-1133330D01*
G03X774800Y-1121590I-12260J-532D01*
G01X774320D01*
G02X773320Y-1120590I0J1000D01*
G01Y-1116090D01*
G03X772320Y-1115090I-1000J0D01*
G01X753280D01*
G03X752280Y-1116090I0J-1000D01*
G01Y-1139130D01*
G03X753280Y-1140130I1000J0D01*
G01X772320D01*
G03X773320Y-1139130I0J1000D01*
G01Y-1136730D01*
G02X774320Y-1135730I1000J0D01*
G01X774680D01*
X775220Y-1136170D01*
X775300Y-1136520D01*
G03X779140Y-1143170I12103J2555D01*
G01X779380Y-1143380D01*
X779520Y-1143980D01*
X778740Y-1146020D01*
G02X777810Y-1146660I-933J359D01*
G01X533120D01*
G02X532120Y-1145660I0J1000D01*
G37*
G36*
G01X454570Y-865680D02*
G03X457940Y-864280I0J4756D01*
G01X481480Y-840740D01*
G02X482600Y-840280I1115J-1121D01*
G01X495580D01*
G02X496580Y-841280I0J-1000D01*
G01Y-845030D01*
G03X497580Y-846030I1000J0D01*
G01X508330D01*
G02X509250Y-846650I-5J-1000D01*
G01X509370Y-846930D01*
X509250Y-847510D01*
X506670Y-850100D01*
G02X505960Y-850390I-705J711D01*
G01X497580D01*
G03X496580Y-851390I0J-1000D01*
G01Y-870430D01*
G03X497580Y-871430I1000J0D01*
G01X512120D01*
G03X513120Y-870430I0J1000D01*
G01Y-857550D01*
G02X513410Y-856840I1001J5D01*
G01X513880Y-856380D01*
G02X514970Y-856160I709J-705D01*
G01X515250Y-856280D01*
X515580Y-856780D01*
Y-870430D01*
G03X516580Y-871430I1000J0D01*
G01X518080D01*
G02X519080Y-872430I0J-1000D01*
G01Y-874790D01*
G02X518080Y-875790I-1000J0D01*
G01X516580D01*
G03X515580Y-876790I0J-1000D01*
G01Y-891660D01*
G02X514580Y-892660I-1000J0D01*
G01X512890D01*
G02X511890Y-891660I0J1000D01*
G01Y-878020D01*
G03X510890Y-877020I-1000J0D01*
G01X498810D01*
G03X497810Y-878020I0J-1000D01*
G01Y-891660D01*
G02X496810Y-892660I-1000J0D01*
G01X454990D01*
G02X447920Y-889730I2J10000D01*
G01X447430Y-889240D01*
G03X440360Y-886310I-7072J-7070D01*
G01X359250D01*
G02X349250Y-876310I0J10000D01*
G01Y-835450D01*
G02X350250Y-834450I1000J0D01*
G01X370990D01*
G03X371990Y-833450I0J1000D01*
G01Y-823980D01*
G02X372990Y-822980I1000J0D01*
G01X373220D01*
X373720Y-822480D01*
X376410D01*
G02X377410Y-823480I0J-1000D01*
G01Y-837450D01*
G03X378410Y-838450I1000J0D01*
G01X392180D01*
G02X393180Y-839450I0J-1000D01*
G01Y-839680D01*
X395180D01*
G02X396180Y-840680I0J-1000D01*
G01Y-842890D01*
G02X395180Y-843890I-1000J0D01*
G01X394830D01*
G03X393830Y-844890I0J-1000D01*
G01Y-851390D01*
G02X393370Y-852240I-1002J-7D01*
G01X391720Y-853280D01*
X391210Y-853310D01*
X390980Y-853200D01*
G03X382730Y-853750I-3629J-7709D01*
G01X382490Y-853910D01*
X381950Y-853930D01*
X380160Y-852950D01*
G02X379640Y-852070I479J877D01*
G01Y-846120D01*
G03X378640Y-845120I-1000J0D01*
G01X365060D01*
G03X364060Y-846120I0J-1000D01*
G01Y-875700D01*
G03X365060Y-876700I1000J0D01*
G01X378640D01*
G03X379640Y-875700I0J1000D01*
G01Y-869750D01*
G02X380160Y-868870I999J3D01*
G01X381950Y-867890D01*
X382490Y-867910D01*
X382730Y-868070D01*
G03X390980Y-868620I4621J7159D01*
G01X391210Y-868510D01*
X391720Y-868540D01*
X393370Y-869580D01*
G02X393830Y-870430I-542J-843D01*
G01Y-876930D01*
G03X394830Y-877930I1000J0D01*
G01X410870D01*
G03X411870Y-876930I0J1000D01*
G01Y-866680D01*
G02X412870Y-865680I1000J0D01*
G01X454570D01*
G37*
G36*
G01X434430Y-824390D02*
G02X433310Y-823930I-5J1581D01*
G01X411630Y-802250D01*
G03X403770Y-798990I-7865J-7859D01*
G01X374220D01*
G02X373220Y-797990I0J1000D01*
G01Y-797820D01*
X372640Y-797240D01*
X372570D01*
X371990Y-796660D01*
Y-785880D01*
G02X372990Y-784880I1000J0D01*
G01X373220D01*
Y-784130D01*
G02X374220Y-783130I1000J0D01*
G01X431570D01*
G02X432330Y-783490I-8J-998D01*
G01X433460Y-784830D01*
X433580Y-785250D01*
X433540Y-785470D01*
G03X433380Y-787340I10959J-1880D01*
G01Y-792490D01*
G02X432990Y-793280I-1000J2D01*
G03X429630Y-800060I5161J-6780D01*
G01Y-809560D01*
G03X446670I8520J0D01*
G01Y-800060D01*
G03X443310Y-793280I-8521J0D01*
G02X442920Y-792490I610J792D01*
G01Y-787340D01*
G02X443380Y-786220I1581J5D01*
G01X446180Y-783420D01*
G02X446890Y-783130I705J-711D01*
G01X492670D01*
G02X493790Y-783590I5J-1581D01*
G01X508080Y-797890D01*
G02X508300Y-798980I-705J-709D01*
G01X508180Y-799260D01*
X507680Y-799590D01*
X497580D01*
G03X496580Y-800590I0J-1000D01*
G01Y-804340D01*
G02X495580Y-805340I-1000J0D01*
G01X485230D01*
G02X484110Y-804880I-5J1581D01*
G01X482530Y-803300D01*
G03X474670Y-800040I-7865J-7859D01*
G01X472630D01*
X472060Y-799530D01*
X472020Y-799150D01*
G03X455030Y-800060I-8471J-910D01*
G01Y-809560D01*
G03X457200Y-815250I8523J-8D01*
G01X457340Y-815390D01*
X457470Y-815740D01*
X457420Y-817310D01*
G02X457130Y-817990I-998J24D01*
G01X451200Y-823930D01*
G02X450080Y-824390I-1115J1121D01*
G01X434430D01*
G37*
G36*
G01X532120Y-891660D02*
Y-876790D01*
G03X531120Y-875790I-1000J0D01*
G01X529620D01*
G02X528620Y-874790I0J1000D01*
G01Y-872430D01*
G02X529620Y-871430I1000J0D01*
G01X531120D01*
G03X532120Y-870430I0J1000D01*
G01Y-866680D01*
G02X533120Y-865680I1000J0D01*
G01X556170D01*
G03X564030Y-862420I-5J11119D01*
G01X573010Y-853440D01*
G02X574130Y-852980I1115J-1121D01*
G01X695870D01*
G02X696990Y-853440I5J-1581D01*
G01X701680Y-858140D01*
G02X701900Y-859230I-705J-709D01*
G01X701780Y-859510D01*
X701280Y-859840D01*
X694530D01*
G03X693530Y-860840I0J-1000D01*
G01Y-886380D01*
G03X694530Y-887380I1000J0D01*
G01X720070D01*
G03X721070Y-886380I0J1000D01*
G01Y-880630D01*
G02X722070Y-879630I1000J0D01*
G01X724280D01*
G02X725280Y-880630I0J-1000D01*
G01Y-885130D01*
G03X726280Y-886130I1000J0D01*
G01X745320D01*
G03X746320Y-885130I0J1000D01*
G01Y-862090D01*
G03X745320Y-861090I-1000J0D01*
G01X726280D01*
G03X725280Y-862090I0J-1000D01*
G01Y-866590D01*
G02X724280Y-867590I-1000J0D01*
G01X722070D01*
G02X721070Y-866590I0J1000D01*
G01Y-860840D01*
G03X720070Y-859840I-1000J0D01*
G01X712650D01*
X712070Y-859300D01*
X712050Y-858910D01*
G03X708810Y-851780I-11095J-741D01*
G01X703730Y-846700D01*
G03X695870Y-843440I-7865J-7859D01*
G01X574130D01*
G03X566270Y-846700I5J-11119D01*
G01X557290Y-855680D01*
G02X556170Y-856140I-1115J1121D01*
G01X533120D01*
G02X532120Y-855140I0J1000D01*
G01Y-851390D01*
G03X531120Y-850390I-1000J0D01*
G01X520990D01*
G02X520230Y-850050I-8J1001D01*
G01X519090Y-848730D01*
X518980Y-848330D01*
X519010Y-848110D01*
G03X519110Y-846990I-11013J1548D01*
G01X519130Y-846580D01*
X519700Y-846030D01*
X531120D01*
G03X532120Y-845030I0J1000D01*
G01Y-841280D01*
G02X533120Y-840280I1000J0D01*
G01X695870D01*
G03X703730Y-837020I-5J11119D01*
G01X708810Y-831940D01*
G03X712050Y-824810I-7855J7871D01*
G01X712070Y-824420D01*
X712650Y-823880D01*
X720070D01*
G03X721070Y-822880I0J1000D01*
G01Y-817130D01*
G02X722070Y-816130I1000J0D01*
G01X724280D01*
G02X725280Y-817130I0J-1000D01*
G01Y-821630D01*
G03X726280Y-822630I1000J0D01*
G01X745320D01*
G03X746320Y-821630I0J1000D01*
G01Y-798590D01*
G03X745320Y-797590I-1000J0D01*
G01X726280D01*
G03X725280Y-798590I0J-1000D01*
G01Y-803090D01*
G02X724280Y-804090I-1000J0D01*
G01X722070D01*
G02X721070Y-803090I0J1000D01*
G01Y-797340D01*
G03X720070Y-796340I-1000J0D01*
G01X694530D01*
G03X693530Y-797340I0J-1000D01*
G01Y-822880D01*
G03X694530Y-823880I1000J0D01*
G01X700980D01*
G02X701900Y-824500I-5J-1000D01*
G01X702020Y-824780D01*
X701900Y-825360D01*
X696990Y-830280D01*
G02X695870Y-830740I-1115J1121D01*
G01X533120D01*
G02X532120Y-829740I0J1000D01*
G01Y-825990D01*
G03X531120Y-824990I-1000J0D01*
G01X529620D01*
G02X528620Y-823990I0J1000D01*
G01Y-821630D01*
G02X529620Y-820630I1000J0D01*
G01X531120D01*
G03X532120Y-819630I0J1000D01*
G01Y-800590D01*
G03X531120Y-799590I-1000J0D01*
G01X519650D01*
X519090Y-799090D01*
X519040Y-798710D01*
G03X515860Y-792180I-11038J-1336D01*
G01X514570Y-790880D01*
G02X514350Y-789790I705J709D01*
G01X513550Y-789860D01*
X500530Y-776850D01*
G03X492670Y-773590I-7865J-7859D01*
G01X374220D01*
G02X373220Y-772590I0J1000D01*
G01Y-772420D01*
X372640Y-771840D01*
X372570D01*
X371990Y-771260D01*
Y-760480D01*
G02X372990Y-759480I1000J0D01*
G01X373220D01*
Y-758730D01*
G02X374220Y-757730I1000J0D01*
G01X473620D01*
G03X481480Y-754470I-5J11119D01*
G01X496810Y-739140D01*
G02X497930Y-738680I1115J-1121D01*
G03X500050Y-738180I-6J4769D01*
G01X500160Y-738130D01*
X500370Y-738080D01*
X512120D01*
G03X513120Y-737080I0J1000D01*
G01Y-718040D01*
G03X512120Y-717040I-1000J0D01*
G01X497580D01*
G03X496580Y-718040I0J-1000D01*
G01Y-728240D01*
G02X496260Y-728970I-1000J3D01*
G01X495960Y-729240D01*
X495740Y-729360D01*
X495600Y-729390D01*
G03X490070Y-732400I2333J-10870D01*
G01X474740Y-747730D01*
G02X473620Y-748190I-1115J1121D01*
G01X433020D01*
G02X432100Y-747570I5J1000D01*
G01X431980Y-747290D01*
X432100Y-746710D01*
X439660Y-739140D01*
G03X442920Y-731280I-7859J7865D01*
G01Y-726130D01*
G02X443310Y-725340I1000J-2D01*
G03X446670Y-718560I-5161J6780D01*
G01Y-709060D01*
G03X444860Y-703810I-8519J0D01*
G01X444680Y-703580D01*
X444620Y-703020D01*
X445540Y-701140D01*
G02X446440Y-700580I898J-440D01*
G01X447670D01*
G02X448790Y-701040I5J-1581D01*
G01X454990Y-707240D01*
X455140Y-707690D01*
X455110Y-707920D01*
G03X455030Y-709060I8438J-1165D01*
G01Y-718560D01*
G03X472070I8520J0D01*
G01Y-709060D01*
G03X472010Y-708050I-8531J0D01*
G02X472870Y-706940I994J118D01*
G02X473080Y-706930I180J-1571D01*
G01X495580D01*
G02X496580Y-707930I0J-1000D01*
G01Y-711680D01*
G03X497580Y-712680I1000J0D01*
G01X512120D01*
G03X513120Y-711680I0J1000D01*
G01Y-692640D01*
G03X512120Y-691640I-1000J0D01*
G01X497580D01*
G03X496580Y-692640I0J-1000D01*
G01Y-696390D01*
G02X495580Y-697390I-1000J0D01*
G01X473080D01*
G03X465520Y-700360I5J-11119D01*
G02X464700Y-700620I-683J732D01*
G03X462410I-1145J-8441D01*
G01X462180Y-700650D01*
X461730Y-700500D01*
X455530Y-694300D01*
G03X447670Y-691040I-7865J-7859D01*
G01X431800D01*
G03X420680Y-702160I0J-11120D01*
G01Y-733910D01*
G02X419100Y-735490I-1580J0D01*
G01X406230D01*
G02X405280Y-734810I-3J999D01*
G01X404570Y-732710D01*
X404750Y-732100D01*
X405010Y-731900D01*
G03X408170Y-726270I-4963J6487D01*
G01X408220Y-725890D01*
X408780Y-725380D01*
X410220D01*
G03X411220Y-724380I0J1000D01*
G01Y-705340D01*
G03X410220Y-704340I-1000J0D01*
G01X409220D01*
G02X408220Y-703340I0J1000D01*
G01Y-702920D01*
G02X408510Y-702210I1001J5D01*
G01X408800Y-701930D01*
G03X412090Y-696030I-8750J8747D01*
G02X412360Y-695550I972J-231D01*
G03X400650Y-683180I-5958J6088D01*
G01X400510Y-683300D01*
X400160Y-683440D01*
X399520D01*
G02X398520Y-682440I0J1000D01*
G01Y-679940D01*
G03X397520Y-678940I-1000J0D01*
G01X381480D01*
G03X380480Y-679940I0J-1000D01*
G01Y-680170D01*
X365710D01*
G03X364710Y-681170I0J-1000D01*
G01Y-697750D01*
G03X365710Y-698750I1000J0D01*
G01X379480D01*
G02X380480Y-699750I0J-1000D01*
G01Y-699980D01*
X394200D01*
G02X394920Y-700290I-4J-1000D01*
G01X396060Y-701490D01*
X396200Y-701860D01*
X396190Y-702070D01*
G03X396180Y-702640I12361J-502D01*
G01Y-703340D01*
G02X395180Y-704340I-1000J0D01*
G01X394180D01*
G03X393180Y-705340I0J-1000D01*
G01Y-705570D01*
X378410D01*
G03X377410Y-706570I0J-1000D01*
G01Y-720540D01*
G02X376410Y-721540I-1000J0D01*
G01X373720D01*
X373510Y-721330D01*
G03X372810Y-721040I-704J-710D01*
G01X372570D01*
X371990Y-720460D01*
Y-710570D01*
G03X370990Y-709570I-1000J0D01*
G01X350250D01*
G02X349250Y-708570I0J1000D01*
G01Y-680410D01*
G02X359250Y-670410I10000J0D01*
G01X414960D01*
G02X422030Y-673340I-2J-10000D01*
G01X422520Y-673830D01*
G03X429590Y-676760I7072J7070D01*
G01X781990D01*
G02X782920Y-677400I-3J-999D01*
G01X783700Y-679440D01*
X783560Y-680040D01*
X783320Y-680250D01*
G03X782830Y-680710I8220J-9247D01*
G01X775020Y-688520D01*
G02X773930Y-688740I-709J703D01*
G01X773650Y-688620D01*
X773320Y-688130D01*
Y-684290D01*
G03X772320Y-683290I-1000J0D01*
G01X753280D01*
G03X752280Y-684290I0J-1000D01*
G01Y-707330D01*
G03X753280Y-708330I1000J0D01*
G01X772320D01*
G03X773320Y-707330I0J1000D01*
G01Y-703210D01*
G02X773590Y-702520I1002J6D01*
G01X774000Y-702100D01*
G02X774640Y-701790I727J-684D01*
G03X782370Y-698210I-1017J12330D01*
G01X789590Y-690980D01*
G02X790420Y-690700I702J-711D01*
G01X792220Y-690920D01*
X792600Y-691160D01*
X792720Y-691360D01*
G03X822060Y-679510I13730J8253D01*
G01X822000Y-679240D01*
X822150Y-678740D01*
X823590Y-677370D01*
G02X824550Y-677130I691J-723D01*
G02X831850Y-686760I-2702J-9630D01*
G01Y-882660D01*
G02X824550Y-892290I-10002J0D01*
G02X823590Y-892050I-269J963D01*
G01X822150Y-890680D01*
X822000Y-890180D01*
X822060Y-889910D01*
G03X791860Y-879700I-15610J3595D01*
G02X790950Y-880290I-913J411D01*
G01X787650D01*
X787080Y-879740D01*
X787060Y-879330D01*
G03X774800Y-867590I-12260J-532D01*
G01X774320D01*
G02X773320Y-866590I0J1000D01*
G01Y-862090D01*
G03X772320Y-861090I-1000J0D01*
G01X753280D01*
G03X752280Y-862090I0J-1000D01*
G01Y-885130D01*
G03X753280Y-886130I1000J0D01*
G01X772320D01*
G03X773320Y-885130I0J1000D01*
G01Y-882730D01*
G02X774320Y-881730I1000J0D01*
G01X774680D01*
X775220Y-882170D01*
X775300Y-882520D01*
G03X779140Y-889170I12103J2555D01*
G01X779380Y-889380D01*
X779520Y-889980D01*
X778740Y-892020D01*
G02X777810Y-892660I-933J359D01*
G01X533120D01*
G02X532120Y-891660I0J1000D01*
G37*
G36*
G01X454990Y-638660D02*
G02X447920Y-635730I2J10000D01*
G01X447430Y-635240D01*
G03X440360Y-632310I-7072J-7070D01*
G01X359250D01*
G02X349250Y-622310I0J10000D01*
G01Y-581450D01*
G02X350250Y-580450I1000J0D01*
G01X370990D01*
G03X371990Y-579450I0J1000D01*
G01Y-569980D01*
G02X372990Y-568980I1000J0D01*
G01X373220D01*
X373720Y-568480D01*
X376410D01*
G02X377410Y-569480I0J-1000D01*
G01Y-583450D01*
G03X378410Y-584450I1000J0D01*
G01X392180D01*
G02X393180Y-585450I0J-1000D01*
G01Y-585680D01*
X395180D01*
G02X396180Y-586680I0J-1000D01*
G01Y-588890D01*
G02X395180Y-589890I-1000J0D01*
G01X394830D01*
G03X393830Y-590890I0J-1000D01*
G01Y-597390D01*
G02X393370Y-598240I-1002J-7D01*
G01X391720Y-599280D01*
X391210Y-599310D01*
X390980Y-599200D01*
G03X382730Y-599750I-3629J-7709D01*
G01X382490Y-599910D01*
X381950Y-599930D01*
X380160Y-598950D01*
G02X379640Y-598070I479J877D01*
G01Y-592120D01*
G03X378640Y-591120I-1000J0D01*
G01X365060D01*
G03X364060Y-592120I0J-1000D01*
G01Y-621700D01*
G03X365060Y-622700I1000J0D01*
G01X378640D01*
G03X379640Y-621700I0J1000D01*
G01Y-615750D01*
G02X380160Y-614870I999J3D01*
G01X381950Y-613890D01*
X382490Y-613910D01*
X382730Y-614070D01*
G03X390980Y-614620I4621J7159D01*
G01X391210Y-614510D01*
X391720Y-614540D01*
X393370Y-615580D01*
G02X393830Y-616430I-542J-843D01*
G01Y-622930D01*
G03X394830Y-623930I1000J0D01*
G01X410870D01*
G03X411870Y-622930I0J1000D01*
G01Y-612680D01*
G02X412870Y-611680I1000J0D01*
G01X454570D01*
G03X457940Y-610280I0J4756D01*
G01X481480Y-586740D01*
G02X482600Y-586280I1115J-1121D01*
G01X495580D01*
G02X496580Y-587280I0J-1000D01*
G01Y-591030D01*
G03X497580Y-592030I1000J0D01*
G01X508330D01*
G02X509250Y-592650I-5J-1000D01*
G01X509370Y-592930D01*
X509250Y-593510D01*
X506670Y-596100D01*
G02X505960Y-596390I-705J711D01*
G01X497580D01*
G03X496580Y-597390I0J-1000D01*
G01Y-616430D01*
G03X497580Y-617430I1000J0D01*
G01X512120D01*
G03X513120Y-616430I0J1000D01*
G01Y-603550D01*
G02X513410Y-602840I1001J5D01*
G01X513880Y-602380D01*
G02X514970Y-602160I709J-705D01*
G01X515250Y-602280D01*
X515580Y-602780D01*
Y-616430D01*
G03X516580Y-617430I1000J0D01*
G01X518080D01*
G02X519080Y-618430I0J-1000D01*
G01Y-620790D01*
G02X518080Y-621790I-1000J0D01*
G01X516580D01*
G03X515580Y-622790I0J-1000D01*
G01Y-637660D01*
G02X514580Y-638660I-1000J0D01*
G01X512890D01*
G02X511890Y-637660I0J1000D01*
G01Y-624020D01*
G03X510890Y-623020I-1000J0D01*
G01X498810D01*
G03X497810Y-624020I0J-1000D01*
G01Y-637660D01*
G02X496810Y-638660I-1000J0D01*
G01X454990D01*
G37*
G36*
G01X434430Y-570390D02*
G02X433310Y-569930I-5J1581D01*
G01X411630Y-548250D01*
G03X403770Y-544990I-7865J-7859D01*
G01X374220D01*
G02X373220Y-543990I0J1000D01*
G01Y-543820D01*
X372640Y-543240D01*
X372570D01*
X371990Y-542660D01*
Y-531880D01*
G02X372990Y-530880I1000J0D01*
G01X373220D01*
Y-530130D01*
G02X374220Y-529130I1000J0D01*
G01X431570D01*
G02X432330Y-529490I-8J-998D01*
G01X433460Y-530830D01*
X433580Y-531250D01*
X433540Y-531470D01*
G03X433380Y-533340I10959J-1880D01*
G01Y-538490D01*
G02X432990Y-539280I-1000J2D01*
G03X429630Y-546060I5161J-6780D01*
G01Y-555560D01*
G03X446670I8520J0D01*
G01Y-546060D01*
G03X443310Y-539280I-8521J0D01*
G02X442920Y-538490I610J792D01*
G01Y-533340D01*
G02X443380Y-532220I1581J5D01*
G01X446180Y-529420D01*
G02X446890Y-529130I705J-711D01*
G01X492230D01*
G02X492940Y-529420I5J-1001D01*
G01X507400Y-543890D01*
G02X507620Y-544980I-705J-709D01*
G01X507500Y-545260D01*
X507000Y-545590D01*
X497580D01*
G03X496580Y-546590I0J-1000D01*
G01Y-550340D01*
G02X495580Y-551340I-1000J0D01*
G01X485230D01*
G02X484110Y-550880I-5J1581D01*
G01X482530Y-549300D01*
G03X474670Y-546040I-7865J-7859D01*
G01X472630D01*
X472060Y-545530D01*
X472020Y-545150D01*
G03X455030Y-546060I-8471J-910D01*
G01Y-555560D01*
G03X457200Y-561250I8523J-8D01*
G01X457340Y-561390D01*
X457470Y-561740D01*
X457420Y-563310D01*
G02X457130Y-563990I-998J24D01*
G01X451200Y-569930D01*
G02X450080Y-570390I-1115J1121D01*
G01X434430D01*
G37*
G36*
G01X708810Y-597780D02*
X703730Y-592700D01*
G03X695870Y-589440I-7865J-7859D01*
G01X574130D01*
G03X566270Y-592700I5J-11119D01*
G01X557290Y-601680D01*
G02X556170Y-602140I-1115J1121D01*
G01X533120D01*
G02X532120Y-601140I0J1000D01*
G01Y-597390D01*
G03X531120Y-596390I-1000J0D01*
G01X520990D01*
G02X520230Y-596050I-8J1001D01*
G01X519090Y-594730D01*
X518980Y-594330D01*
X519010Y-594110D01*
G03X519110Y-592990I-11013J1548D01*
G01X519130Y-592580D01*
X519700Y-592030D01*
X531120D01*
G03X532120Y-591030I0J1000D01*
G01Y-587280D01*
G02X533120Y-586280I1000J0D01*
G01X695870D01*
G03X703730Y-583020I-5J11119D01*
G01X708810Y-577940D01*
G03X712050Y-570810I-7855J7871D01*
G01X712070Y-570420D01*
X712650Y-569880D01*
X720070D01*
G03X721070Y-568880I0J1000D01*
G01Y-563130D01*
G02X722070Y-562130I1000J0D01*
G01X724280D01*
G02X725280Y-563130I0J-1000D01*
G01Y-567630D01*
G03X726280Y-568630I1000J0D01*
G01X745320D01*
G03X746320Y-567630I0J1000D01*
G01Y-544590D01*
G03X745320Y-543590I-1000J0D01*
G01X726280D01*
G03X725280Y-544590I0J-1000D01*
G01Y-549090D01*
G02X724280Y-550090I-1000J0D01*
G01X722070D01*
G02X721070Y-549090I0J1000D01*
G01Y-543340D01*
G03X720070Y-542340I-1000J0D01*
G01X694530D01*
G03X693530Y-543340I0J-1000D01*
G01Y-568880D01*
G03X694530Y-569880I1000J0D01*
G01X700980D01*
G02X701900Y-570500I-5J-1000D01*
G01X702020Y-570780D01*
X701900Y-571360D01*
X696990Y-576280D01*
G02X695870Y-576740I-1115J1121D01*
G01X533120D01*
G02X532120Y-575740I0J1000D01*
G01Y-571990D01*
G03X531120Y-570990I-1000J0D01*
G01X529620D01*
G02X528620Y-569990I0J1000D01*
G01Y-567630D01*
G02X529620Y-566630I1000J0D01*
G01X531120D01*
G03X532120Y-565630I0J1000D01*
G01Y-546590D01*
G03X531120Y-545590I-1000J0D01*
G01X519640D01*
X519080Y-545100D01*
X519030Y-544730D01*
G03X516340Y-539340I-9377J-1314D01*
G01X498470Y-521470D01*
G03X496920Y-520430I-3381J-3364D01*
G03X492690Y-519590I-4240J-10281D01*
G01X374220D01*
G02X373220Y-518590I0J1000D01*
G01Y-518420D01*
X372640Y-517840D01*
X372570D01*
X371990Y-517260D01*
Y-506480D01*
G02X372990Y-505480I1000J0D01*
G01X373220D01*
Y-504730D01*
G02X374220Y-503730I1000J0D01*
G01X473620D01*
G03X481480Y-500470I-5J11119D01*
G01X496810Y-485140D01*
G02X497930Y-484680I1115J-1121D01*
G03X500050Y-484180I-6J4769D01*
G01X500160Y-484130D01*
X500370Y-484080D01*
X512120D01*
G03X513120Y-483080I0J1000D01*
G01Y-464040D01*
G03X512120Y-463040I-1000J0D01*
G01X497580D01*
G03X496580Y-464040I0J-1000D01*
G01Y-474240D01*
G02X496260Y-474970I-1000J3D01*
G01X495960Y-475240D01*
X495740Y-475360D01*
X495600Y-475390D01*
G03X490070Y-478400I2333J-10870D01*
G01X474740Y-493730D01*
G02X473620Y-494190I-1115J1121D01*
G01X433020D01*
G02X432100Y-493570I5J1000D01*
G01X431980Y-493290D01*
X432100Y-492710D01*
X439660Y-485140D01*
G03X442920Y-477280I-7859J7865D01*
G01Y-472130D01*
G02X443310Y-471340I1000J-2D01*
G03X446670Y-464560I-5161J6780D01*
G01Y-455060D01*
G03X444860Y-449810I-8519J0D01*
G01X444680Y-449580D01*
X444620Y-449020D01*
X445540Y-447140D01*
G02X446440Y-446580I898J-440D01*
G01X447670D01*
G02X448790Y-447040I5J-1581D01*
G01X454990Y-453240D01*
X455140Y-453690D01*
X455110Y-453920D01*
G03X455030Y-455060I8438J-1165D01*
G01Y-464560D01*
G03X472070I8520J0D01*
G01Y-455060D01*
G03X472010Y-454050I-8531J0D01*
G02X472870Y-452940I994J118D01*
G02X473080Y-452930I180J-1571D01*
G01X495580D01*
G02X496580Y-453930I0J-1000D01*
G01Y-457680D01*
G03X497580Y-458680I1000J0D01*
G01X512120D01*
G03X513120Y-457680I0J1000D01*
G01Y-438640D01*
G03X512120Y-437640I-1000J0D01*
G01X497580D01*
G03X496580Y-438640I0J-1000D01*
G01Y-442390D01*
G02X495580Y-443390I-1000J0D01*
G01X473080D01*
G03X465520Y-446360I5J-11119D01*
G02X464700Y-446620I-683J732D01*
G03X462410I-1145J-8441D01*
G01X462180Y-446650D01*
X461730Y-446500D01*
X455530Y-440300D01*
G03X447670Y-437040I-7865J-7859D01*
G01X431800D01*
G03X420680Y-448160I0J-11120D01*
G01Y-479910D01*
G02X419100Y-481490I-1580J0D01*
G01X406230D01*
G02X405280Y-480810I-3J999D01*
G01X404570Y-478710D01*
X404750Y-478100D01*
X405010Y-477900D01*
G03X408170Y-472270I-4963J6487D01*
G01X408220Y-471890D01*
X408780Y-471380D01*
X410220D01*
G03X411220Y-470380I0J1000D01*
G01Y-451340D01*
G03X410220Y-450340I-1000J0D01*
G01X409220D01*
G02X408220Y-449340I0J1000D01*
G01Y-448920D01*
G02X408510Y-448210I1001J5D01*
G01X408800Y-447930D01*
G03X412090Y-442030I-8750J8747D01*
G02X412360Y-441550I972J-231D01*
G03X400650Y-429180I-5958J6088D01*
G01X400510Y-429300D01*
X400160Y-429440D01*
X399520D01*
G02X398520Y-428440I0J1000D01*
G01Y-425940D01*
G03X397520Y-424940I-1000J0D01*
G01X381480D01*
G03X380480Y-425940I0J-1000D01*
G01Y-426170D01*
X365710D01*
G03X364710Y-427170I0J-1000D01*
G01Y-443750D01*
G03X365710Y-444750I1000J0D01*
G01X379480D01*
G02X380480Y-445750I0J-1000D01*
G01Y-445980D01*
X394200D01*
G02X394920Y-446290I-4J-1000D01*
G01X396060Y-447490D01*
X396200Y-447860D01*
X396190Y-448070D01*
G03X396180Y-448640I12361J-502D01*
G01Y-449340D01*
G02X395180Y-450340I-1000J0D01*
G01X394180D01*
G03X393180Y-451340I0J-1000D01*
G01Y-451570D01*
X378410D01*
G03X377410Y-452570I0J-1000D01*
G01Y-466540D01*
G02X376410Y-467540I-1000J0D01*
G01X373720D01*
X373510Y-467330D01*
G03X372810Y-467040I-704J-710D01*
G01X372570D01*
X371990Y-466460D01*
Y-456570D01*
G03X370990Y-455570I-1000J0D01*
G01X350250D01*
G02X349250Y-454570I0J1000D01*
G01Y-426410D01*
G02X359250Y-416410I10000J0D01*
G01X414960D01*
G02X422030Y-419340I-2J-10000D01*
G01X422520Y-419830D01*
G03X429590Y-422760I7072J7070D01*
G01X781990D01*
G02X782920Y-423400I-3J-999D01*
G01X783700Y-425440D01*
X783560Y-426040D01*
X783320Y-426250D01*
G03X782830Y-426710I8220J-9247D01*
G01X775020Y-434520D01*
G02X773930Y-434740I-709J703D01*
G01X773650Y-434620D01*
X773320Y-434130D01*
Y-430290D01*
G03X772320Y-429290I-1000J0D01*
G01X753280D01*
G03X752280Y-430290I0J-1000D01*
G01Y-453330D01*
G03X753280Y-454330I1000J0D01*
G01X772320D01*
G03X773320Y-453330I0J1000D01*
G01Y-449210D01*
G02X773590Y-448520I1002J6D01*
G01X774000Y-448100D01*
G02X774640Y-447790I727J-684D01*
G03X782370Y-444210I-1017J12330D01*
G01X788730Y-437850D01*
G02X789820Y-437630I709J-703D01*
G01X790100Y-437750D01*
X790430Y-438240D01*
Y-444130D01*
G03X791430Y-445130I1000J0D01*
G01X821470D01*
G03X822470Y-444130I0J1000D01*
G01Y-425200D01*
G02X822890Y-424390I999J-4D01*
G01X824220Y-423440D01*
G02X825120Y-423310I577J-816D01*
G02X831850Y-432760I-3270J-9450D01*
G01Y-628660D01*
G02X824550Y-638290I-10002J0D01*
G02X823590Y-638050I-269J963D01*
G01X822150Y-636680D01*
X822000Y-636180D01*
X822060Y-635910D01*
G03X791860Y-625700I-15610J3595D01*
G02X790950Y-626290I-913J411D01*
G01X787650D01*
X787080Y-625740D01*
X787060Y-625330D01*
G03X774800Y-613590I-12260J-532D01*
G01X774320D01*
G02X773320Y-612590I0J1000D01*
G01Y-608090D01*
G03X772320Y-607090I-1000J0D01*
G01X753280D01*
G03X752280Y-608090I0J-1000D01*
G01Y-631130D01*
G03X753280Y-632130I1000J0D01*
G01X772320D01*
G03X773320Y-631130I0J1000D01*
G01Y-628730D01*
G02X774320Y-627730I1000J0D01*
G01X774680D01*
X775220Y-628170D01*
X775300Y-628520D01*
G03X779140Y-635170I12103J2555D01*
G01X779380Y-635380D01*
X779520Y-635980D01*
X778740Y-638020D01*
G02X777810Y-638660I-933J359D01*
G01X533120D01*
G02X532120Y-637660I0J1000D01*
G01Y-622790D01*
G03X531120Y-621790I-1000J0D01*
G01X529620D01*
G02X528620Y-620790I0J1000D01*
G01Y-618430D01*
G02X529620Y-617430I1000J0D01*
G01X531120D01*
G03X532120Y-616430I0J1000D01*
G01Y-612680D01*
G02X533120Y-611680I1000J0D01*
G01X556170D01*
G03X564030Y-608420I-5J11119D01*
G01X573010Y-599440D01*
G02X574130Y-598980I1115J-1121D01*
G01X695870D01*
G02X696990Y-599440I5J-1581D01*
G01X701680Y-604140D01*
G02X701900Y-605230I-705J-709D01*
G01X701780Y-605510D01*
X701280Y-605840D01*
X694530D01*
G03X693530Y-606840I0J-1000D01*
G01Y-632380D01*
G03X694530Y-633380I1000J0D01*
G01X720070D01*
G03X721070Y-632380I0J1000D01*
G01Y-626630D01*
G02X722070Y-625630I1000J0D01*
G01X724280D01*
G02X725280Y-626630I0J-1000D01*
G01Y-631130D01*
G03X726280Y-632130I1000J0D01*
G01X745320D01*
G03X746320Y-631130I0J1000D01*
G01Y-608090D01*
G03X745320Y-607090I-1000J0D01*
G01X726280D01*
G03X725280Y-608090I0J-1000D01*
G01Y-612590D01*
G02X724280Y-613590I-1000J0D01*
G01X722070D01*
G02X721070Y-612590I0J1000D01*
G01Y-606840D01*
G03X720070Y-605840I-1000J0D01*
G01X712650D01*
X712070Y-605300D01*
X712050Y-604910D01*
G03X708810Y-597780I-11095J-741D01*
G37*
G36*
G01X381000Y-269110D02*
Y-208110D01*
G02X382250Y-206860I1250J0D01*
G01X417210D01*
G02X418460Y-208110I0J-1250D01*
G01Y-241450D01*
G03X419710Y-242700I1250J0D01*
G01X434790D01*
G03X436040Y-241450I0J1250D01*
G01Y-208110D01*
G02X437290Y-206860I1250J0D01*
G01X437300D01*
G02X438550Y-208110I0J-1250D01*
G01Y-269110D01*
G02X437300Y-270360I-1250J0D01*
G01X382250D01*
G02X381000Y-269110I0J1250D01*
G37*
G36*
G01Y-84960D02*
Y-23960D01*
G02X382250Y-22710I1250J0D01*
G01X417210D01*
G02X418460Y-23960I0J-1250D01*
G01Y-57300D01*
G03X419710Y-58550I1250J0D01*
G01X434790D01*
G03X436040Y-57300I0J1250D01*
G01Y-23960D01*
G02X437290Y-22710I1250J0D01*
G01X437300D01*
G02X438550Y-23960I0J-1250D01*
G01Y-84960D01*
G02X437300Y-86210I-1250J0D01*
G01X382250D01*
G02X381000Y-84960I0J1250D01*
G37*
G36*
G01Y86490D02*
Y147490D01*
G02X382250Y148740I1250J0D01*
G01X416810D01*
G02X418060Y147490I0J-1250D01*
G01Y114150D01*
G03X419310Y112900I1250J0D01*
G01X434390D01*
G03X435640Y114150I0J1250D01*
G01Y147490D01*
G02X436890Y148740I1250J0D01*
G01X436900D01*
G02X438150Y147490I0J-1250D01*
G01Y86490D01*
G02X436900Y85240I-1250J0D01*
G01X382250D01*
G02X381000Y86490I0J1250D01*
G37*
G36*
G01X411870Y-1109140D02*
Y-1098890D01*
G03X410870Y-1097890I-1000J0D01*
G01X409870D01*
G02X408870Y-1096890I0J1000D01*
G01Y-1094680D01*
G02X409870Y-1093680I1000J0D01*
G01X410220D01*
G03X411220Y-1092680I0J1000D01*
G01Y-1073640D01*
G03X410220Y-1072640I-1000J0D01*
G01X408780D01*
X408220Y-1072130D01*
X408170Y-1071750D01*
G03X405010Y-1066120I-8123J-857D01*
G01X404750Y-1065920D01*
X404570Y-1065310D01*
X405280Y-1063210D01*
G02X406230Y-1062530I947J-319D01*
G01X473620D01*
G02X474740Y-1062990I5J-1581D01*
G01X477370Y-1065620D01*
G03X485230Y-1068880I7865J7859D01*
G01X495580D01*
G02X496580Y-1069880I0J-1000D01*
G01Y-1073630D01*
G03X497580Y-1074630I1000J0D01*
G01X508580D01*
G02X509580Y-1075630I0J-1000D01*
G01Y-1077990D01*
G02X508580Y-1078990I-1000J0D01*
G01X497580D01*
G03X496580Y-1079990I0J-1000D01*
G01Y-1083740D01*
G02X495580Y-1084740I-1000J0D01*
G01X482600D01*
G03X474740Y-1088000I5J-11119D01*
G01X452890Y-1109850D01*
G02X452180Y-1110140I-705J711D01*
G01X412870D01*
G02X411870Y-1109140I0J1000D01*
G37*
G36*
G01Y-855140D02*
Y-844890D01*
G03X410870Y-843890I-1000J0D01*
G01X409870D01*
G02X408870Y-842890I0J1000D01*
G01Y-840680D01*
G02X409870Y-839680I1000J0D01*
G01X410220D01*
G03X411220Y-838680I0J1000D01*
G01Y-817730D01*
G02X411840Y-816810I1000J-5D01*
G01X412120Y-816690D01*
X412700Y-816810D01*
X426570Y-830670D01*
G03X434430Y-833930I7865J7859D01*
G01X450080D01*
G03X457940Y-830670I-5J11119D01*
G01X465060Y-823550D01*
G03X468230Y-817080I-7860J7863D01*
G02X468630Y-816400I993J-126D01*
G03X472020Y-810470I-5081J6839D01*
G01X472060Y-810090D01*
X472630Y-809580D01*
X474670D01*
G02X475790Y-810040I5J-1581D01*
G01X477370Y-811620D01*
G03X485230Y-814880I7865J7859D01*
G01X495580D01*
G02X496580Y-815880I0J-1000D01*
G01Y-819630D01*
G03X497580Y-820630I1000J0D01*
G01X508580D01*
G02X509580Y-821630I0J-1000D01*
G01Y-823990D01*
G02X508580Y-824990I-1000J0D01*
G01X497580D01*
G03X496580Y-825990I0J-1000D01*
G01Y-829740D01*
G02X495580Y-830740I-1000J0D01*
G01X482600D01*
G03X474740Y-834000I5J-11119D01*
G01X452890Y-855850D01*
G02X452180Y-856140I-705J711D01*
G01X412870D01*
G02X411870Y-855140I0J1000D01*
G37*
G36*
G01Y-601140D02*
Y-590890D01*
G03X410870Y-589890I-1000J0D01*
G01X409870D01*
G02X408870Y-588890I0J1000D01*
G01Y-586680D01*
G02X409870Y-585680I1000J0D01*
G01X410220D01*
G03X411220Y-584680I0J1000D01*
G01Y-563730D01*
G02X411840Y-562810I1000J-5D01*
G01X412120Y-562690D01*
X412700Y-562810D01*
X426570Y-576670D01*
G03X434430Y-579930I7865J7859D01*
G01X450080D01*
G03X457940Y-576670I-5J11119D01*
G01X465060Y-569550D01*
G03X468230Y-563080I-7860J7863D01*
G02X468630Y-562400I993J-126D01*
G03X472020Y-556470I-5081J6839D01*
G01X472060Y-556090D01*
X472630Y-555580D01*
X474670D01*
G02X475790Y-556040I5J-1581D01*
G01X477370Y-557620D01*
G03X485230Y-560880I7865J7859D01*
G01X495580D01*
G02X496580Y-561880I0J-1000D01*
G01Y-565630D01*
G03X497580Y-566630I1000J0D01*
G01X508580D01*
G02X509580Y-567630I0J-1000D01*
G01Y-569990D01*
G02X508580Y-570990I-1000J0D01*
G01X497580D01*
G03X496580Y-571990I0J-1000D01*
G01Y-575740D01*
G02X495580Y-576740I-1000J0D01*
G01X482600D01*
G03X474740Y-580000I5J-11119D01*
G01X452890Y-601850D01*
G02X452180Y-602140I-705J711D01*
G01X412870D01*
G02X411870Y-601140I0J1000D01*
G37*
G36*
G01X463950Y-269110D02*
Y-214460D01*
G02X465200Y-213210I1250J0D01*
G01X465210D01*
G02X466460Y-214460I0J-1250D01*
G01Y-241450D01*
G03X467710Y-242700I1250J0D01*
G01X482790D01*
G03X484040Y-241450I0J1250D01*
G01Y-214460D01*
G02X485290Y-213210I1250J0D01*
G01X494450D01*
G02X495700Y-214460I0J-1250D01*
G01Y-243710D01*
G03X496950Y-244960I1250J0D01*
G01X735750D01*
G02X737000Y-246210I0J-1250D01*
G01Y-269110D01*
G02X735750Y-270360I-1250J0D01*
G01X465200D01*
G02X463950Y-269110I0J1250D01*
G37*
G36*
G01X603650Y-211960D02*
Y-182710D01*
G03X602400Y-181460I-1250J0D01*
G01X573990D01*
G02X572740Y-180210I0J1250D01*
G01Y-154020D01*
G03X571490Y-152770I-1250J0D01*
G01X546910D01*
G03X545660Y-154020I0J-1250D01*
G01Y-180210D01*
G02X544410Y-181460I-1250J0D01*
G01X487140D01*
G02X485890Y-180210I0J1250D01*
G01Y-156470D01*
G03X484640Y-155220I-1250J0D01*
G01X465200D01*
G02X463950Y-153970I0J1250D01*
G01Y-150960D01*
G02X465200Y-149710I1250J0D01*
G01X633110D01*
G02X634360Y-150960I0J-1250D01*
G01Y-184300D01*
G03X635610Y-185550I1250J0D01*
G01X650690D01*
G03X651940Y-184300I0J1250D01*
G01Y-150960D01*
G02X653190Y-149710I1250J0D01*
G01X653200D01*
G02X654450Y-150960I0J-1250D01*
G01Y-211960D01*
G02X653200Y-213210I-1250J0D01*
G01X604900D01*
G02X603650Y-211960I0J1250D01*
G37*
G36*
G01X463950Y-84960D02*
Y-30310D01*
G02X465200Y-29060I1250J0D01*
G01X465210D01*
G02X466460Y-30310I0J-1250D01*
G01Y-57300D01*
G03X467710Y-58550I1250J0D01*
G01X482790D01*
G03X484040Y-57300I0J1250D01*
G01Y-30310D01*
G02X485290Y-29060I1250J0D01*
G01X494450D01*
G02X495700Y-30310I0J-1250D01*
G01Y-59560D01*
G03X496950Y-60810I1250J0D01*
G01X735750D01*
G02X737000Y-62060I0J-1250D01*
G01Y-84960D01*
G02X735750Y-86210I-1250J0D01*
G01X465200D01*
G02X463950Y-84960I0J1250D01*
G37*
G36*
G01X603650Y-27810D02*
Y1440D01*
G03X602400Y2690I-1250J0D01*
G01X573990D01*
G02X572740Y3940I0J1250D01*
G01Y30130D01*
G03X571490Y31380I-1250J0D01*
G01X546910D01*
G03X545660Y30130I0J-1250D01*
G01Y3940D01*
G02X544410Y2690I-1250J0D01*
G01X487140D01*
G02X485890Y3940I0J1250D01*
G01Y27680D01*
G03X484640Y28930I-1250J0D01*
G01X465200D01*
G02X463950Y30180I0J1250D01*
G01Y33190D01*
G02X465200Y34440I1250J0D01*
G01X633110D01*
G02X634360Y33190I0J-1250D01*
G01Y-150D01*
G03X635610Y-1400I1250J0D01*
G01X650690D01*
G03X651940Y-150I0J1250D01*
G01Y33190D01*
G02X653190Y34440I1250J0D01*
G01X653200D01*
G02X654450Y33190I0J-1250D01*
G01Y-27810D01*
G02X653200Y-29060I-1250J0D01*
G01X604900D01*
G02X603650Y-27810I0J1250D01*
G37*
G36*
G01X463550Y86490D02*
Y141140D01*
G02X464800Y142390I1250J0D01*
G01X464810D01*
G02X466060Y141140I0J-1250D01*
G01Y114150D01*
G03X467310Y112900I1250J0D01*
G01X482390D01*
G03X483640Y114150I0J1250D01*
G01Y141140D01*
G02X484890Y142390I1250J0D01*
G01X494050D01*
G02X495300Y141140I0J-1250D01*
G01Y111890D01*
G03X496550Y110640I1250J0D01*
G01X735350D01*
G02X736600Y109390I0J-1250D01*
G01Y86490D01*
G02X735350Y85240I-1250J0D01*
G01X464800D01*
G02X463550Y86490I0J1250D01*
G37*
G36*
G01X603250Y143640D02*
Y172890D01*
G03X602000Y174140I-1250J0D01*
G01X573590D01*
G02X572340Y175390I0J1250D01*
G01Y201580D01*
G03X571090Y202830I-1250J0D01*
G01X546510D01*
G03X545260Y201580I0J-1250D01*
G01Y175390D01*
G02X544010Y174140I-1250J0D01*
G01X487140D01*
G02X485890Y175390I0J1250D01*
G01Y199130D01*
G03X484640Y200380I-1250J0D01*
G01X464800D01*
G02X463550Y201630I0J1250D01*
G01Y204640D01*
G02X464800Y205890I1250J0D01*
G01X632710D01*
G02X633960Y204640I0J-1250D01*
G01Y171300D01*
G03X635210Y170050I1250J0D01*
G01X650290D01*
G03X651540Y171300I0J1250D01*
G01Y204640D01*
G02X652790Y205890I1250J0D01*
G01X652800D01*
G02X654050Y204640I0J-1250D01*
G01Y143640D01*
G02X652800Y142390I-1250J0D01*
G01X604500D01*
G02X603250Y143640I0J1250D01*
G37*
G36*
G01X679850Y-211960D02*
Y-150960D01*
G02X681100Y-149710I1250J0D01*
G01X681110D01*
G02X682360Y-150960I0J-1250D01*
G01Y-184300D01*
G03X683610Y-185550I1250J0D01*
G01X698690D01*
G03X699940Y-184300I0J1250D01*
G01Y-150960D01*
G02X701190Y-149710I1250J0D01*
G01X735750D01*
G02X737000Y-150960I0J-1250D01*
G01Y-211960D01*
G02X735750Y-213210I-1250J0D01*
G01X681100D01*
G02X679850Y-211960I0J1250D01*
G37*
G36*
G01Y-27810D02*
Y33190D01*
G02X681100Y34440I1250J0D01*
G01X681110D01*
G02X682360Y33190I0J-1250D01*
G01Y-150D01*
G03X683610Y-1400I1250J0D01*
G01X698690D01*
G03X699940Y-150I0J1250D01*
G01Y33190D01*
G02X701190Y34440I1250J0D01*
G01X735750D01*
G02X737000Y33190I0J-1250D01*
G01Y-27810D01*
G02X735750Y-29060I-1250J0D01*
G01X681100D01*
G02X679850Y-27810I0J1250D01*
G37*
G36*
G01X679450Y143640D02*
Y204640D01*
G02X680700Y205890I1250J0D01*
G01X680710D01*
G02X681960Y204640I0J-1250D01*
G01Y171300D01*
G03X683210Y170050I1250J0D01*
G01X698290D01*
G03X699540Y171300I0J1250D01*
G01Y204640D01*
G02X700790Y205890I1250J0D01*
G01X735350D01*
G02X736600Y204640I0J-1250D01*
G01Y143640D01*
G02X735350Y142390I-1250J0D01*
G01X680700D01*
G02X679450Y143640I0J1250D01*
G37*
%LPC*%
G75*
G36*
G01X110640Y-695840D02*
X92560D01*
G02X91560Y-694840I0J1000D01*
G01Y-676760D01*
G02X92560Y-675760I1000J0D01*
G01X110640D01*
G02X111640Y-676760I0J-1000D01*
G01Y-694840D01*
G02X110640Y-695840I-1000J0D01*
G37*
G36*
G01X207190Y-1118000D02*
X193610D01*
G02X192610Y-1117000I0J1000D01*
G01Y-1087420D01*
G02X193610Y-1086420I1000J0D01*
G01X207190D01*
G02X208190Y-1087420I0J-1000D01*
G01Y-1117000D01*
G02X207190Y-1118000I-1000J0D01*
G37*
G36*
G01Y-851300D02*
X193610D01*
G02X192610Y-850300I0J1000D01*
G01Y-820720D01*
G02X193610Y-819720I1000J0D01*
G01X207190D01*
G02X208190Y-820720I0J-1000D01*
G01Y-850300D01*
G02X207190Y-851300I-1000J0D01*
G37*
G36*
G01X193610Y-565720D02*
X207190D01*
G02X208190Y-566720I0J-1000D01*
G01Y-596300D01*
G02X207190Y-597300I-1000J0D01*
G01X193610D01*
G02X192610Y-596300I0J1000D01*
G01Y-566720D01*
G02X193610Y-565720I1000J0D01*
G37*
G36*
G01X475720Y625640D02*
Y624940D01*
X474260Y623480D01*
X455680D01*
X454450Y624710D01*
X442410D01*
G02X439910Y627210I0J2500D01*
G01Y642790D01*
G02X442410Y645290I2500J0D01*
G01X454450D01*
X454950Y645790D01*
G02X456720Y646520I1766J-1770D01*
G01X474260D01*
X475720Y645060D01*
Y644360D01*
G02Y625640I1750J-9360D01*
G37*
G36*
G01Y301790D02*
Y301090D01*
X474260Y299630D01*
X455680D01*
X454450Y300860D01*
X442410D01*
G02X439910Y303360I0J2500D01*
G01Y318940D01*
G02X442410Y321440I2500J0D01*
G01X454450D01*
X454950Y321940D01*
G02X456720Y322670I1766J-1770D01*
G01X474260D01*
X475720Y321210D01*
Y320510D01*
G02Y301790I1750J-9360D01*
G37*
G36*
G01X67610Y661240D02*
X89690D01*
G02X92190Y658740I0J-2500D01*
G01Y636660D01*
G02X89690Y634160I-2500J0D01*
G01X67610D01*
G02X65110Y636660I0J2500D01*
G01Y658740D01*
G02X67610Y661240I2500J0D01*
G37*
G36*
G01X373930Y408880D02*
X374510Y409290D01*
G02Y390810I6490J-9240D01*
G01X373930Y391220D01*
X372550Y391310D01*
X368670Y389290D01*
G02X367520Y389010I-1150J2220D01*
G01X347060D01*
G02X344560Y391510I0J2500D01*
G01Y408590D01*
G02X347060Y411090I2500J0D01*
G01X367520D01*
G02X368670Y410810I0J-2500D01*
G01X372550Y408790D01*
X373930Y408880D01*
G37*
G36*
G01X581470Y-972580D02*
X574230D01*
X573660Y-973090D01*
X573620Y-973470D01*
G02X556630Y-972560I-8471J910D01*
G01Y-963060D01*
G02X556690Y-962050I8531J0D01*
G03X555830Y-960940I-994J118D01*
G03X555620Y-960930I-180J-1571D01*
G01X533120D01*
G03X532120Y-961930I0J-1000D01*
G01Y-965680D01*
G02X531120Y-966680I-1000J0D01*
G01X516580D01*
G02X515580Y-965680I0J1000D01*
G01Y-946640D01*
G02X516580Y-945640I1000J0D01*
G01X531120D01*
G02X532120Y-946640I0J-1000D01*
G01Y-950390D01*
G03X533120Y-951390I1000J0D01*
G01X555620D01*
G02X563180Y-954360I-5J-11119D01*
G03X564000Y-954620I683J732D01*
G02X573620Y-962150I1150J-8441D01*
G01X573660Y-962530D01*
X574230Y-963040D01*
X581470D01*
X582040Y-962530D01*
X582080Y-962150D01*
G02X599020I8470J-910D01*
G01X599060Y-962530D01*
X599630Y-963040D01*
X612270D01*
G02X620130Y-966300I-5J-11119D01*
G01X623810Y-969980D01*
G03X624930Y-970440I1115J1121D01*
G01X695870D01*
G03X696990Y-969980I5J1581D01*
G01X701680Y-965280D01*
G03X701900Y-964190I-705J709D01*
G01X701780Y-963910D01*
X701280Y-963580D01*
X694530D01*
G02X693530Y-962580I0J1000D01*
G01Y-937040D01*
G02X694530Y-936040I1000J0D01*
G01X720070D01*
G02X721070Y-937040I0J-1000D01*
G01Y-942790D01*
G03X722070Y-943790I1000J0D01*
G01X724280D01*
G03X725280Y-942790I0J1000D01*
G01Y-938290D01*
G02X726280Y-937290I1000J0D01*
G01X745320D01*
G02X746320Y-938290I0J-1000D01*
G01Y-961330D01*
G02X745320Y-962330I-1000J0D01*
G01X726280D01*
G02X725280Y-961330I0J1000D01*
G01Y-956830D01*
G03X724280Y-955830I-1000J0D01*
G01X722070D01*
G03X721070Y-956830I0J-1000D01*
G01Y-962580D01*
G02X720070Y-963580I-1000J0D01*
G01X712650D01*
X712070Y-964120D01*
X712050Y-964510D01*
G02X708810Y-971640I-11095J741D01*
G01X703730Y-976720D01*
G02X695870Y-979980I-7865J7859D01*
G01X624930D01*
G02X617070Y-976720I5J11119D01*
G01X613390Y-973040D01*
G03X612270Y-972580I-1115J-1121D01*
G01X599630D01*
X599060Y-973090D01*
X599020Y-973470D01*
G02X582080I-8470J910D01*
G01X582040Y-973090D01*
X581470Y-972580D01*
G37*
G36*
G01X765740Y-988360D02*
X768580Y-985510D01*
G02X777330Y-981890I8744J-8752D01*
G01X790950D01*
G03X791860Y-981300I-3J1001D01*
G02Y-994520I14590J-6610D01*
G03X790950Y-993930I-913J-411D01*
G01X777610D01*
G03X776900Y-994220I-5J-1001D01*
G01X772040Y-999090D01*
G03X771820Y-1000180I703J-709D01*
G01X771940Y-1000460D01*
X772430Y-1000790D01*
X772740D01*
X773320Y-1001370D01*
Y-1024830D01*
G02X772320Y-1025830I-1000J0D01*
G01X753280D01*
G02X752280Y-1024830I0J1000D01*
G01Y-1001790D01*
G02X753280Y-1000790I1000J0D01*
G01X755780D01*
G03X756780Y-999790I0J1000D01*
G01Y-999310D01*
G02X765360Y-988520I11075J0D01*
G01X765500Y-988490D01*
X765740Y-988360D01*
G37*
G36*
G01X650660Y-993140D02*
X641210Y-1002590D01*
G03X640920Y-1003300I711J-705D01*
G01Y-1012180D01*
G02X639920Y-1013180I-1000J0D01*
G01X617380D01*
G02X616380Y-1012180I0J1000D01*
G01Y-1010430D01*
G03X615380Y-1009430I-1000J0D01*
G01X540320D01*
G03X539320Y-1010430I0J-1000D01*
G01Y-1012180D01*
G02X538320Y-1013180I-1000J0D01*
G01X515780D01*
G02X514780Y-1012180I0J1000D01*
G01Y-997140D01*
G02X515780Y-996140I1000J0D01*
G01X517650D01*
G03X518460Y-995730I3J1000D01*
G01X519560Y-994230D01*
X519630Y-993770D01*
X519560Y-993540D01*
G02X519370Y-992840I9761J3025D01*
G01X519280Y-992510D01*
X518740Y-992080D01*
X516580D01*
G02X515580Y-991080I0J1000D01*
G01Y-972040D01*
G02X516580Y-971040I1000J0D01*
G01X531120D01*
G02X532120Y-972040I0J-1000D01*
G01Y-992440D01*
G02X531940Y-993020I-1001J-7D01*
G01X531220Y-994040D01*
X531150Y-994510D01*
X531230Y-994750D01*
G02X531440Y-995410I-9626J-3426D01*
G01X531530Y-995740D01*
X532070Y-996140D01*
X538320D01*
G02X539320Y-997140I0J-1000D01*
G01Y-998890D01*
G03X540320Y-999890I1000J0D01*
G01X615380D01*
G03X616380Y-998890I0J1000D01*
G01Y-997140D01*
G02X617380Y-996140I1000J0D01*
G01X633760D01*
G03X634470Y-995850I5J1001D01*
G01X643920Y-986400D01*
G02X651780Y-983140I7865J-7859D01*
G01X695870D01*
G02X703730Y-986400I-5J-11119D01*
G01X708810Y-991480D01*
G02X712050Y-998610I-7855J-7871D01*
G01X712070Y-999000D01*
X712650Y-999540D01*
X720070D01*
G02X721070Y-1000540I0J-1000D01*
G01Y-1006290D01*
G03X722070Y-1007290I1000J0D01*
G01X724280D01*
G03X725280Y-1006290I0J1000D01*
G01Y-1001790D01*
G02X726280Y-1000790I1000J0D01*
G01X745320D01*
G02X746320Y-1001790I0J-1000D01*
G01Y-1024830D01*
G02X745320Y-1025830I-1000J0D01*
G01X726280D01*
G02X725280Y-1024830I0J1000D01*
G01Y-1020330D01*
G03X724280Y-1019330I-1000J0D01*
G01X722070D01*
G03X721070Y-1020330I0J-1000D01*
G01Y-1026080D01*
G02X720070Y-1027080I-1000J0D01*
G01X694530D01*
G02X693530Y-1026080I0J1000D01*
G01Y-1000540D01*
G02X694530Y-999540I1000J0D01*
G01X700980D01*
G03X701900Y-998920I-5J1000D01*
G01X702020Y-998640D01*
X701900Y-998060D01*
X696990Y-993140D01*
G03X695870Y-992680I-1115J-1121D01*
G01X651780D01*
G03X650660Y-993140I-5J-1581D01*
G37*
G36*
G01X592370Y-1045500D02*
X604720Y-1033150D01*
G02X612580Y-1029890I7865J-7859D01*
G01X615380D01*
G03X616380Y-1028890I0J1000D01*
G01Y-1027140D01*
G02X617380Y-1026140I1000J0D01*
G01X639920D01*
G02X640920Y-1027140I0J-1000D01*
G01Y-1042180D01*
G02X639920Y-1043180I-1000J0D01*
G01X617380D01*
G02X616380Y-1042180I0J1000D01*
G01Y-1040430D01*
G03X615380Y-1039430I-1000J0D01*
G01X612580D01*
G03X611460Y-1039890I-5J-1581D01*
G01X599110Y-1052240D01*
X598960Y-1052690D01*
X598990Y-1052920D01*
G02X599070Y-1054060I-8438J-1165D01*
G01Y-1063560D01*
G02X582030I-8520J0D01*
G01Y-1054060D01*
G02X591690Y-1045620I8517J0D01*
G01X591920Y-1045650D01*
X592370Y-1045500D01*
G37*
G36*
G01X768580Y-1091910D02*
X765740Y-1089060D01*
X765500Y-1088930D01*
X765360Y-1088900D01*
G02X756780Y-1078110I2495J10790D01*
G01Y-1077630D01*
G03X755780Y-1076630I-1000J0D01*
G01X753280D01*
G02X752280Y-1075630I0J1000D01*
G01Y-1052590D01*
G02X753280Y-1051590I1000J0D01*
G01X772320D01*
G02X773320Y-1052590I0J-1000D01*
G01Y-1075630D01*
G02X772320Y-1076630I-1000J0D01*
G01X772070D01*
X771820Y-1077240D01*
G03X772040Y-1078330I923J-381D01*
G01X776900Y-1083200D01*
G03X777610Y-1083490I705J711D01*
G01X790950D01*
G03X791860Y-1082900I-3J1001D01*
G02Y-1096120I14590J-6610D01*
G03X790950Y-1095530I-913J-411D01*
G01X777330D01*
G02X768580Y-1091910I-6J12372D01*
G37*
G36*
G01X652760Y-1115070D02*
X675840D01*
G02X676840Y-1116070I0J-1000D01*
G01Y-1139150D01*
G02X675840Y-1140150I-1000J0D01*
G01X652760D01*
G02X651760Y-1139150I0J1000D01*
G01Y-1116070D01*
G02X652760Y-1115070I1000J0D01*
G37*
G36*
G01Y-1051570D02*
X675840D01*
G02X676840Y-1052570I0J-1000D01*
G01Y-1075650D01*
G02X675840Y-1076650I-1000J0D01*
G01X652760D01*
G02X651760Y-1075650I0J1000D01*
G01Y-1052570D01*
G02X652760Y-1051570I1000J0D01*
G37*
G36*
G01Y-1000770D02*
X675840D01*
G02X676840Y-1001770I0J-1000D01*
G01Y-1024850D01*
G02X675840Y-1025850I-1000J0D01*
G01X652760D01*
G02X651760Y-1024850I0J1000D01*
G01Y-1001770D01*
G02X652760Y-1000770I1000J0D01*
G37*
G36*
G01Y-937270D02*
X675840D01*
G02X676840Y-938270I0J-1000D01*
G01Y-961350D01*
G02X675840Y-962350I-1000J0D01*
G01X652760D01*
G02X651760Y-961350I0J1000D01*
G01Y-938270D01*
G02X652760Y-937270I1000J0D01*
G37*
G36*
G01X573670Y-1063560D02*
G02X556630I-8520J0D01*
G01Y-1054060D01*
G02X556710Y-1052920I8518J-25D01*
G01X556740Y-1052690D01*
X556590Y-1052240D01*
X544240Y-1039890D01*
G03X543120Y-1039430I-1115J-1121D01*
G01X540320D01*
G03X539320Y-1040430I0J-1000D01*
G01Y-1042180D01*
G02X538320Y-1043180I-1000J0D01*
G01X515780D01*
G02X514780Y-1042180I0J1000D01*
G01Y-1027140D01*
G02X515780Y-1026140I1000J0D01*
G01X538320D01*
G02X539320Y-1027140I0J-1000D01*
G01Y-1028890D01*
G03X540320Y-1029890I1000J0D01*
G01X543120D01*
G02X550980Y-1033150I-5J-11119D01*
G01X563330Y-1045500D01*
X563780Y-1045650D01*
X564010Y-1045620D01*
G02X573670Y-1054060I1143J-8440D01*
G01Y-1063560D01*
G37*
G36*
G01X581470Y-718580D02*
X574230D01*
X573660Y-719090D01*
X573620Y-719470D01*
G02X556630Y-718560I-8471J910D01*
G01Y-709060D01*
G02X556690Y-708050I8531J0D01*
G03X555830Y-706940I-994J118D01*
G03X555620Y-706930I-180J-1571D01*
G01X533120D01*
G03X532120Y-707930I0J-1000D01*
G01Y-711680D01*
G02X531120Y-712680I-1000J0D01*
G01X516580D01*
G02X515580Y-711680I0J1000D01*
G01Y-692640D01*
G02X516580Y-691640I1000J0D01*
G01X531120D01*
G02X532120Y-692640I0J-1000D01*
G01Y-696390D01*
G03X533120Y-697390I1000J0D01*
G01X555620D01*
G02X563180Y-700360I-5J-11119D01*
G03X564000Y-700620I683J732D01*
G02X573620Y-708150I1150J-8441D01*
G01X573660Y-708530D01*
X574230Y-709040D01*
X581470D01*
X582040Y-708530D01*
X582080Y-708150D01*
G02X599020I8470J-910D01*
G01X599060Y-708530D01*
X599630Y-709040D01*
X612270D01*
G02X620130Y-712300I-5J-11119D01*
G01X623810Y-715980D01*
G03X624930Y-716440I1115J1121D01*
G01X695870D01*
G03X696990Y-715980I5J1581D01*
G01X701680Y-711280D01*
G03X701900Y-710190I-705J709D01*
G01X701780Y-709910D01*
X701280Y-709580D01*
X694530D01*
G02X693530Y-708580I0J1000D01*
G01Y-683040D01*
G02X694530Y-682040I1000J0D01*
G01X720070D01*
G02X721070Y-683040I0J-1000D01*
G01Y-688790D01*
G03X722070Y-689790I1000J0D01*
G01X724280D01*
G03X725280Y-688790I0J1000D01*
G01Y-684290D01*
G02X726280Y-683290I1000J0D01*
G01X745320D01*
G02X746320Y-684290I0J-1000D01*
G01Y-707330D01*
G02X745320Y-708330I-1000J0D01*
G01X726280D01*
G02X725280Y-707330I0J1000D01*
G01Y-702830D01*
G03X724280Y-701830I-1000J0D01*
G01X722070D01*
G03X721070Y-702830I0J-1000D01*
G01Y-708580D01*
G02X720070Y-709580I-1000J0D01*
G01X712650D01*
X712070Y-710120D01*
X712050Y-710510D01*
G02X708810Y-717640I-11095J741D01*
G01X703730Y-722720D01*
G02X695870Y-725980I-7865J7859D01*
G01X624930D01*
G02X617070Y-722720I5J11119D01*
G01X613390Y-719040D01*
G03X612270Y-718580I-1115J-1121D01*
G01X599630D01*
X599060Y-719090D01*
X599020Y-719470D01*
G02X582080I-8470J910D01*
G01X582040Y-719090D01*
X581470Y-718580D01*
G37*
G36*
G01X765740Y-734360D02*
X768580Y-731510D01*
G02X777330Y-727890I8744J-8752D01*
G01X790950D01*
G03X791860Y-727300I-3J1001D01*
G02Y-740520I14590J-6610D01*
G03X790950Y-739930I-913J-411D01*
G01X777610D01*
G03X776900Y-740220I-5J-1001D01*
G01X772040Y-745090D01*
G03X771820Y-746180I703J-709D01*
G01X771940Y-746460D01*
X772430Y-746790D01*
X772740D01*
X773320Y-747370D01*
Y-770830D01*
G02X772320Y-771830I-1000J0D01*
G01X753280D01*
G02X752280Y-770830I0J1000D01*
G01Y-747790D01*
G02X753280Y-746790I1000J0D01*
G01X755780D01*
G03X756780Y-745790I0J1000D01*
G01Y-745310D01*
G02X765360Y-734520I11075J0D01*
G01X765500Y-734490D01*
X765740Y-734360D01*
G37*
G36*
G01X650660Y-739140D02*
X641210Y-748590D01*
G03X640920Y-749300I711J-705D01*
G01Y-758180D01*
G02X639920Y-759180I-1000J0D01*
G01X617380D01*
G02X616380Y-758180I0J1000D01*
G01Y-756430D01*
G03X615380Y-755430I-1000J0D01*
G01X540320D01*
G03X539320Y-756430I0J-1000D01*
G01Y-758180D01*
G02X538320Y-759180I-1000J0D01*
G01X515780D01*
G02X514780Y-758180I0J1000D01*
G01Y-743140D01*
G02X515780Y-742140I1000J0D01*
G01X517650D01*
G03X518460Y-741730I3J1000D01*
G01X519560Y-740230D01*
X519630Y-739770D01*
X519560Y-739540D01*
G02X519370Y-738840I9761J3025D01*
G01X519280Y-738510D01*
X518740Y-738080D01*
X516580D01*
G02X515580Y-737080I0J1000D01*
G01Y-718040D01*
G02X516580Y-717040I1000J0D01*
G01X531120D01*
G02X532120Y-718040I0J-1000D01*
G01Y-738440D01*
G02X531940Y-739020I-1001J-7D01*
G01X531220Y-740040D01*
X531150Y-740510D01*
X531230Y-740750D01*
G02X531440Y-741410I-9626J-3426D01*
G01X531530Y-741740D01*
X532070Y-742140D01*
X538320D01*
G02X539320Y-743140I0J-1000D01*
G01Y-744890D01*
G03X540320Y-745890I1000J0D01*
G01X615380D01*
G03X616380Y-744890I0J1000D01*
G01Y-743140D01*
G02X617380Y-742140I1000J0D01*
G01X633760D01*
G03X634470Y-741850I5J1001D01*
G01X643920Y-732400D01*
G02X651780Y-729140I7865J-7859D01*
G01X695870D01*
G02X703730Y-732400I-5J-11119D01*
G01X708810Y-737480D01*
G02X712050Y-744610I-7855J-7871D01*
G01X712070Y-745000D01*
X712650Y-745540D01*
X720070D01*
G02X721070Y-746540I0J-1000D01*
G01Y-752290D01*
G03X722070Y-753290I1000J0D01*
G01X724280D01*
G03X725280Y-752290I0J1000D01*
G01Y-747790D01*
G02X726280Y-746790I1000J0D01*
G01X745320D01*
G02X746320Y-747790I0J-1000D01*
G01Y-770830D01*
G02X745320Y-771830I-1000J0D01*
G01X726280D01*
G02X725280Y-770830I0J1000D01*
G01Y-766330D01*
G03X724280Y-765330I-1000J0D01*
G01X722070D01*
G03X721070Y-766330I0J-1000D01*
G01Y-772080D01*
G02X720070Y-773080I-1000J0D01*
G01X694530D01*
G02X693530Y-772080I0J1000D01*
G01Y-746540D01*
G02X694530Y-745540I1000J0D01*
G01X700980D01*
G03X701900Y-744920I-5J1000D01*
G01X702020Y-744640D01*
X701900Y-744060D01*
X696990Y-739140D01*
G03X695870Y-738680I-1115J-1121D01*
G01X651780D01*
G03X650660Y-739140I-5J-1581D01*
G37*
G36*
G01X592370Y-791500D02*
X604720Y-779150D01*
G02X612580Y-775890I7865J-7859D01*
G01X615380D01*
G03X616380Y-774890I0J1000D01*
G01Y-773140D01*
G02X617380Y-772140I1000J0D01*
G01X639920D01*
G02X640920Y-773140I0J-1000D01*
G01Y-788180D01*
G02X639920Y-789180I-1000J0D01*
G01X617380D01*
G02X616380Y-788180I0J1000D01*
G01Y-786430D01*
G03X615380Y-785430I-1000J0D01*
G01X612580D01*
G03X611460Y-785890I-5J-1581D01*
G01X599110Y-798240D01*
X598960Y-798690D01*
X598990Y-798920D01*
G02X599070Y-800060I-8438J-1165D01*
G01Y-809560D01*
G02X582030I-8520J0D01*
G01Y-800060D01*
G02X591690Y-791620I8517J0D01*
G01X591920Y-791650D01*
X592370Y-791500D01*
G37*
G36*
G01X768580Y-837910D02*
X765740Y-835060D01*
X765500Y-834930D01*
X765360Y-834900D01*
G02X756780Y-824110I2495J10790D01*
G01Y-823630D01*
G03X755780Y-822630I-1000J0D01*
G01X753280D01*
G02X752280Y-821630I0J1000D01*
G01Y-798590D01*
G02X753280Y-797590I1000J0D01*
G01X772320D01*
G02X773320Y-798590I0J-1000D01*
G01Y-821630D01*
G02X772320Y-822630I-1000J0D01*
G01X772070D01*
X771820Y-823240D01*
G03X772040Y-824330I923J-381D01*
G01X776900Y-829200D01*
G03X777610Y-829490I705J711D01*
G01X790950D01*
G03X791860Y-828900I-3J1001D01*
G02Y-842120I14590J-6610D01*
G03X790950Y-841530I-913J-411D01*
G01X777330D01*
G02X768580Y-837910I-6J12372D01*
G37*
G36*
G01X652760Y-861070D02*
X675840D01*
G02X676840Y-862070I0J-1000D01*
G01Y-885150D01*
G02X675840Y-886150I-1000J0D01*
G01X652760D01*
G02X651760Y-885150I0J1000D01*
G01Y-862070D01*
G02X652760Y-861070I1000J0D01*
G37*
G36*
G01Y-797570D02*
X675840D01*
G02X676840Y-798570I0J-1000D01*
G01Y-821650D01*
G02X675840Y-822650I-1000J0D01*
G01X652760D01*
G02X651760Y-821650I0J1000D01*
G01Y-798570D01*
G02X652760Y-797570I1000J0D01*
G37*
G36*
G01Y-746770D02*
X675840D01*
G02X676840Y-747770I0J-1000D01*
G01Y-770850D01*
G02X675840Y-771850I-1000J0D01*
G01X652760D01*
G02X651760Y-770850I0J1000D01*
G01Y-747770D01*
G02X652760Y-746770I1000J0D01*
G37*
G36*
G01Y-683270D02*
X675840D01*
G02X676840Y-684270I0J-1000D01*
G01Y-707350D01*
G02X675840Y-708350I-1000J0D01*
G01X652760D01*
G02X651760Y-707350I0J1000D01*
G01Y-684270D01*
G02X652760Y-683270I1000J0D01*
G37*
G36*
G01X573670Y-809560D02*
G02X556630I-8520J0D01*
G01Y-800060D01*
G02X556710Y-798920I8518J-25D01*
G01X556740Y-798690D01*
X556590Y-798240D01*
X544240Y-785890D01*
G03X543120Y-785430I-1115J-1121D01*
G01X540320D01*
G03X539320Y-786430I0J-1000D01*
G01Y-788180D01*
G02X538320Y-789180I-1000J0D01*
G01X515780D01*
G02X514780Y-788180I0J1000D01*
G01Y-773140D01*
G02X515780Y-772140I1000J0D01*
G01X538320D01*
G02X539320Y-773140I0J-1000D01*
G01Y-774890D01*
G03X540320Y-775890I1000J0D01*
G01X543120D01*
G02X550980Y-779150I-5J-11119D01*
G01X563330Y-791500D01*
X563780Y-791650D01*
X564010Y-791620D01*
G02X573670Y-800060I1143J-8440D01*
G01Y-809560D01*
G37*
G36*
G01X695870Y-462440D02*
G03X696990Y-461980I5J1581D01*
G01X701680Y-457280D01*
G03X701900Y-456190I-705J709D01*
G01X701780Y-455910D01*
X701280Y-455580D01*
X694530D01*
G02X693530Y-454580I0J1000D01*
G01Y-429040D01*
G02X694530Y-428040I1000J0D01*
G01X720070D01*
G02X721070Y-429040I0J-1000D01*
G01Y-434790D01*
G03X722070Y-435790I1000J0D01*
G01X724280D01*
G03X725280Y-434790I0J1000D01*
G01Y-430290D01*
G02X726280Y-429290I1000J0D01*
G01X745320D01*
G02X746320Y-430290I0J-1000D01*
G01Y-453330D01*
G02X745320Y-454330I-1000J0D01*
G01X726280D01*
G02X725280Y-453330I0J1000D01*
G01Y-448830D01*
G03X724280Y-447830I-1000J0D01*
G01X722070D01*
G03X721070Y-448830I0J-1000D01*
G01Y-454580D01*
G02X720070Y-455580I-1000J0D01*
G01X712650D01*
X712070Y-456120D01*
X712050Y-456510D01*
G02X708810Y-463640I-11095J741D01*
G01X703730Y-468720D01*
G02X695870Y-471980I-7865J7859D01*
G01X624930D01*
G02X617070Y-468720I5J11119D01*
G01X613390Y-465040D01*
G03X612270Y-464580I-1115J-1121D01*
G01X599630D01*
X599060Y-465090D01*
X599020Y-465470D01*
G02X582080I-8470J910D01*
G01X582040Y-465090D01*
X581470Y-464580D01*
X574230D01*
X573660Y-465090D01*
X573620Y-465470D01*
G02X556630Y-464560I-8471J910D01*
G01Y-455060D01*
G02X556690Y-454050I8531J0D01*
G03X555830Y-452940I-994J118D01*
G03X555620Y-452930I-180J-1571D01*
G01X533120D01*
G03X532120Y-453930I0J-1000D01*
G01Y-457680D01*
G02X531120Y-458680I-1000J0D01*
G01X516580D01*
G02X515580Y-457680I0J1000D01*
G01Y-438640D01*
G02X516580Y-437640I1000J0D01*
G01X531120D01*
G02X532120Y-438640I0J-1000D01*
G01Y-442390D01*
G03X533120Y-443390I1000J0D01*
G01X555620D01*
G02X563180Y-446360I-5J-11119D01*
G03X564000Y-446620I683J732D01*
G02X573620Y-454150I1150J-8441D01*
G01X573660Y-454530D01*
X574230Y-455040D01*
X581470D01*
X582040Y-454530D01*
X582080Y-454150D01*
G02X599020I8470J-910D01*
G01X599060Y-454530D01*
X599630Y-455040D01*
X612270D01*
G02X620130Y-458300I-5J-11119D01*
G01X623810Y-461980D01*
G03X624930Y-462440I1115J1121D01*
G01X695870D01*
G37*
G36*
G01X765740Y-480360D02*
X768580Y-477510D01*
G02X777330Y-473890I8744J-8752D01*
G01X790950D01*
G03X791860Y-473300I-3J1001D01*
G02Y-486520I14590J-6610D01*
G03X790950Y-485930I-913J-411D01*
G01X777610D01*
G03X776900Y-486220I-5J-1001D01*
G01X772040Y-491090D01*
G03X771820Y-492180I703J-709D01*
G01X771940Y-492460D01*
X772430Y-492790D01*
X772740D01*
X773320Y-493370D01*
Y-516830D01*
G02X772320Y-517830I-1000J0D01*
G01X753280D01*
G02X752280Y-516830I0J1000D01*
G01Y-493790D01*
G02X753280Y-492790I1000J0D01*
G01X755780D01*
G03X756780Y-491790I0J1000D01*
G01Y-491310D01*
G02X765360Y-480520I11075J0D01*
G01X765500Y-480490D01*
X765740Y-480360D01*
G37*
G36*
G01X721070Y-512330D02*
Y-518080D01*
G02X720070Y-519080I-1000J0D01*
G01X694530D01*
G02X693530Y-518080I0J1000D01*
G01Y-492540D01*
G02X694530Y-491540I1000J0D01*
G01X700980D01*
G03X701900Y-490920I-5J1000D01*
G01X702020Y-490640D01*
X701900Y-490060D01*
X696990Y-485140D01*
G03X695870Y-484680I-1115J-1121D01*
G01X651780D01*
G03X650660Y-485140I-5J-1581D01*
G01X641210Y-494590D01*
G03X640920Y-495300I711J-705D01*
G01Y-504180D01*
G02X639920Y-505180I-1000J0D01*
G01X617380D01*
G02X616380Y-504180I0J1000D01*
G01Y-502430D01*
G03X615380Y-501430I-1000J0D01*
G01X540320D01*
G03X539320Y-502430I0J-1000D01*
G01Y-504180D01*
G02X538320Y-505180I-1000J0D01*
G01X515780D01*
G02X514780Y-504180I0J1000D01*
G01Y-489140D01*
G02X515780Y-488140I1000J0D01*
G01X517650D01*
G03X518460Y-487730I3J1000D01*
G01X519560Y-486230D01*
X519630Y-485770D01*
X519560Y-485540D01*
G02X519370Y-484840I9761J3025D01*
G01X519280Y-484510D01*
X518740Y-484080D01*
X516580D01*
G02X515580Y-483080I0J1000D01*
G01Y-464040D01*
G02X516580Y-463040I1000J0D01*
G01X531120D01*
G02X532120Y-464040I0J-1000D01*
G01Y-484440D01*
G02X531940Y-485020I-1001J-7D01*
G01X531220Y-486040D01*
X531150Y-486510D01*
X531230Y-486750D01*
G02X531440Y-487410I-9624J-3426D01*
G01X531530Y-487740D01*
X532070Y-488140D01*
X538320D01*
G02X539320Y-489140I0J-1000D01*
G01Y-490890D01*
G03X540320Y-491890I1000J0D01*
G01X615380D01*
G03X616380Y-490890I0J1000D01*
G01Y-489140D01*
G02X617380Y-488140I1000J0D01*
G01X633760D01*
G03X634470Y-487850I5J1001D01*
G01X643920Y-478400D01*
G02X651780Y-475140I7865J-7859D01*
G01X695870D01*
G02X703730Y-478400I-5J-11119D01*
G01X708810Y-483480D01*
G02X712050Y-490610I-7855J-7871D01*
G01X712070Y-491000D01*
X712650Y-491540D01*
X720070D01*
G02X721070Y-492540I0J-1000D01*
G01Y-498290D01*
G03X722070Y-499290I1000J0D01*
G01X724280D01*
G03X725280Y-498290I0J1000D01*
G01Y-493790D01*
G02X726280Y-492790I1000J0D01*
G01X745320D01*
G02X746320Y-493790I0J-1000D01*
G01Y-516830D01*
G02X745320Y-517830I-1000J0D01*
G01X726280D01*
G02X725280Y-516830I0J1000D01*
G01Y-512330D01*
G03X724280Y-511330I-1000J0D01*
G01X722070D01*
G03X721070Y-512330I0J-1000D01*
G37*
G36*
G01X592370Y-537500D02*
X604720Y-525150D01*
G02X612580Y-521890I7865J-7859D01*
G01X615380D01*
G03X616380Y-520890I0J1000D01*
G01Y-519140D01*
G02X617380Y-518140I1000J0D01*
G01X639920D01*
G02X640920Y-519140I0J-1000D01*
G01Y-534180D01*
G02X639920Y-535180I-1000J0D01*
G01X617380D01*
G02X616380Y-534180I0J1000D01*
G01Y-532430D01*
G03X615380Y-531430I-1000J0D01*
G01X612580D01*
G03X611460Y-531890I-5J-1581D01*
G01X599110Y-544240D01*
X598960Y-544690D01*
X598990Y-544920D01*
G02X599070Y-546060I-8438J-1165D01*
G01Y-555560D01*
G02X582030I-8520J0D01*
G01Y-546060D01*
G02X591690Y-537620I8517J0D01*
G01X591920Y-537650D01*
X592370Y-537500D01*
G37*
G36*
G01X768580Y-583910D02*
X765740Y-581060D01*
X765500Y-580930D01*
X765360Y-580900D01*
G02X756780Y-570110I2495J10790D01*
G01Y-569630D01*
G03X755780Y-568630I-1000J0D01*
G01X753280D01*
G02X752280Y-567630I0J1000D01*
G01Y-544590D01*
G02X753280Y-543590I1000J0D01*
G01X772320D01*
G02X773320Y-544590I0J-1000D01*
G01Y-567630D01*
G02X772320Y-568630I-1000J0D01*
G01X772070D01*
X771820Y-569240D01*
G03X772040Y-570330I923J-381D01*
G01X776900Y-575200D01*
G03X777610Y-575490I705J711D01*
G01X790950D01*
G03X791860Y-574900I-3J1001D01*
G02Y-588120I14590J-6610D01*
G03X790950Y-587530I-913J-411D01*
G01X777330D01*
G02X768580Y-583910I-6J12372D01*
G37*
G36*
G01X652760Y-607070D02*
X675840D01*
G02X676840Y-608070I0J-1000D01*
G01Y-631150D01*
G02X675840Y-632150I-1000J0D01*
G01X652760D01*
G02X651760Y-631150I0J1000D01*
G01Y-608070D01*
G02X652760Y-607070I1000J0D01*
G37*
G36*
G01Y-543570D02*
X675840D01*
G02X676840Y-544570I0J-1000D01*
G01Y-567650D01*
G02X675840Y-568650I-1000J0D01*
G01X652760D01*
G02X651760Y-567650I0J1000D01*
G01Y-544570D01*
G02X652760Y-543570I1000J0D01*
G37*
G36*
G01Y-492770D02*
X675840D01*
G02X676840Y-493770I0J-1000D01*
G01Y-516850D01*
G02X675840Y-517850I-1000J0D01*
G01X652760D01*
G02X651760Y-516850I0J1000D01*
G01Y-493770D01*
G02X652760Y-492770I1000J0D01*
G37*
G36*
G01Y-429270D02*
X675840D01*
G02X676840Y-430270I0J-1000D01*
G01Y-453350D01*
G02X675840Y-454350I-1000J0D01*
G01X652760D01*
G02X651760Y-453350I0J1000D01*
G01Y-430270D01*
G02X652760Y-429270I1000J0D01*
G37*
G36*
G01X573670Y-555560D02*
G02X556630I-8520J0D01*
G01Y-546060D01*
G02X556710Y-544920I8518J-25D01*
G01X556740Y-544690D01*
X556590Y-544240D01*
X543770Y-531420D01*
G03X542600Y-530960I-1116J-1121D01*
G01X540290Y-531030D01*
G03X539320Y-532030I29J-999D01*
G01Y-534180D01*
G02X538320Y-535180I-1000J0D01*
G01X515780D01*
G02X514780Y-534180I0J1000D01*
G01Y-519140D01*
G02X515780Y-518140I1000J0D01*
G01X538320D01*
G02X539320Y-519140I0J-1000D01*
G01Y-520490D01*
G03X539620Y-521210I1001J-5D01*
G01X539760Y-521340D01*
X540140Y-521490D01*
X542320Y-521420D01*
G02X550510Y-524680I319J-11116D01*
G01X563330Y-537500D01*
X563780Y-537650D01*
X564010Y-537620D01*
G02X573670Y-546060I1143J-8440D01*
G01Y-555560D01*
G37*
G54D37*
X0Y304800D03*
X-50800D03*
G54D38*
X127000Y-685800D03*
G54D39*
X806450Y-1038710D03*
Y-784710D03*
Y-530710D03*
%LPD*%
G75*
G54D10*
X-76200Y-50800D03*
Y838200D03*
G54D11*
G01X0Y330200D02*
X7620D01*
G02X12110Y328340I0J-6350D01*
G01X29300Y311150D01*
G01X0Y660400D02*
X16420D01*
G02X20910Y658540I0J-6350D01*
G01X29890Y649560D01*
G03X34380Y647700I4490J4490D01*
G01X35650D01*
G01X559200Y-209310D02*
X533980D01*
G03X529490Y-211170I0J-6350D01*
G01X527450Y-213210D01*
G01X559200Y-25160D02*
X533980D01*
G03X529490Y-27020I0J-6350D01*
G01X527450Y-29060D01*
G01X558800Y146290D02*
X533580D01*
G03X529090Y144430I0J-6350D01*
G01X527050Y142390D01*
G01X609600Y644040D02*
Y666080D01*
G02X611460Y670570I6350J0D01*
G01X614820Y673930D01*
G02X619310Y675790I4490J-4490D01*
G01X680570D01*
G02X685060Y673930I0J-6350D01*
G01X716990Y642000D01*
G03X721480Y640140I4490J4490D01*
G01X736600D01*
G01X635000Y339240D02*
Y320190D01*
G03X641350Y313840I6350J0D01*
G01X689520D01*
G02X694010Y311980I0J-6350D01*
G01X711790Y294200D01*
G03X716280Y292340I4490J4490D01*
G01X736600D01*
G01X660400Y339240D02*
X712320D01*
G02X716810Y337380I0J-6350D01*
G01X716990Y337200D01*
G03X721480Y335340I4490J4490D01*
G01X736600D01*
G01X660400Y440840D02*
X712320D01*
G02X716810Y438980I0J-6350D01*
G01X716990Y438800D01*
G03X721480Y436940I4490J4490D01*
G01X736600D01*
G01X635000Y440840D02*
Y421790D01*
G03X641350Y415440I6350J0D01*
G01X689520D01*
G02X694010Y413580I0J-6350D01*
G01X711790Y395800D01*
G03X716280Y393940I4490J4490D01*
G01X736600D01*
G01X660400Y542440D02*
X712320D01*
G02X716810Y540580I0J-6350D01*
G01X716990Y540400D01*
G03X721480Y538540I4490J4490D01*
G01X736600D01*
G01X635000Y542440D02*
Y523390D01*
G03X641350Y517040I6350J0D01*
G01X689520D01*
G02X694010Y515180I0J-6350D01*
G01X711790Y497400D01*
G03X716280Y495540I4490J4490D01*
G01X736600D01*
G01X635000Y644040D02*
Y627620D01*
G03X636860Y623130I6350J0D01*
G01X640220Y619770D01*
G03X644710Y617910I4490J4490D01*
G01X690250D01*
G02X694740Y616050I0J-6350D01*
G01X711790Y599000D01*
G03X716280Y597140I4490J4490D01*
G01X736600D01*
G01X730250Y-260350D02*
X804590Y-186010D01*
G03X806450Y-181520I-4490J4490D01*
G01Y-117960D01*
G01X730250Y-69850D02*
X781880Y-18220D01*
G02X786370Y-16360I4490J-4490D01*
G01X806450D01*
G01X730250Y95250D02*
X759370D01*
G02X763860Y93390I0J-6350D01*
G01X770150Y87100D01*
G03X774640Y85240I4490J4490D01*
G01X806450D01*
G01Y288440D02*
X760880D01*
G02X756390Y290300I0J6350D01*
G01X756210Y290480D01*
G03X751720Y292340I-4490J-4490D01*
G01X736600D01*
G01X806450Y390040D02*
X760880D01*
G02X756390Y391900I0J6350D01*
G01X756210Y392080D01*
G03X751720Y393940I-4490J-4490D01*
G01X736600D01*
G01X806450Y339240D02*
X760880D01*
G03X756390Y337380I0J-6350D01*
G01X756210Y337200D01*
G02X751720Y335340I-4490J4490D01*
G01X736600D01*
G01X806450Y440840D02*
X760880D01*
G03X756390Y438980I0J-6350D01*
G01X756210Y438800D01*
G02X751720Y436940I-4490J4490D01*
G01X736600D01*
G01X806450Y542440D02*
X760880D01*
G03X756390Y540580I0J-6350D01*
G01X756210Y540400D01*
G02X751720Y538540I-4490J4490D01*
G01X736600D01*
G01X806450Y491640D02*
X760880D01*
G02X756390Y493500I0J6350D01*
G01X756210Y493680D01*
G03X751720Y495540I-4490J-4490D01*
G01X736600D01*
G01X806450Y593240D02*
X760880D01*
G02X756390Y595100I0J6350D01*
G01X756210Y595280D01*
G03X751720Y597140I-4490J-4490D01*
G01X736600D01*
G01X806450Y644040D02*
X760880D01*
G03X756390Y642180I0J-6350D01*
G01X756210Y642000D01*
G02X751720Y640140I-4490J4490D01*
G01X736600D01*
X-69850Y95250D03*
Y177800D03*
Y266700D03*
Y330200D03*
X-10800Y-1393350D03*
X-25400Y95250D03*
Y215900D03*
Y241300D03*
Y266700D03*
X-10800Y846650D03*
X50800Y-793750D03*
Y-673100D03*
Y-558800D03*
Y-444500D03*
Y-330200D03*
Y-215900D03*
Y-101600D03*
Y19050D03*
Y95250D03*
X63500Y158750D03*
X68000Y219000D03*
X63500Y190500D03*
Y241300D03*
Y266700D03*
X76200Y285750D03*
X14000Y445000D03*
X63500Y469900D03*
Y444500D03*
Y520700D03*
Y546100D03*
Y495300D03*
Y622300D03*
Y571500D03*
Y596900D03*
X78650Y629130D03*
X152400Y-1130300D03*
Y-1073150D03*
Y-984250D03*
X146050Y-825500D03*
X152400Y-895350D03*
X105000Y-850000D03*
X133350Y-755650D03*
X88900Y-768350D03*
X127000Y-596900D03*
X88900Y-628650D03*
X146050Y-520700D03*
X107950Y-533400D03*
X88900Y-558800D03*
X133350Y-381000D03*
X107950Y-425450D03*
Y-330200D03*
X127000Y-285750D03*
X114300Y228600D03*
X139700Y641350D03*
X215000Y-1130000D03*
X196000Y-1074000D03*
X184150Y-1098550D03*
X215900D03*
X188000Y-1000000D03*
X184150Y-1028700D03*
X202000Y-982000D03*
X174000Y-898000D03*
X222250Y-908050D03*
X202000Y-954000D03*
X184150Y-831850D03*
X203200Y-882650D03*
X196850Y-806450D03*
X184150Y-774700D03*
X203200Y-723900D03*
Y-704850D03*
X165100Y-711200D03*
X203200Y-628650D03*
X171450Y-596900D03*
X222250Y-654050D03*
X171450Y-641350D03*
X184150Y-520700D03*
Y-577850D03*
X196850Y-552450D03*
X165100Y-463550D03*
X203200Y-450850D03*
Y-469900D03*
X171450Y-393700D03*
X177800Y-336550D03*
X222250Y-171450D03*
Y-133350D03*
X209550Y469900D03*
X203200Y444500D03*
X222250Y520700D03*
X215900Y495300D03*
X222250Y641350D03*
X266000Y-1130000D03*
X247650Y-1085850D03*
Y-1073150D03*
X266700Y-1102210D03*
X247650Y-996950D03*
Y-908050D03*
Y-968860D03*
X266700Y-949810D03*
X247650Y-863600D03*
Y-825500D03*
X266700Y-848210D03*
X241300Y-787400D03*
X247650Y-714860D03*
Y-742950D03*
X266700Y-695810D03*
X247650Y-609600D03*
Y-654050D03*
X266700Y-594210D03*
X247650Y-571500D03*
X241300Y-533400D03*
X247650Y-460860D03*
Y-488950D03*
X266700Y-441810D03*
X241300Y-400050D03*
X304800Y-215900D03*
X279400Y-222250D03*
X285750Y-156060D03*
X279400Y-184150D03*
X285750Y-101600D03*
X241300Y-107950D03*
X304800Y-31750D03*
X279400Y0D03*
X263960Y52240D03*
X285750Y28090D03*
Y88900D03*
X241300Y31750D03*
X304800Y139700D03*
X285750Y199540D03*
X279400Y171450D03*
X260350Y184150D03*
X285750Y279400D03*
X311150Y304800D03*
X279400Y387350D03*
Y469900D03*
X304800Y546100D03*
X298450Y520700D03*
X311150Y571500D03*
X356450Y-1131960D03*
X388450Y-1097960D03*
X355600Y-1108560D03*
X387350Y-1114910D03*
X381000Y-1045060D03*
Y-1019660D03*
X370450Y-957960D03*
X356450Y-931960D03*
X387350Y-860910D03*
X388450Y-843960D03*
X356450Y-877960D03*
X355600Y-854560D03*
X381000Y-791060D03*
Y-765660D03*
X372450Y-703960D03*
X356450Y-677960D03*
X387350Y-606910D03*
X356450Y-623960D03*
X355600Y-600560D03*
X388450Y-590110D03*
X381000Y-537060D03*
X372450Y-449960D03*
X381000Y-511660D03*
X356450Y-423960D03*
X387350Y304800D03*
X368300Y476250D03*
X349250Y527050D03*
Y488950D03*
X323850Y622300D03*
X349250Y603250D03*
X317500Y596900D03*
X349250Y577850D03*
Y552450D03*
Y641350D03*
X450850Y-1133960D03*
X418780Y-1134390D03*
X450850Y-1102210D03*
X419100Y-1098550D03*
Y-1073150D03*
X445000Y-1045000D03*
X450850Y-994260D03*
X414450Y-983960D03*
X450850Y-1019660D03*
X416450Y-931960D03*
X406400Y-943460D03*
X419100Y-835510D03*
X450850Y-879960D03*
X418780Y-880390D03*
X450850Y-816460D03*
X425450Y-791060D03*
X450850Y-765660D03*
X406400Y-689460D03*
X450850Y-740260D03*
X414450Y-729960D03*
X416450Y-677960D03*
X450850Y-594210D03*
Y-625960D03*
X419100D03*
X425450Y-537060D03*
X450850Y-562460D03*
X419100Y-581510D03*
X414450Y-475960D03*
X450850Y-486260D03*
Y-511660D03*
X406400Y-435460D03*
X416450Y-422960D03*
X406800Y-156060D03*
Y28090D03*
X406400Y199540D03*
X431800Y304800D03*
X450850Y336550D03*
Y387350D03*
Y469900D03*
X393700Y488950D03*
X444500Y539750D03*
X450850Y609600D03*
X431800Y641350D03*
X488950Y-1140310D03*
X539750D03*
Y-1051410D03*
X488950Y-1102210D03*
Y-1076810D03*
Y-1051410D03*
X539750Y-1076810D03*
Y-1102210D03*
X488950Y-1013310D03*
X539750Y-987910D03*
X488950Y-975210D03*
X539750Y-1019660D03*
X488950Y-937110D03*
X539750D03*
X488950Y-848210D03*
Y-886310D03*
Y-822810D03*
X539750Y-886310D03*
Y-822810D03*
Y-848210D03*
X488950Y-759310D03*
X539750Y-765660D03*
Y-797410D03*
X488950D03*
X539750Y-733910D03*
X488950Y-721210D03*
Y-683110D03*
X539750D03*
X488950Y-594210D03*
Y-632310D03*
X539750Y-594210D03*
Y-632310D03*
X488950Y-543410D03*
Y-568810D03*
X539750D03*
Y-543410D03*
Y-511660D03*
Y-479910D03*
X488950Y-467210D03*
Y-505310D03*
Y-429110D03*
X539750D03*
X527450Y-213210D03*
Y-29060D03*
X527050Y142390D03*
X477470Y311150D03*
X482600Y488950D03*
X477470Y635000D03*
X609600Y-1140310D03*
Y-1114910D03*
Y-1076810D03*
Y-1019660D03*
Y-987910D03*
Y-937110D03*
Y-886310D03*
Y-860910D03*
Y-822810D03*
Y-765660D03*
Y-733910D03*
Y-683110D03*
Y-606910D03*
Y-632310D03*
Y-568810D03*
Y-511660D03*
Y-479910D03*
Y-429110D03*
X685800Y-1133960D03*
Y-1121260D03*
Y-1057760D03*
Y-1070460D03*
Y-1006960D03*
Y-1019660D03*
Y-956160D03*
Y-943460D03*
Y-879960D03*
Y-867260D03*
Y-803760D03*
Y-816460D03*
Y-752960D03*
Y-765660D03*
Y-702160D03*
Y-689460D03*
Y-625960D03*
Y-613260D03*
Y-549760D03*
Y-562460D03*
Y-448160D03*
Y-498960D03*
Y-511660D03*
Y-435460D03*
X723900Y-1095860D03*
Y-1038710D03*
Y-981560D03*
Y-841860D03*
Y-784710D03*
Y-727560D03*
Y-530710D03*
Y-587860D03*
Y-473560D03*
X809200Y-1393350D03*
X781050Y-1114910D03*
Y-1064110D03*
Y-1013310D03*
Y-962510D03*
Y-860910D03*
Y-810110D03*
Y-759310D03*
Y-708510D03*
Y-606910D03*
Y-556110D03*
Y-454510D03*
Y-505310D03*
X809200Y846650D03*
G54D20*
X228900Y-1010160D03*
Y-1029160D03*
X202900D03*
Y-1019660D03*
Y-1010160D03*
X228900Y-756160D03*
Y-775160D03*
X202900D03*
Y-765660D03*
Y-756160D03*
X228900Y-521160D03*
X202900D03*
X228900Y-502160D03*
X202900Y-511660D03*
Y-502160D03*
G54D12*
X0Y0D03*
X-50800D03*
X0Y228600D03*
X-50800D03*
X0Y482600D03*
X-50800D03*
X0Y736600D03*
X-50800D03*
X101600Y-685800D03*
X355600Y400050D03*
X558800Y288440D03*
Y390040D03*
Y491640D03*
Y593240D03*
G54D30*
X806450Y-1191110D03*
Y-1140310D03*
Y-1089510D03*
Y-987910D03*
Y-1038710D03*
Y-937110D03*
Y-835510D03*
Y-886310D03*
Y-784710D03*
Y-683110D03*
Y-733910D03*
Y-632310D03*
Y-530710D03*
Y-581510D03*
Y-479910D03*
Y-117960D03*
Y-67160D03*
Y-16360D03*
Y85240D03*
Y34440D03*
Y136040D03*
Y237640D03*
Y186840D03*
Y288440D03*
Y390040D03*
Y339240D03*
Y440840D03*
Y542440D03*
Y491640D03*
Y593240D03*
G54D21*
X266700Y-1083160D03*
Y-1070460D03*
Y-1057760D03*
Y-1045060D03*
Y-1032360D03*
Y-1019660D03*
Y-1006960D03*
Y-994260D03*
Y-981560D03*
Y-968860D03*
Y-829160D03*
Y-816460D03*
Y-803760D03*
Y-791060D03*
Y-778360D03*
Y-765660D03*
Y-752960D03*
Y-740260D03*
Y-727560D03*
Y-714860D03*
Y-575160D03*
Y-562460D03*
Y-549760D03*
Y-537060D03*
Y-524360D03*
Y-511660D03*
Y-498960D03*
Y-486260D03*
Y-473560D03*
Y-460860D03*
X358700Y-1083160D03*
Y-1070460D03*
Y-1057760D03*
Y-1045060D03*
Y-1032360D03*
Y-1019660D03*
Y-1006960D03*
Y-994260D03*
Y-981560D03*
Y-968860D03*
Y-829160D03*
Y-816460D03*
Y-803760D03*
Y-791060D03*
Y-778360D03*
Y-765660D03*
Y-752960D03*
Y-740260D03*
Y-727560D03*
Y-714860D03*
Y-575160D03*
Y-562460D03*
Y-549760D03*
Y-537060D03*
Y-524360D03*
Y-511660D03*
Y-498960D03*
Y-486260D03*
Y-473560D03*
Y-460860D03*
G54D31*
X806450Y-429110D03*
Y644040D03*
G54D22*
X303950Y-156060D03*
Y-168760D03*
Y-181460D03*
Y15390D03*
Y2690D03*
Y28090D03*
X303550Y199540D03*
Y186840D03*
Y174140D03*
X369950Y-156060D03*
Y-181460D03*
Y2690D03*
Y28090D03*
X369550Y199540D03*
Y174140D03*
G54D13*
X0Y76200D03*
Y50800D03*
Y25400D03*
X-50800Y76200D03*
Y50800D03*
Y25400D03*
X0Y152400D03*
Y127000D03*
Y101600D03*
X-50800Y152400D03*
Y127000D03*
Y101600D03*
X0Y203200D03*
Y177800D03*
X-50800Y203200D03*
Y177800D03*
X0Y304800D03*
Y279400D03*
Y254000D03*
X-50800Y304800D03*
Y279400D03*
Y254000D03*
X0Y381000D03*
Y355600D03*
Y330200D03*
X-50800Y381000D03*
Y355600D03*
Y330200D03*
X0Y457200D03*
Y431800D03*
Y406400D03*
X-50800Y457200D03*
Y431800D03*
Y406400D03*
X0Y533400D03*
Y508000D03*
X-50800Y533400D03*
Y508000D03*
X0Y609600D03*
Y584200D03*
Y558800D03*
X-50800Y609600D03*
Y584200D03*
Y558800D03*
X0Y685800D03*
Y660400D03*
Y635000D03*
X-50800Y685800D03*
Y660400D03*
Y635000D03*
X0Y762000D03*
Y711200D03*
X-50800Y762000D03*
Y711200D03*
X0Y787400D03*
X-50800D03*
X609600Y288440D03*
X558800Y339240D03*
X609600D03*
Y390040D03*
X558800Y440840D03*
X609600D03*
X558800Y542440D03*
X609600D03*
Y491640D03*
Y593240D03*
X558800Y644040D03*
X609600D03*
X660400Y288440D03*
X635000D03*
Y339240D03*
X660400D03*
Y390040D03*
X635000D03*
Y440840D03*
X660400D03*
X635000Y542440D03*
X660400D03*
Y491640D03*
X635000D03*
X660400Y593240D03*
X635000D03*
Y644040D03*
X660400D03*
G54D32*
X889200Y-1384300D03*
Y838200D03*
G54D14*
X47600Y127000D03*
X28600D03*
X47600Y152400D03*
X28600D03*
X47600Y203200D03*
X28600D03*
X47600Y177800D03*
X28600D03*
X47600Y228600D03*
X28600D03*
X47600Y279400D03*
X28600D03*
X47600Y254000D03*
X28600D03*
X47600Y457200D03*
X28600D03*
X47600Y533400D03*
X28600D03*
X47600Y508000D03*
X28600D03*
X47600Y482600D03*
X28600D03*
X47600Y609600D03*
X28600D03*
X47600Y584200D03*
X28600D03*
X47600Y558800D03*
X28600D03*
X187300Y-1054100D03*
X168300D03*
X206350Y-930760D03*
X187350D03*
Y-908050D03*
X206350D03*
Y-676760D03*
X187350D03*
X206350Y-651360D03*
X187350D03*
X206350Y-397360D03*
X187350D03*
X206350Y-422760D03*
X187350D03*
X523850Y-1140310D03*
X504850D03*
X523850Y-1064110D03*
X504850D03*
X523850Y-1114910D03*
X504850D03*
X523850Y-1089510D03*
X504850D03*
X523850Y-981560D03*
X504850D03*
X523850Y-956160D03*
X504850D03*
X523850Y-835510D03*
X504850D03*
X523850Y-860910D03*
X504850D03*
X523850Y-886310D03*
X504850D03*
X523850Y-810110D03*
X504850D03*
X523850Y-727560D03*
X504850D03*
X523850Y-702160D03*
X504850D03*
X523850Y-632310D03*
X504850D03*
X523850Y-606910D03*
X504850D03*
X523850Y-581510D03*
X504850D03*
X523850Y-556110D03*
X504850D03*
X523850Y-473560D03*
X504850D03*
X523850Y-448160D03*
X504850D03*
G54D23*
X372600Y488950D03*
Y501650D03*
Y514350D03*
Y527050D03*
Y539750D03*
Y552450D03*
Y565150D03*
Y577850D03*
Y590550D03*
X465600Y539750D03*
Y527050D03*
Y514350D03*
Y501650D03*
Y488950D03*
Y590550D03*
Y577850D03*
Y565150D03*
Y552450D03*
G54D33*
G01Y514350D02*
X482660D01*
G02X487150Y512490I0J-6350D01*
G01X506140Y493500D01*
G02X508000Y489010I-4490J-4490D01*
G01Y392670D01*
G03X509860Y388180I6350J0D01*
G01X558800Y339240D01*
G01X465600Y539750D02*
X489010D01*
G02X493500Y537890I0J-6350D01*
G01X525190Y506200D01*
G02X527050Y501710I-4490J-4490D01*
G01Y475220D01*
G03X528910Y470730I6350J0D01*
G01X558800Y440840D01*
G01Y542440D02*
X536030D01*
G02X531540Y544300I0J6350D01*
G01X512550Y563290D01*
G03X508060Y565150I-4490J-4490D01*
G01X465600D01*
G01Y590550D02*
X489980D01*
G03X494470Y592410I0J6350D01*
G01X544240Y642180D01*
G02X548730Y644040I4490J-4490D01*
G01X558800D01*
G54D24*
X463550Y-804810D03*
X438150D03*
Y-713810D03*
X463550D03*
Y-550810D03*
X438150D03*
Y-459810D03*
X463550D03*
X590550Y-1058810D03*
X565150D03*
Y-967810D03*
X590550D03*
Y-804810D03*
X565150D03*
Y-713810D03*
X590550D03*
Y-550810D03*
X565150D03*
Y-459810D03*
X590550D03*
G54D15*
X72300Y311150D03*
X29300D03*
X78650Y647700D03*
X35650D03*
X429350Y-168760D03*
Y15390D03*
Y186840D03*
X472350Y-168760D03*
Y15390D03*
Y186840D03*
X559200Y-209310D03*
Y-166310D03*
Y-25160D03*
Y17840D03*
X558800Y146290D03*
Y189290D03*
X664300Y-1127610D03*
Y-1064110D03*
Y-1013310D03*
Y-949810D03*
Y-873610D03*
Y-810110D03*
Y-759310D03*
Y-695810D03*
Y-619610D03*
Y-556110D03*
Y-505310D03*
Y-441810D03*
X707300Y-1127610D03*
Y-1064110D03*
Y-1013310D03*
Y-949810D03*
Y-873610D03*
Y-810110D03*
Y-759310D03*
Y-695810D03*
Y-619610D03*
Y-556110D03*
Y-505310D03*
Y-441810D03*
X736600Y292340D03*
Y393940D03*
Y335340D03*
Y436940D03*
Y538540D03*
Y495540D03*
Y597140D03*
Y640140D03*
G54D34*
G01X231400Y-1102210D02*
X266700D01*
G01X230750Y-1073150D02*
Y-1101560D01*
X231400Y-1102210D01*
G01X230750Y-1073150D02*
Y-1067280D01*
G02X232610Y-1062790I6350J0D01*
G01X237640Y-1057760D01*
G01X228900Y-1010160D02*
Y-1004390D01*
G02X230760Y-999900I6350J0D01*
G01X235240Y-995420D01*
G03X237100Y-990930I-4490J4490D01*
G01Y-981560D01*
G01X232800Y-930760D02*
X206350D01*
G01X230750Y-803760D02*
Y-815760D01*
X231400Y-816410D01*
Y-835510D01*
G01D02*
X232320D01*
G02X236810Y-837370I0J-6350D01*
G01X245790Y-846350D01*
G03X250280Y-848210I4490J4490D01*
G01X266700D01*
G01Y-803760D02*
X230750D01*
G01X228900Y-756160D02*
Y-750390D01*
G02X230760Y-745900I6350J0D01*
G01X235240Y-741420D01*
G03X237100Y-736930I-4490J4490D01*
G01Y-727560D01*
G01X206350Y-651360D02*
Y-676760D01*
G01D02*
X232800D01*
G01X266700Y-549760D02*
X230750D01*
G01D02*
Y-561760D01*
X231400Y-562410D01*
Y-581510D01*
G01D02*
X232320D01*
G02X236810Y-583370I0J-6350D01*
G01X245790Y-592350D01*
G03X250280Y-594210I4490J4490D01*
G01X266700D01*
G01X228900Y-502160D02*
Y-496390D01*
G02X230760Y-491900I6350J0D01*
G01X235240Y-487420D01*
G03X237100Y-482930I-4490J4490D01*
G01Y-473560D01*
G01X232800Y-422760D02*
X206350D01*
G01D02*
Y-397360D01*
G01X237640Y-1057760D02*
X266700D01*
G01Y-994260D02*
X252970D01*
G03X248480Y-996120I0J-6350D01*
G01X247650Y-996950D01*
G01X266700Y-981560D02*
X237100D01*
G01Y-956160D02*
Y-981560D01*
G01X266700Y-968860D02*
X247650D01*
G01X237100Y-956160D02*
X257720D01*
G03X262210Y-954300I0J6350D01*
G01X266700Y-949810D01*
G01X232800Y-930760D02*
Y-938680D01*
G03X234660Y-943170I6350J0D01*
G01X235240Y-943750D01*
G02X237100Y-948240I-4490J-4490D01*
G01Y-956160D01*
G01X266700Y-714860D02*
X247650D01*
G01X266700Y-740260D02*
X252970D01*
G03X248480Y-742120I0J-6350D01*
G01X247650Y-742950D01*
G01X266700Y-727560D02*
X237100D01*
G01D02*
Y-702160D01*
G01D02*
X257720D01*
G03X262210Y-700300I0J6350D01*
G01X266700Y-695810D01*
G01X237100Y-702160D02*
Y-694240D01*
G03X235240Y-689750I-6350J0D01*
G01X234660Y-689170D01*
G02X232800Y-684680I4490J4490D01*
G01Y-676760D01*
G01X266700Y-460860D02*
X247650D01*
G01X266700Y-486260D02*
X252970D01*
G03X248480Y-488120I0J-6350D01*
G01X247650Y-488950D01*
G01X266700Y-473560D02*
X237100D01*
G01D02*
Y-448160D01*
G01D02*
X257720D01*
G03X262210Y-446300I0J6350D01*
G01X266700Y-441810D01*
G01X232800Y-422760D02*
Y-430680D01*
G03X234660Y-435170I6350J0D01*
G01X235240Y-435750D01*
G02X237100Y-440240I-4490J-4490D01*
G01Y-448160D01*
G01X304800Y-215900D02*
Y-200510D01*
G01X303950Y-181460D02*
Y-199660D01*
X304800Y-200510D01*
G01X303950Y2690D02*
Y-15510D01*
X304800Y-16360D01*
G01Y-31750D02*
Y-16360D01*
G01X303550Y174140D02*
Y158100D01*
G03X304790Y155100I4240J-4D01*
G01X304800Y155090D01*
G01Y139700D02*
Y155090D01*
G01X402200Y-1083160D02*
Y-1072610D01*
G03X400050Y-1070460I-2150J0D01*
G01X358700D01*
G01X402200Y-968860D02*
Y-979410D01*
G02X400050Y-981560I-2150J0D01*
G01X358700D01*
G01X402200Y-829160D02*
Y-818610D01*
G03X400050Y-816460I-2150J0D01*
G01X358700D01*
G01Y-727560D02*
X400050D01*
G03X402200Y-725410I0J2150D01*
G01Y-714860D01*
G01X358700Y-562460D02*
X388710D01*
X388700Y-562450D01*
X400040D01*
G02X402200Y-564610I0J-2160D01*
G01Y-575160D01*
G01Y-460860D02*
Y-471410D01*
G02X400050Y-473560I-2150J0D01*
G01X358700D01*
G01X387350Y-1114910D02*
X402850D01*
G01D02*
Y-1096410D01*
X402200Y-1095760D01*
Y-1083160D01*
G01X406400Y-943460D02*
Y-947180D01*
G02X404540Y-951670I-6350J0D01*
G01X404060Y-952150D01*
G03X402200Y-956640I4490J-4490D01*
G01Y-968860D01*
G01X389500Y-943460D02*
X406400D01*
G01X402850Y-860910D02*
Y-842410D01*
X402200Y-841760D01*
Y-829160D01*
G01X387350Y-860910D02*
X402850D01*
G01X389500Y-689460D02*
X406400D01*
G01X402200Y-714860D02*
Y-702640D01*
G02X404060Y-698150I6350J0D01*
G01X404540Y-697670D01*
G03X406400Y-693180I-4490J4490D01*
G01Y-689460D01*
G01X387350Y-606910D02*
X402850D01*
G01D02*
Y-587810D01*
X402200Y-587160D01*
Y-575160D01*
G01X406400Y-435460D02*
Y-439180D01*
G02X404540Y-443670I-6350J0D01*
G01X404060Y-444150D01*
G03X402200Y-448640I4490J-4490D01*
G01Y-460860D01*
G01X389500Y-435460D02*
X406400D01*
G01X475250Y-225910D02*
G02X476250Y-228320I-2400J-2408D01*
G01Y-257660D01*
G01X475250Y-41760D02*
G02X476250Y-44170I-2400J-2408D01*
G01Y-73510D01*
G01X474850Y129690D02*
G02X475850Y127280I-2400J-2408D01*
G01Y97940D01*
G01X465700Y311150D02*
X477470D01*
G01X465600Y488950D02*
X482600D01*
G01X465700Y635000D02*
X477470D01*
G01X762800Y-1064110D02*
Y-1078110D01*
G03X767850Y-1083160I5050J0D01*
G01X768350D01*
X772840Y-1087650D01*
G03X777330Y-1089510I4490J4490D01*
G01X806450D01*
G01X762800Y-1127610D02*
X774800D01*
G02X781050Y-1133860I0J-6250D01*
G01Y-1133960D01*
G03X787400Y-1140310I6350J0D01*
G01X806450D01*
G01X735800Y-1127610D02*
X707300D01*
G01X735800Y-1064110D02*
X707300D01*
G01X762800Y-1013310D02*
Y-999310D01*
G02X767850Y-994260I5050J0D01*
G01X768350D01*
X772840Y-989770D01*
G02X777330Y-987910I4490J-4490D01*
G01X806450D01*
G01X735800Y-1013310D02*
X707300D01*
G01X762800Y-949810D02*
X773620D01*
G03X778110Y-947950I0J6350D01*
G01X787090Y-938970D01*
G02X791580Y-937110I4490J-4490D01*
G01X806450D01*
G01X735800Y-949810D02*
X707300D01*
G01X762800Y-810110D02*
Y-824110D01*
G03X767850Y-829160I5050J0D01*
G01X768350D01*
X772840Y-833650D01*
G03X777330Y-835510I4490J4490D01*
G01X806450D01*
G01X762800Y-873610D02*
X774800D01*
G02X781050Y-879860I0J-6250D01*
G01Y-879960D01*
G03X787400Y-886310I6350J0D01*
G01X806450D01*
G01X735800Y-873610D02*
X707300D01*
G01X762800Y-759310D02*
Y-745310D01*
G02X767850Y-740260I5050J0D01*
G01X768350D01*
X772840Y-735770D01*
G02X777330Y-733910I4490J-4490D01*
G01X806450D01*
G01X735800Y-810110D02*
X707300D01*
G01X735800Y-759310D02*
X707300D01*
G01X762800Y-695810D02*
X773620D01*
G03X778110Y-693950I0J6350D01*
G01X787090Y-684970D01*
G02X791580Y-683110I4490J-4490D01*
G01X806450D01*
G01X735800Y-695810D02*
X707300D01*
G01X735800Y-619610D02*
X707300D01*
G01X762800D02*
X774800D01*
G02X781050Y-625860I0J-6250D01*
G01Y-625960D01*
G03X787400Y-632310I6350J0D01*
G01X806450D01*
G01X735800Y-556110D02*
X707300D01*
G01X762800D02*
Y-570110D01*
G03X767850Y-575160I5050J0D01*
G01X768350D01*
X772840Y-579650D01*
G03X777330Y-581510I4490J4490D01*
G01X806450D01*
G01X735800Y-505310D02*
X707300D01*
G01X762800D02*
Y-491310D01*
G02X767850Y-486260I5050J0D01*
G01X768350D01*
X772840Y-481770D01*
G02X777330Y-479910I4490J-4490D01*
G01X806450D01*
G01X735800Y-441810D02*
X707300D01*
G01X762800D02*
X773620D01*
G03X778110Y-439950I0J6350D01*
G01X787090Y-430970D01*
G02X791580Y-429110I4490J-4490D01*
G01X806450D01*
G54D25*
X426250Y-257660D03*
Y-73510D03*
X425850Y97940D03*
X642150Y-200510D03*
Y-16360D03*
X641750Y155090D03*
G54D16*
X63500Y355600D03*
Y692150D03*
G54D35*
G01X0Y152400D02*
X-50800D01*
G01X28600Y127000D02*
X0Y152400D01*
G01X28600D02*
G03X30190Y148560I5430J-1D01*
G01X36240Y142510D01*
G02X38100Y138020I-4490J-4490D01*
G01Y116990D01*
G02X31750Y110640I-6350J0D01*
G01X18990D01*
G02X14500Y112500I0J6350D01*
G01X0Y127000D01*
G01D02*
X-50800D01*
G01X0Y228600D02*
X-50800D01*
G01X28600Y254000D02*
G02X27010Y250160I-5430J-1D01*
G01X23050Y246200D01*
G02X18560Y244340I-4490J4490D01*
G01X18370D01*
G03X13880Y242480I0J-6350D01*
G01X0Y228600D01*
G01Y203200D02*
X-50800D01*
G01X28600Y228600D02*
G02X27010Y224760I-5430J-1D01*
G01X23050Y220800D01*
G02X18560Y218940I-4490J4490D01*
G01X18370D01*
G03X13880Y217080I0J-6350D01*
G01X0Y203200D01*
G01X28600D02*
G02X27010Y199360I-5430J-1D01*
G01X20010Y192360D01*
G02X15520Y190500I-4490J4490D01*
G01X-63500D01*
G02X-69850Y196850I0J6350D01*
G01Y247650D01*
G02X-63500Y254000I6350J0D01*
G01X-50800D01*
G01X0Y177800D02*
X-50800D01*
G01X28600D02*
X0D01*
G01Y279400D02*
X-50800D01*
G01X28600D02*
X0D01*
G01Y254000D02*
X-50800D01*
G01X0Y457200D02*
X28600D01*
G01X-50800D02*
X0D01*
G01Y533400D02*
X28600D01*
G01X-50800D02*
X0D01*
G01Y508000D02*
X28600D01*
G01X-50800D02*
X0D01*
G01Y482600D02*
X28600D01*
G01X-50800D02*
X0D01*
G01Y609600D02*
X28600D01*
G01X-50800D02*
X0D01*
G01Y584200D02*
X28600D01*
G01X-50800D02*
X0D01*
G01Y558800D02*
X28600D01*
G01X-50800D02*
X0D01*
G01X47600Y177800D02*
X60870D01*
G02X65360Y175940I0J-6350D01*
G01X74340Y166960D01*
G02X76200Y162470I-4490J-4490D01*
G01Y-772070D01*
G03X78060Y-776560I6350J0D01*
G01X196850Y-895350D01*
G01X178750Y-1041400D02*
X177400D01*
G02X171450Y-1035450I0J5950D01*
G01Y-1035050D01*
X166960Y-1030560D01*
G02X165100Y-1026070I4490J4490D01*
G01Y-891630D01*
G03X163240Y-887140I-6350J0D01*
G01X65360Y-789260D01*
G02X63500Y-784770I4490J4490D01*
G01Y120650D01*
G03X57150Y127000I-6350J0D01*
G01X47600D01*
G01X187350Y-908050D02*
Y-897290D01*
G03X185410Y-895350I-1940J0D01*
G01X184150D01*
X71710Y-782910D01*
G02X69850Y-778420I4490J4490D01*
G01Y137070D01*
G03X67990Y141560I-6350J0D01*
G01X59010Y150540D01*
G03X54520Y152400I-4490J-4490D01*
G01X47600D01*
G01X187350Y-397360D02*
Y-389230D01*
G03X185650Y-385130I-5795J0D01*
G01X109810Y-309290D01*
G02X107950Y-304800I4490J4490D01*
G01Y200570D01*
G03X106090Y205060I-6350J0D01*
G01X84410Y226740D01*
G03X79920Y228600I-4490J-4490D01*
G01X47600D01*
G01Y203200D02*
X73570D01*
G02X78060Y201340I0J-6350D01*
G01X87040Y192360D01*
G02X88900Y187870I-4490J-4490D01*
G01Y-537850D01*
G03X90760Y-542340I6350J0D01*
G01X186250Y-637830D01*
Y-639500D01*
X187350Y-640600D01*
Y-651360D01*
G01X196850Y-641350D02*
X97110Y-541610D01*
G02X95250Y-537120I4490J4490D01*
G01Y194220D01*
G03X93390Y198710I-6350J0D01*
G01X84410Y207690D01*
G03X79920Y209550I-4490J-4490D01*
G01X66130D01*
G02X61640Y211410I0J6350D01*
G01X59010Y214040D01*
G03X54520Y215900I-4490J-4490D01*
G01X40600D01*
G02X38100Y218400I0J2500D01*
G01Y265020D01*
G02X39960Y269510I6350J0D01*
G01X46010Y275560D01*
G03X47600Y279400I-3840J3839D01*
G01Y254000D02*
X67220D01*
G02X71710Y252140I0J-6350D01*
G01X112440Y211410D01*
G02X114300Y206920I-4490J-4490D01*
G01Y-302170D01*
G03X116160Y-306660I6350J0D01*
G01X196850Y-387350D01*
G01X303950Y-168760D02*
X280840D01*
G02X276350Y-166900I0J6350D01*
G01X230100Y-120650D01*
X228600D01*
Y438210D01*
G03X226740Y442700I-6350J0D01*
G01X214100Y455340D01*
G03X209610Y457200I-4490J-4490D01*
G01X47600D01*
G01X303950Y15390D02*
X278930D01*
G02X274440Y17250I0J6350D01*
G01X249510Y42180D01*
G02X247650Y46670I4490J4490D01*
G01Y448220D01*
G03X245790Y452710I-6350J0D01*
G01X217760Y480740D01*
G03X213270Y482600I-4490J-4490D01*
G01X47600D01*
G01Y533400D02*
X302170D01*
G02X306660Y531540I0J-6350D01*
G01X321990Y516210D01*
G03X326480Y514350I4490J4490D01*
G01X372600D01*
G01X303550Y186840D02*
X279340D01*
G02X274850Y188700I0J6350D01*
G01X268560Y194990D01*
G02X266700Y199480I4490J4490D01*
G01Y460920D01*
G03X264840Y465410I-6350J0D01*
G01X224110Y506140D01*
G03X219620Y508000I-4490J-4490D01*
G01X47600D01*
G01Y609600D02*
X321220D01*
G02X325710Y607740I0J-6350D01*
G01X341040Y592410D01*
G03X345530Y590550I4490J4490D01*
G01X372600D01*
G01X47600Y558800D02*
X308520D01*
G02X313010Y556940I0J-6350D01*
G01X328340Y541610D01*
G03X332830Y539750I4490J4490D01*
G01X372600D01*
G01X47600Y584200D02*
X314870D01*
G02X319360Y582340I0J-6350D01*
G01X334690Y567010D01*
G03X339180Y565150I4490J4490D01*
G01X372600D01*
G01X187300Y-1054100D02*
X231350D01*
G02X235840Y-1055960I0J-6350D01*
G01X237640Y-1057760D01*
G01X266700Y-1006960D02*
X254570D01*
G03X250080Y-1008820I0J-6350D01*
G01X241100Y-1017800D01*
G02X236610Y-1019660I-4490J4490D01*
G01X222250D01*
G02X215900Y-1013310I0J6350D01*
G01Y-1000610D01*
G03X209550Y-994260I-6350J0D01*
G01X196570D01*
G01D02*
X192360Y-990050D01*
G02X190500Y-985560I4490J4490D01*
G01Y-942430D01*
G03X188640Y-937940I-6350J0D01*
G01X187350Y-936650D01*
G01X178750Y-1041400D02*
X169890Y-1050260D01*
G03X168300Y-1054100I3840J-3839D01*
G01X178750Y-1041400D02*
X206970D01*
G02X211370Y-1043220I4J-6220D01*
G03X215810Y-1045060I4437J4430D01*
G01X266700D01*
G01X228900Y-1029160D02*
X238570D01*
G03X243060Y-1027300I0J6350D01*
G01X248840Y-1021520D01*
G02X253330Y-1019660I4490J-4490D01*
G01X266700D01*
G01X202900D02*
X196790D01*
G02X192300Y-1017800I0J6350D01*
G01X179660Y-1005160D01*
G02X177800Y-1000670I4490J4490D01*
G01Y-922480D01*
G02X179660Y-917990I6350J0D01*
G01X185760Y-911890D01*
G03X187350Y-908050I-3840J3839D01*
G01X266700Y-1032360D02*
X250770D01*
G03X246280Y-1034220I0J-6350D01*
G01X243060Y-1037440D01*
G02X238570Y-1039300I-4490J4490D01*
G01X221200D01*
G02X216200Y-1034300I0J5000D01*
G01Y-1026330D01*
G03X214340Y-1021840I-6350J0D01*
G01X214020Y-1021520D01*
G03X209530Y-1019660I-4490J-4490D01*
G01X202900D01*
G01X187350Y-930760D02*
Y-930190D01*
G02X189210Y-925700I6350J0D01*
G01X194990Y-919920D01*
G03X196850Y-915430I-4490J4490D01*
G01Y-895350D01*
G01X187350Y-936650D02*
Y-930760D01*
G01X202900Y-765660D02*
X193130D01*
G02X188640Y-763800I0J6350D01*
G01X179660Y-754820D01*
G02X177800Y-750330I4490J4490D01*
G01Y-665790D01*
G02X179660Y-661300I6350J0D01*
G01X185760Y-655200D01*
G03X187350Y-651360I-3840J3839D01*
G01X266700Y-752960D02*
X254570D01*
G03X250080Y-754820I0J-6350D01*
G01X241100Y-763800D01*
G02X236610Y-765660I-4490J4490D01*
G01X222250D01*
G02X215900Y-759310I0J6350D01*
G01Y-746610D01*
G03X209550Y-740260I-6350J0D01*
G01X193700D01*
G02X187350Y-733910I0J6350D01*
G01Y-676760D01*
G01X228900Y-775160D02*
X242190D01*
G02X243730Y-775380I7J-5450D01*
G01X187350Y-676760D02*
Y-676190D01*
G02X189210Y-671700I6350J0D01*
G01X194990Y-665920D01*
G03X196850Y-661430I-4490J4490D01*
G01Y-641350D01*
G01X228900Y-521160D02*
X242190D01*
G02X244270Y-521570I6J-5450D01*
G01X202900Y-511660D02*
X193130D01*
G02X188640Y-509800I0J6350D01*
G01X179660Y-500820D01*
G02X177800Y-496330I4490J4490D01*
G01Y-411790D01*
G02X179660Y-407300I6350J0D01*
G01X185760Y-401200D01*
G03X187350Y-397360I-3840J3839D01*
G01X266700Y-498960D02*
X254570D01*
G03X250080Y-500820I0J-6350D01*
G01X241100Y-509800D01*
G02X236610Y-511660I-4490J4490D01*
G01X222250D01*
G02X215900Y-505310I0J6350D01*
G01Y-492610D01*
G03X209550Y-486260I-6350J0D01*
G01X193700D01*
G02X187350Y-479910I0J6350D01*
G01Y-438660D01*
G01Y-422760D02*
Y-438660D01*
G01Y-420510D02*
Y-422760D01*
G01X196850Y-410060D02*
Y-411010D01*
X187350Y-420510D01*
G01X196850Y-387350D02*
Y-410060D01*
G01X243730Y-775380D02*
G02X246050Y-776760I-1540J-5228D01*
G03X249910Y-778360I3857J3850D01*
G01X266700D01*
G01Y-765660D02*
X256080D01*
G03X251590Y-767520I0J-6350D01*
G01X243730Y-775380D01*
G01X244270Y-521570D02*
G02X246050Y-522760I-2080J-5038D01*
G03X249910Y-524360I3857J3850D01*
G01X266700D01*
G01X244270Y-521570D02*
X247650Y-518190D01*
Y-518010D01*
G02X254000Y-511660I6350J0D01*
G01X266700D01*
G01X403770Y-1057760D02*
X358700D01*
G01X504850Y-1114910D02*
G02X506440Y-1111070I5430J1D01*
G01X512490Y-1105020D01*
G03X514350Y-1100530I-4490J4490D01*
G01Y-1054040D01*
G03X512490Y-1049550I-6350J0D01*
G01X497160Y-1034220D01*
G03X492670Y-1032360I-4490J-4490D01*
G01X358700D01*
G01Y-994260D02*
X419100D01*
G01X504850Y-981560D02*
X497930Y-987910D01*
G03X493440Y-989770I0J-6350D01*
G01X478110Y-1005100D01*
G02X473620Y-1006960I-4490J4490D01*
G01X358700D01*
G01Y-752960D02*
X419100D01*
G01X358700Y-778360D02*
X444500D01*
G01X358700Y-803760D02*
X403770D01*
G02X408260Y-805620I0J-6350D01*
G01X429940Y-827300D01*
G03X434430Y-829160I4490J4490D01*
G01X450080D01*
G03X454570Y-827300I0J6350D01*
G01X461690Y-820180D01*
G03X463550Y-815690I-4490J4490D01*
G01Y-804810D01*
G01X358700Y-740260D02*
X419100D01*
G03X425450Y-733910I0J6350D01*
G01Y-702160D01*
G02X431800Y-695810I6350J0D01*
G01X447670D01*
G02X452160Y-697670I0J-6350D01*
G01X461690Y-707200D01*
G02X463550Y-711690I-4490J-4490D01*
G01X358700Y-549760D02*
X403770D01*
G02X408260Y-551620I0J-6350D01*
G01X429940Y-573300D01*
G03X434430Y-575160I4490J4490D01*
G01X450080D01*
G03X454570Y-573300I0J6350D01*
G01X461690Y-566180D01*
G03X463550Y-561690I-4490J4490D01*
G01Y-550810D01*
G01X358700Y-524360D02*
X444500D01*
G01X358700Y-486260D02*
X419100D01*
G03X425450Y-479910I0J6350D01*
G01Y-448160D01*
G02X431800Y-441810I6350J0D01*
G01X447670D01*
G02X452160Y-443670I0J-6350D01*
G01X461690Y-453200D01*
G02X463550Y-457690I-4490J-4490D01*
G01X419100Y-498960D02*
X358700D01*
G01X369950Y-156060D02*
X387540D01*
X387840Y-155760D01*
X394100D01*
G01X369950Y-181460D02*
X387540D01*
X387840Y-181760D01*
X394100D01*
G01X369950Y2690D02*
X387540D01*
X387840Y2390D01*
X394100D01*
G01X369950Y28090D02*
X387540D01*
X387840Y28390D01*
X394100D01*
G01X369550Y199540D02*
X387140D01*
X387440Y199840D01*
X393700D01*
G01X369550Y174140D02*
X387140D01*
X387440Y173840D01*
X393700D01*
G01X403770Y-1057760D02*
X473620D01*
G02X478110Y-1059620I0J-6350D01*
G01X479160Y-1060670D01*
G01X454570Y-1114910D02*
X402850D01*
G01X504850Y-1089510D02*
X482600D01*
G03X478110Y-1091370I0J-6350D01*
G01X454570Y-1114910D01*
G01X419100Y-994260D02*
X429720D01*
G03X434210Y-992400I0J6350D01*
G01X468590Y-958020D01*
G02X473080Y-956160I4490J-4490D01*
G01X504850D01*
G01X402850Y-860910D02*
X454570D01*
G01X504850Y-835510D02*
X482600D01*
G03X478110Y-837370I0J-6350D01*
G01X454570Y-860910D01*
G01X504850Y-727560D02*
X497930Y-733910D01*
G03X493440Y-735770I0J-6350D01*
G01X478110Y-751100D01*
G02X473620Y-752960I-4490J4490D01*
G01X419100D01*
G01X438150Y-713810D02*
Y-731280D01*
G02X436290Y-735770I-6350J0D01*
G01X419100Y-752960D01*
G01X504850Y-860910D02*
G02X506440Y-857070I5430J1D01*
G01X512490Y-851020D01*
G03X514350Y-846530I-4490J4490D01*
G01Y-800040D01*
G03X512490Y-795550I-6350J0D01*
G01X497160Y-780220D01*
G03X492670Y-778360I-4490J-4490D01*
G01X444500D01*
G01X438150Y-804810D02*
Y-787340D01*
G02X440010Y-782850I6350J0D01*
G01X444500Y-778360D01*
G01X402850Y-606910D02*
X454570D01*
G01X504850Y-581510D02*
X482600D01*
G03X478110Y-583370I0J-6350D01*
G01X454570Y-606910D01*
G01X438150Y-550810D02*
Y-533340D01*
G02X440010Y-528850I6350J0D01*
G01X444500Y-524360D01*
G01X495100Y-524840D02*
G03X492670Y-524360I-2422J-5871D01*
G01X444500D01*
G01X438150Y-459810D02*
Y-477280D01*
G02X436290Y-481770I-6350J0D01*
G01X419100Y-498960D01*
G01X504850Y-473560D02*
X497930Y-479910D01*
G03X493440Y-481770I0J-6350D01*
G01X478110Y-497100D01*
G02X473620Y-498960I-4490J4490D01*
G01X419100D01*
G01X394100Y-155760D02*
X400610Y-156050D01*
G03X400890Y-156060I367J6337D01*
G01X406800D01*
G01X394100Y-181760D02*
X413720D01*
G03X418210Y-179900I0J6350D01*
G01X429350Y-168760D01*
G01X394100Y2390D02*
X414060D01*
G03X418620Y4320I1J6350D01*
G01X429350Y15390D01*
G01X394100Y28390D02*
X400610Y28100D01*
G03X400890Y28090I367J6337D01*
G01X406800D01*
G01X393700Y199840D02*
X400210Y199550D01*
G03X400490Y199540I367J6337D01*
G01X406400D01*
G01X393700Y173840D02*
X413720D01*
G03X418210Y175700I0J6350D01*
G01X429350Y186840D01*
G01X523850Y-1114910D02*
Y-1140310D01*
G01X504850Y-1064110D02*
X485230D01*
G02X480740Y-1062250I0J6350D01*
G01X479160Y-1060670D01*
G01X523850Y-1114910D02*
X556170D01*
G03X560660Y-1113050I0J6350D01*
G01X569640Y-1104070D01*
G02X574130Y-1102210I4490J-4490D01*
G01X695870D01*
G02X700360Y-1104070I0J-6350D01*
G01X705440Y-1109150D01*
G02X707300Y-1113640I-4490J-4490D01*
G01Y-1127610D01*
G01X523850Y-1089510D02*
Y-1064110D01*
G01X533400Y-1089510D02*
X695870D01*
G03X700360Y-1087650I0J6350D01*
G01X705440Y-1082570D01*
G03X707300Y-1078080I-4490J4490D01*
G01Y-1064110D01*
G01X523850Y-1089510D02*
X533400D01*
G01X628650Y-1004660D02*
X527050D01*
G01X523850Y-981560D02*
Y-990440D01*
G03X525450Y-994300I5450J-3D01*
G02X527050Y-998160I-3850J-3857D01*
G01Y-1004660D01*
G01Y-1034660D02*
X543120D01*
G02X547610Y-1036520I0J-6350D01*
G01X563290Y-1052200D01*
G02X565150Y-1056690I-4490J-4490D01*
G01Y-1058810D01*
G01X523850Y-956160D02*
X555620D01*
G02X560110Y-958020I0J-6350D01*
G01X563290Y-961200D01*
G02X565150Y-965690I-4490J-4490D01*
G01Y-967810D01*
G01X523850Y-860910D02*
X556170D01*
G03X560660Y-859050I0J6350D01*
G01X569640Y-850070D01*
G02X574130Y-848210I4490J-4490D01*
G01X695870D01*
G02X700360Y-850070I0J-6350D01*
G01X705440Y-855150D01*
G02X707300Y-859640I-4490J-4490D01*
G01Y-873610D01*
G01X523850Y-886310D02*
Y-860910D01*
G01Y-835510D02*
Y-810110D01*
G01Y-835510D02*
X695870D01*
G03X700360Y-833650I0J6350D01*
G01X705440Y-828570D01*
G03X707300Y-824080I-4490J4490D01*
G01Y-810110D01*
G01X527050Y-750660D02*
X628650D01*
G01X523850Y-727560D02*
Y-736440D01*
G03X525450Y-740300I5450J-3D01*
G02X527050Y-744160I-3850J-3857D01*
G01Y-750660D01*
G01X504850Y-810110D02*
X485230D01*
G02X480740Y-808250I0J6350D01*
G01X479160Y-806670D01*
G03X474670Y-804810I-4490J-4490D01*
G01X463550D01*
G01X527050Y-780660D02*
X543120D01*
G02X547610Y-782520I0J-6350D01*
G01X563290Y-798200D01*
G02X565150Y-802690I-4490J-4490D01*
G01Y-804810D01*
G01X523850Y-702160D02*
X555620D01*
G02X560110Y-704020I0J-6350D01*
G01X563290Y-707200D01*
G02X565150Y-711690I-4490J-4490D01*
G01Y-713810D01*
G01X463550Y-711690D02*
Y-713810D01*
G01X504850Y-702160D02*
X473080D01*
G03X468590Y-704020I0J-6350D01*
G01X465410Y-707200D01*
G03X463550Y-711690I4480J-4486D01*
G01X504850Y-606910D02*
G02X506440Y-603070I5430J1D01*
G01X512490Y-597020D01*
G03X514350Y-592530I-4490J4490D01*
G01Y-546040D01*
G01X523850Y-606910D02*
Y-632310D01*
G01Y-606910D02*
X556170D01*
G03X560660Y-605050I0J6350D01*
G01X569640Y-596070D01*
G02X574130Y-594210I4490J-4490D01*
G01X695870D01*
G02X700360Y-596070I0J-6350D01*
G01X705440Y-601150D01*
G02X707300Y-605640I-4490J-4490D01*
G01Y-619610D01*
G01X504850Y-556110D02*
X485230D01*
G02X480740Y-554250I0J6350D01*
G01X479160Y-552670D01*
G03X474670Y-550810I-4490J-4490D01*
G01X463550D01*
G01X514350Y-546040D02*
G03X512970Y-542710I-4700J3D01*
G01X495100Y-524840D01*
G01X523850Y-581510D02*
Y-556110D01*
G01X695870Y-581510D02*
X523850D01*
G01X527050Y-526660D02*
X542460Y-526190D01*
G02X547140Y-528050I187J-6348D01*
G01X565150Y-546060D01*
G01X463550Y-457690D02*
Y-459810D01*
G01X504850Y-448160D02*
X473080D01*
G03X468590Y-450020I0J-6350D01*
G01X465410Y-453200D01*
G03X463550Y-457690I4480J-4486D01*
G01X523850Y-448160D02*
X555620D01*
G02X560110Y-450020I0J-6350D01*
G01X563290Y-453200D01*
G02X565150Y-457690I-4490J-4490D01*
G01Y-459810D01*
G01X523850Y-473560D02*
Y-482440D01*
G03X525450Y-486300I5450J-3D01*
G02X527050Y-490160I-3850J-3857D01*
G01Y-496660D01*
G01D02*
X628650D01*
G01Y-1034660D02*
X612580D01*
G03X608090Y-1036520I0J-6350D01*
G01X592410Y-1052200D01*
G03X590550Y-1056690I4490J-4490D01*
G01Y-1058810D01*
G01X565150Y-967810D02*
X590550D01*
G01D02*
X612270D01*
G02X616760Y-969670I0J-6350D01*
G01X620440Y-973350D01*
G03X624930Y-975210I4490J4490D01*
G01X695870D01*
G03X700360Y-973350I0J6350D01*
G01X705440Y-968270D01*
G03X707300Y-963780I-4490J4490D01*
G01Y-949810D01*
G01X628650Y-780660D02*
X612580D01*
G03X608090Y-782520I0J-6350D01*
G01X592410Y-798200D01*
G03X590550Y-802690I4490J-4490D01*
G01Y-804810D01*
G01X565150Y-713810D02*
X590550D01*
G01D02*
X612270D01*
G02X616760Y-715670I0J-6350D01*
G01X620440Y-719350D01*
G03X624930Y-721210I4490J4490D01*
G01X695870D01*
G03X700360Y-719350I0J6350D01*
G01X705440Y-714270D01*
G03X707300Y-709780I-4490J4490D01*
G01Y-695810D01*
G01X590550Y-546060D02*
Y-550810D01*
G01X628650Y-526660D02*
X612580D01*
G03X608090Y-528520I0J-6350D01*
G01X590550Y-546060D01*
G01X565150D02*
Y-550810D01*
G01Y-459810D02*
X590550D01*
G01D02*
X612270D01*
G02X616760Y-461670I0J-6350D01*
G01X620440Y-465350D01*
G03X624930Y-467210I4490J4490D01*
G01X695870D01*
G03X700360Y-465350I0J6350D01*
G01X705440Y-460270D01*
G03X707300Y-455780I-4490J4490D01*
G01Y-441810D01*
G01X655780Y-987910D02*
X695870D01*
G02X700360Y-989770I0J-6350D01*
G01X705440Y-994850D01*
G02X707300Y-999340I-4490J-4490D01*
G01Y-1013310D01*
G01X655780Y-987910D02*
X651780D01*
G03X647290Y-989770I0J-6350D01*
G01X634260Y-1002800D01*
G02X629770Y-1004660I-4490J4490D01*
G01X628650D01*
G01X655780Y-733910D02*
X651780D01*
G03X647290Y-735770I0J-6350D01*
G01X634260Y-748800D01*
G02X629770Y-750660I-4490J4490D01*
G01X628650D01*
G01X655780Y-733910D02*
X695870D01*
G02X700360Y-735770I0J-6350D01*
G01X705440Y-740850D01*
G02X707300Y-745340I-4490J-4490D01*
G01Y-759310D01*
G01X655780Y-479910D02*
X651780D01*
G03X647290Y-481770I0J-6350D01*
G01X634260Y-494800D01*
G02X629770Y-496660I-4490J4490D01*
G01X628650D01*
G01X707300Y-505310D02*
Y-491340D01*
G03X705440Y-486850I-6350J0D01*
G01X700360Y-481770D01*
G03X695870Y-479910I-4490J-4490D01*
G01X655780D01*
G01X695870Y-581510D02*
G03X700360Y-579650I0J6350D01*
G01X705440Y-574570D01*
G03X707300Y-570080I-4490J4490D01*
G01Y-556110D01*
G54D26*
X394100Y-155760D03*
Y-181760D03*
Y2390D03*
Y28390D03*
X393700Y199840D03*
Y173840D03*
G54D17*
X127000Y-685800D03*
X381000Y400050D03*
G54D36*
G01X-50800Y293760D02*
Y304800D01*
G01D02*
Y315840D01*
G01X-61840Y304800D02*
X-50800D01*
G01D02*
X-39760D01*
G01X0Y293760D02*
Y304800D01*
G01D02*
Y315840D01*
G01X-11040Y304800D02*
X0D01*
G01D02*
X11040D01*
G01X-50800Y635000D02*
X-38730Y622930D01*
G01X-12070D02*
X0Y635000D01*
G01X-50800D02*
X-37260D01*
G01X-50800D02*
X-38730Y647070D01*
G01X-13540Y635000D02*
X0D01*
G01D02*
X13540D01*
G01X72300Y297610D02*
Y311150D01*
G01X58760D02*
X72300D01*
G01X78650Y631660D02*
Y647700D01*
G01D02*
Y663740D01*
G01X62610Y647700D02*
X78650D01*
G01D02*
X94690D01*
G01X127000Y-697090D02*
Y-685800D01*
G01D02*
Y-674510D01*
G01X115710Y-685800D02*
X127000D01*
G01D02*
X138290D01*
G01X101600Y-696840D02*
Y-685800D01*
G01D02*
Y-674760D01*
G01X90560Y-685800D02*
X101600D01*
G01D02*
X112640D01*
G01X200400Y-1119000D02*
Y-1102210D01*
G01D02*
Y-1085420D01*
G01X191610Y-1102210D02*
X200400D01*
G01D02*
X209190D01*
G01X213750Y-1083440D02*
Y-1073150D01*
G01D02*
Y-1062860D01*
G01X204960Y-1073150D02*
X213750D01*
G01X194110Y-1029160D02*
X202900D01*
G01X220100Y-981560D02*
Y-971270D01*
G01X211310Y-981560D02*
X220100D01*
G01X206350Y-918340D02*
Y-908050D01*
G01D02*
Y-897760D01*
G01Y-908050D02*
X214390D01*
G01X220100Y-966450D02*
Y-956160D01*
G01D02*
Y-945870D01*
G01X211310Y-956160D02*
X220100D01*
G01X200400Y-852300D02*
Y-835510D01*
G01D02*
Y-818720D01*
G01X191610Y-835510D02*
X200400D01*
G01D02*
X209190D01*
G01X202900Y-781450D02*
Y-775160D01*
G01X194110D02*
X202900D01*
G01D02*
X211690D01*
G01X213750Y-814050D02*
Y-803760D01*
G01D02*
Y-793470D01*
G01X204960Y-803760D02*
X213750D01*
G01X220100Y-712450D02*
Y-702160D01*
G01D02*
Y-691870D01*
G01X211310Y-702160D02*
X220100D01*
G01Y-727560D02*
Y-717270D01*
G01X211310Y-727560D02*
X220100D01*
G01X200400Y-598300D02*
Y-581510D01*
G01X202900Y-527450D02*
Y-521160D01*
G01X194110D02*
X202900D01*
G01D02*
X211690D01*
G01X200400Y-581510D02*
Y-564720D01*
G01X191610Y-581510D02*
X200400D01*
G01D02*
X209190D01*
G01X213750Y-560050D02*
Y-549760D01*
G01D02*
Y-539470D01*
G01X204960Y-549760D02*
X213750D01*
G01X220100Y-458450D02*
Y-448160D01*
G01D02*
Y-437870D01*
G01X211310Y-448160D02*
X220100D01*
G01Y-473560D02*
Y-463270D01*
G01X211310Y-473560D02*
X220100D01*
G01X252410Y-1070460D02*
X266700D01*
G01Y-1089450D02*
Y-1083160D01*
G01X252410D02*
X266700D01*
G01X249800Y-941050D02*
Y-930760D01*
G01D02*
Y-920470D01*
G01Y-930760D02*
X258590D01*
G01X266700Y-835450D02*
Y-829160D01*
G01X252410D02*
X266700D01*
G01X252410Y-791060D02*
X266700D01*
G01X252410Y-816460D02*
X266700D01*
G01X249800Y-687050D02*
Y-676760D01*
G01D02*
Y-666470D01*
G01Y-676760D02*
X258590D01*
G01X252410Y-537060D02*
X266700D01*
G01X252410Y-562460D02*
X266700D01*
G01Y-581450D02*
Y-575160D01*
G01X252410D02*
X266700D01*
G01X249800Y-433050D02*
Y-422760D01*
G01D02*
Y-412470D01*
G01Y-422760D02*
X258590D01*
G01X303950Y-156060D02*
Y-147020D01*
G01X290410Y-156060D02*
X303950D01*
G01X287800Y-213300D02*
Y-200510D01*
G01D02*
Y-187720D01*
G01X276510Y-200510D02*
X287800D01*
G01Y-29150D02*
Y-16360D01*
G01D02*
Y-3570D01*
G01X276510Y-16360D02*
X287800D01*
G01X303950Y28090D02*
Y37130D01*
G01X290410Y28090D02*
X303950D01*
G01X287800Y142300D02*
Y155090D01*
G01D02*
Y167880D01*
G01X276510Y155090D02*
X287800D01*
G01X303550Y199540D02*
Y208580D01*
G01X290010Y199540D02*
X303550D01*
G01X371850Y-1131700D02*
Y-1114910D01*
G01D02*
Y-1098120D01*
G01X363060Y-1114910D02*
X371850D01*
G01X376410Y-1083160D02*
X385200D01*
G01X358700Y-1089450D02*
Y-1083160D01*
G01D02*
X372990D01*
G01X358700Y-1019660D02*
X372990D01*
G01X358700Y-1045060D02*
X372990D01*
G01X376410Y-968860D02*
X385200D01*
G01X372500Y-953750D02*
Y-943460D01*
G01D02*
Y-933170D01*
G01X363710Y-943460D02*
X372500D01*
G01X358700Y-968860D02*
Y-962570D01*
G01Y-968860D02*
X372990D01*
G01X371850Y-877700D02*
Y-860910D01*
G01D02*
Y-844120D01*
G01X363060Y-860910D02*
X371850D01*
G01X376410Y-829160D02*
X385200D01*
G01X358700Y-835450D02*
Y-829160D01*
G01D02*
X372990D01*
G01X358700Y-765660D02*
X372990D01*
G01X358700Y-791060D02*
X372990D01*
G01X372500Y-699750D02*
Y-689460D01*
G01D02*
Y-679170D01*
G01X363710Y-689460D02*
X372500D01*
G01X376410Y-714860D02*
X385200D01*
G01X358700D02*
Y-708570D01*
G01Y-714860D02*
X372990D01*
G01X371850Y-623700D02*
Y-606910D01*
G01D02*
Y-590120D01*
G01X363060Y-606910D02*
X371850D01*
G01X376410Y-575160D02*
X385200D01*
G01X358700Y-537060D02*
X372990D01*
G01X358700Y-581450D02*
Y-575160D01*
G01D02*
X372990D01*
G01X372500Y-445750D02*
Y-435460D01*
G01X376410Y-460860D02*
X385200D01*
G01X358700D02*
Y-454570D01*
G01Y-460860D02*
X372990D01*
G01X358700Y-511660D02*
X372990D01*
G01X372500Y-435460D02*
Y-425170D01*
G01X363710Y-435460D02*
X372500D01*
G01X381000Y386260D02*
Y400050D01*
G01X355600Y386510D02*
Y400050D01*
G01X381000D02*
Y413840D01*
G01Y400050D02*
X394790D01*
G01X355600D02*
Y413590D01*
G01X342060Y400050D02*
X355600D01*
G01X356810Y527050D02*
X372600D01*
G01D02*
X388390D01*
G01X356810Y501650D02*
X372600D01*
G01D02*
X388390D01*
G01X372600Y480160D02*
Y488950D01*
G01X356810D02*
X372600D01*
G01D02*
X388390D01*
G01X356810Y577850D02*
X372600D01*
G01D02*
X388390D01*
G01X356810Y552450D02*
X372600D01*
G01D02*
X388390D01*
G01X385200Y-1093450D02*
Y-1083160D01*
G01Y-968860D02*
Y-958570D01*
G01Y-839450D02*
Y-829160D01*
G01Y-714860D02*
Y-704570D01*
G01Y-585450D02*
Y-575160D01*
G01Y-460860D02*
Y-450570D01*
G01X427250Y-243950D02*
Y-225910D01*
G01X417210D02*
X427250D01*
G01D02*
X437290D01*
G01X427250Y-59800D02*
Y-41760D01*
G01X417210D02*
X427250D01*
G01D02*
X437290D01*
G01X426850Y111650D02*
Y129690D01*
G01X416810D02*
X426850D01*
G01D02*
X436890D01*
G01X448700Y298360D02*
Y311150D01*
G01D02*
Y323940D01*
G01X437410Y311150D02*
X448700D01*
G01Y622210D02*
Y635000D01*
G01D02*
Y647790D01*
G01X437410Y635000D02*
X448700D01*
G01X504850Y-1140310D02*
Y-1130020D01*
G01X496810Y-1140310D02*
X504850D01*
G01D02*
X512890D01*
G01X504850Y-886310D02*
Y-876020D01*
G01X496810Y-886310D02*
X504850D01*
G01D02*
X512890D01*
G01X504850Y-632310D02*
Y-622020D01*
G01X496810Y-632310D02*
X504850D01*
G01D02*
X512890D01*
G01X465210Y-225910D02*
X475250D01*
G01D02*
X485290D01*
G01X472350Y-168760D02*
Y-153970D01*
G01Y-168760D02*
X487140D01*
G01X465210Y-41760D02*
X475250D01*
G01D02*
X485290D01*
G01X472350Y15390D02*
Y30180D01*
G01Y15390D02*
X487140D01*
G01X464810Y129690D02*
X474850D01*
G01D02*
X484890D01*
G01X472350Y186840D02*
Y201630D01*
G01Y186840D02*
X487140D01*
G01X559200Y-166310D02*
Y-151520D01*
G01X544410Y-166310D02*
X559200D01*
G01D02*
X573990D01*
G01X559200Y17840D02*
Y32630D01*
G01X544410Y17840D02*
X559200D01*
G01D02*
X573990D01*
G01X558800Y189290D02*
Y204080D01*
G01X544010Y189290D02*
X558800D01*
G01D02*
X573590D01*
G01X664300Y-1141150D02*
Y-1127610D01*
G01Y-1077650D02*
Y-1064110D01*
G01D02*
Y-1050570D01*
G01X650760Y-1064110D02*
X664300D01*
G01D02*
X677840D01*
G01X664300Y-1127610D02*
Y-1114070D01*
G01X650760Y-1127610D02*
X664300D01*
G01D02*
X677840D01*
G01X664300Y-1026850D02*
Y-1013310D01*
G01D02*
Y-999770D01*
G01X650760Y-1013310D02*
X664300D01*
G01D02*
X677840D01*
G01X664300Y-963350D02*
Y-949810D01*
G01D02*
Y-936270D01*
G01X650760Y-949810D02*
X664300D01*
G01D02*
X677840D01*
G01X664300Y-887150D02*
Y-873610D01*
G01D02*
Y-860070D01*
G01X650760Y-873610D02*
X664300D01*
G01D02*
X677840D01*
G01X664300Y-772850D02*
Y-759310D01*
G01D02*
Y-745770D01*
G01X650760Y-759310D02*
X664300D01*
G01D02*
X677840D01*
G01X664300Y-823650D02*
Y-810110D01*
G01D02*
Y-796570D01*
G01X650760Y-810110D02*
X664300D01*
G01D02*
X677840D01*
G01X664300Y-709350D02*
Y-695810D01*
G01D02*
Y-682270D01*
G01X650760Y-695810D02*
X664300D01*
G01D02*
X677840D01*
G01X664300Y-633150D02*
Y-619610D01*
G01D02*
Y-606070D01*
G01X650760Y-619610D02*
X664300D01*
G01D02*
X677840D01*
G01X664300Y-569650D02*
Y-556110D01*
G01D02*
Y-542570D01*
G01X650760Y-556110D02*
X664300D01*
G01D02*
X677840D01*
G01X664300Y-455350D02*
Y-441810D01*
G01Y-518850D02*
Y-505310D01*
G01D02*
Y-491770D01*
G01X650760Y-505310D02*
X664300D01*
G01D02*
X677840D01*
G01X664300Y-441810D02*
Y-428270D01*
G01X650760Y-441810D02*
X664300D01*
G01D02*
X677840D01*
G01X681110Y-168760D02*
X691150D01*
G01X643150Y-186800D02*
Y-168760D01*
G01X633110D02*
X643150D01*
G01D02*
X653190D01*
G01X643150Y-2650D02*
Y15390D01*
G01X681110D02*
X691150D01*
G01X633110D02*
X643150D01*
G01D02*
X653190D01*
G01X680710Y186840D02*
X690750D01*
G01X642750Y168800D02*
Y186840D01*
G01X632710D02*
X642750D01*
G01D02*
X652790D01*
G01X691150Y-186800D02*
Y-168760D01*
G01D02*
X701190D01*
G01X691150Y-2650D02*
Y15390D01*
G01D02*
X701190D01*
G01X690750Y168800D02*
Y186840D01*
G01D02*
X700790D01*
G01X806450Y-1054500D02*
Y-1038710D01*
G01D02*
Y-1022920D01*
G01X790660Y-1038710D02*
X806450D01*
G01D02*
X822240D01*
G01X806450Y-800500D02*
Y-784710D01*
G01D02*
Y-768920D01*
G01X790660Y-784710D02*
X806450D01*
G01D02*
X822240D01*
G01X806450Y-546500D02*
Y-530710D01*
G01D02*
Y-514920D01*
G01X790660Y-530710D02*
X806450D01*
G01D02*
X822240D01*
G54D27*
X527050Y-1034660D03*
Y-1004660D03*
Y-780660D03*
Y-750660D03*
Y-526660D03*
Y-496660D03*
X628650Y-1034660D03*
Y-1004660D03*
Y-780660D03*
Y-750660D03*
Y-526660D03*
Y-496660D03*
G54D18*
X213750Y-1073150D03*
X230750D03*
X220100Y-981560D03*
Y-956160D03*
X232800Y-930760D03*
X213750Y-803760D03*
X230750D03*
X220100Y-727560D03*
X232800Y-676760D03*
X220100Y-702160D03*
X213750Y-549760D03*
X230750D03*
X220100Y-473560D03*
Y-448160D03*
X232800Y-422760D03*
X237100Y-981560D03*
Y-956160D03*
X249800Y-930760D03*
X237100Y-727560D03*
X249800Y-676760D03*
X237100Y-702160D03*
Y-473560D03*
Y-448160D03*
X249800Y-422760D03*
X287800Y-200510D03*
X304800D03*
X287800Y-16360D03*
X304800D03*
X287800Y155090D03*
X304800D03*
X385200Y-1083160D03*
X372500Y-943460D03*
X385200Y-968860D03*
Y-829160D03*
Y-714860D03*
X372500Y-689460D03*
X385200Y-575160D03*
Y-460860D03*
X372500Y-435460D03*
X402200Y-1083160D03*
X389500Y-943460D03*
X402200Y-968860D03*
Y-829160D03*
Y-714860D03*
X389500Y-689460D03*
X402200Y-575160D03*
Y-460860D03*
X389500Y-435460D03*
X448700Y311150D03*
Y635000D03*
X465700Y311150D03*
Y635000D03*
G54D19*
X200400Y-1102210D03*
X231400D03*
X200400Y-835510D03*
X231400D03*
X200400Y-581510D03*
X231400D03*
X371850Y-1114910D03*
Y-860910D03*
Y-606910D03*
X402850Y-1114910D03*
Y-860910D03*
Y-606910D03*
X427250Y-225910D03*
Y-41760D03*
X426850Y129690D03*
X475250Y-225910D03*
Y-41760D03*
X474850Y129690D03*
X691150Y-168760D03*
X643150D03*
X691150Y15390D03*
X643150D03*
X690750Y186840D03*
X642750D03*
G54D28*
X476250Y-257660D03*
Y-73510D03*
X475850Y97940D03*
X692150Y-200510D03*
Y-16360D03*
X691750Y155090D03*
G54D29*
X762800Y-1127610D03*
X735800D03*
X762800Y-1064110D03*
X735800D03*
X762800Y-1013310D03*
X735800D03*
X762800Y-949810D03*
X735800D03*
X762800Y-873610D03*
X735800D03*
X762800Y-810110D03*
X735800D03*
X762800Y-759310D03*
X735800D03*
X762800Y-695810D03*
X735800D03*
X762800Y-619610D03*
X735800D03*
X762800Y-556110D03*
X735800D03*
X762800Y-505310D03*
X735800D03*
X762800Y-441810D03*
X735800D03*
M02*
